<?xml version="1.0" encoding="utf-8" ?>
<svg xmlns="http://www.w3.org/2000/svg" xmlns:xlink="http://www.w3.org/1999/xlink" width="1024" height="1024">
	<path fill="white" d="M0 0L1024 0L1024 1024L0 1024L0 0Z"/>
	<path fill="#FED4CA" d="M237.117 155.818C240.356 154.195 297.461 156.104 307.441 155.156C315.874 154.355 324.932 146.472 333.168 143.434C363.576 132.217 407.691 132.846 438.487 143.07C465.599 152.071 487.479 167.107 509.451 184.882C514.509 188.974 520.376 193.001 524.921 197.625C533.867 203.971 542.304 211.092 550.752 218.079C554.544 221.215 559.158 224.398 562.322 228.132L558.301 228.09C548.558 220.828 539.318 213.01 529.462 205.857C527.758 208.195 526.198 210.294 523.977 212.178L523.656 212.069C524.942 209.153 526.944 206.796 528.905 204.315L526.371 202.181C519.3 197.542 512.78 191.809 506.187 186.524C495.813 178.207 485.28 170.157 474.007 163.077C440.441 141.996 390.042 133.035 351.242 141.978C346.137 143.155 324.131 149.522 321.417 153.851L322.116 155.616C306.415 156.376 290.507 155.857 274.785 155.863C262.325 155.868 249.543 156.484 237.117 155.818Z"/>
	<path fill="#FEEEEB" d="M322.116 155.616L321.417 153.851C324.131 149.522 346.137 143.155 351.242 141.978C390.042 133.035 440.441 141.996 474.007 163.077C485.28 170.157 495.813 178.207 506.187 186.524C512.78 191.809 519.3 197.542 526.371 202.181L528.905 204.315C526.944 206.796 524.942 209.153 523.656 212.069L523.977 212.178C526.198 210.294 527.758 208.195 529.462 205.857C539.318 213.01 548.558 220.828 558.301 228.09C530.415 228.858 502.372 228.323 474.472 228.202L373.835 228.474C373.888 224.011 373.873 219.542 374.283 215.094C369.453 206.513 358.615 195.049 352.006 186.83L336.145 167.074C333.406 163.694 330.652 159.827 327.498 156.826C325.97 155.372 324.085 155.619 322.116 155.616Z"/>
	<path d="M322.116 155.616C324.085 155.619 325.97 155.372 327.498 156.826C330.652 159.827 333.406 163.694 336.145 167.074L352.006 186.83C358.615 195.049 369.453 206.513 374.283 215.094C373.873 219.542 373.888 224.011 373.835 228.474L474.472 228.202C502.372 228.323 530.415 228.858 558.301 228.09L562.322 228.132L784.051 228.161C815.077 228.225 846.193 227.635 877.208 228.251C877.92 264.139 877.226 300.123 877.41 336.025C877.44 341.841 876.468 359.961 877.633 364.188C877.691 364.398 878.291 365.113 878.366 365.191C878.781 365.62 879.5 366.041 879.974 366.371C884.258 368.624 888.321 371.396 892.439 373.94C904.88 381.626 916.672 389.675 928.641 398.056C932.839 400.997 937.394 403.525 941.527 406.492Q963.087 421.829 982.969 439.287C987.894 443.598 992.828 447.451 997.245 452.359C1004.97 460.944 1011.8 471.606 1015.19 482.683C1021.98 504.868 1016.39 527.534 1005.64 547.44C993.705 569.54 966.54 600.679 974.256 626.576C976.852 635.29 981.689 643.348 986.176 651.201C1001.36 677.779 1015.59 698.182 1015.69 730.223C1015.74 745.67 1012.88 758.856 1005.65 772.517Q1003.12 777.311 1000.26 781.914Q997.403 786.517 994.225 790.907Q991.047 795.297 987.567 799.451Q984.088 803.606 980.323 807.504C975.173 812.758 969.536 817.519 964.471 822.857C963.732 861.484 964.456 900.259 964.494 938.901C970.843 938.949 977.848 938.159 984.103 939.08C985.343 939.263 986.13 939.361 986.913 940.39C984.332 942.585 974.051 941.518 970.459 941.485L291.203 941.209L101.922 941.384C72.2203 941.404 42.4157 942.057 12.7299 941.542C11.2982 941.517 10.3145 941.779 9.31576 940.722L9.42867 939.698C13.5297 937.941 34.7354 938.91 40.9026 938.878Q44.8536 895.772 50.9736 852.919C58.0921 802.944 65.783 759.828 97.0639 718.559C104.935 708.175 113.1 698.641 122.782 689.885C120.831 687.644 117.108 685.962 114.586 684.253C106.544 678.803 100.019 670.698 95.3961 662.232C91.1522 654.461 88.6846 646.163 87.3406 637.431C83.5792 612.996 90.1837 593.232 90.988 569.531Q91.2495 562.071 90.9429 554.612Q90.6363 547.154 89.7634 539.74Q88.8904 532.326 87.4561 525Q86.0218 517.674 84.0345 510.479C82.8003 505.871 81.3129 496.284 78.7141 492.769C77.279 492.387 77.056 492.803 75.792 493.5L75.3434 492.995C74.8423 487.38 75.7552 481.748 75.299 476.153C74.9408 471.76 70.7117 458.102 69.166 453.647C67.6267 449.211 60.9751 438.729 61.3708 434.664L62.0162 434.78C63.4086 436.639 64.8775 439.343 65.3552 441.63C65.6443 443.015 65.1992 441.629 65.7856 443.213C66.5886 441.888 66.9683 440.046 67.1404 438.503C67.4374 435.842 67.2845 433.05 67.4493 430.361C67.9494 422.196 68.5535 414.144 70.0963 406.093C72.8515 391.713 77.5404 377.586 86.0783 365.588C87.6486 363.381 89.1021 361.04 91.3671 359.496C91.696 336.656 91.404 313.77 91.4057 290.926L91.5106 155.763C107.679 155.274 124.036 155.812 140.219 155.829L237.117 155.818C249.543 156.484 262.325 155.868 274.785 155.863C290.507 155.857 306.415 156.376 322.116 155.616Z"/>
	<path fill="white" d="M624.645 528.429C627.151 528.82 629.702 529.441 631.535 531.31C632.989 532.794 633.565 534.54 633.513 536.599C633.268 546.265 621.464 556.813 614.803 562.941C614.172 563.5 613.741 563.7 612.98 564.032C610.763 563.823 609.147 562.645 607.287 561.518C612.805 550.439 618.691 539.287 624.645 528.429Z"/>
	<path fill="white" d="M641.611 565.415C642.52 565.426 643.414 565.421 644.305 565.627C646.128 566.048 648.355 567.153 649.143 568.948C649.999 570.898 649.215 573.236 648.302 575.015C644.874 581.691 632.178 593.326 625.116 595.569C622.83 595.401 619.731 595.182 618.158 593.25C617.425 592.35 617.195 591.315 617.347 590.178C618.191 583.837 636.187 569.706 641.611 565.415Z"/>
	<path fill="white" d="M631.824 551.609C633.358 551.467 635.483 551.107 636.972 551.64C638.574 552.214 640.322 553.986 640.991 555.565C641.535 556.848 641.383 558.292 640.955 559.579C639.015 565.407 624.161 577.789 618.582 580.759C616.489 581.035 614.159 581.533 612.13 580.748C610.892 580.269 609.904 579.485 609.464 578.181C608.868 576.419 609.615 574.17 610.443 572.593C612.73 568.233 627.373 552.961 631.824 551.609Z"/>
	<path fill="white" d="M652.742 574.36C654.092 577.086 654.662 580.329 654.793 583.346C655.098 590.345 652.272 597.034 647.443 602.049C640.951 608.792 632.262 610.838 623.243 610.957C622.24 610.077 621.731 609.421 621.138 608.224C621.119 606.729 621.565 605.931 622.49 604.813C625.227 601.505 628.79 598.745 632.02 595.929C639.582 589.334 647.063 582.708 652.742 574.36Z"/>
	<path fill="#78A1E3" d="M916.811 735.757C931.757 735.557 946.907 735.297 961.841 735.823C962.2 742.304 961.966 748.917 961.984 755.414L946.19 755.405L901.526 755.246C901.539 748.845 901.525 742.453 901.839 736.058C906.812 735.78 911.83 735.831 916.811 735.757Z"/>
	<path fill="#78A1E3" d="M749.057 778.736C767.889 778.672 786.994 778.01 805.792 778.83Q806.148 836.678 805.866 894.526L805.906 923.447C805.922 928.335 806.487 934.093 805.614 938.86C805.152 933.768 805.442 928.466 805.437 923.342L805.438 894.081L805.544 799.653C786.743 799.105 767.804 799.504 748.987 799.5L749.057 778.736Z"/>
	<path fill="white" d="M327.348 161.208C332.815 166.114 340.555 177.107 345.457 183.189C353.364 192.996 364.614 205.409 371.154 215.684C371.377 219.94 371.186 224.225 371.095 228.485L327.003 228.631L327.348 161.208Z"/>
	<path fill="#F6AFA4" d="M820.815 747.853C839.97 747.59 859.403 747.215 878.541 747.844L878.562 780.017C859.375 779.673 840.133 779.976 820.941 779.977L820.815 747.853Z"/>
	<path fill="white" d="M213.574 245.249C229.467 244.559 245.622 245.09 261.546 245.068C261.562 259.36 262.466 274.29 261.37 288.519L213.263 288.491C213.097 280.203 213.167 271.892 213.142 263.601C213.123 257.606 212.722 251.186 213.574 245.249Z"/>
	<path fill="#FEEEEB" d="M402.148 710.123C435.196 709.475 468.349 710.008 501.409 709.995C497.942 717.855 494.3 725.068 489.1 731.928C484.27 737.606 478.558 741.727 471.026 742.972C449.475 746.533 418.854 722.282 402.148 710.123Z"/>
	<path fill="white" d="M213.361 290.13C229.395 289.924 245.453 290.101 261.49 290.098C261.528 305.001 262.195 320.211 261.402 335.084L213.353 335.07Q213.049 312.6 213.361 290.13Z"/>
	<path fill="white" d="M201.342 245.252L211.424 245.267L211.368 288.445C194.718 288.179 178.029 288.445 161.375 288.476C160.31 288.434 160.223 288.603 159.354 287.896C157.836 282.075 158.95 270.689 159.011 264.39C161.063 264.224 163.201 264.296 164.944 263.091L164.838 262.388C162.964 261.258 161.109 261.289 158.985 261.152L159.024 245.342C173.097 244.953 187.259 245.262 201.342 245.252Z"/>
	<path fill="white" d="M158.889 290.076C176.358 289.718 193.894 290.038 211.37 290.044C211.609 305.019 211.441 320.024 211.469 335.003L158.77 335.049C158.859 320.058 158.643 305.066 158.889 290.076Z"/>
	<path fill="#F6AFA4" d="M349.634 674.991C358.91 675.8 368.32 675.56 377.628 675.561L417.87 675.515C451.714 675.474 485.687 676.12 519.517 675.45C513.844 685.863 509.023 696.753 503.088 707.014C478.775 707.779 454.267 707.216 429.936 707.214C419.777 707.212 408.884 706.416 398.812 707.541C383.301 695.512 366.363 685.222 349.634 674.991Z"/>
	<path fill="white" d="M748.987 799.5C767.804 799.504 786.743 799.105 805.544 799.653L805.438 894.081L805.437 923.342C805.442 928.466 805.152 933.768 805.614 938.86L749.193 938.765L748.987 799.5Z"/>
	<path fill="white" d="M820.941 779.977C840.133 779.976 859.375 779.673 878.562 780.017L878.499 938.569C859.466 939.347 840.36 939.094 821.315 939.045C820.454 918.906 821.069 898.478 821.119 878.311Q821.395 829.143 820.941 779.977Z"/>
	<path fill="#78A1E3" d="M901.717 782.495C908.916 782.05 916.293 782.294 923.511 782.295L961.841 782.336L961.939 883C961.936 901.476 962.228 919.998 961.792 938.468L901.432 938.382L901.439 836.344C901.429 818.555 900.492 800.21 901.717 782.495Z"/>
	<path fill="#F6AFA4" d="M290.244 409.623C293.746 409.267 297.547 409.489 300.986 410.266Q301.669 410.415 302.343 410.598Q303.017 410.782 303.681 410.999Q304.345 411.216 304.997 411.467Q305.649 411.718 306.288 412.001Q306.926 412.285 307.549 412.6Q308.173 412.915 308.779 413.262Q309.386 413.609 309.974 413.986Q310.562 414.363 311.131 414.769Q311.699 415.175 312.246 415.61Q312.793 416.044 313.317 416.506Q313.842 416.968 314.342 417.456Q314.842 417.944 315.317 418.456Q315.792 418.969 316.24 419.504Q316.688 420.04 317.109 420.598Q317.529 421.156 317.921 421.735Q318.312 422.313 318.674 422.911C322.989 430.018 323.987 438.557 322.012 446.576C318.896 459.227 310.259 465.418 299.726 471.844C296.306 466.273 292.824 461.083 291.255 454.659C287.112 453.374 283.35 452.488 278.996 452.421C272.143 452.315 246.961 458.938 242.246 464.036C241.614 464.718 241.803 464.405 241.828 465.439C243.189 466.069 244.591 464.986 246.166 465.196C249.363 469.652 252.012 474.448 253.334 479.81C257.228 495.609 249.53 512.287 241.632 525.547C229.819 525.486 232.301 520.874 223.621 517.015C218.289 514.645 211.701 513.902 206.262 516.305Q205.566 516.609 204.905 516.984Q204.244 517.359 203.626 517.801Q203.009 518.244 202.441 518.749Q201.873 519.254 201.362 519.816Q200.851 520.377 200.401 520.99Q199.951 521.602 199.569 522.259Q199.186 522.915 198.875 523.608Q198.563 524.301 198.326 525.023C196.556 530.288 197.782 534.367 200.157 539.083C204.494 545.948 210.995 550.829 217.292 555.777Q215.384 563.453 213.234 571.065Q207.574 565.291 202.342 559.126C190.074 544.399 175.252 520.372 170.837 501.861Q170.289 499.495 169.937 497.093Q169.585 494.69 169.431 492.267Q169.278 489.843 169.325 487.416Q169.372 484.988 169.618 482.572C171.086 467.118 179.362 453.017 191.229 443.211C202.803 433.648 218.009 427.903 233.047 427.885C239.219 427.878 245.491 428.775 251.638 429.367C254.969 427.893 257.906 425.585 260.896 423.528C270.374 417.006 278.707 411.639 290.244 409.623Z"/>
	<path fill="white" d="M273.786 455.653C277.294 455.258 284.729 454.509 287.669 456.792C290.176 458.739 293.574 466.483 295.249 469.465C300.338 478.524 305.396 487.666 309.425 497.26C318.1 517.916 322.716 540.945 326.261 562.964C327.52 570.781 330.312 579.687 325.119 586.563C315.329 599.524 295.008 601.163 280.382 604.147C278.989 604.431 278.481 604.643 277.68 605.808L277.965 606.84C278.094 606.896 278.216 606.972 278.351 607.01C281.17 607.817 301.189 602.775 304.588 601.704C308.359 600.514 312.02 598.945 315.667 597.423C305.51 605.907 285.029 606.838 272.184 607.671C271.576 608.641 271.61 608.586 271.824 609.715C274.553 611.374 285.864 609.299 289.4 608.767C290.643 615.461 290.957 622.543 291.723 629.324C292.572 636.839 294.698 646.214 294.088 653.588C293.6 659.479 290.891 665.724 289.24 671.413C286.106 682.209 283.202 693.089 279.765 703.793C277.404 704.123 267.968 695.651 265.714 693.926C243.509 676.927 220.967 660.142 197.206 645.368Q203.947 620.66 209.898 595.749C211.57 588.914 217.233 562.09 220.047 557.512C221.052 557.347 221.861 557.151 222.795 556.744L223.153 555.525C218.202 552.423 213.192 549.297 208.936 545.26C204.855 541.391 200.26 535.839 200.315 529.938C200.347 526.533 202.087 522.573 204.674 520.341C207.441 517.953 211.277 517.378 214.815 517.667C221.956 518.249 227.236 522.148 231.769 527.357C235.535 527.581 239.018 528.162 242.711 528.929C247.729 522.298 251.946 513.415 254.279 505.425C259.492 487.571 257.467 479.445 248.928 463.68C256.961 459.751 264.953 457.054 273.786 455.653Z"/>
	<path d="M275.133 514.353C276.098 514.422 277.174 514.401 277.912 515.133C279.736 516.943 279.739 519.708 279.677 522.1C279.07 522.211 278.461 522.205 277.845 522.228C275.761 520.179 275.609 517.097 275.133 514.353Z"/>
	<path d="M282.82 484.965C283.658 484.962 283.998 485.146 284.749 485.482L285.026 486.281C283.552 489.023 274.928 492.139 271.974 493.577C270.897 493.546 270.827 493.491 269.954 492.85L270.235 492C273.699 488.769 278.56 486.889 282.82 484.965Z"/>
	<path d="M278.303 558.139C280.112 558.694 281.679 559.976 283.393 560.767C288.921 563.318 292.619 562.043 298.217 561.233L298.871 561.768L298.616 563.154C296.176 564.381 293.739 565.014 291.005 565.039C287.273 565.073 280.715 564.609 278.302 561.402C277.394 560.195 277.925 559.438 278.303 558.139Z"/>
	<path d="M296.865 507.284L298.442 507.774C301.211 511.02 308.651 535.039 308.672 539.588C307.556 542.159 305.125 543.373 302.762 544.63C302.541 544.451 302.294 544.301 302.099 544.094C301.273 543.215 301.206 542.872 301.384 541.785C302.869 540.793 304.512 539.86 305.082 538.051C307.202 531.313 295.055 514.663 296.865 507.284Z"/>
	<path fill="white" d="M598.014 533.441C598.924 533.503 599.658 533.537 600.431 534.087C601.505 534.852 601.936 535.966 602.071 537.227C602.981 545.719 585.033 570.689 579.257 577.822C582.139 583.081 580.681 591.489 583.776 595.044C584.33 595.68 584.813 595.543 585.594 595.642C592.373 592.88 602.284 570.287 606.346 563.303C608.028 564.575 609.772 565.563 611.615 566.575C609.652 569.274 607.324 572.59 606.857 575.958C606.628 577.611 606.915 579.181 607.992 580.497C610.282 583.296 614.077 583.457 617.389 583.848C616.152 585.64 614.746 587.356 614.468 589.585C614.237 591.445 614.607 593.225 615.855 594.662C618.408 597.602 622.137 597.8 625.723 598.044C624.057 599.244 622.24 600.756 620.91 602.338C619.559 603.947 618.287 606.519 618.77 608.684C619.119 610.249 619.962 611.428 621.297 612.29C625.283 614.864 630.103 613.452 634.351 612.504C631.82 616.786 629.235 621.08 626.39 625.163C623.058 629.943 619.423 634.296 616.813 639.545C608.61 656.045 602.169 673.554 595.06 690.541C586.785 710.312 577.948 729.854 569.451 749.526C559.611 772.307 549.755 795.079 535.494 815.51C519.642 836.72 496.627 850.427 470.625 854.968C470.155 840.947 470.515 826.805 470.558 812.768L470.53 746.15C472.122 745.78 473.726 745.414 475.284 744.92C481.545 742.936 486.913 738.947 491.004 733.847C497.26 726.051 501.469 716.732 505.975 707.872L520.003 680.477C530.429 660.351 541.649 640.643 551.894 620.424C546.917 607.826 548.056 595.997 553.103 583.558C560.34 565.725 579.829 541.035 598.014 533.441Z"/>
	<path fill="white" d="M96.6014 158.252L239.578 158.081L293.302 158.098C303.696 158.13 314.156 157.948 324.538 158.44C325.424 181.714 324.648 205.267 324.588 228.57Q296.296 228.657 268.005 228.338C268.228 223.841 267.602 219.309 268.196 214.846C268.481 214.735 268.76 214.607 269.05 214.513C269.369 214.409 269.698 214.338 270.021 214.251C269.7 212.588 268.097 211.176 266.988 209.927C265.543 210.96 263.033 212.303 262.564 213.998L263.24 214.535C264.321 214.488 265.206 214.384 266.243 214.751C266.205 218.983 266.282 223.253 265.964 227.474C264.653 228.422 263.356 227.658 261.848 228.515C260.786 233.086 261.446 238.708 261.503 243.435L213.355 243.417C213.351 235.786 214.561 211.462 212.886 205.956L211.812 206.359C211.019 211.257 211.52 216.469 211.544 221.419L211.439 243.447L159.126 243.488C159.122 239.006 160.029 210.374 158.107 208.269C155.978 212.119 157.266 237.799 157.32 243.487C148.497 243.498 122.201 242.289 115.069 244.519C116.757 245.987 152.649 245.291 157.351 245.298C157.425 249.677 157.848 254.375 157.454 258.722C157.333 260.059 157.545 260.262 156.474 261.146C155.377 261.238 154.062 261.207 153.081 261.74C152.498 262.056 152.583 262.615 152.451 263.21C153.853 264.808 155.554 263.89 157.091 265.226C157.923 272.827 157.351 280.869 157.266 288.523L141.25 288.505C136.974 288.482 116.85 287.473 114.564 289.464C117.267 290.879 151.246 290.047 157.169 290.05L157.09 335.064C151.189 335.062 118.812 333.877 115.756 335.99C118.727 337.893 150.67 336.884 157.013 336.885C156.927 342.319 155.897 350.754 157.964 355.733C158.037 355.909 158.139 356.071 158.227 356.24L158.222 356.241L157.926 355.366L158.529 354.985C159.106 348.996 158.923 342.942 158.909 336.931L211.494 336.851C211.478 342.791 211.021 349.157 211.637 355.042L212.421 355.581C214.026 353.376 213.332 340.573 213.39 336.852C229.433 336.851 245.481 336.654 261.523 336.815Q261.93 362.538 261.765 388.264C241.828 387.573 221.71 388.102 201.75 388.139L94.0765 388.121C93.6232 372.247 93.9057 356.259 93.8942 340.374L93.8393 264.707C93.9198 229.584 93.1216 194.287 94.1127 159.189C94.9922 158.134 95.2931 158.407 96.6014 158.252Z"/>
	<path fill="#FEEEEB" d="M122.782 689.885C120.831 687.644 117.108 685.962 114.586 684.253C106.544 678.803 100.019 670.698 95.3961 662.232C91.1522 654.461 88.6846 646.163 87.3406 637.431C83.5792 612.996 90.1837 593.232 90.988 569.531Q91.2495 562.071 90.9429 554.612Q90.6363 547.154 89.7634 539.74Q88.8904 532.326 87.4561 525Q86.0218 517.674 84.0345 510.479C82.8003 505.871 81.3129 496.284 78.7141 492.769C77.279 492.387 77.056 492.803 75.792 493.5L75.3434 492.995C74.8423 487.38 75.7552 481.748 75.299 476.153C74.9408 471.76 70.7117 458.102 69.166 453.647C67.6267 449.211 60.9751 438.729 61.3708 434.664L62.0162 434.78C63.4086 436.639 64.8775 439.343 65.3552 441.63C65.6443 443.015 65.1992 441.629 65.7856 443.213C66.5886 441.888 66.9683 440.046 67.1404 438.503C67.4374 435.842 67.2845 433.05 67.4493 430.361C67.9494 422.196 68.5535 414.144 70.0963 406.093C72.8515 391.713 77.5404 377.586 86.0783 365.588C87.6486 363.381 89.1021 361.04 91.3671 359.496C91.3426 369.818 91.0506 380.213 91.3763 390.528L213.25 390.58C229.468 390.574 245.741 390.298 261.953 390.638C261.973 400.107 262.401 409.773 261.619 419.21C258.202 421.718 254.997 424.596 251.17 426.458C244.692 426.027 238.158 425.003 231.665 425.097C215.952 425.325 199.495 432.206 187.759 442.563Q186.608 443.571 185.509 444.634Q184.409 445.697 183.363 446.813Q182.316 447.929 181.326 449.094Q180.336 450.26 179.404 451.473Q178.472 452.685 177.6 453.943Q176.729 455.2 175.92 456.498Q175.111 457.796 174.367 459.132Q173.623 460.469 172.945 461.84Q172.268 463.211 171.658 464.614Q171.048 466.017 170.508 467.448Q169.968 468.879 169.498 470.334Q169.029 471.79 168.631 473.267Q168.234 474.744 167.909 476.239Q167.584 477.734 167.333 479.242Q167.082 480.751 166.906 482.271Q166.729 483.79 166.627 485.316C165.05 511.241 186.31 545.162 203.22 564C206.182 567.299 209.228 570.672 212.505 573.657C209.239 587.751 205.566 601.71 202.092 615.749C199.744 625.237 197.872 635.441 194.405 644.564C167.607 657.21 144.78 669.634 122.782 689.885Z"/>
	<path fill="#F6AFA4" d="M264.171 230.844C328.976 232.047 393.928 230.918 458.748 230.973L874.443 230.906L874.696 707.307L680.299 706.956C650.686 706.94 621.035 707.437 591.428 707.054C595.148 696.232 600.183 685.733 604.315 675.041C613.739 675.883 623.604 675.252 633.089 675.226L685.793 675.135L844.683 675.479Q845.202 630.211 845.005 584.94L844.484 265.201C811.257 264.612 777.97 265.092 744.736 265.058L525.367 265.279L411.656 265.285C373.501 265.031 335.076 264.312 296.946 265.363L297.056 406.6C284.855 405.762 274.374 410.81 264.598 417.693L264.171 230.844Z"/>
	<path fill="#8FBCF3" d="M194.89 646.967Q221.742 664.271 247.301 683.433C258.403 691.801 269.308 701.453 280.993 708.913C283.736 701.775 285.634 694.187 287.749 686.841Q292.427 670.531 297.327 654.287C323.488 662.653 346.563 675.956 369.563 690.747C393.634 706.228 424.978 733.875 450.778 743.306C456.459 745.382 461.813 746.287 467.837 746.54L467.823 855.353C436.965 858.563 408.166 852.282 379.959 839.985C379.36 832.022 378.005 782.771 376.437 779.725L375.547 779.466L374.7 780.271C373.385 783.999 381.13 922.342 381.897 938.672L362.25 938.594L153.938 938.581L157.673 878.915C158.159 870.836 159.378 861.386 159.207 853.418C159.177 852.027 158.707 851.129 157.826 850.067L157.026 850.164C156.185 851.731 156.002 853.486 155.837 855.233C155.091 863.127 155.056 871.285 154.586 879.225L151.045 938.698L44.0466 938.684C45.7251 915.334 48.7754 892.059 51.8038 868.852C55.3554 841.637 58.8295 813.621 66.4268 787.207Q67.0626 784.934 67.7505 782.677Q68.4385 780.42 69.1782 778.179Q69.9179 775.938 70.709 773.715Q71.5001 771.492 72.3422 769.287Q73.1843 767.083 74.0769 764.899Q74.9695 762.714 75.9121 760.551Q76.8547 758.387 77.8469 756.246Q78.8391 754.105 79.8803 751.988Q80.9214 749.87 82.0111 747.777Q83.1008 745.684 84.2383 743.616Q85.3759 741.549 86.5607 739.508Q87.7455 737.467 88.977 735.454Q90.2085 733.441 91.486 731.457Q92.7635 729.473 94.0864 727.519Q95.4092 725.565 96.7767 723.642Q98.1441 721.719 99.5555 719.828Q100.967 717.936 102.421 716.078Q103.876 714.22 105.373 712.396Q106.87 710.572 108.408 708.782Q109.947 706.993 111.526 705.24Q113.105 703.486 114.725 701.77Q116.344 700.053 118.002 698.374Q119.66 696.695 121.357 695.055Q123.053 693.415 124.787 691.814Q126.521 690.213 128.291 688.653Q130.061 687.093 131.867 685.573Q133.673 684.054 135.513 682.577Q137.353 681.099 139.227 679.665Q141.1 678.23 143.006 676.839Q144.913 675.448 146.85 674.102Q148.788 672.755 150.756 671.453Q152.724 670.151 154.722 668.895C167.701 660.597 181.459 654.379 194.89 646.967Z"/>
	<path fill="#FEEEEB" d="M879.974 366.371C884.258 368.624 888.321 371.396 892.439 373.94C904.88 381.626 916.672 389.675 928.641 398.056C932.839 400.997 937.394 403.525 941.527 406.492Q963.087 421.829 982.969 439.287C987.894 443.598 992.828 447.451 997.245 452.359C1004.97 460.944 1011.8 471.606 1015.19 482.683C1021.98 504.868 1016.39 527.534 1005.64 547.44C993.705 569.54 966.54 600.679 974.256 626.576C976.852 635.29 981.689 643.348 986.176 651.201C1001.36 677.779 1015.59 698.182 1015.69 730.223C1015.74 745.67 1012.88 758.856 1005.65 772.517Q1003.12 777.311 1000.26 781.914Q997.403 786.517 994.225 790.907Q991.047 795.297 987.567 799.451Q984.088 803.606 980.323 807.504C975.173 812.758 969.536 817.519 964.471 822.857L964.591 766.202C964.583 757.619 965.097 748.737 964.394 740.207C964.202 737.886 963.78 735.866 962.751 733.755C961.671 733.319 960.894 733.2 959.74 733.092C950.73 732.253 940.474 733.206 931.296 733.239C922.249 733.272 912.441 732.379 903.485 733.281C902.09 733.421 901.159 733.479 900.061 734.413C897.979 742.184 898.924 751.661 898.922 759.695L898.92 792.618C898.844 841.255 899.333 889.967 898.445 938.593L881.164 938.578C880.465 874.274 880.754 809.825 881.393 745.517C873.185 744.833 864.688 745.231 856.449 745.234C843.775 745.238 831.073 745.079 818.403 745.427C817.718 753.715 818.177 762.404 818.252 770.737L818.472 809.922L818.529 938.996L808.51 938.993L808.494 827.796L808.507 795.452C808.508 789.043 808.879 782.411 808.173 776.048L746.282 775.959L746.027 938.88L384.788 938.992Q382.116 891.412 380.331 843.79C388.911 846.637 397.264 849.99 405.969 852.491C432.712 860.174 463.386 862.603 489.849 852.784Q492.867 851.69 495.812 850.411Q498.757 849.132 501.617 847.673Q504.476 846.213 507.24 844.579Q510.003 842.945 512.66 841.142Q515.317 839.34 517.856 837.376Q520.396 835.412 522.809 833.294Q525.222 831.176 527.499 828.912Q529.775 826.649 531.907 824.248C547.42 806.836 557.211 784.126 566.612 763.038C574.471 745.408 581.906 727.534 589.975 710.009L774.049 709.777L839.477 709.901C852.1 709.943 864.837 710.328 877.447 709.816C878.014 694.995 877.512 679.949 877.531 665.101L877.611 583.962L877.513 386.213C878.747 386.986 879.876 387.754 881.296 388.149C880.816 386.889 879.013 386.084 877.863 385.335C877.135 383.047 876.91 368.539 877.842 366.402L879.198 367.089L879.974 366.371Z"/>
	<path fill="white" d="M296.946 265.363C335.076 264.312 373.501 265.031 411.656 265.285L525.367 265.279L744.736 265.058C777.97 265.092 811.257 264.612 844.484 265.201L845.005 584.94Q845.202 630.211 844.683 675.479L685.793 675.135L633.089 675.226C623.604 675.252 613.739 675.883 604.315 675.041C610.225 662.61 614.196 648.669 621.022 636.736C627.856 629.531 633.338 620.838 637.537 611.855C642.231 609.692 645.999 607.565 649.829 604.066C655.18 597.292 658.381 589.729 657.26 580.909C656.624 575.906 653.371 567.593 648.881 564.55C648.115 564.031 647.236 563.682 646.398 563.301C645.023 562.678 644.368 562.59 643.588 561.282C643.807 558.35 644.445 554.628 642.44 552.154C640.814 550.15 637.384 548.885 634.889 548.714C634.509 548.688 634.128 548.688 633.747 548.675C633.475 548.666 633.203 548.65 632.93 548.641C632.762 548.636 632.595 548.636 632.427 548.633C635.05 543.866 637.18 538.387 635.57 532.876Q635.436 532.409 635.254 531.959Q635.072 531.508 634.843 531.08Q634.614 530.651 634.342 530.249Q634.069 529.847 633.756 529.476Q633.442 529.105 633.092 528.768Q632.741 528.432 632.357 528.135Q631.973 527.838 631.559 527.582Q631.146 527.327 630.708 527.117C629.418 526.496 628.157 526.438 626.759 526.324C626.505 526.304 626.252 526.275 625.999 526.253C625.846 526.24 625.694 526.23 625.542 526.219L646.199 486.355C648.916 481.063 652.386 475.72 654.497 470.175C655.158 468.437 655.756 466.371 655.329 464.504C654.988 463.013 653.451 461.288 652.021 460.711C650.812 460.223 649.534 460.482 648.429 461.087C646.529 462.127 645.041 464.015 643.881 465.799C639.909 471.908 637.085 478.898 633.71 485.348C627.384 497.441 620.841 509.443 614.237 521.391C611.449 526.434 608.933 531.682 605.897 536.578C604.719 534.395 603.56 531.912 601.022 531.082C597.844 530.045 593.889 531.715 591.155 533.235C574.249 542.636 552.403 572.291 547.603 590.657C544.886 601.051 545.121 610.281 548.696 620.411L543.319 630.673C542.508 632.646 541.614 634.317 540.405 636.074C533.494 649.189 525.975 662.119 519.517 675.45C485.687 676.12 451.714 675.474 417.87 675.515L377.628 675.561C368.32 675.56 358.91 675.8 349.634 674.991C332.608 665.64 315.747 656.514 296.956 651.198C294.399 637.219 293.674 622.396 292.459 608.232C298.946 607.18 305.172 605.949 311.141 603.092C319.247 599.213 327.399 591.426 330.227 582.723C333.968 571.214 319.379 515.118 314.32 501.708C310.627 491.917 305.634 482.664 300.776 473.419C303.081 472.348 305.459 471.307 307.644 470.007Q308.432 469.532 309.196 469.018Q309.96 468.504 310.698 467.954Q311.436 467.403 312.145 466.817Q312.855 466.23 313.535 465.61Q314.215 464.989 314.864 464.336Q315.512 463.683 316.128 462.998Q316.744 462.314 317.325 461.6Q317.906 460.886 318.451 460.144Q318.997 459.403 319.505 458.635Q320.013 457.867 320.483 457.076Q320.952 456.284 321.383 455.47Q321.813 454.656 322.202 453.822Q322.592 452.988 322.94 452.136Q323.288 451.284 323.594 450.415Q323.899 449.547 324.162 448.665Q324.424 447.782 324.643 446.888C326.769 438.172 325.72 428.778 320.925 421.109C315.191 411.939 307.16 408.995 297.056 406.6L296.946 265.363Z"/>
	<path fill="#F6AFA4" d="M649.829 604.066C649.312 614.975 649.524 625.959 649.492 636.88C640.065 636.891 630.423 637.295 621.022 636.736C627.856 629.531 633.338 620.838 637.537 611.855C642.231 609.692 645.999 607.565 649.829 604.066Z"/>
	<path fill="#D7E4F3" d="M362.056 602.359L396.7 602.384C396.544 613.616 396.609 624.857 396.592 636.091L362.377 636.033L362.056 602.359Z"/>
	<path fill="#D7E4F3" d="M344.533 428.646L435.772 428.994C435.788 432.75 436.622 442.857 435.357 445.937C405.168 445.86 374.916 445.366 344.734 445.854C344.819 440.121 344.636 434.378 344.533 428.646Z"/>
	<path fill="#78A1E3" d="M753.299 298.948C765.285 300.188 776.86 304.52 786.007 312.551C796.477 321.744 804.138 335.959 805.097 349.91C787.876 350.173 770.625 349.987 753.4 350.006Q753.507 324.477 753.299 298.948Z"/>
	<path fill="#D7E4F3" d="M519.179 388.211C564.246 387.409 609.406 389.203 654.457 388.088C654.489 391.519 655.253 402.668 653.844 404.909L518.331 404.507C518.418 399.288 518.188 394.066 518.36 388.847L519.179 388.211Z"/>
	<path fill="#D7E4F3" d="M518.55 347.12L654.035 346.957L653.893 363.669C637.285 364.227 620.593 363.937 603.976 363.943L518.645 363.957L518.55 347.12Z"/>
	<path fill="#D7E4F3" d="M442.649 347.256C455.936 347.008 469.231 347.24 482.521 347.014L482.477 363.982L382.875 363.992L344.558 363.959L344.521 347.494C377.208 347.824 409.959 347.489 442.649 347.256Z"/>
	<path fill="#D7E4F3" d="M519.492 305.733Q544.096 305.37 568.701 305.543L653.631 305.54C653.624 310.938 654.086 316.868 653.324 322.189L652.562 322.706Q585.511 322.434 518.46 322.928C518.509 318.015 518.118 312.988 518.452 308.094C518.545 306.73 518.517 306.61 519.492 305.733Z"/>
	<path fill="#D7E4F3" d="M344.45 387.989L482.788 388.087L482.928 404.967L344.488 404.985L344.45 387.989Z"/>
	<path fill="#D7E4F3" d="M344.835 305.539Q413.824 306.16 482.814 305.563Q482.698 314.106 482.709 322.65C436.736 324.103 390.583 322.605 344.585 323.093C344.581 317.239 344.529 311.387 344.835 305.539Z"/>
	<path fill="#D7E4F3" d="M431.536 557.199C443.698 557.402 455.903 557.165 468.069 557.134L468.025 635.951L431.549 635.934L431.536 557.199Z"/>
	<path fill="#F6AFA4" d="M686.627 525.75Q704.598 525.509 722.57 525.589L722.634 602.027L722.591 624.508C722.613 627.306 722.974 630.122 722.898 632.911C722.863 634.195 722.92 635.274 722.168 636.367L720.625 636.562Q702.674 636.413 684.726 636.793C684.512 626.999 683.695 528.19 684.994 525.916L686.627 525.75Z"/>
	<path fill="#F6AFA4" d="M743.898 315.208C745.35 315.209 746.507 315.076 747.744 315.967C748.421 320.711 747.993 325.815 747.974 330.602L747.984 355.319L789.773 355.301C790.281 367.066 787.696 379.001 780.335 388.413C772.085 398.961 760.705 403.899 747.694 405.527C735.779 405.175 724.245 401.845 715.233 393.734C706.346 385.735 701.021 373.767 700.466 361.883Q700.407 360.765 700.403 359.646Q700.399 358.526 700.451 357.408Q700.502 356.289 700.609 355.175Q700.715 354.061 700.877 352.953Q701.038 351.845 701.254 350.746Q701.47 349.648 701.74 348.562Q702.01 347.475 702.333 346.403Q702.657 345.331 703.033 344.277Q703.408 343.222 703.836 342.188Q704.263 341.153 704.741 340.14Q705.219 339.128 705.746 338.141Q706.273 337.153 706.849 336.193Q707.424 335.232 708.047 334.302Q708.669 333.371 709.336 332.472Q710.003 331.573 710.714 330.708Q711.425 329.844 712.178 329.015C720.76 319.616 731.416 315.827 743.898 315.208Z"/>
	<path fill="#78A1E3" d="M502.407 483.493L542.484 483.593Q542.383 535.668 543.052 587.738L542.973 614.712C542.949 619.924 542.549 625.513 543.319 630.673C542.508 632.646 541.614 634.317 540.405 636.074C534.256 634.842 510.111 635.658 502.41 635.598L502.407 483.493Z"/>
	<path fill="#F6AFA4" d="M757.592 438.067L795.542 438.009C796.455 504.299 795.563 570.652 795.91 636.954C783.118 636.442 770.307 636.537 757.507 636.516L757.592 438.067Z"/>
</svg>
