<?xml version="1.0" encoding="utf-8" ?>
<svg xmlns="http://www.w3.org/2000/svg" xmlns:xlink="http://www.w3.org/1999/xlink" width="1024" height="1024">
	<path fill="#FEFEFE" d="M0 0L1024 0L1024 1024L0 1024L0 0Z"/>
	<path d="M877.36 800.738C879.993 797.436 895.136 780.579 897.88 779.041C900.175 780.61 904.378 782.75 904.956 785.671C903.364 791.391 889.536 803.817 884.555 807.9C882.251 805.546 879.935 802.767 877.36 800.738Z"/>
	<path fill="#F15F4A" d="M354.363 322.569C357.274 322.332 360.144 322.838 362.656 324.388Q363.195 324.725 363.698 325.115Q364.2 325.505 364.661 325.943Q365.121 326.382 365.535 326.865Q365.95 327.347 366.313 327.869Q366.676 328.391 366.985 328.947Q367.293 329.503 367.544 330.088Q367.796 330.672 367.986 331.279Q368.177 331.885 368.306 332.508C369.026 335.943 368.379 339.653 366.41 342.575C364.242 345.792 361.442 347.111 357.746 347.84C355.409 347.72 353.26 347.451 351.107 346.471C347.839 344.983 345.328 342.356 344.155 338.944Q343.949 338.348 343.805 337.733Q343.661 337.118 343.581 336.492Q343.502 335.866 343.487 335.235Q343.472 334.604 343.522 333.975Q343.573 333.346 343.688 332.725Q343.803 332.105 343.981 331.499Q344.16 330.894 344.399 330.31Q344.639 329.726 344.938 329.17C347.079 325.253 350.321 323.816 354.363 322.569Z"/>
	<path fill="#F15F4A" d="M87.534 403.173C122.324 403.231 157.143 402.983 191.928 403.448Q191.957 412.915 192.15 422.38C157.362 422.901 122.5 422.462 87.7035 422.464Q87.4926 412.819 87.534 403.173Z"/>
	<path fill="#F15F4A" d="M95.8972 427.482C125.385 427.118 154.907 427.424 184.397 427.482C181.712 457.39 180.163 487.419 178.101 517.378C178.016 519.673 177.704 521.972 177.46 524.255C153.014 523.997 128.532 524.36 104.082 524.423Q100.7 475.893 95.8972 427.482Z"/>
	<path d="M479.105 126.21C500.15 124.637 522.85 132.332 539.136 145.616Q540.008 146.313 540.861 147.032Q541.715 147.751 542.551 148.49Q543.387 149.23 544.204 149.991Q545.021 150.751 545.819 151.531Q546.617 152.312 547.395 153.112Q548.173 153.912 548.931 154.731Q549.689 155.55 550.427 156.388Q551.164 157.226 551.88 158.082Q552.596 158.938 553.291 159.812Q553.986 160.685 554.659 161.576Q555.332 162.466 555.982 163.373Q556.632 164.28 557.26 165.203Q557.887 166.126 558.492 167.065Q559.096 168.003 559.677 168.956Q560.258 169.909 560.815 170.876Q561.372 171.843 561.905 172.824Q562.437 173.805 562.945 174.799Q563.453 175.793 563.937 176.799Q564.42 177.805 564.878 178.823Q565.336 179.841 565.768 180.869Q566.201 181.898 566.607 182.938Q567.014 183.977 567.395 185.026Q567.775 186.076 568.13 187.134Q568.484 188.192 568.812 189.259Q569.14 190.326 569.442 191.401Q569.743 192.475 570.017 193.557Q570.292 194.639 570.539 195.727Q570.787 196.816 571.007 197.91Q571.227 199.004 571.42 200.103Q571.613 201.203 571.778 202.306Q571.944 203.41 572.082 204.518Q572.22 205.625 572.33 206.736C574.619 229.934 568.676 252.843 553.757 270.996C537.6 290.654 516.032 300.897 491.022 303.41C467.567 304.198 445.861 298.283 427.703 282.94Q426.871 282.243 426.056 281.526Q425.242 280.809 424.445 280.071Q423.649 279.334 422.871 278.577Q422.093 277.82 421.334 277.044Q420.576 276.268 419.837 275.473Q419.098 274.678 418.379 273.865Q417.66 273.052 416.961 272.221Q416.263 271.39 415.585 270.542Q414.908 269.694 414.251 268.83Q413.595 267.965 412.961 267.085Q412.327 266.204 411.714 265.308Q411.102 264.411 410.512 263.5Q409.923 262.589 409.356 261.663Q408.789 260.738 408.246 259.798Q407.702 258.859 407.182 257.906Q406.663 256.953 406.167 255.988Q405.671 255.022 405.199 254.045Q404.727 253.067 404.28 252.078Q403.833 251.089 403.411 250.089Q402.988 249.089 402.591 248.079Q402.194 247.069 401.822 246.05Q401.45 245.03 401.104 244.001Q400.757 242.973 400.437 241.936Q400.116 240.899 399.822 239.854Q399.527 238.81 399.259 237.758Q398.99 236.706 398.748 235.648Q398.506 234.59 398.29 233.527Q398.075 232.463 397.885 231.394Q397.696 230.325 397.534 229.252Q397.372 228.179 397.236 227.102Q397.101 226.025 396.992 224.945Q396.884 223.865 396.802 222.783C394.82 199.257 403.022 174.969 418.367 157.106Q419.076 156.274 419.804 155.459Q420.533 154.645 421.282 153.848Q422.031 153.052 422.799 152.275Q423.567 151.497 424.354 150.739Q425.141 149.98 425.947 149.242Q426.753 148.503 427.576 147.784Q428.4 147.066 429.241 146.368Q430.082 145.67 430.94 144.993Q431.798 144.316 432.673 143.66Q433.547 143.004 434.437 142.37Q435.328 141.737 436.234 141.125Q437.139 140.513 438.06 139.924Q438.981 139.335 439.916 138.768Q440.85 138.202 441.799 137.659Q442.748 137.116 443.709 136.597Q444.671 136.077 445.645 135.582Q446.619 135.086 447.605 134.615Q448.592 134.143 449.589 133.697Q450.587 133.25 451.595 132.828Q452.603 132.405 453.621 132.008Q454.64 131.611 455.667 131.239Q456.695 130.867 457.732 130.521Q458.769 130.175 459.813 129.854Q460.858 129.533 461.911 129.239Q462.963 128.944 464.023 128.675Q465.082 128.406 466.148 128.164Q467.214 127.921 468.285 127.705Q469.357 127.489 470.433 127.3Q471.51 127.11 472.59 126.947Q473.671 126.784 474.756 126.648Q475.84 126.511 476.928 126.402Q478.015 126.293 479.105 126.21Z"/>
	<path fill="#FEFEFE" d="M484.997 129.961Q486.927 129.995 488.853 130.116Q490.779 130.238 492.698 130.447Q494.616 130.657 496.523 130.954Q498.43 131.25 500.322 131.634Q502.213 132.018 504.085 132.487Q505.957 132.957 507.806 133.511Q509.654 134.066 511.476 134.704Q513.297 135.343 515.087 136.064Q516.878 136.784 518.633 137.586Q520.389 138.388 522.106 139.269Q523.823 140.151 525.498 141.109Q527.173 142.068 528.803 143.102Q530.432 144.136 532.013 145.244Q533.594 146.351 535.122 147.529Q536.65 148.708 538.123 149.955Q539.596 151.202 541.011 152.515C559.462 169.413 567.995 190.583 569.063 215.273C565.021 215.315 560.9 215.234 556.909 215.939C559.933 217.53 565.755 216.978 569.103 216.976C568.841 233.485 564.217 248.986 554.98 262.708Q554.406 263.572 553.811 264.421Q553.216 265.27 552.6 266.104Q551.984 266.938 551.348 267.756Q550.711 268.574 550.054 269.376Q549.397 270.178 548.72 270.964Q548.044 271.749 547.348 272.517Q546.651 273.286 545.936 274.036Q545.221 274.787 544.488 275.52Q543.754 276.252 543.002 276.966Q542.25 277.68 541.481 278.375Q540.712 279.07 539.925 279.745Q539.139 280.421 538.336 281.077Q537.532 281.732 536.713 282.368Q535.894 283.003 535.059 283.618Q534.224 284.232 533.374 284.826Q532.524 285.42 531.66 285.992Q530.795 286.564 529.917 287.115Q529.038 287.665 528.146 288.193Q527.254 288.722 526.349 289.228Q525.444 289.734 524.527 290.217Q523.609 290.7 522.68 291.16Q521.751 291.62 520.811 292.056Q519.87 292.493 518.92 292.906Q517.969 293.319 517.008 293.708Q516.047 294.097 515.076 294.462Q514.106 294.827 513.127 295.168Q512.147 295.509 511.16 295.825Q510.173 296.141 509.178 296.432Q508.183 296.723 507.181 296.99Q506.179 297.256 505.17 297.497Q504.162 297.739 503.148 297.954Q502.134 298.17 501.115 298.361C495.932 299.25 490.78 299.675 485.543 300.072C485.612 296.915 485.923 293.682 484.953 290.639L484.457 290.866C483.69 293.841 484.003 296.932 484.119 299.972C464.737 299.048 447.118 293.656 431.86 281.324C414.174 267.03 403.38 247.384 401.147 224.773Q401.034 223.708 400.947 222.641Q400.86 221.573 400.8 220.504Q400.74 219.435 400.707 218.364Q400.673 217.294 400.666 216.223Q400.66 215.152 400.679 214.082Q400.699 213.011 400.746 211.941Q400.792 210.871 400.866 209.803Q400.939 208.734 401.038 207.668Q401.138 206.602 401.264 205.538Q401.391 204.475 401.543 203.415Q401.696 202.355 401.875 201.299Q402.054 200.243 402.26 199.192Q402.465 198.141 402.696 197.096Q402.928 196.05 403.185 195.01Q403.443 193.971 403.726 192.938Q404.009 191.905 404.318 190.88Q404.627 189.854 404.961 188.837Q405.295 187.82 405.655 186.811Q406.014 185.802 406.399 184.803Q406.783 183.803 407.192 182.814Q407.602 181.824 408.036 180.845Q408.469 179.866 408.927 178.898Q409.385 177.93 409.867 176.973Q410.349 176.017 410.855 175.073Q411.361 174.129 411.89 173.198Q412.419 172.267 412.971 171.349Q413.523 170.432 414.098 169.528Q414.673 168.624 415.27 167.735Q415.867 166.846 416.486 165.972Q417.105 165.099 417.745 164.24Q418.386 163.382 419.048 162.54Q419.709 161.698 420.392 160.873Q421.072 160.053 421.772 159.25Q422.473 158.447 423.193 157.662Q423.913 156.876 424.652 156.109Q425.392 155.342 426.15 154.594Q426.908 153.845 427.685 153.116Q428.461 152.386 429.256 151.677Q430.05 150.967 430.862 150.277Q431.674 149.587 432.503 148.918Q433.332 148.248 434.177 147.6Q435.023 146.951 435.884 146.324Q436.745 145.696 437.621 145.091Q438.498 144.485 439.389 143.901Q440.281 143.318 441.186 142.756Q442.092 142.195 443.011 141.656Q443.93 141.117 444.862 140.602Q445.795 140.086 446.74 139.594Q447.685 139.102 448.641 138.633Q449.598 138.165 450.567 137.72Q451.535 137.275 452.514 136.855Q453.493 136.434 454.482 136.039Q455.471 135.643 456.47 135.271Q457.468 134.9 458.476 134.554Q459.484 134.208 460.499 133.887Q461.515 133.566 462.539 133.27Q463.563 132.975 464.593 132.704Q465.624 132.434 466.661 132.19Q467.698 131.946 468.741 131.727Q469.784 131.509 470.831 131.316Q471.879 131.124 472.932 130.957Q473.984 130.791 475.04 130.651Q476.096 130.511 477.156 130.397Q478.215 130.283 479.277 130.196C480.575 130.035 481.329 129.915 482.592 130.373C484.122 132.576 482.85 137.306 484.05 140.307L484.688 140.386C485.854 138.339 485.035 132.482 484.997 129.961Z"/>
	<path fill="#BB2818" d="M446.563 169.843C446.76 169.843 446.957 169.831 447.154 169.845C448.439 169.935 449.262 170.349 450.241 171.145C454.415 174.537 458.031 179.055 461.719 182.987Q473.427 195.328 484.698 208.069C496.061 204.717 507.224 200.241 518.47 196.46C521.954 195.289 525.707 193.295 529.366 192.836C530.815 192.655 531.301 192.881 532.44 193.734L532.553 194.719L531.322 195.881C523.455 199.217 515.2 201.853 507.134 204.683C499.633 207.315 492.104 210.257 484.448 212.37C476.811 205.98 469.873 197.497 463.01 190.25C457.865 184.817 450.883 178.935 446.888 172.703C446.048 171.393 446.202 171.29 446.563 169.843Z"/>
	<path d="M273.299 423.252C273.728 421.67 273.737 420.985 274.955 419.846C279.595 418.949 284.801 419.456 289.538 419.49L313.753 419.616L411.764 419.732L648.67 419.646L727.31 419.543C741.758 419.514 756.262 419.227 770.705 419.544C770.819 421.716 770.981 423.897 771.011 426.072C777.558 426.28 784.713 426.831 791.159 425.682C792.472 425.225 792.466 425.183 793.761 425.664C794.722 427.04 794.853 428.158 794.957 429.79C795.714 441.652 794.787 453.944 794.778 465.853C794.757 494.238 794.596 522.657 794.953 551.039C798.843 552.581 801.875 554.165 805.027 556.965C812.237 563.37 818.843 570.859 825.646 577.726C841.081 593.305 856.46 609.084 872.108 624.434C879.868 632.047 890.462 634.72 894.974 645.647Q895.563 647.05 895.981 648.513Q896.399 649.975 896.641 651.478Q896.883 652.98 896.946 654.5Q897.008 656.02 896.89 657.537C896.112 668.183 892.734 679.202 890.356 689.632C885.567 710.632 880.388 731.732 876.871 752.985C883.116 759.569 893.004 768.375 897.166 776.363C897.836 777.54 897.945 777.701 897.88 779.041C895.136 780.579 879.993 797.436 877.36 800.738C875.879 799.678 874.444 798.737 873.306 797.3C872.143 796.622 870.983 795.956 869.788 795.335C869.099 797.33 869.664 801.077 870.223 803.13C873.037 813.462 878.294 823.591 882.498 833.447Q891.307 854.286 899.539 875.359C901.754 880.954 905.107 886.97 906.466 892.777C906.84 894.376 907.045 895.827 906.196 897.3L905.323 897.407C904.131 896.469 903.459 895.432 902.819 894.056C900.461 888.989 898.62 883.582 896.493 878.4Q888.781 859.838 881.379 841.151C877.329 830.983 872.361 821.009 868.709 810.726C867.347 806.892 866.23 802.965 865.776 798.91Q865.405 795.399 865.47 791.87L782.93 709.153C776.852 703.04 770.508 697.177 764.496 691.003C759 698.181 751.06 703.807 741.889 704.941C738.49 705.361 734.986 704.868 732.286 702.613C727.647 698.739 716.173 676.622 713.457 670.423C717.629 657.184 723.024 639.438 715.933 626.26C713.503 621.744 709.222 617.929 704.207 616.586C700.907 615.701 697.654 616.161 694.701 617.872C692.463 619.168 690.199 621.681 689.008 623.967C684.635 632.362 682.475 642.167 678.333 650.821C675.64 656.449 670.07 661.819 668.74 667.905C667.583 673.198 673.264 684.863 674.893 690.355C680.839 710.41 685.279 730.882 693.834 750.065C703.392 771.5 716.58 791.622 725.785 812.783C735.054 834.092 742.285 856.303 750.462 878.042C751.598 881.062 757.488 894.824 756.644 897.098C756.509 897.463 756.022 897.566 755.71 897.799C754.194 897.346 753.509 896.464 752.736 895.094C749.61 889.556 747.897 882.331 745.695 876.351L729.886 833.685L445.752 833.671L322.387 833.614C299.358 833.631 276.064 833.123 253.07 833.979C251.737 841.593 243.503 894.438 241.389 897.659C240.098 898.245 239.753 897.785 238.494 897.314C229.319 896.246 219.25 896.988 209.977 896.982L155.313 896.967L118.26 896.97C112.18 896.971 105.152 896.246 99.2247 897.387C97.8868 897.804 97.6276 897.818 96.2578 897.524C95.4287 896.423 95.4957 895.897 95.6392 894.539C96.3552 887.764 97.8733 880.856 98.9972 874.127Q103.309 848.361 108.168 822.692L131.432 694.077C134.286 678.655 137.148 663.275 139.651 647.791C140.636 641.695 141.998 635.604 142.625 629.459C145.755 626.552 149.577 624.149 152.968 621.535C158.97 616.909 164.874 612.164 170.904 607.57L215.723 573.418C227.126 564.741 238.794 556.13 249.63 546.748L249.943 469.161C249.922 455.225 248.96 440.825 249.696 426.931C249.785 425.249 249.851 423.879 250.812 422.44C252.123 422.007 252.12 422.14 253.407 422.697C258.744 424.607 267.563 423.452 273.299 423.252Z"/>
	<path fill="#FEFEFE" d="M637.034 536.685C646.85 540.476 664.592 549.39 673.558 554.731C667.881 561.487 661.242 567.85 654.406 573.419C648.494 561.237 642.836 548.921 637.034 536.685Z"/>
	<path fill="#FEFEFE" d="M722.706 647.994Q732.917 658.51 743.237 668.919C749.339 675.065 755.764 681.098 761.126 687.909C758.745 691.671 756.13 694.19 752.648 696.911Q751.493 697.564 750.31 698.166C746.205 700.24 740.595 702.178 736.093 700.466C731.178 698.596 720.699 675.856 718.07 670.215C720.378 663.055 721.515 655.409 722.706 647.994Z"/>
	<path fill="#FEFEFE" d="M768.191 594.381L768.806 594.573C773.396 599.933 776.995 607.41 780.745 613.453C786.513 622.748 793.166 632.044 798.141 641.75C799.4 644.206 800.9 646.871 800.669 649.701C800.085 656.878 797.197 661.863 791.715 666.35C787.618 662.654 783.773 658.639 779.859 654.75C764.758 640.044 749.213 625.232 735.022 609.657C746.325 605.285 757.25 599.589 768.191 594.381Z"/>
	<path fill="#F6E4BB" d="M771.011 426.072C777.558 426.28 784.713 426.831 791.159 425.682C790.79 441.327 791.223 457.067 791.262 472.721L791.193 550.714L771.028 550.792L771.011 426.072Z"/>
	<path fill="#F6E4BB" d="M253.407 422.697C258.744 424.607 267.563 423.452 273.299 423.252C274.21 428.494 273.574 434.812 273.579 440.18L273.593 476.352L273.596 609.939Q263.633 615.391 253.516 620.55L253.407 422.697Z"/>
	<path fill="#ACBDDF" d="M110.143 834.876Q179.456 835.468 248.77 834.987C245.511 855.778 241.4 876.477 238.494 897.314C229.319 896.246 219.25 896.988 209.977 896.982L155.313 896.967L118.26 896.97C112.18 896.971 105.152 896.246 99.2247 897.387Q104.184 866.044 110.143 834.876Z"/>
	<path fill="#FEFEFE" d="M673.558 554.731C674.807 555.587 676.119 556.407 677.271 557.389C695.035 573.927 711.597 592.018 728.638 609.304L832.399 713.286C852.826 733.649 872.811 754.8 894.093 774.26C894.879 775.093 895.659 775.879 896.516 776.642L897.166 776.363C897.836 777.54 897.945 777.701 897.88 779.041C895.136 780.579 879.993 797.436 877.36 800.738C875.879 799.678 874.444 798.737 873.306 797.3L873.401 795.859C869.686 790.851 865.032 786.391 860.691 781.92C852.546 773.532 844.176 765.375 835.929 757.089L762.936 683.662Q750.304 670.891 737.805 657.99C732.716 652.732 727.394 647.546 722.723 641.912C722.637 638.755 722.657 635.509 722.027 632.404C720.699 625.863 717.135 619.348 711.416 615.661C705.754 612.01 700.025 612.151 693.74 613.636Q675.354 595.36 657.255 576.799C655.914 575.816 655.262 574.832 654.406 573.419C661.242 567.85 667.881 561.487 673.558 554.731Z"/>
	<path fill="#BB2818" d="M673.558 554.731C674.807 555.587 676.119 556.407 677.271 557.389C670.903 564.317 664.339 570.61 657.255 576.799C655.914 575.816 655.262 574.832 654.406 573.419C661.242 567.85 667.881 561.487 673.558 554.731Z"/>
	<path fill="#F15F4A" d="M894.093 774.26C894.879 775.093 895.659 775.879 896.516 776.642L897.166 776.363C897.836 777.54 897.945 777.701 897.88 779.041C895.136 780.579 879.993 797.436 877.36 800.738C875.879 799.678 874.444 798.737 873.306 797.3L873.401 795.859C879.731 788.099 886.048 780.328 894.093 774.26Z"/>
	<path fill="#F6E4BB" d="M253.501 676.063C260.394 672.757 266.831 668.364 273.548 664.684C274.039 700.541 273.575 736.473 273.585 772.337C273.59 788.134 273.01 804.225 273.833 819.993C319.414 820.916 365.174 819.861 410.776 819.899L724.881 820.094C726.612 824.598 728.223 829.155 729.886 833.685L445.752 833.671L322.387 833.614C299.358 833.631 276.064 833.123 253.07 833.979C253.757 827.227 253.457 820.197 253.458 813.413L253.463 781.854L253.501 676.063Z"/>
	<path fill="#FEFEFE" d="M768.371 554.75C776.273 554.557 785.444 553.547 793.172 555.138C795.471 555.611 797.82 556.223 799.682 557.711C805.03 561.984 809.647 567.073 814.432 571.948L839.093 597.201C846.175 604.314 853.481 611.208 860.589 618.3C863.847 621.551 867.957 625.013 870.442 628.861C873.377 633.405 872.119 643.714 874.814 646.991C875.319 647.606 875.748 647.359 876.463 647.336L877.315 646.389C878.468 642.019 876.689 636.647 875.791 632.28C880.782 635.286 885.903 638.539 889.27 643.427C892.002 647.392 893.108 651.528 892.986 656.305C892.74 665.892 887.801 682.025 885.539 691.93Q879.285 720.244 873.441 748.646C864.594 740.641 856.31 731.692 847.744 723.349C841.817 717.525 836.165 711.44 830.282 705.574C818.325 693.651 806.178 681.838 794.767 669.387C799.986 664.727 803.627 659.314 804.315 652.159C804.638 648.8 804.223 645.913 802.979 642.795C799.557 634.218 793.452 626.125 788.588 618.255C782.65 608.648 776.962 597.793 769.717 589.12C757.417 595.242 744.804 601.959 731.929 606.763Q719.947 594.976 708.639 582.542C719.196 576.11 746.003 558.333 756.435 555.5C760.136 554.495 764.537 554.796 768.371 554.75Z"/>
	<path fill="#FEFEFE" d="M248.965 552.513C250.479 554.8 249.73 606.673 249.543 613.412Q247.897 614.487 246.371 615.727C233.786 626.123 221.775 637.406 209.435 648.113C199.438 656.785 188.865 664.986 179.278 674.106C178.016 675.306 176.066 676.794 175.89 678.545C176.657 679.553 176.374 679.602 177.728 679.795C181.314 678.28 209.059 653.262 214.237 648.937C225.618 639.43 242.479 631.627 255.48 624.271C264.97 618.902 274.411 612.452 284.43 608.168C287.591 606.816 291.444 605.431 294.906 605.866C300.283 606.542 305.626 609.96 308.737 614.35C311.925 618.846 313.021 624.85 311.849 630.211C311.135 633.479 309.617 636.744 307.249 639.143C301.504 644.962 292.619 648.846 285.583 652.928C273.631 659.863 261.335 666.657 249.856 674.341C249.524 686.003 249.902 697.776 249.929 709.449L249.849 771.25L249.817 795.898C246.176 797.857 242.898 799.805 241.24 803.753L241.629 804.49C244.972 804.376 247.091 802.235 249.647 800.315C249.891 810.548 250.207 820.902 249.629 831.122C233.6 831.708 217.406 831.206 201.357 831.177L110.932 831.023C113.544 817.323 115.601 803.491 118.03 789.754L138.032 679.457Q140.854 664.639 143.304 649.755C144.331 643.67 145.022 637.284 146.759 631.358C157.424 621.698 169.845 613.461 181.256 604.66L248.965 552.513Z"/>
	<path fill="#FEFEFE" d="M625.904 423.25L712.225 423.252C730.585 423.245 749.022 422.898 767.365 423.668L767.493 550.596C763.043 550.546 758.873 550.55 754.579 551.881C747.271 554.145 740.408 559.011 733.827 562.89L705.324 579.836C695.745 571.05 687.56 560.342 677.255 552.438Q673.677 549.711 669.735 547.542C663.848 544.278 657.586 541.882 651.55 538.947C647.038 536.754 642.681 533.782 637.962 532.071C636.779 531.642 635.326 531.145 634.063 531.473C632.772 531.808 632.492 532.163 631.797 533.191C631.522 536.953 649.472 573.474 652.698 577.591C656.596 582.565 664.835 588.281 667.55 593.49C666.694 594.076 667.05 593.984 666.091 594.108C665.877 594.135 665.662 594.146 665.448 594.165C666.634 594.451 667.724 594.322 668.932 594.264L690.792 615.833C689.077 617.646 687.254 619.688 686.01 621.868C683.69 625.933 682.307 630.963 680.654 635.358Q677.605 643.29 673.875 650.925C671.793 655.118 668.729 658.681 666.564 662.806C665.456 664.917 664.689 667.148 664.722 669.556C664.804 675.533 669.965 686.718 671.794 693.175L653.957 693.238C659.792 693.806 665.979 693.309 671.873 693.468C676.59 708.172 679.59 723.435 684.881 737.988C692.806 759.786 704.531 780.204 715.286 800.687C718.054 805.917 720.769 811.131 723.222 816.519L523.87 816.522L523.699 771.913C527.454 771.957 534.551 772.838 537.734 770.771C538.826 770.062 539.577 769.199 539.796 767.88C540.046 766.378 539.617 764.614 538.531 763.519C535.582 760.547 527.72 761.648 523.913 761.712Q523.649 740.847 523.797 719.981C527.784 719.98 535.067 721.706 538.185 718.853C539.078 718.035 539.503 716.977 539.625 715.8C539.787 714.222 539.449 712.612 538.294 711.454C535.48 708.633 528.065 709.691 524.381 709.771C523.183 696.459 523.948 682.593 523.974 669.228C528.032 669.13 535.361 670.278 538.628 667.49C539.39 666.839 539.864 665.914 539.87 664.916C539.88 663.237 539.152 661.821 537.962 660.659C536.341 659.077 534.017 658.173 531.758 658.32C529.18 658.489 526.605 658.503 524.022 658.543C523.895 645.263 524.009 631.976 524.044 618.696C527.991 618.561 534.912 619.989 538.106 617.115C538.966 616.342 539.406 615.327 539.529 614.194C539.687 612.747 539.472 611.233 538.43 610.13C535.551 607.085 527.903 608.264 523.971 608.394L523.868 567.398C527.77 567.497 535.319 568.526 538.261 565.615C539.072 564.813 539.368 563.849 539.314 562.732C539.24 561.219 538.721 559.943 537.569 558.91C534.746 556.381 527.413 557.495 523.828 557.557Q523.577 538.224 523.582 518.89C527.4 518.949 534.497 519.896 537.525 517.321C538.402 516.575 538.841 515.611 538.931 514.477C539.06 512.844 538.663 511.446 537.526 510.227C534.801 507.304 527.622 508.394 523.934 508.546L523.979 465.004C527.553 465.009 534.463 466.327 537.3 463.839C538.567 462.727 539.673 460.738 539.54 459.007C539.472 458.131 539.132 457.476 538.543 456.865C535.579 453.783 527.881 454.776 523.865 454.872Q523.76 439.149 523.834 423.425L625.904 423.25Z"/>
	<path fill="#F6E4BB" d="M480.043 423.25L520.492 423.243L520.52 454.897C516.176 454.843 510.803 454.18 507.062 456.835C505.759 457.76 505.317 458.612 505.066 460.152C505.403 460.873 505.72 461.518 506.314 462.069C510.144 465.625 515.88 464.95 520.646 464.789L520.605 508.437Q517.323 508.326 514.04 508.318C511.476 508.333 507.832 509.277 506.084 511.309C505.159 512.384 505.136 512.995 505.207 514.361C506.301 516.306 507.818 517.354 509.887 518.112C510.107 518.193 510.331 518.265 510.553 518.344C513.681 519.454 517.239 519.019 520.513 518.913L520.538 557.602C516.103 557.566 510.769 557.054 506.968 559.81C505.783 560.669 505.363 561.475 505.15 562.889C505.382 563.502 505.617 564.006 506.085 564.48C509.784 568.228 515.761 567.526 520.516 567.391L520.533 608.508C516.047 608.403 510.368 607.681 506.658 610.835C505.601 611.733 505.269 612.542 505.143 613.889C505.446 614.597 505.728 615.266 506.277 615.826C509.822 619.44 515.936 618.784 520.496 618.716L520.492 658.732C517.628 658.708 514.165 658.337 511.393 659.075C508.687 659.795 506.658 660.72 505.229 663.202C505.129 664.515 505.165 665.175 506.138 666.214C509.641 669.953 515.843 669.278 520.494 669.254L520.608 709.838C517.206 709.774 511.371 708.97 508.282 710.573C507.136 711.168 506.325 711.966 505.967 713.242C505.549 714.735 505.775 716.616 506.799 717.826C509.481 720.998 516.811 720.011 520.647 719.948Q520.74 740.741 520.612 761.534C516.044 761.45 510.467 760.806 506.707 764.022C505.562 765.002 505.272 765.793 505.188 767.261C505.479 767.899 505.765 768.466 506.267 768.97C509.922 772.637 515.892 771.907 520.594 771.784L520.583 816.521L374.75 816.646L277.218 816.475C276.652 765.046 277.423 713.589 277.19 662.155C289.095 654.06 309.707 647.795 314.668 633.489C316.751 627.482 316.554 620.755 313.677 615.042C310.784 609.299 305.489 605.146 299.361 603.317C290.864 600.781 284.692 603.63 277.416 607.703C276.693 585.637 277.435 563.331 277.449 541.231L277.369 423.431L480.043 423.25Z"/>
</svg>
