<?xml version="1.0" encoding="utf-8" ?>
<svg xmlns="http://www.w3.org/2000/svg" xmlns:xlink="http://www.w3.org/1999/xlink" width="1024" height="1024">
	<path fill="#FEFEFE" d="M0 0L1024 0L1024 1024L0 1024L0 0Z"/>
	<path fill="#CE5C45" d="M691.088 139.733C691.755 140.699 692.242 141.282 692.468 142.463C690.842 146.12 688.686 148.982 684.908 150.592Q684.324 150.838 683.718 151.023Q683.111 151.207 682.489 151.328Q681.867 151.448 681.235 151.503Q680.604 151.559 679.97 151.548Q679.336 151.537 678.707 151.461Q678.078 151.385 677.46 151.243Q676.842 151.102 676.242 150.897Q675.642 150.693 675.067 150.427C671.306 148.684 669.389 145.702 668.126 141.902C668.691 141.287 669.173 141.123 669.922 140.783C670.313 142.018 670.73 143.095 671.409 144.206C673.55 147.711 676.484 148.707 680.304 149.568C682.449 149.053 684.586 148.625 686.479 147.433C689.399 145.596 690.294 142.937 691.088 139.733Z"/>
	<path fill="#D9714A" d="M677.677 126.158C681.794 125.883 685.581 125.83 688.875 128.784C690.285 130.048 691.325 131.677 692.155 133.362C692.948 136.595 693.082 139.196 692.468 142.463C692.242 141.282 691.755 140.699 691.088 139.733L690.102 134.198C687.366 130.232 684.967 129.002 680.445 127.783C676.48 128.795 673.716 129.828 671.511 133.537Q670.825 134.677 670.262 135.882Q670.063 138.33 669.922 140.783C669.173 141.123 668.691 141.287 668.126 141.902C667.488 138.921 667.684 136.842 668.685 133.974C668.74 133.801 668.807 133.631 668.875 133.463C670.55 129.336 673.809 127.758 677.677 126.158Z"/>
	<path fill="#FEFEFE" d="M680.445 127.783C684.967 129.002 687.366 130.232 690.102 134.198L691.088 139.733C690.294 142.937 689.399 145.596 686.479 147.433C684.586 148.625 682.449 149.053 680.304 149.568C676.484 148.707 673.55 147.711 671.409 144.206C670.73 143.095 670.313 142.018 669.922 140.783Q670.063 138.33 670.262 135.882Q670.825 134.677 671.511 133.537C673.716 129.828 676.48 128.795 680.445 127.783Z"/>
	<path fill="#000001" d="M272.753 214.643C274.95 214.636 277.185 215.083 279.145 216.094C281.984 217.559 284.041 219.979 284.982 223.034C285.901 226.016 285.512 229.36 284.054 232.105C282.049 235.88 278.96 237.492 275.003 238.63C272.437 238.606 270.33 238.358 268.036 237.128Q267.509 236.852 267.013 236.524Q266.517 236.196 266.056 235.819Q265.595 235.443 265.175 235.022Q264.755 234.601 264.379 234.14Q264.003 233.679 263.676 233.182Q263.349 232.685 263.073 232.158Q262.798 231.631 262.577 231.078Q262.356 230.526 262.192 229.954Q262.024 229.364 261.918 228.76Q261.812 228.155 261.768 227.544Q261.724 226.932 261.743 226.319Q261.762 225.705 261.843 225.097Q261.925 224.489 262.068 223.893Q262.212 223.296 262.415 222.718Q262.619 222.139 262.88 221.584Q263.142 221.029 263.459 220.504C265.616 216.93 268.831 215.499 272.753 214.643Z"/>
	<path fill="#FEFEFE" d="M270.996 217.061C272.777 216.944 274.792 216.86 276.507 217.41C279.056 218.226 281.352 220.092 282.557 222.492Q282.774 222.92 282.946 223.368Q283.118 223.816 283.243 224.28Q283.367 224.743 283.443 225.217Q283.519 225.691 283.545 226.17Q283.571 226.649 283.547 227.129Q283.524 227.608 283.45 228.082Q283.377 228.557 283.255 229.021Q283.133 229.485 282.963 229.934C281.687 233.378 279.157 235.031 275.951 236.488C274.282 236.549 272.47 236.692 270.855 236.2C268.325 235.428 266.024 233.553 264.806 231.2Q264.588 230.777 264.413 230.335Q264.238 229.892 264.107 229.435Q263.976 228.977 263.891 228.509Q263.805 228.041 263.766 227.567Q263.727 227.093 263.734 226.617Q263.741 226.142 263.795 225.669Q263.849 225.196 263.949 224.731Q264.049 224.266 264.194 223.813C265.346 220.254 267.774 218.603 270.996 217.061Z"/>
	<path fill="#F5D14A" d="M411.36 313.905C422.919 324.506 433.761 336.276 444.763 347.474C433.915 359.088 422.708 370.226 411.353 381.34C399.737 370.727 388.229 359.288 377.8 347.511C386.365 336.854 401.206 324.015 411.36 313.905Z"/>
	<path fill="#D9714A" d="M642.454 366.632C649.691 365.997 656.1 367.305 662.047 371.649C669.034 376.751 674.025 384.74 675.243 393.327C676.37 401.271 674.479 409.668 669.569 416.076C664.591 422.572 657.394 426.502 649.321 427.614C642.264 428.23 635.36 426.776 629.354 422.961Q628.721 422.557 628.109 422.123Q627.496 421.689 626.906 421.225Q626.316 420.76 625.75 420.268Q625.183 419.775 624.642 419.255Q624.1 418.735 623.585 418.189Q623.07 417.643 622.583 417.072Q622.095 416.501 621.636 415.906Q621.178 415.312 620.749 414.696Q620.32 414.079 619.923 413.443Q619.525 412.806 619.159 412.15Q618.793 411.495 618.461 410.822Q618.128 410.149 617.828 409.46Q617.529 408.772 617.264 408.069Q616.999 407.367 616.769 406.652Q616.54 405.937 616.345 405.212Q616.151 404.487 615.993 403.753C614.308 395.749 615.717 387.44 620.287 380.609C625.571 372.713 633.289 368.415 642.454 366.632Z"/>
	<path fill="#FEFEFE" d="M626.508 391.503C638.652 391.221 650.906 391.081 663.047 391.48Q663.059 397.99 662.994 404.499C650.851 404.747 638.664 404.541 626.517 404.535L626.508 391.503Z"/>
	<path fill="#5471A6" d="M785.074 411.608C793.123 411.02 800.265 411.756 807.17 416.361C814.186 421.04 818.61 428.064 820.232 436.284C821.856 444.519 820.16 453.901 815.322 460.827C810.373 467.91 803.473 471.37 795.215 472.895C788.128 473.56 780.858 472.458 774.618 468.901C767.506 464.847 762.408 457.367 760.449 449.479Q760.271 448.736 760.13 447.985Q759.989 447.235 759.885 446.478Q759.782 445.721 759.715 444.96Q759.649 444.199 759.62 443.436Q759.591 442.673 759.6 441.909Q759.609 441.145 759.655 440.382Q759.701 439.62 759.785 438.861Q759.869 438.101 759.99 437.347Q760.111 436.593 760.27 435.846Q760.428 435.098 760.623 434.36Q760.818 433.621 761.049 432.893Q761.28 432.165 761.546 431.449Q761.813 430.733 762.114 430.031Q762.416 429.33 762.752 428.643Q763.087 427.957 763.456 427.289Q763.825 426.62 764.227 425.97C769.075 418.034 776.164 413.753 785.074 411.608Z"/>
	<path fill="#FEFEFE" d="M771.398 438.353Q789.465 438.246 807.531 438.463L807.524 450.337L771.435 450.325L771.398 438.353Z"/>
	<path fill="#F5D14A" d="M321.761 456.617C328.522 455.976 335.087 456.997 340.913 460.717C348.099 465.306 353.225 473.618 354.902 481.898Q355.044 482.626 355.151 483.36Q355.258 484.094 355.329 484.833Q355.399 485.571 355.434 486.312Q355.469 487.053 355.468 487.795Q355.467 488.537 355.43 489.278Q355.393 490.019 355.32 490.757Q355.246 491.495 355.138 492.229Q355.029 492.963 354.884 493.691Q354.74 494.418 354.56 495.138Q354.381 495.858 354.166 496.568Q353.952 497.278 353.703 497.977Q353.455 498.676 353.172 499.362Q352.89 500.048 352.575 500.72Q352.259 501.391 351.912 502.047Q351.564 502.702 351.185 503.34Q350.806 503.977 350.397 504.596C345.203 512.391 337.435 516.607 328.42 518.481C320.468 518.715 313.621 517.992 306.872 513.472Q306.236 513.046 305.621 512.589Q305.007 512.132 304.416 511.644Q303.826 511.157 303.26 510.64Q302.695 510.124 302.156 509.58Q301.617 509.036 301.106 508.465Q300.595 507.895 300.113 507.299Q299.631 506.704 299.18 506.085Q298.729 505.467 298.309 504.826Q297.889 504.186 297.502 503.525Q297.115 502.864 296.761 502.185Q296.407 501.506 296.088 500.81Q295.769 500.114 295.485 499.402Q295.201 498.691 294.953 497.967Q294.705 497.242 294.494 496.506Q294.282 495.77 294.108 495.024Q293.934 494.279 293.797 493.525Q293.661 492.75 293.562 491.97Q293.464 491.189 293.404 490.405Q293.344 489.621 293.322 488.834Q293.301 488.048 293.318 487.262Q293.335 486.475 293.391 485.69Q293.446 484.906 293.54 484.125Q293.634 483.344 293.766 482.568Q293.898 481.793 294.068 481.025Q294.238 480.257 294.446 479.498Q294.653 478.739 294.897 477.991Q295.142 477.244 295.422 476.509Q295.703 475.774 296.019 475.054Q296.336 474.333 296.687 473.63Q297.038 472.926 297.423 472.24Q297.809 471.554 298.227 470.888Q298.645 470.222 299.096 469.577C304.574 461.894 312.645 458.073 321.761 456.617Z"/>
	<path fill="#FEFEFE" d="M322.989 458.204Q324.148 458.129 325.309 458.149Q326.47 458.169 327.625 458.283Q328.781 458.398 329.923 458.606Q331.066 458.814 332.187 459.114Q333.309 459.415 334.402 459.805Q335.496 460.196 336.554 460.675Q337.612 461.153 338.627 461.716Q339.643 462.279 340.609 462.923C347.446 467.512 351.545 474.719 352.981 482.705C354.36 490.377 352.677 497.809 348.187 504.151C342.856 511.681 335.877 515.022 326.939 516.529C318.865 516.561 311.799 515.093 305.452 509.843C299.729 505.109 295.894 497.642 295.202 490.248C294.477 482.504 297.475 474.923 302.339 469.003C307.793 462.367 314.488 459.077 322.989 458.204Z"/>
	<path fill="#000001" d="M674.093 220.141C679.161 219.736 684.488 220.084 689.582 220.115L718.141 220.278C727.745 220.326 764.313 219.1 770.785 220.993C773.663 221.835 775.993 224.305 777.331 226.922C778.184 228.59 778.456 230.11 778.595 231.971C779.095 238.667 779.239 295.031 778.029 298.375C776.569 302.41 773.359 304.971 769.601 306.793C764.299 307.35 758.789 306.986 753.455 306.961L726.327 306.902Q711.844 306.816 697.362 306.915C691.233 306.973 684.95 307.331 678.834 307.013C676.423 306.887 673.794 306.557 671.588 305.516C668.846 304.223 666.551 301.425 665.588 298.575C663.974 293.802 664.135 237.935 664.756 230.4C664.889 228.795 665.157 227.549 665.937 226.114C667.757 222.769 670.566 221.211 674.093 220.141Z"/>
	<path fill="#FEFEFE" d="M672.99 222.592C679.73 221.948 686.762 222.311 693.536 222.32L730.428 222.381C739.227 222.387 760.615 221.213 768.297 222.768C771.001 223.316 773.199 224.352 774.673 226.773C775.717 228.487 776.115 230.397 776.325 232.369C777.024 238.937 777.233 293.281 775.753 298.111C774.803 301.208 772.393 302.868 769.699 304.391C760.984 305.629 744.806 304.699 735.136 304.745L695.409 304.848C688.896 304.854 681.419 305.532 675.014 304.394C672.61 303.967 670.126 302.28 668.788 300.247C667.526 298.33 667.202 295.678 667.011 293.449C666.439 286.813 667.02 279.868 667.013 273.184C667.003 263.701 665.725 235.549 667.603 228.366C668.338 225.555 670.655 224.037 672.99 222.592Z"/>
	<path fill="#000001" d="M674.815 231.323C680.988 233.177 713.017 259.155 720.145 264.94L677.741 296.848C677.388 297.05 676.757 297.204 676.365 297.337L675.705 296.686C677.855 292.445 710.361 269.452 716.631 264.939C712.393 261.784 675.323 233.488 675.137 233.14C674.847 232.597 674.923 231.929 674.815 231.323Z"/>
	<path fill="#000001" d="M766.346 230.358C767.181 231.014 767.045 231.023 767.327 231.972C766.044 234.497 730.378 259.992 724.896 264.259C734.17 272.796 745.448 280.145 755.541 287.761C758.842 290.252 763.194 292.941 765.914 296.045C766.613 296.843 766.706 296.921 766.648 298.005L765.728 298.577Q752.427 287.909 738.718 277.769C732.857 273.386 726.657 269.178 721.226 264.283C726.807 259.3 733.3 255.126 739.33 250.695Q752.919 240.634 766.346 230.358Z"/>
	<path fill="#000001" d="M181.187 286.659C206.297 285.924 231.599 286.558 256.728 286.581Q271.037 286.614 285.345 286.489C290.758 286.449 296.316 286.15 301.712 286.513C304.105 286.673 306.62 287.14 308.768 288.244C311.471 289.633 313.496 292.519 314.377 295.38C315.735 299.788 315.465 371.104 314.823 379.585C314.665 381.666 314.244 383.279 313.179 385.069C310.977 388.766 307.681 390.112 303.71 391.151C280.395 391.818 256.84 391.028 233.503 391.006L202.266 391.08C196.257 391.106 190.14 391.397 184.15 390.987C181.553 390.809 178.978 390.419 176.712 389.053C173.49 387.112 171.492 384.146 170.68 380.512C169.274 374.216 170.002 366.884 170.085 360.467Q170.323 346.874 170.295 333.278C170.289 322.105 169.3 310.259 170.171 299.171C170.378 296.527 170.796 293.523 172.343 291.302C174.463 288.259 177.725 287.336 181.187 286.659Z"/>
	<path fill="#FEFEFE" d="M251.978 288.75L284.202 288.652C290.097 288.619 296.502 288.114 302.338 288.846C304.666 289.138 307.567 289.657 309.4 291.246C312.24 293.708 312.8 297.788 312.889 301.326C313.311 318.145 312.992 335.062 312.982 351.89C312.977 360.997 313.922 371.415 312.508 380.35C312.158 382.561 311.041 384.461 309.46 386.021C308.352 387.115 307.066 388.044 305.526 388.396C298.054 390.101 288.674 389.019 280.952 389.014L233.539 388.988L200.579 388.94C194.7 388.933 188.394 389.42 182.573 388.647C180.343 388.351 178.494 387.715 176.719 386.291C173.52 383.724 172.515 380.557 172.247 376.574C171.918 371.697 172.288 366.667 172.338 361.776L172.448 335.847C172.452 324.698 171.409 307.694 172.496 297.351C172.732 295.107 173.504 293.224 175.061 291.558C176.568 289.945 178.472 289.647 180.571 289.344C188.109 288.255 196.51 288.934 204.14 288.906L251.978 288.75Z"/>
	<path fill="#000001" d="M180.262 296.338C181.376 296.388 182.198 296.564 183.192 297.109C188.281 299.895 193.129 304.504 197.698 308.143Q211.9 319.475 225.95 330.995C229.959 334.341 233.853 338.357 238.259 341.13C239.677 342.022 241.421 342.898 243.133 342.84C246.119 342.739 297.301 297.002 302.146 297.341L302.369 298.416Q282.336 313.913 262.716 329.929C257.93 333.865 250.584 341.665 245.716 344.303C243.829 345.326 241.913 345.328 239.91 344.658C236.883 343.646 233.69 340.296 231.337 338.242C220.282 328.59 208.636 319.616 197.105 310.546C191.99 306.524 186.048 302.572 181.394 298.065C180.863 297.551 180.596 296.983 180.262 296.338Z"/>
	<path fill="#000001" d="M510.127 99.2532C521.163 99.1659 564.792 97.8399 572.536 100.94C577.739 103.023 582.072 108.163 584.242 113.216C585.288 115.648 585.679 117.893 585.839 120.512C586.342 128.77 586.016 137.219 586.022 145.496L586.029 191.03L586.033 233.488C586.039 240.56 586.462 247.878 586.019 254.927C585.839 257.782 585.237 260.667 584.115 263.304Q583.633 264.448 583.016 265.525Q582.399 266.602 581.655 267.596Q580.911 268.59 580.052 269.486Q579.193 270.383 578.232 271.168C574.546 274.195 569.722 275.831 565.653 278.302C562.267 280.359 550.842 288.723 548.214 289.47C546.875 289.85 546.688 289.713 545.584 289.048C544.799 284.886 545.209 280.239 545.234 276C540.573 275.567 535.805 275.707 531.125 275.661L481.416 275.702C473.519 275.717 464.44 276.616 456.711 275.198C452.47 274.419 449.556 272.97 446.508 269.948C439.827 263.321 439.668 255.894 439.63 247.075L439.428 158.841L439.431 133.001C439.447 127.773 439.117 122.134 440.027 116.98C440.745 112.918 443.235 109.37 446.106 106.516C449.066 103.572 452.041 101.585 456.124 100.443C464.024 98.2343 473.824 99.2954 481.998 99.3085L510.127 99.2532Z"/>
	<path fill="#FEFEFE" d="M459.948 101.61C464.666 101.062 469.817 101.375 474.576 101.372L502.384 101.372L541.956 101.395C549.042 101.4 556.257 101.103 563.326 101.504C566.156 101.665 570.31 102.149 572.833 103.446C577.409 105.798 581.597 111.504 583.002 116.306C584.68 122.045 583.832 156.611 583.858 164.584L583.89 222.47C583.874 232.399 584.228 242.464 583.744 252.378C583.597 255.392 583.652 260.416 582.095 263.009C581.989 263.186 581.87 263.355 581.761 263.53C576.336 272.238 567.078 273.979 559 279.936C555.085 282.227 551.311 284.804 547.503 287.27C547.386 282.744 547.581 278.217 547.197 273.699C526.536 273.284 505.799 273.584 485.133 273.615C476.262 273.628 466.668 274.539 457.901 273.424C455.642 273.137 453.632 272.276 451.687 271.118Q451.26 270.867 450.845 270.595Q450.431 270.323 450.031 270.031Q449.631 269.738 449.246 269.426Q448.861 269.114 448.493 268.783Q448.124 268.452 447.773 268.102Q447.421 267.753 447.087 267.387Q446.754 267.02 446.439 266.637Q446.124 266.255 445.829 265.856Q445.534 265.458 445.259 265.046Q444.984 264.633 444.731 264.208Q444.477 263.782 444.245 263.344Q444.013 262.906 443.803 262.457Q443.594 262.008 443.407 261.549Q443.22 261.09 443.056 260.622Q442.893 260.155 442.753 259.679Q442.613 259.204 442.497 258.722C441.158 252.914 441.799 245.646 441.777 239.662L441.685 207.35L441.597 152.866C441.59 142.891 441.148 132.663 441.787 122.714C442.044 118.712 442.382 114.781 444.6 111.323C448.113 105.848 453.752 102.915 459.948 101.61Z"/>
	<path fill="#F5D14A" d="M504.815 154.4C511.768 154.406 561.963 153.411 564.728 155.516C564.839 155.6 564.925 155.713 565.024 155.812C562.896 157.371 515.6 156.779 508.835 156.44C503.355 156.932 461.776 157.421 459.003 156.086L458.992 155.391C461.078 153.864 499.051 154.434 504.815 154.4Z"/>
	<path fill="#F5D14A" d="M458.233 181.065C469.999 180.876 562.074 180.48 564.304 181.868C564.989 182.294 564.798 183.13 564.873 183.861C552.05 184.75 536.52 183.922 523.386 183.91C502.118 183.891 480.668 184.402 459.422 183.637C458.281 182.743 458.51 182.43 458.233 181.065Z"/>
	<path fill="#000001" d="M476.1 417.077C486.796 416.195 492.044 421.453 500.698 426.305C506.308 429.45 510.56 429.399 516.54 427.728C515.759 433.133 514.77 435.565 510.885 439.306C511.173 442.529 511.483 445.777 511.585 449.011C511.781 455.217 511.261 461.204 506.833 465.947L507.034 476.414C520.471 476.829 537.98 483.672 547.359 493.512L549.842 489.397C558.029 488.412 566.951 489.142 575.234 489.215C587.433 489.322 599.692 489.1 611.88 489.606C608.061 501.557 598.086 517.244 591.814 528.85C594.492 529.853 596.81 530.906 598.78 533.05C601.431 535.936 602.771 539.648 602.426 543.567Q602.365 544.283 602.23 544.989Q602.094 545.695 601.885 546.383Q601.677 547.071 601.397 547.734Q601.118 548.396 600.771 549.026Q600.424 549.655 600.012 550.245Q599.601 550.835 599.131 551.378Q598.66 551.922 598.135 552.413Q597.61 552.904 597.037 553.338C593.643 555.891 590.078 556.612 585.915 556.117C581.549 563.503 579.148 572.526 576.197 580.591C570.621 595.834 565.141 611.222 559.137 626.3C560.94 634.727 562.37 643.191 563.771 651.692L545.601 651.781L545.696 797.139L545.658 841.672C545.653 848.359 545.948 855.139 545.714 861.813C545.672 863.013 545.56 863.693 544.789 864.674C543.224 865.708 541.52 865.576 539.712 865.647L539.574 875.843L546.156 876.141C546.393 878.421 546.498 880.981 547.451 883.089C553.09 895.564 574.531 894.863 584.173 903.772C588.626 907.887 589.042 913.139 589.295 918.809L739.684 918.753L787.505 918.788C795.766 918.796 804.255 918.408 812.486 918.935C813.72 919.014 815.793 919.002 816.605 919.922C814.678 920.784 812.57 921.118 810.468 921.209C803.143 921.527 795.561 921.103 788.209 921.106L738.626 921.122L588.25 921.13L296.584 920.939L230.692 920.963C224.954 920.972 209.382 921.844 205.141 920.702L204.905 919.488L205.542 918.705C214.46 918.102 223.65 918.586 232.599 918.595L282.661 918.609L444.402 918.56L444.488 876.027L450.651 875.875C450.639 873.54 450.927 871.048 450.684 868.736C450.535 867.332 450.037 866.828 449.024 865.925C446.841 865.25 444.66 865.748 442.436 866.031C441.766 842.016 442.299 817.83 442.28 793.798L442.035 651.945Q434.443 651.931 426.852 651.821C428.53 636.223 432.455 620.417 435.23 604.949C431.677 603.68 428.479 602.294 425.544 599.83C421.349 596.307 418.105 590.518 417.923 584.958C417.844 582.55 418.354 579.944 418.895 577.602C421.63 565.774 425.78 554.052 429.098 542.358C432.28 531.142 436.062 513.441 441.036 503.232C443.538 498.096 447.966 493.019 452.435 489.495Q454.473 487.894 456.714 486.591Q458.954 485.288 461.354 484.308C464.429 483.03 475.315 480.716 476.896 478.779C478.956 476.255 482.419 477.846 485.318 476.603C487.3 474.077 486.534 468.389 486.487 465.159C484.054 464.982 481.541 464.885 479.228 464.047C475.42 462.666 472.703 460.154 471.171 456.388C469.964 453.422 466.803 432.728 466.786 429.359C466.775 427.355 467.107 425.272 467.969 423.449C469.628 419.945 472.614 418.346 476.1 417.077Z"/>
	<path fill="#FEFEFE" d="M483.79 479.662C486.779 479.136 491.382 481.574 494.263 482.667C492.184 484.293 490.028 485.83 487.904 487.399C487.766 487.482 487.629 487.568 487.49 487.649C486.09 488.469 485.171 488.967 483.511 488.454C481.601 487.863 479.373 486.442 478.665 484.469C478.207 483.19 478.481 482.323 479.019 481.151C480.324 479.82 482.036 479.874 483.79 479.662Z"/>
	<path fill="#FEFEFE" d="M506.56 478.956C508.226 478.75 509.723 478.997 511.223 479.765Q511.495 479.902 511.751 480.067Q512.008 480.231 512.247 480.42Q512.485 480.609 512.704 480.821Q512.922 481.033 513.118 481.267Q513.314 481.5 513.485 481.751Q513.657 482.003 513.802 482.271Q513.947 482.539 514.065 482.82Q514.182 483.101 514.271 483.392C514.7 484.831 514.638 486.302 513.71 487.554C512.463 489.236 510.752 489.495 508.801 489.593C505.171 487.517 501.961 484.874 498.756 482.209L506.56 478.956Z"/>
	<path fill="#FEFEFE" d="M488.679 463.922C494.369 466.85 498.158 466.842 504.317 466.621C504.89 470.152 504.873 474.279 504.347 477.82C497.65 480.478 494.3 480.274 487.692 477.806C488.756 473.299 488.587 468.532 488.679 463.922Z"/>
	<path fill="#FEFEFE" d="M453.052 866.094C462.823 865.831 472.639 865.993 482.416 865.967L482.453 875.874L453.013 875.882L453.052 866.094Z"/>
	<path fill="#FEFEFE" d="M509.066 865.542L537.04 865.56C537.146 869.012 537.094 872.482 537.109 875.936L509.032 876.001L509.066 865.542Z"/>
	<path fill="#FEFEFE" d="M590.803 532.112C592.506 531.888 594.411 532.487 595.832 533.405C597.893 534.738 599.038 536.85 599.531 539.212Q599.664 539.834 599.735 540.466Q599.806 541.097 599.813 541.733Q599.821 542.369 599.766 543.002Q599.71 543.636 599.592 544.261Q599.474 544.885 599.294 545.495Q599.115 546.105 598.876 546.695Q598.637 547.284 598.34 547.846Q598.044 548.409 597.693 548.939C595.636 552.009 593.035 553.049 589.513 553.696C587.427 553.632 585.61 553.639 583.782 552.534C581.452 551.126 579.773 549.206 579.231 546.481C578.618 543.398 579.434 540.232 581.222 537.677C583.699 534.136 586.669 532.818 590.803 532.112Z"/>
	<path fill="#FEFEFE" d="M482.596 449.281C485.295 444.829 488.676 440.308 493.967 438.908C498.495 437.71 503.829 438.703 508.4 439.371C509.433 445.923 511.017 455.451 507.054 461.29C505.618 463.406 503.497 464.742 500.968 465.121C496.709 465.759 492.58 463.915 489.277 461.369C486.762 459.43 484.921 456.834 482.681 454.616C483.007 452.784 482.914 451.1 482.596 449.281Z"/>
	<path fill="#FEFEFE" d="M507.466 518.051C508.388 518.008 509.449 517.912 510.359 518.121C514.894 519.165 520.758 526.424 522.82 530.401C524.124 532.916 524.547 535.497 523.52 538.192C521.626 543.165 516.298 546.722 511.554 548.678C509.266 549.296 507.053 550.164 504.719 549.256C499.454 547.205 496.281 540.05 494.269 535.157C496.726 529.615 502.185 521.297 507.466 518.051Z"/>
	<path fill="#719CE6" d="M481.159 463.129C477.968 461.411 475.091 459.443 473.421 456.113C470.947 451.183 471.401 444.599 470.603 439.224C470.131 436.047 469.159 432.933 468.933 429.719C468.822 428.13 468.965 426.455 469.569 424.968C470.68 422.227 473.274 420.396 475.986 419.434C485.2 416.164 497.748 427.278 505.871 431.066L506.687 431.441C504.749 432.929 493.211 431.361 489.515 432.243C487.116 432.815 484.012 434.064 482.77 436.366C481.188 439.298 481.277 445.454 482.355 448.627C482.429 448.847 482.515 449.063 482.596 449.281C482.914 451.1 483.007 452.784 482.681 454.616C481.573 457.167 481.488 460.385 481.159 463.129Z"/>
	<path fill="#FEFEFE" d="M500.28 717.847C501.779 724.485 500.583 745.199 500.641 753.226Q501.121 808.613 501.024 864.002C502.825 864.757 504.663 865.335 506.523 865.924L506.546 876.293L500.005 876.432L499.688 891.124C498.081 889.766 496.563 888.298 495.025 886.864C492.721 883.442 492.111 879.788 491.224 875.825L484.615 875.651L484.627 866.196L489.384 865.35C489.876 846.627 491.92 827.688 493.227 808.987C495.348 778.631 497.176 748.112 500.28 717.847Z"/>
	<path fill="#FEFEFE" d="M577.077 547.982C578.782 550.871 580.387 552.764 583.203 554.636L565.488 602.356C563.202 608.534 560.973 614.736 558.409 620.806C554.634 596.382 549.569 572.241 544.707 548.018C555.489 547.863 566.293 547.99 577.077 547.982Z"/>
	<path fill="#FEFEFE" d="M502.362 878.461C516.095 878.058 529.879 878.363 543.615 878.502C548.98 901.18 571.581 893.757 583.383 906.363C586.75 909.958 587.056 914.119 586.987 918.778L532.128 918.758C532.19 914.569 531.923 910.943 530.666 906.927C522.747 898.826 511.75 896.981 502.088 891.731L502.362 878.461Z"/>
	<path fill="#FEFEFE" d="M447.041 878.348C461.092 878.052 475.195 878.302 489.252 878.307C489.947 881.079 490.551 884.006 492.031 886.483C499.298 898.651 519.593 897.869 529.075 909.102C529.84 912.396 529.862 915.33 529.502 918.658C519.827 919.213 509.934 918.776 500.231 918.75L446.784 918.592Q446.622 898.468 447.041 878.348Z"/>
	<path fill="#F5D14A" d="M550.948 491.512Q579.763 491.693 608.578 491.585C603.099 504.279 595.713 516.294 589.121 528.44C588.757 529.111 589.047 528.664 588.496 529.401C586.462 530.389 584.456 531.377 582.652 532.762C578.499 535.951 577.05 539.833 576.296 544.861L575.771 545.5L520.298 545.582C523.997 541.817 526.565 538.76 527.742 533.439C529.174 526.968 539.31 512.291 543.111 505.865C545.893 501.162 548.447 496.369 550.948 491.512Z"/>
	<path fill="#FEFEFE" d="M515.006 479.885C527.048 483.836 537.103 485.839 546.367 495.254C540.476 506.53 529.576 520.379 526.694 532.292C524.895 529.578 519.301 522.783 518.492 520.493L519.2 520.174C521.651 521.037 522.228 522.942 524.151 524.311C525.074 524.969 525.156 524.927 526.247 524.662C526.263 524.439 526.31 524.217 526.294 523.994C526.122 521.608 523.1 519.692 521.322 518.562C516.506 518.529 513.792 516.021 509.499 515.693C506.886 515.493 504.263 517.452 502.482 519.153C498.639 522.822 492.399 531.101 492.619 536.568C492.819 541.538 499.68 548.579 503.336 551.64Q493.749 562.777 483.113 572.918Q472.478 583.059 460.898 592.106C455.908 595.603 450.837 599.498 445.001 601.46C440.009 603.139 435.393 603.034 430.652 600.597Q430.214 600.375 429.788 600.13Q429.362 599.885 428.95 599.619Q428.537 599.353 428.138 599.066Q427.74 598.779 427.356 598.472Q426.973 598.165 426.606 597.839Q426.239 597.513 425.889 597.168Q425.539 596.823 425.207 596.461Q424.875 596.099 424.562 595.72Q424.249 595.342 423.956 594.948Q423.663 594.553 423.391 594.145Q423.118 593.736 422.867 593.314Q422.616 592.892 422.387 592.458Q422.158 592.023 421.951 591.578Q421.745 591.132 421.561 590.676Q421.378 590.221 421.218 589.756Q421.058 589.292 420.922 588.82C420.104 585.978 420.13 583.421 420.616 580.534C422.281 570.645 426.289 560.301 429.091 550.63C433.039 536.996 438.197 512.793 444.816 501.048C451.273 489.591 463.93 485.373 475.784 482.027C475.97 482.892 476.16 483.739 476.468 484.571C478.05 488.838 481.349 490.379 485.211 492.14C489.21 489.573 492.902 486.559 496.958 484.018C501.672 487.264 505.754 491.058 511.436 492.457C513.545 490.865 515.797 488.809 516.507 486.168C517.146 483.795 516.242 481.86 515.006 479.885Z"/>
	<path fill="#000001" d="M471.534 513.633C472.497 514.158 472.062 513.8 472.796 514.758C472.693 521.977 468.483 536.254 467.088 544.35C470.836 541.202 476.146 536.411 480.73 534.752C481.729 534.391 481.276 534.404 482.282 534.885L482.316 535.761C480.18 537.972 477.185 539.291 474.702 541.105C469.818 544.674 465.078 548.467 460.251 552.117C454.53 556.293 448.73 561.175 442.12 563.83C447.354 557.008 457.081 551.5 464.054 546.469C466.29 535.625 468.028 524.134 471.534 513.633Z"/>
	<path fill="#FEFEFE" d="M518.159 548.134C526.129 547.899 534.15 548.056 542.126 548.029C544.037 555.093 545.225 562.299 546.622 569.475Q549.827 585.667 552.794 601.905C555.612 617.567 559.131 633.514 560.573 649.362L472.25 649.504L429.476 649.496C432.377 634.831 434.261 619.915 437.625 605.344C441.892 604.748 445.63 603.92 449.554 602.071C467.974 593.389 492.644 567.713 505.914 552.259C510.16 551.122 514.1 549.847 518.159 548.134Z"/>
	<path fill="#000001" d="M507.37 593.434C508.625 593.426 510.106 593.334 511.184 594.116C512.371 594.979 512.476 595.603 512.72 596.929C512.265 598.67 511.826 599.164 510.484 600.362C509.272 600.406 508.033 600.4 506.976 599.688C506.061 599.071 505.532 598.148 505.505 597.043C505.469 595.516 506.428 594.486 507.37 593.434Z"/>
	<path fill="#000001" d="M507.719 622.854C509.031 623.004 510.443 623.147 511.541 623.974C512.637 624.799 512.682 625.437 512.891 626.68C512.445 628.304 511.806 628.967 510.635 630.083C509.377 630.032 508.024 629.976 506.962 629.188C505.788 628.318 505.702 627.633 505.47 626.314C505.934 624.664 506.466 624.006 507.719 622.854Z"/>
	<path fill="#000001" d="M506.964 564.92C508.271 564.804 509.717 564.664 510.939 565.288C512.226 565.947 512.37 566.648 512.797 567.903C512.553 569.665 512.232 570.387 511.191 571.831C510.002 571.922 508.606 571.973 507.482 571.467C506.231 570.903 506.002 570.237 505.513 569.078C505.581 567.302 506.037 566.419 506.964 564.92Z"/>
	<path fill="#FEFEFE" d="M444.468 651.906C477.385 651.401 510.361 651.778 543.285 651.783L543.231 863.262C529.977 863.072 516.701 863.235 503.444 863.246L503.118 739.25C503.146 732.825 503.955 702.413 503.026 698.616C502.765 697.548 502.327 697.481 501.434 696.989L500.629 697.459C497.361 703.071 488.599 842.968 486.911 863.461L444.781 863.51C444.211 854.88 444.557 846.001 444.549 837.342L444.519 791.708L444.468 651.906Z"/>
</svg>
