<?xml version="1.0" encoding="utf-8" ?>
<svg xmlns="http://www.w3.org/2000/svg" xmlns:xlink="http://www.w3.org/1999/xlink" width="1024" height="1024">
	<path fill="white" d="M0 0L1024 0L1024 1024L0 1024L0 0Z"/>
	<path fill="#C53929" d="M204.762 241.487C206.891 244.747 205.662 254.099 205.574 258.133C214.408 258.095 231.382 256.913 239.423 258.952C241.584 259.499 243.308 260.388 244.898 261.958C246.437 263.479 247.873 265.625 248.252 267.793C249.498 274.913 248.559 285.428 248.554 292.836C248.544 308.816 248.864 324.868 248.576 340.84C248.492 345.446 248.181 348.919 244.563 352.207C242.51 354.073 240.048 355.333 237.375 356.039L235.216 354.502C236.151 354.358 237.095 354.21 238.01 353.97C241.301 353.105 243.988 351.034 245.546 347.99C246.508 346.111 246.948 343.979 247.111 341.887C247.404 338.113 247.229 303.664 246.575 301.838C246.29 301.042 245.572 300.954 244.86 300.602C240.283 298.726 231.179 300.361 225.735 299.604C232.782 299.322 239.923 299.547 246.98 299.537C247.035 291.682 248.458 272.562 245.563 265.919C244.444 263.35 242.49 261.656 239.873 260.69C235.787 259.183 146.263 258.864 135.106 259.987C134.008 260.098 132.995 260.403 132 260.88C128.984 262.325 126.996 264.987 125.975 268.109L125.465 265.282C126.144 264.206 126.829 263.089 127.72 262.174C133.864 255.862 157.388 258.044 166.568 258.084C166.518 253.198 165.683 246.698 166.992 242.029L167.947 242.693C167.859 247.509 167.101 253.389 168.086 258.061L203.694 258.062C203.89 253.285 203.793 248.481 203.797 243.7L204.762 241.487Z"/>
	<path fill="white" d="M166.992 242.029C172.173 240.236 197.28 241.647 204.762 241.487L203.797 243.7C203.793 248.481 203.89 253.285 203.694 258.062L168.086 258.061C167.101 253.389 167.859 247.509 167.947 242.693L166.992 242.029Z"/>
	<path fill="#EE5F59" d="M166.992 242.029C172.173 240.236 197.28 241.647 204.762 241.487L203.797 243.7Q186.085 243.442 168.371 243.586C168.365 248.284 168.792 253.43 168.086 258.061C167.101 253.389 167.859 247.509 167.947 242.693L166.992 242.029Z"/>
	<path fill="#6BA1D5" d="M431.877 749.009Q454.202 734.892 477.439 722.334C490.193 731.476 502.297 741.548 515.069 750.604C504.558 749.939 436.096 751.499 432.86 749.827C432.482 749.631 432.205 749.282 431.877 749.009Z"/>
	<path fill="#C53929" d="M195.689 435.608C205.249 434.877 213.758 436.659 221.35 442.788C228.457 448.525 233.17 456.509 234.035 465.657C234.522 470.816 233.929 476.102 231.825 480.87C228.329 488.795 221.253 495.974 215.841 502.675C211.548 507.989 207.43 513.421 203.031 518.652C202.258 519.481 201.542 520.112 200.605 520.75C200.146 520.659 199.981 520.663 199.539 520.367C196.34 518.223 173.454 489.736 170.539 485.216C168.57 482.163 167.063 478.845 166.262 475.292C164.322 466.682 166.884 457.972 171.68 450.775C177.43 442.144 185.658 437.55 195.689 435.608Z"/>
	<path fill="white" d="M196.43 437.16C196.481 437.153 196.532 437.145 196.583 437.141C205.727 436.431 214.014 438.816 221.093 444.743Q221.71 445.258 222.3 445.802Q222.89 446.347 223.452 446.921Q224.014 447.495 224.546 448.096Q225.079 448.698 225.581 449.325Q226.082 449.952 226.552 450.604Q227.021 451.255 227.457 451.93Q227.894 452.604 228.296 453.299Q228.697 453.995 229.064 454.71Q229.43 455.424 229.76 456.156Q230.091 456.889 230.383 457.637Q230.676 458.384 230.931 459.146Q231.187 459.908 231.403 460.681Q231.62 461.454 231.797 462.238Q231.974 463.021 232.112 463.812Q232.25 464.604 232.348 465.401Q232.446 466.198 232.504 466.999C232.809 471.247 232.311 475.498 230.637 479.443C226.755 488.589 209.45 508.206 202.24 516.678C201.611 517.304 201.25 517.516 200.475 517.9C199.835 517.732 199.861 517.771 199.17 517.408C195.587 515.527 174.356 488.096 171.395 483.308C169.768 480.676 168.552 477.873 167.931 474.831C166.245 466.562 168.871 457.77 173.627 450.957C179.191 442.988 186.998 438.783 196.43 437.16Z"/>
	<path fill="white" d="M125.975 268.109C126.996 264.987 128.984 262.325 132 260.88C132.995 260.403 134.008 260.098 135.106 259.987C146.263 258.864 235.787 259.183 239.873 260.69C242.49 261.656 244.444 263.35 245.563 265.919C248.458 272.562 247.035 291.682 246.98 299.537C239.923 299.547 232.782 299.322 225.735 299.604C215.106 299.299 204.425 299.503 193.789 299.495C193.65 297.593 193.694 295.421 192.669 293.751C191.79 292.319 190.399 291.186 188.741 290.812C187.179 290.461 185.58 290.937 184.308 291.861C181.557 293.861 181.41 296.46 181.045 299.543Q153.514 299.42 125.983 299.583C125.805 289.103 125.964 278.591 125.975 268.109Z"/>
	<path fill="#010001" d="M343.745 837.988C337.958 829.868 334.623 821.569 336.344 811.455C338.048 801.44 344.143 791.723 352.439 785.863C360.324 780.293 370.317 778.463 379.748 780.204C389.672 782.037 397.994 787.607 403.589 795.993Q404.076 796.712 404.526 797.455Q404.976 798.197 405.389 798.961Q405.801 799.725 406.175 800.509Q406.549 801.293 406.883 802.095Q407.217 802.896 407.511 803.714Q407.804 804.531 408.056 805.362Q408.309 806.193 408.519 807.036Q408.729 807.878 408.897 808.73Q409.065 809.582 409.19 810.442Q409.315 811.301 409.397 812.166Q409.479 813.03 409.517 813.898Q409.555 814.765 409.55 815.634Q409.545 816.502 409.497 817.369Q409.448 818.236 409.357 819.1Q409.265 819.963 409.13 820.821Q408.995 821.679 408.817 822.529C407.63 828.061 405.153 833.155 402 837.823C416.991 841.622 428.889 847.752 437.104 861.452C439.649 865.695 441.273 870.163 442.546 874.924C446.703 861.36 453.933 850.696 466.75 843.968C472.477 840.963 478.618 839.289 484.862 837.734C479.329 828.092 475.961 818.067 479.039 806.937Q479.289 806.06 479.582 805.197Q479.874 804.333 480.208 803.484Q480.542 802.636 480.917 801.804Q481.291 800.973 481.705 800.161Q482.119 799.348 482.572 798.557Q483.025 797.765 483.516 796.997Q484.006 796.228 484.534 795.484Q485.061 794.74 485.623 794.022Q486.185 793.304 486.782 792.615Q487.378 791.925 488.007 791.265Q488.636 790.605 489.297 789.976Q489.957 789.347 490.647 788.75Q491.336 788.154 492.054 787.592Q492.772 787.029 493.516 786.502Q494.26 785.975 495.029 785.484Q495.798 784.994 496.589 784.541Q497.342 784.118 498.115 783.734Q498.888 783.349 499.679 783.004Q500.47 782.658 501.278 782.353Q502.086 782.047 502.907 781.783Q503.729 781.518 504.563 781.294Q505.397 781.071 506.241 780.89Q507.086 780.708 507.938 780.57Q508.79 780.431 509.648 780.334Q510.506 780.238 511.368 780.185Q512.229 780.132 513.093 780.122Q513.956 780.112 514.819 780.145Q515.682 780.178 516.542 780.255Q517.402 780.331 518.257 780.45Q519.112 780.569 519.96 780.731Q520.808 780.892 521.647 781.096Q522.486 781.3 523.314 781.546Q524.16 781.791 524.993 782.078Q525.826 782.365 526.643 782.693Q527.46 783.021 528.26 783.389Q529.06 783.758 529.841 784.166Q530.621 784.574 531.38 785.021Q532.139 785.467 532.875 785.951Q533.611 786.435 534.322 786.955Q535.032 787.476 535.716 788.031Q536.4 788.586 537.055 789.174Q537.711 789.763 538.336 790.383Q538.961 791.004 539.554 791.655Q540.147 792.306 540.707 792.986Q541.267 793.666 541.792 794.373Q542.317 795.08 542.806 795.812Q543.295 796.545 543.747 797.301Q544.199 798.056 544.613 798.834C549.297 807.639 549.885 817.54 546.899 827.003C545.608 831.093 543.771 834.735 541.204 838.172C556.317 841.511 568.313 846.699 576.918 860.246C579.779 864.749 581.636 869.537 583.344 874.565C589.952 858.874 596.164 848.487 612.654 841.841C616.44 840.315 620.336 839.193 624.275 838.141C618.474 827.449 615.623 817.499 619.244 805.493C622.034 796.246 628.104 788.947 636.623 784.418C645.378 779.764 655.391 778.651 664.859 781.706Q665.705 781.984 666.537 782.303Q667.368 782.623 668.183 782.983Q668.998 783.343 669.794 783.742Q670.589 784.142 671.365 784.58Q672.14 785.019 672.893 785.495Q673.646 785.971 674.374 786.484Q675.102 786.996 675.805 787.544Q676.507 788.092 677.181 788.674Q677.855 789.256 678.5 789.87Q679.145 790.485 679.759 791.13Q680.373 791.776 680.954 792.45Q681.535 793.125 682.082 793.828Q682.629 794.531 683.141 795.26Q683.653 795.989 684.129 796.742Q684.604 797.495 685.042 798.271Q685.479 799.047 685.878 799.843C690.252 808.477 690.725 819.135 687.671 828.272C686.466 831.876 684.747 835.118 682.602 838.254C696.109 839.922 707.087 845.182 715.64 856.078C719.792 861.369 722.675 867.631 724.544 874.067C729.216 860.04 735.949 849.87 749.492 843.064C754.418 840.589 759.468 839.143 764.837 838.013C759 826.744 755.622 816.699 759.61 804.037Q759.874 803.207 760.18 802.391Q760.485 801.575 760.83 800.776Q761.176 799.976 761.561 799.195Q761.945 798.413 762.369 797.652Q762.792 796.891 763.252 796.151Q763.713 795.412 764.21 794.696Q764.706 793.981 765.238 793.291Q765.77 792.601 766.335 791.938Q766.901 791.276 767.498 790.642Q768.096 790.008 768.725 789.405Q769.353 788.802 770.011 788.231Q770.668 787.66 771.354 787.122Q772.039 786.584 772.75 786.081Q773.461 785.578 774.196 785.111Q774.932 784.644 775.689 784.214Q776.447 783.785 777.225 783.393Q778.029 782.994 778.852 782.635Q779.676 782.276 780.515 781.958Q781.355 781.639 782.209 781.363Q783.063 781.086 783.93 780.852Q784.797 780.618 785.675 780.426Q786.552 780.235 787.438 780.087Q788.323 779.939 789.215 779.835Q790.107 779.73 791.003 779.67Q791.899 779.609 792.797 779.593Q793.695 779.577 794.592 779.605Q795.49 779.632 796.385 779.704Q797.28 779.776 798.17 779.892Q799.061 780.008 799.944 780.167Q800.828 780.327 801.703 780.529Q802.578 780.732 803.442 780.977Q804.305 781.223 805.156 781.51Q805.999 781.794 806.826 782.119Q807.654 782.445 808.464 782.811Q809.275 783.177 810.066 783.583Q810.857 783.989 811.627 784.434Q812.397 784.878 813.145 785.361Q813.892 785.843 814.614 786.362Q815.336 786.88 816.032 787.435Q816.727 787.989 817.395 788.576Q818.062 789.164 818.699 789.785Q819.336 790.405 819.942 791.056Q820.548 791.707 821.12 792.387Q821.693 793.068 822.231 793.776Q822.769 794.484 823.272 795.217Q823.774 795.951 824.24 796.709Q824.705 797.467 825.132 798.247Q825.559 799.027 825.947 799.827C830.055 808.161 830.842 817.765 827.74 826.551C826.251 830.768 824.16 834.897 822.057 838.841C835.241 840.387 846.327 846.067 854.65 856.649C861.673 865.578 866.121 879.178 864.482 890.549C864.275 891.983 864.081 893.852 862.871 894.801L862.523 894.893C861.448 893.218 861.435 892.073 861.421 890.111C862.319 881.055 858.355 869.257 853.474 861.712C844.19 847.363 832.072 844.354 816.442 841.064C817.304 838.318 819.242 835.629 820.638 833.105C825.217 824.83 827.394 816.177 824.697 806.85C822.334 798.682 816.44 791.666 809.013 787.614C801.454 783.491 792.305 782.289 784.015 784.789Q783.266 785.02 782.528 785.287Q781.791 785.554 781.068 785.856Q780.344 786.159 779.636 786.496Q778.928 786.833 778.237 787.204Q777.546 787.575 776.874 787.978Q776.202 788.382 775.55 788.818Q774.898 789.254 774.269 789.721Q773.639 790.188 773.032 790.685Q772.426 791.182 771.844 791.708Q771.262 792.233 770.706 792.787Q770.151 793.34 769.622 793.919Q769.094 794.499 768.594 795.103Q768.095 795.708 767.625 796.336Q767.155 796.963 766.716 797.613Q766.278 798.263 765.871 798.933Q765.464 799.604 765.09 800.293Q764.853 800.749 764.631 801.211Q764.408 801.674 764.2 802.144Q763.991 802.613 763.797 803.089Q763.603 803.564 763.424 804.045Q763.245 804.526 763.08 805.013Q762.915 805.499 762.766 805.991Q762.616 806.482 762.482 806.978Q762.347 807.473 762.228 807.973Q762.109 808.472 762.005 808.975Q761.901 809.478 761.813 809.984Q761.724 810.49 761.651 810.998Q761.578 811.507 761.521 812.017Q761.463 812.527 761.422 813.039Q761.38 813.551 761.354 814.064Q761.328 814.577 761.317 815.09Q761.307 815.604 761.312 816.117Q761.318 816.63 761.339 817.144Q761.36 817.657 761.396 818.169Q761.433 818.681 761.486 819.192Q761.538 819.703 761.606 820.212Q761.674 820.721 761.757 821.228Q761.841 821.734 761.94 822.238Q762.039 822.742 762.153 823.243Q762.268 823.744 762.397 824.24Q762.527 824.737 762.671 825.23Q762.816 825.723 762.976 826.211Q763.136 826.699 763.31 827.182Q763.485 827.665 763.674 828.142Q763.864 828.62 764.067 829.091Q764.271 829.562 764.489 830.027Q764.707 830.492 764.94 830.95Q765.172 831.408 765.418 831.859C766.776 834.383 769.25 836.795 770.061 839.482C769.577 840.458 769.481 840.679 768.415 841.121C765.995 842.123 762.895 842.448 760.324 843.061Q758.952 843.398 757.603 843.821Q756.255 844.243 754.935 844.748Q753.615 845.253 752.329 845.84Q751.044 846.426 749.797 847.091Q748.55 847.756 747.347 848.498Q746.144 849.24 744.99 850.054Q743.835 850.87 742.734 851.755Q741.632 852.64 740.588 853.592C730.049 863.358 726.702 876.249 726.211 890.117C726.171 890.765 726.173 891.591 726.018 892.236C725.751 893.343 725.29 893.743 724.38 894.359L723.478 894.113C722.392 892.475 722.579 891.665 722.525 889.733C722.368 880.881 720.412 871.896 716.199 864.071Q715.684 863.105 715.12 862.166Q714.556 861.228 713.944 860.32Q713.332 859.412 712.674 858.538Q712.016 857.663 711.313 856.823Q710.61 855.984 709.864 855.182Q709.118 854.381 708.332 853.619Q707.546 852.857 706.721 852.137Q705.897 851.417 705.036 850.741Q704.174 850.064 703.279 849.434Q702.384 848.803 701.458 848.22Q700.531 847.637 699.576 847.102Q698.62 846.568 697.638 846.084Q696.656 845.6 695.65 845.168Q694.644 844.736 693.617 844.356Q692.59 843.977 691.545 843.651Q690.5 843.326 689.439 843.055C685.784 842.098 681.987 841.916 678.362 840.85C677.821 839.739 677.577 839.185 678.124 837.993C678.974 836.14 680.526 834.428 681.537 832.618C685.225 826.014 686.755 818.644 685.613 811.132C684.326 802.664 679.439 794.523 672.484 789.504C665.473 784.444 656.876 782.623 648.38 784.118C639.752 785.637 632.18 790.069 627.145 797.318C620.092 807.473 619.593 820.566 624.839 831.592C626.065 834.17 628.76 837.258 629.262 839.957C627.527 842.439 615.902 844.449 612.351 845.903Q609.309 847.129 606.509 848.837Q603.708 850.544 601.225 852.686C590.651 861.898 586.224 875.878 585.316 889.461C585.212 891.416 585.325 893.244 584.097 894.876L583.147 895.401C582.151 894.686 581.738 894.148 581.531 892.892C581.384 891.997 581.425 891.017 581.424 890.11C581.58 887.431 581.382 884.677 581.112 882.009C579.241 863.545 566.45 849.114 548.839 843.964C545.204 842.901 538.587 842.598 535.694 840.254C536.596 837.535 538.953 835.216 540.572 832.866C542.65 829.849 543.965 825.858 544.665 822.275Q544.826 821.489 544.947 820.695Q545.068 819.902 545.149 819.104Q545.23 818.305 545.271 817.504Q545.311 816.702 545.312 815.9Q545.312 815.097 545.272 814.296Q545.232 813.494 545.152 812.696Q545.072 811.897 544.952 811.104Q544.831 810.31 544.671 809.524Q544.511 808.737 544.312 807.96Q544.113 807.182 543.875 806.416Q543.637 805.65 543.36 804.896Q543.084 804.143 542.77 803.404Q542.456 802.666 542.106 801.944Q541.755 801.222 541.368 800.518Q540.982 799.815 540.561 799.132Q540.139 798.449 539.684 797.788C534.962 790.859 527.534 785.714 519.239 784.211Q518.459 784.069 517.672 783.966Q516.886 783.863 516.095 783.798Q515.305 783.734 514.512 783.708Q513.719 783.683 512.926 783.697Q512.133 783.71 511.341 783.763Q510.55 783.816 509.762 783.908Q508.974 784 508.192 784.13Q507.409 784.26 506.634 784.429Q505.859 784.598 505.094 784.805Q504.328 785.012 503.573 785.256Q502.818 785.5 502.077 785.782Q501.335 786.063 500.608 786.38Q499.881 786.698 499.171 787.051Q498.46 787.403 497.768 787.791Q497.076 788.178 496.404 788.599Q495.732 789.02 495.081 789.474C488.349 794.229 482.932 802.283 481.652 810.459C479.793 822.329 484.545 831.245 491.303 840.529C477.681 844.127 467.002 845.141 456.679 855.917C447.892 865.089 444.173 877.468 444.493 890.011C444.471 890.609 444.511 891.595 444.327 892.194C443.91 893.543 443.601 893.76 442.457 894.401L441.443 893.959C440.457 892.552 440.506 891.52 440.493 889.881C441.029 870.481 431.154 852.136 412.655 844.952C409.297 843.648 399.416 842.287 397.5 839.812C398.607 836.145 401.177 832.79 402.987 829.409C406.846 822.198 407.17 814.014 404.754 806.242Q404.513 805.454 404.232 804.679Q403.952 803.904 403.633 803.144Q403.314 802.384 402.957 801.641Q402.601 800.898 402.207 800.174Q401.814 799.45 401.385 798.746Q400.955 798.043 400.491 797.362Q400.027 796.681 399.53 796.024Q399.032 795.367 398.502 794.735Q397.972 794.104 397.411 793.5Q396.851 792.897 396.26 792.322Q395.67 791.747 395.051 791.202Q394.433 790.658 393.787 790.145Q393.142 789.632 392.472 789.152Q391.802 788.672 391.109 788.226Q390.416 787.781 389.701 787.37Q388.986 786.96 388.252 786.586Q387.531 786.215 386.792 785.881Q386.054 785.546 385.299 785.248Q384.545 784.951 383.777 784.691Q383.009 784.431 382.229 784.209Q381.449 783.987 380.659 783.804Q379.869 783.621 379.071 783.478Q378.273 783.334 377.469 783.23Q376.665 783.126 375.857 783.062Q375.048 782.998 374.238 782.974Q373.427 782.95 372.617 782.966Q371.806 782.982 370.997 783.038Q370.188 783.095 369.383 783.191Q368.578 783.287 367.779 783.422Q366.979 783.558 366.187 783.733Q365.396 783.908 364.614 784.122Q363.832 784.336 363.061 784.589C354.343 787.467 346.845 794.251 342.85 802.486C338.226 812.018 338.567 822.426 343.672 831.692C345.038 834.171 347.322 836.529 348.243 839.148C344.801 843.07 336.869 843.655 332.047 845.548C327.482 847.339 323.321 849.79 319.71 853.125C309.002 863.016 305.658 875.535 305.068 889.591C305.033 891.376 305.102 892.555 304.019 894.029L303.095 894.466C302.03 893.784 301.793 893.527 301.428 892.225C301.256 891.61 301.283 890.691 301.254 890.074C300.948 881.697 299.736 873.961 295.96 866.371C290.694 855.785 280.958 848.031 269.873 844.205C266.315 842.977 262.363 842.46 258.903 841.062C257.642 840.552 257.088 840.211 256.511 838.987C257.228 836.132 259.733 833.822 261.211 831.289C265.207 824.439 266.575 816.569 264.436 808.869Q264.199 808.041 263.923 807.225Q263.646 806.409 263.33 805.607Q263.014 804.806 262.66 804.02Q262.306 803.235 261.914 802.468Q261.522 801.7 261.094 800.953Q260.665 800.205 260.201 799.48Q259.737 798.754 259.238 798.051Q258.74 797.349 258.207 796.671Q257.675 795.993 257.111 795.342Q256.547 794.691 255.952 794.068Q255.357 793.445 254.732 792.852Q254.107 792.258 253.455 791.696Q252.802 791.133 252.123 790.603Q251.444 790.073 250.741 789.576Q250.037 789.079 249.31 788.617Q248.583 788.155 247.834 787.728C240.227 783.434 230.896 782.601 222.533 784.979Q221.753 785.204 220.984 785.468Q220.216 785.731 219.461 786.032Q218.707 786.333 217.968 786.67Q217.229 787.008 216.508 787.381Q215.786 787.755 215.084 788.163Q214.382 788.572 213.701 789.014Q213.02 789.457 212.361 789.932Q211.703 790.408 211.068 790.915Q210.434 791.422 209.825 791.96Q209.217 792.498 208.635 793.066Q208.054 793.633 207.501 794.228Q206.948 794.823 206.425 795.445Q205.903 796.067 205.411 796.713Q204.919 797.36 204.46 798.03Q204.001 798.7 203.575 799.391Q203.149 800.083 202.758 800.795C198.4 808.694 196.849 821.49 201.648 829.567C203.636 832.913 206.962 836.186 208.06 839.897C206.202 842.764 195.147 843.974 191.517 845.478C186.342 847.622 181.543 850.431 177.439 854.272C167.289 863.771 163.34 876.036 162.952 889.622C162.735 890.995 162.703 892.564 161.785 893.664L160.837 893.824C158.501 890.273 159.531 881.048 160.428 876.962Q160.691 875.747 161.015 874.548Q161.339 873.348 161.724 872.167Q162.109 870.985 162.554 869.825Q162.998 868.664 163.502 867.528Q164.005 866.392 164.566 865.283Q165.126 864.174 165.743 863.095Q166.359 862.016 167.03 860.97Q167.701 859.923 168.424 858.913Q169.147 857.902 169.921 856.93Q170.695 855.958 171.517 855.026Q172.339 854.094 173.208 853.206Q174.077 852.317 174.99 851.474Q175.903 850.631 176.858 849.836Q177.813 849.041 178.807 848.295Q179.801 847.549 180.832 846.855Q181.863 846.161 182.928 845.521C189.234 841.734 195.86 839.623 203.052 838.246C197.035 830.194 194.237 821.253 195.618 811.152C196.906 801.731 202.253 793.094 209.843 787.441C218.055 781.324 227.978 779.102 238.065 780.71Q238.945 780.858 239.817 781.049Q240.688 781.239 241.55 781.472Q242.411 781.704 243.26 781.978Q244.109 782.252 244.944 782.567Q245.779 782.882 246.597 783.238Q247.416 783.593 248.216 783.987Q249.016 784.381 249.797 784.814Q250.577 785.247 251.335 785.717Q252.093 786.187 252.828 786.694Q253.563 787.2 254.272 787.741Q254.981 788.283 255.663 788.858Q256.345 789.433 256.998 790.041Q257.652 790.648 258.275 791.287Q258.898 791.926 259.489 792.594Q260.081 793.262 260.639 793.958Q261.197 794.654 261.721 795.376C266.992 802.665 269.475 812.264 268.023 821.174C267.004 827.433 264.33 832.755 260.94 838.037C275.842 841.041 287.552 846.896 296.222 859.887C299.043 864.114 301.131 868.744 302.782 873.539C308.193 859.82 315.678 848.369 329.624 842.237C334.079 840.278 338.959 838.862 343.745 837.988Z"/>
	<path fill="white" d="M237.375 356.039C215.534 356.371 193.657 356.05 171.813 356.013C160.454 355.994 148.832 356.702 137.51 356.114C135.632 356.017 133.867 355.847 132.123 355.092C129.273 353.857 126.88 351.787 125.745 348.858C124.923 346.739 124.572 344.436 124.436 342.176C123.824 332.03 124.585 321.553 124.557 311.366C124.519 297.546 123.748 283.435 124.494 269.656C124.578 268.11 124.849 266.714 125.465 265.282L125.975 268.109C125.964 278.591 125.805 289.103 125.983 299.583Q153.514 299.42 181.045 299.543C181.41 296.46 181.557 293.861 184.308 291.861C185.58 290.937 187.179 290.461 188.741 290.812C190.399 291.186 191.79 292.319 192.669 293.751C193.694 295.421 193.65 297.593 193.789 299.495C204.425 299.503 215.106 299.299 225.735 299.604C231.179 300.361 240.283 298.726 244.86 300.602C245.572 300.954 246.29 301.042 246.575 301.838C247.229 303.664 247.404 338.113 247.111 341.887C246.948 343.979 246.508 346.111 245.546 347.99C243.988 351.034 241.301 353.105 238.01 353.97C237.095 354.21 236.151 354.358 235.216 354.502L237.375 356.039Z"/>
	<path fill="#9D2C1A" d="M237.375 356.039C215.534 356.371 193.657 356.05 171.813 356.013C160.454 355.994 148.832 356.702 137.51 356.114C135.632 356.017 133.867 355.847 132.123 355.092C129.273 353.857 126.88 351.787 125.745 348.858C124.923 346.739 124.572 344.436 124.436 342.176C123.824 332.03 124.585 321.553 124.557 311.366C124.519 297.546 123.748 283.435 124.494 269.656C124.578 268.11 124.849 266.714 125.465 265.282L125.975 268.109C125.964 278.591 125.805 289.103 125.983 299.583Q153.514 299.42 181.045 299.543C181.41 296.46 181.557 293.861 184.308 291.861C185.58 290.937 187.179 290.461 188.741 290.812C190.399 291.186 191.79 292.319 192.669 293.751C193.694 295.421 193.65 297.593 193.789 299.495C204.425 299.503 215.106 299.299 225.735 299.604C231.179 300.361 240.283 298.726 244.86 300.602C239.314 301.802 232.536 301.114 226.843 301.093Q210.382 300.963 193.921 301.022C193.81 305.363 194.143 309.963 190.675 313.209C189.75 314.075 188.436 314.804 187.133 314.743C185.66 314.673 184.221 313.606 183.381 312.446C180.916 309.039 181.429 304.999 181.506 301.04Q153.751 300.836 126.001 301.4L125.954 328.192C125.951 333.886 125.47 340.019 126.575 345.61C127.003 347.775 127.709 349.726 129.303 351.307C131.03 353.022 133.24 354.009 135.632 354.352C144.43 355.616 157.674 354.531 166.967 354.524L235.216 354.502L237.375 356.039Z"/>
	<path fill="white" d="M185.853 292.419C187.501 292.442 189.375 292.396 190.581 293.738C192.766 296.17 192.882 301.263 192.538 304.32C192.16 307.676 192.158 309.955 189.38 312.174C188.606 312.303 187.744 312.49 186.96 312.458C185.696 312.406 184.794 311.813 184.018 310.846C182.235 308.624 182.354 303.895 182.558 301.151C182.84 297.372 182.859 295.033 185.853 292.419Z"/>
	<path fill="#476EA7" d="M779.286 322.198L797.499 322.143C796.876 345.844 797.209 369.601 797.368 393.308L815.046 393.469L815.115 430.99L831.603 430.991C831.567 406.505 831.493 381.962 831.915 357.483L850.563 357.44C851.658 365.775 851.044 374.813 851.074 383.251L851.189 430.977L867.517 430.971L867.446 351.75Q867.405 338.839 867.592 325.93C873.939 325.942 880.298 326.07 886.627 325.524C885.824 360.568 886.463 395.747 886.487 430.802C890.473 430.569 894.397 430.585 898.388 430.696C897.994 436.419 898.176 442.222 898.176 447.957L779.465 448.031L779.286 322.198Z"/>
	<path fill="white" d="M797.457 394.825C802.807 395.07 808.207 394.911 813.564 394.9C813.415 406.868 813.566 418.856 813.577 430.826Q805.537 430.774 797.497 430.885L797.457 394.825Z"/>
	<path fill="white" d="M833.317 359.03L849.408 358.881C849.911 382.893 849.527 406.99 849.506 431.01L833.033 431L833.317 359.03Z"/>
	<path fill="white" d="M870.5 327.264C875.39 327.065 880.307 327.117 885.201 327.072Q884.921 363.716 885.031 400.362C885.039 406.877 885.917 425.122 884.847 430.494L884.008 430.942L869.032 430.979C868.999 419.454 868.115 330.267 869.363 327.586L870.5 327.264Z"/>
	<path fill="white" d="M780.585 323.503L796.009 323.581C795.59 335.551 795.833 347.599 795.815 359.579L795.992 432.479L896.421 432.429L896.322 446.456C857.877 445.802 819.351 446.314 780.897 446.33L780.585 323.503Z"/>
	<path fill="#EE5F59" d="M726.211 890.117C726.702 876.249 730.049 863.358 740.588 853.592Q741.632 852.64 742.734 851.755Q743.835 850.87 744.99 850.054Q746.144 849.24 747.347 848.498Q748.55 847.756 749.797 847.091Q751.044 846.426 752.329 845.84Q753.615 845.253 754.935 844.748Q756.255 844.243 757.603 843.821Q758.952 843.398 760.324 843.061C762.895 842.448 765.995 842.123 768.415 841.121C769.481 840.679 769.577 840.458 770.061 839.482C769.25 836.795 766.776 834.383 765.418 831.859Q765.172 831.408 764.94 830.95Q764.707 830.492 764.489 830.027Q764.271 829.562 764.067 829.091Q763.864 828.62 763.674 828.142Q763.485 827.665 763.31 827.182Q763.136 826.699 762.976 826.211Q762.816 825.723 762.672 825.23Q762.527 824.737 762.397 824.24Q762.268 823.744 762.153 823.243Q762.039 822.742 761.94 822.238Q761.841 821.734 761.757 821.228Q761.674 820.721 761.606 820.212Q761.538 819.703 761.486 819.192Q761.433 818.681 761.396 818.169Q761.36 817.657 761.339 817.144Q761.318 816.63 761.312 816.117Q761.307 815.603 761.317 815.09Q761.328 814.577 761.354 814.064Q761.38 813.551 761.422 813.039Q761.464 812.527 761.521 812.017Q761.578 811.506 761.651 810.998Q761.724 810.49 761.813 809.984Q761.901 809.478 762.005 808.975Q762.109 808.472 762.228 807.973Q762.347 807.473 762.482 806.978Q762.616 806.482 762.766 805.991Q762.915 805.499 763.08 805.013Q763.245 804.526 763.424 804.045Q763.603 803.564 763.797 803.089Q763.991 802.613 764.2 802.144Q764.408 801.674 764.631 801.211Q764.853 800.749 765.09 800.293Q765.464 799.604 765.871 798.933Q766.278 798.263 766.716 797.613Q767.155 796.963 767.625 796.336Q768.095 795.708 768.594 795.103Q769.094 794.499 769.622 793.919Q770.151 793.34 770.706 792.787Q771.262 792.233 771.844 791.708Q772.426 791.182 773.032 790.685Q773.639 790.188 774.269 789.721Q774.898 789.254 775.55 788.818Q776.202 788.382 776.874 787.979Q777.546 787.575 778.237 787.204Q778.928 786.833 779.636 786.496Q780.344 786.159 781.068 785.856Q781.791 785.554 782.528 785.287Q783.266 785.02 784.015 784.789C792.305 782.289 801.454 783.491 809.013 787.614C816.44 791.666 822.334 798.682 824.697 806.85C827.394 816.177 825.217 824.83 820.638 833.105C819.242 835.629 817.304 838.318 816.442 841.064C832.072 844.354 844.19 847.363 853.474 861.712C858.355 869.257 862.319 881.055 861.421 890.111C816.354 890.646 771.271 889.568 726.211 890.117Z"/>
	<path fill="#EE5F59" d="M491.303 840.529C484.545 831.245 479.793 822.329 481.652 810.459C482.932 802.283 488.349 794.229 495.081 789.474Q495.732 789.02 496.404 788.599Q497.076 788.178 497.768 787.791Q498.46 787.403 499.171 787.051Q499.881 786.698 500.608 786.38Q501.335 786.063 502.077 785.782Q502.819 785.5 503.573 785.256Q504.328 785.012 505.094 784.805Q505.859 784.598 506.634 784.429Q507.409 784.26 508.192 784.13Q508.974 784 509.762 783.908Q510.55 783.816 511.341 783.763Q512.133 783.711 512.926 783.697Q513.719 783.683 514.512 783.708Q515.305 783.734 516.095 783.798Q516.886 783.863 517.672 783.966Q518.459 784.069 519.239 784.211C527.534 785.714 534.962 790.859 539.684 797.788Q540.139 798.449 540.561 799.132Q540.982 799.815 541.368 800.518Q541.755 801.222 542.105 801.944Q542.456 802.666 542.77 803.404Q543.084 804.143 543.36 804.896Q543.637 805.65 543.875 806.416Q544.113 807.182 544.312 807.96Q544.511 808.737 544.671 809.524Q544.831 810.31 544.952 811.104Q545.072 811.897 545.152 812.696Q545.232 813.494 545.272 814.296Q545.312 815.097 545.312 815.9Q545.311 816.702 545.271 817.504Q545.23 818.305 545.149 819.104Q545.068 819.902 544.947 820.695Q544.826 821.489 544.665 822.275C543.965 825.858 542.65 829.849 540.572 832.866C538.953 835.216 536.596 837.535 535.694 840.254C538.587 842.598 545.204 842.901 548.839 843.964C566.45 849.114 579.241 863.545 581.112 882.009C581.382 884.677 581.58 887.431 581.424 890.11C565.828 889.238 549.861 889.991 534.22 889.99L444.493 890.011C444.173 877.468 447.892 865.089 456.679 855.917C467.002 845.141 477.681 844.127 491.303 840.529Z"/>
	<path fill="#010001" d="M301.852 304.059C296.793 303.986 290.578 304.083 286.748 300.206C284.641 298.074 283.72 294.965 283.843 292.017C283.971 288.945 285.153 285.851 287.456 283.756C290.16 281.295 293.939 281.315 297.401 281.228C306.909 280.989 316.48 281.303 325.996 281.327L381.973 281.386L561.456 281.379L675.991 281.279L707.535 281.252C713.545 281.224 719.793 280.872 725.779 281.31C729.07 281.55 733.406 282.414 735.64 285.103C737.756 287.651 739.228 291.321 738.758 294.662C738.334 297.686 736.47 300.253 733.989 301.959C730.574 304.307 727.452 304.45 723.475 304.45L723.496 516.691L723.484 582.958C723.479 592.502 724.452 603.093 723.387 612.531C722.989 616.052 721.643 619.239 719.148 621.801C716.915 624.095 713.82 625.689 710.67 626.23C703.045 627.54 694.058 626.432 686.247 626.44Q657.165 626.394 628.086 626.771C630.604 639.023 635.068 651.178 638.773 663.119L658.432 726.443C660.657 733.712 663.577 741.051 665.271 748.432C665.625 749.975 665.849 751.163 665.341 752.704L664.368 753.009C662.953 752.147 662.446 750.258 661.885 748.765C659.056 741.232 656.853 733.301 654.399 725.626Q645.747 698.529 637.742 671.234C633.871 658.187 628.811 645.149 625.461 632.005C616.156 659.827 607.372 687.892 598.389 715.823C594.788 727.021 591.949 738.925 587.571 749.809C586.985 751.267 586.446 752.372 585.348 753.502L584.508 753.496C583.587 752.215 583.552 751.311 583.82 749.757C584.583 745.324 586.745 740.802 588.173 736.528C590.852 728.511 593.296 720.405 595.909 712.363Q609.855 669.672 623.22 626.795C617.176 626.178 610.916 626.471 604.836 626.467L572.881 626.494L474.873 626.57C476.787 648.75 479.862 670.863 482.22 693.005C483.216 702.349 484.57 711.925 484.827 721.315C467.501 722.31 449.319 720.975 431.784 721.6L431.877 749.009C432.205 749.282 432.482 749.631 432.86 749.827C436.096 751.499 504.558 749.939 515.069 750.604L515.717 751.145C516.088 752.407 516.162 752.419 515.648 753.615C515.013 753.993 514.496 754.224 513.741 754.228L428.527 754.021Q428.676 690.24 427.599 626.468L417.636 626.507C413.719 653.872 412.463 681.789 409.876 709.323C409.285 715.609 407.903 721.591 406.985 727.803C405.726 736.321 405.132 745.077 404.323 753.652C403.798 753.712 403.272 753.761 402.744 753.798C396.364 754.242 389.846 753.988 383.449 753.977L350.044 753.845C340.127 753.783 329.714 754.705 319.865 753.931C318.723 753.841 317.929 753.696 317.048 752.907C317.068 751.505 317.152 751.44 317.996 750.305C327.691 740.746 339.968 733.645 349.674 724.158C350.625 723.229 351.218 722.811 351.204 721.464C354.602 708.099 357.533 694.645 360.651 681.214C364.855 663.103 369.159 644.933 372.515 626.645Q351.711 626.44 330.908 626.766C324.231 626.864 316.089 627.887 309.57 626.742C307.834 626.437 306.454 625.265 305.234 624.05C303.131 621.954 302.026 619.135 301.725 616.215C300.575 605.049 301.633 592.545 301.648 581.251L301.6 511.147C301.709 442.135 301.007 373.061 301.852 304.059Z"/>
	<path fill="#6BA1D5" d="M411.779 418.399C411.995 422.207 409.917 424.634 411.537 428.601C411.956 429.626 412.211 429.968 412.186 431.09L410.233 432.154C408.938 431.398 408.379 431.323 408.004 429.782C407.118 426.144 409.639 421.144 411.779 418.399Z"/>
	<path fill="#476EA7" d="M441.094 410.999C444.209 414.707 445.891 418.322 445.339 423.252C445.018 426.124 443.83 429.134 441.597 431.057C441.466 431.169 441.32 431.261 441.182 431.363C441.046 429.812 442.092 428.052 442.447 426.501C443.525 421.803 442.535 415.286 439.57 411.403L441.094 410.999Z"/>
	<path fill="#6BA1D5" d="M413.212 417.923C414.079 416.005 414.917 413.958 416.174 412.26C418.74 408.792 422.525 406.403 426.842 405.94C432.427 405.341 436.853 407.688 441.094 410.999L439.57 411.403C434.467 411.333 424.203 409.871 420.009 412.656C413.513 416.97 418.879 426.044 417.501 431.721L416.74 431.593C413.555 427.579 413.713 422.806 413.212 417.923Z"/>
	<path fill="#FB9F93" d="M362.428 569.938C366.854 563.784 370.02 555.725 373.619 549.002C378.526 539.833 383.959 531.041 389.184 522.062C391.684 517.767 394.175 512.274 397.759 508.867C389.488 530.902 377.922 551.716 366.79 572.4C365.353 571.601 363.787 570.857 362.428 569.938Z"/>
	<path fill="white" d="M422.088 575.552C423.684 575.543 425.51 575.276 426.924 576.117C427.887 581.573 428.082 616.617 427.305 622.641C425.839 623.389 423.506 623.099 421.875 623.109L417.826 623.335C418.773 607.43 420.203 591.37 422.088 575.552Z"/>
	<path fill="white" d="M548.511 451.563C550.76 451.352 552.996 451.135 555.194 451.797Q555.797 451.974 556.38 452.211Q556.962 452.449 557.516 452.745Q558.071 453.041 558.592 453.393Q559.113 453.745 559.595 454.148Q560.078 454.552 560.516 455.003Q560.954 455.454 561.343 455.947Q561.733 456.441 562.069 456.972Q562.406 457.503 562.686 458.066Q562.949 458.602 563.158 459.16Q563.368 459.719 563.521 460.296Q563.674 460.873 563.77 461.462Q563.865 462.051 563.902 462.646Q563.94 463.242 563.918 463.838Q563.897 464.434 563.816 465.026Q563.736 465.617 563.598 466.197Q563.46 466.778 563.266 467.342C561.797 471.635 558.531 474.07 554.6 475.976C553.01 476.353 551.379 476.571 549.741 476.455C547.006 476.261 544.349 474.979 542.56 472.899C539.232 469.029 539.274 464.59 539.573 459.824C541.884 455.692 544.15 453.444 548.511 451.563Z"/>
	<path fill="white" d="M421.384 430.847C420.534 426.58 419.546 420.161 421.079 416.037C421.941 415.714 422.679 415.524 423.603 415.43C425.971 415.19 437.15 414.684 438.612 416.143C439.75 417.278 440.058 418.825 440.04 420.378C439.98 425.44 438.211 429.889 434.675 433.443C433.36 435.144 434.056 437.264 434.286 439.349C435.587 448.192 432.182 457.259 430.034 465.784C428.525 458.685 426.254 451.939 425.212 444.709C424.646 440.784 427.658 437.188 426.426 433.333C425.152 431.856 423.179 431.44 421.384 430.847Z"/>
	<path fill="white" d="M343.62 564.738C350.937 567.422 358.041 571.362 364.505 575.691C361.716 581.158 359.153 587.908 354.561 592.086C353.484 592.699 352.349 593.302 351.183 593.725C348.089 594.847 344.219 594.212 341.386 592.655C338.697 591.177 336.649 588.747 335.918 585.741C334.251 578.886 340.31 570.401 343.62 564.738Z"/>
	<path fill="#FB9F93" d="M544.143 479.152C547.209 479.789 549.863 479.664 552.961 479.507C542.324 490.605 532.521 502.501 522.549 514.195C517.455 520.169 512.34 527.705 506.103 532.415C502.697 534.988 498.298 536.807 493.992 536.832C488.672 536.863 484.193 534.129 480.577 530.422C476.142 525.876 461.867 502.078 457.947 501.348L461.945 497.346C468.263 504.958 480.43 527.066 487.437 530.988C490.415 532.654 493.999 532.749 497.209 531.732C499.503 531.006 501.413 530.035 503.199 528.429C508.939 523.266 513.368 516.289 518.361 510.403C526.053 501.336 539.026 489.401 544.143 479.152Z"/>
	<path fill="#6BA1D5" d="M317.996 750.305C327.691 740.746 339.968 733.645 349.674 724.158C350.625 723.229 351.218 722.811 351.204 721.464C357.06 721.779 362.948 721.215 368.76 721.586Q386.15 721.423 403.539 721.598C403.516 730.957 402.137 741.203 400.564 750.409C390.832 751.334 379.537 750.46 369.591 750.461C352.439 750.462 335.129 750.972 317.996 750.305Z"/>
	<path fill="white" d="M368.76 721.586Q386.15 721.423 403.539 721.598C403.516 730.957 402.137 741.203 400.564 750.409C399.263 750.308 397.829 750.233 396.606 749.75C391.912 747.898 386.794 743.818 382.485 741.068C372.79 734.88 362.717 728.888 353.456 722.078C358.54 722.048 363.711 722.227 368.76 721.586Z"/>
	<path fill="#6BA1D5" d="M294.112 285.217L569.843 285.087L678.545 284.998C694.544 284.994 710.81 284.338 726.778 284.839C728.545 284.895 730.234 285.358 731.726 286.325Q732.073 286.554 732.393 286.818Q732.714 287.082 733.005 287.378Q733.296 287.674 733.555 287.999Q733.813 288.324 734.036 288.674Q734.259 289.025 734.444 289.397Q734.629 289.768 734.774 290.158Q734.919 290.547 735.022 290.949Q735.125 291.351 735.186 291.762C735.47 293.632 735.063 295.559 733.915 297.078C732.546 298.89 730.616 299.712 728.442 300.067C721.66 300.855 714.637 300.537 707.811 300.531L676.908 300.489L577.267 300.375L392.576 300.137C361.482 300.157 330.296 300.687 299.213 300.251C296.487 300.212 293.444 299.988 291.017 298.631C289.278 297.658 287.992 296.138 287.508 294.189C287.037 292.295 287.44 290.167 288.46 288.515C289.832 286.29 291.662 285.69 294.112 285.217Z"/>
	<path fill="white" d="M552.178 447.669C540.077 424.387 528.188 408.516 536.761 380.907C541.417 365.915 552.577 352.809 566.468 345.562Q567.72 344.899 569.004 344.299Q570.287 343.699 571.599 343.165Q572.912 342.63 574.249 342.162Q575.586 341.694 576.945 341.293Q578.304 340.893 579.682 340.561Q581.059 340.229 582.451 339.966Q583.844 339.704 585.247 339.511Q586.651 339.318 588.063 339.197Q589.474 339.075 590.89 339.023Q592.306 338.972 593.723 338.992Q595.139 339.012 596.553 339.103Q597.967 339.194 599.375 339.356Q600.782 339.517 602.18 339.749Q603.578 339.981 604.962 340.283Q606.347 340.584 607.714 340.955Q609.082 341.325 610.429 341.764C626.189 346.808 638.626 357.242 646.157 372.009C652.956 385.339 655.007 402.474 650.19 416.801C647.41 425.067 642.129 432.321 637.514 439.644Q630.568 450.846 623.858 462.19C620.54 467.696 616.866 473.167 614.131 478.994C611.376 480.485 594.58 479.366 590.275 479.571C584.801 479.276 579.184 479.487 573.695 479.454C572.806 479.721 571.785 480.156 570.868 480.241C568.888 477.552 566.899 474.92 564.719 472.388L566.641 468.966C567.89 464.327 567.846 459.866 565.334 455.623C563.261 452.124 559.475 449.264 555.508 448.32Q553.853 447.942 552.178 447.669Z"/>
	<path fill="#6BA1D5" d="M564.719 472.388L566.641 468.966C568.751 472.579 570.731 476.465 573.695 479.454C572.806 479.721 571.785 480.156 570.868 480.241C568.888 477.552 566.899 474.92 564.719 472.388Z"/>
	<path fill="#EE5F59" d="M592.452 428.772C592.519 428.638 592.589 428.506 592.654 428.371C596.698 419.996 597.897 402.744 608.144 399.183C609.977 398.546 612.251 398.274 614.043 399.174C616.111 400.213 617.575 402.672 618.147 404.853C619.262 409.105 615.945 415.537 613.687 419.019C609.618 425.297 603.07 430.548 595.604 431.99Q594.556 432.187 593.498 432.322C593.529 438.67 594.755 454.028 592.644 459.28L591.937 459.37C590.142 457.426 590.74 436.516 590.649 432.29C588.155 431.623 585.66 431.026 583.503 429.535C579.455 427.747 576.023 424.829 573.2 421.452C569.8 417.387 566.175 411.102 566.84 405.678C567.167 403.004 568.308 401.174 570.438 399.591C572.846 398.47 574.667 398.369 577.18 399.312C581.979 401.115 584.907 407.105 586.763 411.595C589.034 417.084 589.817 423.549 592.452 428.772Z"/>
	<path fill="white" d="M585.945 428.218C578.765 423.916 572.938 419.018 569.983 410.845C569.176 408.613 568.847 406.356 569.986 404.169C571.054 402.119 572.293 401.557 574.387 400.871C581.071 404.397 583.74 410.556 585.875 417.457Q587.636 423.236 589.209 429.068L585.945 428.218Z"/>
	<path fill="white" d="M608.709 401.51C609.537 401.432 610.353 401.368 611.183 401.471C612.723 401.661 614.547 402.407 615.323 403.836C615.97 405.027 615.889 406.508 615.602 407.79C613.674 416.392 607.859 422.9 600.513 427.389C598.904 428.196 597.137 428.815 595.472 429.508C598.206 420.017 600.4 407.703 608.709 401.51Z"/>
	<path fill="white" d="M305.492 304.032L576.818 304.055L668.647 304.134C685.646 304.164 702.747 303.9 719.735 304.401L719.938 520.773L719.955 583.26C719.962 592.655 720.903 603.094 719.725 612.383C719.281 615.888 717.658 618.621 715.062 621.003C713.331 622.59 707.206 622.899 704.822 623C693.408 623.482 681.846 623.031 670.413 623.024L606.831 623.01L474.65 623.265Q471.618 595.593 469.088 567.87C468.098 556.074 467.608 544.025 465.931 532.314L391.938 532.525L392.219 531.695C394.167 526.031 405.044 505.845 403.395 500.986C403.347 500.845 403.263 500.72 403.197 500.587C400.392 502.358 399.124 505.968 397.759 508.867C394.175 512.274 391.684 517.767 389.184 522.062C383.959 531.041 378.526 539.833 373.619 549.002C370.02 555.725 366.854 563.784 362.428 569.938C356.767 567.175 351.111 564.447 345.64 561.318L348.288 555.92C357.07 538.211 366.795 521.013 376.012 503.534C382.641 490.963 394.851 464.269 403.724 454.713C408.684 449.371 414.514 446.997 421.302 444.707C423.235 450.507 426.188 471.828 430.222 474.54C432.816 472.838 437.518 449.542 438.641 445.034C444.723 447.593 450.587 450.808 455.605 455.13C462.334 460.924 467.684 469.071 473.135 476.039L496.849 506.032C502.08 501.585 506.627 495.944 511.29 490.888L535.104 465.231C536.685 471.765 539.006 474.985 544.143 479.152C539.026 489.401 526.053 501.336 518.361 510.403C513.368 516.289 508.939 523.266 503.199 528.429C501.413 530.035 499.503 531.006 497.209 531.732C493.999 532.749 490.415 532.654 487.437 530.988C480.43 527.066 468.263 504.958 461.945 497.346L457.947 501.348C457.1 502.201 457.301 501.998 457.271 503.079C460.803 510.201 473.469 528.118 478.917 533.405C483.271 537.632 488.409 540.126 494.573 539.886Q495.509 539.853 496.439 539.746Q497.369 539.64 498.288 539.459Q499.207 539.279 500.108 539.026Q501.01 538.773 501.888 538.449Q502.767 538.125 503.617 537.732Q504.467 537.34 505.283 536.881Q506.1 536.422 506.877 535.9Q507.654 535.377 508.387 534.795C513.146 531.043 517.083 525.825 521.014 521.242L536.405 503.389C542.939 495.818 549.353 488.088 556.188 480.789C558.93 477.86 561.988 475.318 564.719 472.388C566.899 474.92 568.888 477.552 570.868 480.241C571.785 480.156 572.806 479.721 573.695 479.454C579.184 479.487 584.801 479.276 590.275 479.571C594.58 479.366 611.376 480.485 614.131 478.994C615.004 479.861 615.524 480.135 616.709 480.458C623.919 471.374 630.86 457.268 637.048 447.01C641.333 439.908 646.57 433.14 650.395 425.801Q651.77 423.187 652.806 420.422Q653.843 417.657 654.526 414.784C658.592 397.817 656.081 380.24 646.772 365.367Q645.943 364.022 645.048 362.72Q644.153 361.418 643.195 360.162Q642.236 358.906 641.216 357.7Q640.195 356.494 639.116 355.34Q638.037 354.186 636.901 353.087Q635.766 351.989 634.577 350.948Q633.388 349.908 632.148 348.928Q630.909 347.948 629.622 347.032Q628.335 346.115 627.004 345.264Q625.673 344.412 624.301 343.629Q622.929 342.845 621.52 342.131Q620.111 341.416 618.668 340.773Q617.224 340.13 615.751 339.56Q614.277 338.99 612.777 338.494Q611.277 337.998 609.754 337.578Q608.231 337.158 606.689 336.814Q605.198 336.469 603.691 336.198Q602.185 335.928 600.667 335.733Q599.149 335.538 597.623 335.418Q596.097 335.299 594.567 335.255Q593.037 335.212 591.507 335.244Q589.977 335.277 588.45 335.386Q586.923 335.495 585.404 335.679Q583.884 335.864 582.376 336.124Q580.868 336.384 579.374 336.718Q577.88 337.053 576.405 337.461Q574.93 337.87 573.477 338.351Q572.025 338.832 570.597 339.385Q569.17 339.938 567.772 340.561Q566.374 341.185 565.009 341.877Q563.644 342.569 562.315 343.328Q560.986 344.087 559.696 344.911Q558.379 345.782 557.105 346.715Q555.832 347.648 554.604 348.642Q553.377 349.635 552.199 350.686Q551.021 351.737 549.894 352.844Q548.768 353.95 547.696 355.11Q546.625 356.269 545.61 357.479Q544.595 358.689 543.639 359.945Q542.684 361.202 541.79 362.504Q540.896 363.805 540.065 365.148Q539.235 366.491 538.47 367.872Q537.705 369.254 537.007 370.67Q536.31 372.086 535.681 373.535Q535.052 374.983 534.494 376.46Q533.935 377.937 533.448 379.439Q532.962 380.941 532.547 382.465Q532.133 383.988 531.793 385.53C526.844 408.91 536.229 428.649 548.709 447.836C547.182 448.348 545.662 448.91 544.241 449.675C539.782 452.073 537.068 455.812 535.622 460.583C530.089 464.67 525.387 470.517 520.695 475.556L497.379 500.74C488.602 490.953 480.748 480.027 472.693 469.634C468.31 463.979 463.799 457.681 458.466 452.888C455.339 450.078 451.671 447.628 447.929 445.719C444.668 444.057 439.711 442.57 437.05 440.147C436.828 439.945 436.615 439.732 436.397 439.525C437.621 435.042 441.954 435.163 445.13 432.301C447.661 430.02 448.335 426.179 448.607 422.939C449.126 418.438 447.708 413.756 444.927 410.181C441.735 406.075 436.474 403.208 431.328 402.629C425.602 401.984 420.228 403.907 415.84 407.552C409.94 412.454 404.993 420.283 404.155 427.995C403.95 429.885 404.013 432.299 405.331 433.824C407.783 436.662 418.739 435.41 422.483 435.529L421.443 440.753C405.522 445.438 398.351 453.784 390.505 468.172C376.709 493.473 363.421 519.173 350.041 544.701C345.115 554.1 335.526 569.844 332.514 579.234C331.673 581.855 331.922 584.583 332.699 587.194Q332.911 587.889 333.189 588.561Q333.468 589.232 333.811 589.874Q334.153 590.515 334.557 591.12Q334.96 591.724 335.421 592.287Q335.881 592.849 336.394 593.365Q336.907 593.88 337.468 594.342Q338.029 594.805 338.632 595.211Q339.235 595.617 339.875 595.962Q340.569 596.331 341.297 596.627Q342.026 596.924 342.78 597.144Q343.535 597.364 344.308 597.506Q345.081 597.648 345.865 597.71Q346.649 597.773 347.435 597.755Q348.221 597.737 349.001 597.638Q349.781 597.54 350.547 597.362Q351.312 597.185 352.056 596.93Q353.118 596.556 354.12 596.043Q355.122 595.53 356.046 594.887Q356.971 594.245 357.801 593.484Q358.631 592.723 359.351 591.858C363.626 586.689 366.632 579.375 369.84 573.481C376.304 561.605 383.3 549.694 388.98 537.43Q384.175 567.301 378.388 596.997C376.735 605.769 375.32 614.612 373.294 623.308L334.842 623.448C328.102 623.47 320.942 623.972 314.24 623.3C312.065 623.081 309.108 622.666 307.376 621.219C306.695 620.652 306.559 619.545 306.363 618.721C304.22 609.717 305.427 596.059 305.426 586.584L305.446 528.535L305.492 304.032Z"/>
	<path fill="#6BA1D5" d="M614.131 478.994C615.004 479.861 615.524 480.135 616.709 480.458L616.18 481.21C618.511 485.059 621.361 486.464 619.948 491.59C619.286 493.99 617.787 496.282 616.462 498.373C617.471 499.536 618.496 500.656 619.309 501.97C620.659 511.899 616.308 511.531 615.218 519.372C615.133 519.988 615.03 520.599 614.947 521.215C614.193 523.104 613.427 524.954 612.362 526.695C609.269 531.75 604.515 535.5 598.647 536.69C592.391 537.959 584.296 536.798 579.019 533.12C574.56 530.012 572.103 525.276 571.074 520.042C571.067 519.824 571.062 519.606 571.053 519.388C571.04 519.089 571.016 518.791 571.006 518.492C570.857 514.019 565.917 510.92 565.762 505.986C565.655 502.576 567.488 500.199 569.706 497.834C568.882 497.177 568.101 496.466 567.454 495.629C565.414 492.988 566.139 489.467 566.555 486.427C567.502 483.769 568.683 482.044 570.868 480.241C571.785 480.156 572.806 479.721 573.695 479.454C579.184 479.487 584.801 479.276 590.275 479.571C594.58 479.366 611.376 480.485 614.131 478.994Z"/>
	<path fill="white" d="M573.4 520.282C573.521 518.768 573.447 517.457 574.54 516.282C578.894 515.333 607.034 515.608 612.338 516.101C613.172 516.914 613.118 517.632 613.049 518.754C613.014 519.32 612.96 519.531 612.86 520.044C612.525 520.914 612.179 521.783 611.773 522.623C609.307 527.719 605.032 532.006 599.59 533.804C594.256 535.567 587.893 535.032 582.914 532.435C577.821 529.778 575.129 525.57 573.4 520.282Z"/>
	<path fill="white" d="M572.44 499.054C580.048 498.736 587.731 498.883 595.352 498.833C600.572 498.799 606.13 498.401 611.323 498.956C613.204 499.157 614.628 499.699 615.77 501.292C617.032 503.054 617.569 505.662 617.218 507.793C616.819 510.21 615.198 511.55 613.301 512.886C601.715 513.647 589.624 513.324 577.998 513.147C575.314 513.105 571.793 513.313 569.89 511.122C568.661 509.708 568.234 507.019 568.359 505.211C568.552 502.43 570.437 500.741 572.44 499.054Z"/>
	<path fill="white" d="M573.695 479.454C579.184 479.487 584.801 479.276 590.275 479.571L590.938 479.634C597.589 480.207 606.439 478.369 612.561 480.844C612.595 481.912 612.771 481.471 612.13 482.204C614.066 482.715 615.233 483.901 616.253 485.615C617.289 487.355 617.871 489.926 617.137 491.873C616.477 493.625 614.941 494.778 613.23 495.392C607.41 497.479 590.812 495.768 583.796 496.136C580.661 496.076 577.442 496.375 574.332 496.201C572.467 496.097 570.594 495.575 569.463 493.96C567.997 491.868 568.526 489.218 568.726 486.836C568.085 486.616 567.209 486.542 566.555 486.427C567.502 483.769 568.683 482.044 570.868 480.241C571.785 480.156 572.806 479.721 573.695 479.454Z"/>
	<defs>
		<linearGradient id="gradient_0" gradientUnits="userSpaceOnUse" x1="590.31732" y1="479.96381" x2="590.17059" y2="486.03589">
			<stop offset="0" stop-color="#436EB5"/>
			<stop offset="1" stop-color="#6095C6"/>
		</linearGradient>
	</defs>
	<path fill="url(#gradient_0)" d="M573.695 479.454C579.184 479.487 584.801 479.276 590.275 479.571L590.938 479.634C597.589 480.207 606.439 478.369 612.561 480.844C612.595 481.912 612.771 481.471 612.13 482.204C605.812 481.869 575.354 480.54 571.564 483.18C570.39 483.997 569.491 485.648 568.726 486.836C568.085 486.616 567.209 486.542 566.555 486.427C567.502 483.769 568.683 482.044 570.868 480.241C571.785 480.156 572.806 479.721 573.695 479.454Z"/>
</svg>
