<?xml version="1.0" encoding="utf-8" ?>
<svg xmlns="http://www.w3.org/2000/svg" xmlns:xlink="http://www.w3.org/1999/xlink" width="1024" height="1024">
	<path fill="white" d="M0 0L1024 0L1024 1024L0 1024L0 0Z"/>
	<path fill="#343D95" d="M860.782 381.598C869.204 365.688 881.987 353.368 899.508 348.056C916.901 342.783 936.384 344.379 952.396 353.099C968.276 361.748 981.143 378.494 986.067 395.843C995.878 430.408 978.006 467.372 961.302 496.944Q954.096 509.802 946.071 522.165C951.232 528.802 955.654 536.179 960.139 543.283C961.902 546.076 964.168 549.012 965.616 551.956L965.111 552.116C959.208 552.794 925.982 553.389 921.557 551.486C919.859 546.425 920.877 528.659 920.881 521.893C920.887 512.449 921.313 420.003 920.917 418.91C920.781 418.532 920.477 418.237 920.257 417.9L919.359 417.458C918.702 417.729 918.616 417.992 918.372 418.646C916.866 422.688 917.868 439.082 917.869 444.524C917.87 453.616 918.608 550.578 917.638 552.038C917.511 552.228 917.293 552.338 917.12 552.488C913.185 544.46 904.697 535.987 899.395 528.368C885.451 508.331 873.286 487.357 863.948 464.782C852.555 437.24 849.169 409.623 860.782 381.598Z"/>
	<path fill="#D6E5F4" d="M922.931 552.06C931.32 542.755 938.849 532.387 946.071 522.165C951.232 528.802 955.654 536.179 960.139 543.283C961.902 546.076 964.168 549.012 965.616 551.956L965.111 552.116C951.164 551.405 936.914 552.049 922.931 552.06Z"/>
	<path fill="#2A2626" d="M436.421 130.156C443.5 124.433 449.961 118.328 457.428 113.014Q469.535 104.376 482.235 96.6369Q494.935 88.8981 508.163 82.0996C569.3 49.9204 631.285 36.2752 700.063 48.0829C737.025 54.4286 776.461 70.6395 804.364 96.0498C807.875 99.2471 812.456 102.703 815.181 106.538C816.353 107.328 816.976 107.837 817.766 109.054C858.943 153.433 870.982 202.632 871.446 261.587L871.112 263.947C870.665 272.155 870.275 280.42 869.052 288.557C867.21 300.809 864.104 312.82 861.981 325.014Q860.109 335.992 859.456 347.109Q858.803 358.226 859.378 369.347C859.537 372.769 859.243 378.541 860.782 381.598C849.169 409.623 852.555 437.24 863.948 464.782C873.286 487.357 885.451 508.331 899.395 528.368C904.697 535.987 913.185 544.46 917.12 552.488C917.293 552.338 917.511 552.228 917.638 552.038C918.608 550.578 917.87 453.616 917.869 444.524C917.868 439.082 916.866 422.688 918.372 418.646C918.616 417.992 918.702 417.729 919.359 417.458L920.257 417.9C920.477 418.237 920.781 418.532 920.917 418.91C921.313 420.003 920.887 512.449 920.881 521.893C920.877 528.659 919.859 546.425 921.557 551.486C925.982 553.389 959.208 552.794 965.111 552.116L965.616 551.956C967.506 551.98 969.576 551.763 971.276 552.693C971.225 553.377 971.226 554.179 971.094 554.86C969.449 563.38 967.862 571.984 966.686 580.58C966.98 581.585 967.349 581.98 968.061 582.692C976.659 591.299 989.083 619.795 993.349 631.936C994.307 634.661 996.569 644.802 997.927 646.537C998.276 646.983 998.805 647.253 999.243 647.61L1000.16 649.857C1000.16 650.114 1000.16 650.37 1000.16 650.626C1000.23 656.697 1004.49 671.001 1005.77 677.9C1010.47 703.3 1010.21 727.685 1006.16 753.157C1003.17 772.033 996.561 789.745 989.225 807.303C987.49 811.456 978.915 825.885 978.913 828.68C978.39 829.7 977.995 830.668 977.173 831.482C973.654 835.322 971.533 840.369 968.747 844.74C962.461 854.605 947.384 876.284 938.123 883.268C944.499 893.116 1000.94 977.027 1001.33 980.373C1000.32 980.919 1000.39 980.814 999.344 980.745C991.157 979.797 982.369 980.398 974.089 980.225Q937.36 979.755 900.628 979.911L808.904 979.968C802.002 979.984 777.995 979.08 772.617 980.699C772.469 980.712 772.321 980.732 772.173 980.74C770.464 980.831 770.025 980.565 768.768 979.491Q601.638 981.162 434.5 980.406Q382.86 979.91 331.217 980.135L297.511 979.922C291.128 979.883 284.571 979.563 278.214 980.084C277.303 980.297 276.283 980.214 275.346 980.225C265.263 979.097 254.126 979.984 243.969 979.985L178.788 979.971L108.043 979.881C96.6367 979.861 82.5817 978.85 71.5335 980.321C70.8564 980.537 70.3777 980.388 69.6864 980.288L69.0031 979.258C68.6878 974.804 93.6427 902.649 96.8634 893.728C87.8706 887.492 75.6352 872.368 68.7014 863.298C64.1662 857.366 59.5847 851.292 55.5921 844.978C53.092 841.024 50.9866 836.561 48.1934 832.826C47.6043 832.039 47.0957 831.766 46.2003 831.425L45.0461 828.819C40.877 820.572 36.3387 812.509 32.7417 803.986Q31.184 800.393 29.7603 796.746Q28.3366 793.098 27.0489 789.4Q25.7612 785.702 24.6112 781.959Q23.4612 778.216 22.4506 774.434Q21.4399 770.651 20.57 766.833Q19.7 763.015 18.972 759.168Q18.2439 755.32 17.6587 751.448Q17.0736 747.577 16.6321 743.686Q16.1906 739.796 15.8935 735.891Q15.5963 731.987 15.4438 728.074Q15.2913 724.161 15.2838 720.246Q15.2762 716.33 15.4136 712.417Q15.551 708.504 15.8331 704.598Q16.1152 700.693 16.5417 696.8Q16.9681 692.908 17.5384 689.034Q18.1086 685.16 18.8218 681.31C20 675.157 21.2108 668.974 22.9327 662.945C23.9912 659.239 25.8415 655.212 26.5128 651.47C26.6439 650.74 26.5388 650.187 26.4254 649.466L27.9478 647.335C29.6973 644.243 30.7579 640.157 32.0444 636.813C34.5137 630.396 37.1535 624.086 40.2309 617.934Q42.8415 612.689 45.7309 607.593Q48.6204 602.497 51.7804 597.564Q54.9404 592.631 58.3617 587.876Q61.783 583.12 65.4557 578.556Q69.1284 573.992 73.0417 569.632Q76.9551 565.273 81.0978 561.13Q85.2404 556.988 89.6004 553.075Q93.9604 549.162 98.5249 545.49C103.952 541.06 109.762 537.05 115.372 532.852C141.074 513.619 163.63 486.848 176.151 457.223C178.883 450.76 181.54 444.504 182.535 437.509L128.249 437.497C118.757 437.509 108.638 438.208 99.2291 437.3C96.1346 437.001 92.2271 436.322 89.7356 434.371C86.6047 431.919 85.2362 428.307 84.8645 424.452C84.3713 419.336 84.7417 413.892 84.7584 408.744L84.8461 379.179L84.8989 288.364L84.8346 159.579C84.8145 140.031 83.9288 120.186 84.7121 100.681C84.8762 96.5935 85.3421 93.1174 88.1623 89.9553C91.0343 86.7351 94.2915 85.24 98.5546 85.0359C118.193 84.0954 138.245 84.9683 157.923 84.966L272.02 84.8215L372.136 84.8402C388.282 84.8213 407.619 83.8056 423.42 84.8038C426.938 85.0261 429.708 85.8435 432.294 88.3472C433.913 89.9136 434.922 91.732 435.499 93.9028C437.341 100.831 436.357 121.459 436.421 130.156Z"/>
	<path fill="white" d="M608.676 504.267C614.729 507.842 627.784 521.874 633.471 527.329C631.182 528.568 628.976 529.957 626.753 531.309C623.134 533.681 619.724 536.297 616.29 538.924C614.136 527.244 611.498 515.799 608.676 504.267Z"/>
	<path fill="white" d="M700.541 700.443C704.135 704.912 706.926 710.581 709.852 715.535Q717.71 728.725 725.353 742.041L721.225 745.232C718.777 746.863 716.263 748.375 713.745 749.894C705.015 735.175 702.273 717.236 700.541 700.443Z"/>
	<path fill="#D6E5F4" d="M953.117 647.348C955.621 637.777 957.299 627.969 959.263 618.273Q963.258 599.482 966.686 580.58C966.98 581.585 967.349 581.98 968.061 582.692C976.659 591.299 989.083 619.795 993.349 631.936C994.307 634.661 996.569 644.802 997.927 646.537C998.276 646.983 998.805 647.253 999.243 647.61C994.036 646.989 988.416 647.364 983.167 647.378Q968.142 647.492 953.117 647.348Z"/>
	<path fill="#D6E5F4" d="M903.935 831.41L977.173 831.482C973.654 835.322 971.533 840.369 968.747 844.74C962.461 854.605 947.384 876.284 938.123 883.268C926.65 866.07 914.872 848.952 903.935 831.41Z"/>
	<path fill="#D6E5F4" d="M46.2003 831.425C69.8188 831.767 93.4481 831.327 117.068 831.525Q110.439 852.816 103.211 873.912C101.099 880.246 98.1104 887.191 96.8634 893.728C87.8706 887.492 75.6352 872.368 68.7014 863.298C64.1662 857.366 59.5847 851.292 55.5921 844.978C53.092 841.024 50.9866 836.561 48.1934 832.826C47.6043 832.039 47.0957 831.766 46.2003 831.425Z"/>
	<path fill="#A2B4DC" d="M377.787 438.545C383.615 443.617 388.806 451.448 393.713 457.494C403.947 470.105 414.42 482.646 424.264 495.56L379.25 495.501L331.882 495.5C347.968 477.342 362.827 457.664 377.787 438.545Z"/>
	<path fill="#343D95" d="M439.021 429.422C444.007 433.575 449.7 441.677 454.035 446.796L494.632 495.604C484.086 496.097 473.435 495.844 462.875 495.884C451.477 496.005 439.991 496.163 428.6 495.757C421.038 488.123 414.506 478.702 407.725 470.31Q422.852 449.467 439.021 429.422Z"/>
	<path fill="#343D95" d="M330 560.022L499.556 559.941C499.559 566.9 499.978 574.096 499.407 581.021Q414.706 580.654 330.007 581.333L330 560.022Z"/>
	<path fill="#A2B4DC" d="M618.076 507.742C629.248 507.001 640.75 507.507 651.957 507.506L714.672 507.522L714.556 612.214L709.629 612.761C704.806 613.872 700.551 615.468 696.082 617.599Q679.043 589.495 662.681 560.992C657.362 551.722 650.486 537.415 643.803 529.471C641.877 527.181 639.794 526.955 637.265 525.692C634.067 524.095 619.308 510.954 618.076 507.742Z"/>
	<path fill="white" d="M920.617 554.778Q944.41 554.906 968.203 554.762C965.565 567.601 963.825 580.668 961.375 593.553C958.076 610.898 954.118 628.116 950.81 645.463C940.968 645.834 931.098 645.706 921.25 645.708Q903.473 645.591 885.696 645.821L872.804 554.841C888.726 554.604 904.706 555.299 920.617 554.778Z"/>
	<path fill="#343D95" d="M608.618 659.241C630.783 658.821 653.138 659.998 675.261 659.11Q673.72 659.95 672.251 660.911C663.179 666.882 658.379 676.017 656.29 686.437L396.274 686.142L328.287 686.333C329.202 677.394 329.7 668.528 329.935 659.545L608.618 659.241Z"/>
	<path fill="#F28A20" d="M635.762 529.454C636.472 529.335 636.308 529.34 637.191 529.327C638.977 529.3 640.326 530.186 641.498 531.447C646.535 536.865 650.663 546.206 654.455 552.689L682.285 600.267L745.217 706.935L767.526 744.197C771.343 750.54 775.487 756.809 779.001 763.32C780.94 766.912 782.774 770.56 782.508 774.728C782.225 779.174 780.219 783.097 776.806 785.961C772.583 789.506 768.199 790.251 762.871 789.667C760.451 788.89 758.153 787.955 756.157 786.352C751.477 782.594 737.677 756.492 733.506 749.525Q688.228 674.202 644.599 597.911C635.923 582.696 626.488 567.769 618.2 552.354C616.932 549.996 615.702 547.538 615.445 544.842C617.154 540.396 631.167 531.825 635.762 529.454Z"/>
	<path fill="#343D95" d="M329.979 584.164L499.696 583.913Q499.568 611.383 499.724 638.853C480.859 638.425 461.88 638.863 443.004 638.884L329.776 639.105L329.979 584.164Z"/>
	<path fill="#343D95" d="M499.417 497.53C500.486 502.728 499.617 509.94 499.608 515.338L499.517 557.031L329.825 557.058L329.787 547.927C329.698 538.492 329.132 529.412 326.594 520.275C324.18 511.585 320.126 508.395 320.392 498.627C333.856 498.203 347.462 498.641 360.94 498.648L449.501 498.821L479.79 498.843C485.026 498.844 490.428 499.11 495.647 498.732C497.21 498.619 498.116 498.411 499.417 497.53Z"/>
	<path fill="#343D95" d="M488.243 395.75L499.794 395.699C499.075 418.545 499.568 441.561 499.542 464.427C499.532 472.804 499.929 481.372 499.489 489.728C499.4 491.414 499.268 492.906 498.482 494.412C494.533 494.533 448.915 433.026 439.219 425.085C439.085 424.975 438.948 424.871 438.812 424.764C427.762 439.04 416.25 453.083 406.003 467.954Q397.524 457.496 388.917 447.143C385.915 443.492 383.046 439.405 379.737 436.039C378.786 435.072 378.697 434.614 377.31 434.609L376.033 435.906Q352.442 466.382 327.645 495.884L320.462 495.84L320.516 395.89C341.223 395.482 362.009 395.896 382.726 395.927L488.243 395.75Z"/>
	<path fill="#A2B4DC" d="M520.585 507.587Q563.524 507.292 606.463 507.494Q610.309 522.759 613.077 538.255C613.702 541.852 611.722 545.502 612.665 548.773C614.502 555.139 620.974 562.968 624.433 568.981L664.801 638.696C659.614 639.119 654.156 638.81 648.941 638.813L618.694 638.839L520.712 638.812C520.278 623.306 520.542 607.716 520.51 592.202L520.585 507.587Z"/>
	<path fill="#D6E5F4" d="M182.535 437.509C204.999 437.48 227.476 437.286 249.938 437.53C249.909 448.73 250.222 460.048 249.59 471.228C245.229 477.917 240.174 484.128 235.48 490.583Q221.486 510.072 207.154 529.314C200.134 538.856 192.649 548.467 187.117 558.964C183.673 565.499 181.085 572.67 180 579.996C178.108 592.77 179.864 606.438 180.693 619.262C181.296 628.577 181.576 638.009 182.474 647.294C130.995 647.179 79.4189 646.652 27.9478 647.335C29.6973 644.243 30.7579 640.157 32.0444 636.813C34.5137 630.396 37.1535 624.086 40.2309 617.934Q42.8415 612.689 45.7309 607.593Q48.6204 602.497 51.7804 597.564Q54.9404 592.631 58.3617 587.876Q61.783 583.12 65.4557 578.556Q69.1284 573.992 73.0417 569.632Q76.9551 565.273 81.0978 561.13Q85.2404 556.988 89.6004 553.075Q93.9604 549.162 98.5249 545.49C103.952 541.06 109.762 537.05 115.372 532.852C141.074 513.619 163.63 486.848 176.151 457.223C178.883 450.76 181.54 444.504 182.535 437.509Z"/>
	<path fill="#A2B4DC" d="M45.0461 828.819C40.877 820.572 36.3387 812.509 32.7417 803.986Q31.184 800.393 29.7603 796.746Q28.3366 793.098 27.0489 789.4Q25.7612 785.702 24.6112 781.959Q23.4612 778.216 22.4506 774.434Q21.4399 770.651 20.57 766.833Q19.7 763.015 18.972 759.168Q18.2439 755.32 17.6587 751.448Q17.0736 747.577 16.6321 743.686Q16.1906 739.796 15.8935 735.891Q15.5963 731.987 15.4438 728.074Q15.2913 724.161 15.2838 720.246Q15.2762 716.33 15.4136 712.417Q15.551 708.504 15.8331 704.598Q16.1152 700.693 16.5417 696.8Q16.9681 692.908 17.5384 689.034Q18.1086 685.16 18.8218 681.31C20 675.157 21.2108 668.974 22.9327 662.945C23.9912 659.239 25.8415 655.212 26.5128 651.47C26.6439 650.74 26.5388 650.187 26.4254 649.466C26.9659 649.783 27.3711 650.046 28.0042 650.141C31.8099 650.71 36.4934 650.166 40.373 650.167L69.2199 650.172C106.97 650.175 144.907 649.416 182.64 650.27Q184.32 673.965 185.647 697.683C186.06 704.925 187.229 712.853 186.572 720.054C185.736 729.222 181.782 738.955 179.113 747.798C174.823 762.012 170.825 776.429 165.666 790.36C151.979 790.593 140.115 794.789 130.477 804.813C123.891 811.662 120.838 819.817 118.096 828.755L72.3146 828.641C63.2583 828.631 54.0888 828.333 45.0461 828.819Z"/>
	<path fill="white" d="M711.222 615.619C711.768 615.559 712.315 615.496 712.863 615.456Q715.252 615.276 717.648 615.294Q720.045 615.313 722.431 615.53Q724.817 615.748 727.177 616.162Q729.537 616.577 731.855 617.186C745.06 620.533 757.973 626.786 770.627 631.868C782.64 636.692 795.331 641.003 806.882 646.836Q809.892 648.34 812.693 650.204Q815.493 652.069 818.042 654.265C825.968 661.077 832.805 670.194 836.179 680.151C840.121 691.783 840.214 709.727 841.336 722.284C843.346 744.779 845.491 767.294 847.15 789.818C840.238 790.606 833.849 792.176 827.658 795.424C820.869 798.987 815.065 804.65 808.662 808.894L759.95 840.967C749.3 847.949 737.667 854.228 728.515 863.151C721.457 855.696 714.922 847.492 708.233 839.694C697.241 826.878 682.329 810.928 674.439 796.248C669.259 786.61 666.393 776.713 664.028 766.108C659.728 744.35 653.468 698.281 661.72 678.026C664.775 670.528 670.38 664.453 677.847 661.249C682.881 669.042 694.242 686.894 696.914 695.054C698.118 698.732 697.784 703.811 698.335 707.768C700.581 723.906 703.896 739.431 712.521 753.488C717.744 751.265 722.25 747.788 726.846 744.516C732.454 753.449 737.566 762.772 742.912 771.873C745.903 776.965 748.762 782.843 752.853 787.168Q753.666 788.043 754.586 788.804Q755.507 789.564 756.52 790.197Q757.533 790.83 758.62 791.324Q759.707 791.818 760.85 792.164C765.607 793.576 770.978 792.903 775.327 790.547Q775.764 790.313 776.188 790.058Q776.612 789.802 777.022 789.525Q777.433 789.249 777.828 788.951Q778.224 788.654 778.604 788.336Q778.985 788.019 779.348 787.683Q779.712 787.347 780.058 786.993Q780.404 786.639 780.731 786.267Q781.058 785.896 781.366 785.508Q781.675 785.12 781.962 784.718Q782.25 784.315 782.517 783.898Q782.784 783.481 783.03 783.051Q783.275 782.621 783.498 782.179Q783.722 781.737 783.922 781.284Q784.122 780.831 784.299 780.369Q784.476 779.907 784.63 779.436Q784.783 778.965 784.912 778.487C786.095 774.106 785.645 769.688 783.885 765.539C781.645 760.258 777.945 755.382 774.973 750.47L754.666 716.91C735.427 684.912 716.803 652.461 697.914 620.25C702.237 617.84 706.366 616.516 711.222 615.619Z"/>
	<path fill="#A2B4DC" d="M1000.16 649.857C1000.16 650.114 1000.16 650.37 1000.16 650.626C1000.23 656.697 1004.49 671.001 1005.77 677.9C1010.47 703.3 1010.21 727.685 1006.16 753.157C1003.17 772.033 996.561 789.745 989.225 807.303C987.49 811.456 978.915 825.885 978.913 828.68C972.386 827.734 963.759 828.648 957.009 828.651L902.179 828.691C896.084 820.978 892.06 811.578 885.292 804.399C875.962 794.501 863.853 789.714 850.425 789.354C846.588 756.893 845.834 724.008 841.798 691.596C839.675 674.546 831.572 660.796 818.003 650.238L957.081 650.032C966.243 649.944 975.418 650.114 984.581 650.167C989.676 650.197 995.119 650.574 1000.16 649.857Z"/>
	<path fill="#F28A20" d="M772.617 980.699C763.911 966.133 754.61 951.79 745.33 937.581C738.26 926.755 727.795 913.632 723.754 901.653Q723.336 900.389 723.01 899.098Q722.685 897.807 722.452 896.496Q722.219 895.185 722.081 893.861Q721.943 892.536 721.901 891.206Q721.858 889.875 721.911 888.545Q721.963 887.214 722.111 885.891Q722.259 884.568 722.502 883.259Q722.744 881.949 723.08 880.661C724.572 874.823 728.028 867.893 732.404 863.701C739.373 857.025 748.321 852.082 756.42 846.876Q771.23 837.317 785.943 827.608C794.873 821.679 804.037 816.004 812.829 809.888C818.126 806.204 823.148 801.767 828.728 798.539Q829.67 797.997 830.637 797.502Q831.605 797.007 832.595 796.559Q833.585 796.112 834.596 795.713Q835.607 795.314 836.636 794.965Q837.665 794.616 838.71 794.318Q839.755 794.019 840.813 793.772Q841.872 793.525 842.941 793.33Q844.01 793.134 845.087 792.991Q846.164 792.848 847.247 792.758Q848.33 792.667 849.416 792.63Q850.502 792.592 851.589 792.607Q852.676 792.623 853.76 792.691Q854.845 792.759 855.925 792.881Q857.005 793.002 858.077 793.175Q859.15 793.349 860.213 793.574Q861.276 793.8 862.327 794.077Q863.827 794.483 865.294 794.992Q866.762 795.501 868.191 796.111Q869.621 796.72 871.004 797.427Q872.388 798.134 873.719 798.934Q875.05 799.735 876.323 800.626Q877.596 801.517 878.804 802.494Q880.012 803.471 881.15 804.529Q882.287 805.587 883.349 806.721C888.612 812.436 892.796 819.935 897.041 826.444L915.833 854.98L952.734 910.744C968.047 934.183 983.241 957.842 999.344 980.745C991.157 979.797 982.369 980.398 974.089 980.225Q937.36 979.755 900.628 979.911L808.904 979.968C802.002 979.984 777.995 979.08 772.617 980.699Z"/>
	<path fill="#F28A20" d="M71.5335 980.321Q89.4451 922.776 108.966 865.756L119.103 835.325C121.476 828.202 123.386 820.694 127.08 814.12C130.882 807.355 136.978 802.104 143.812 798.489C150.47 794.967 157.456 793.476 164.972 793.807C178.651 794.409 198.173 800.776 211.987 804.305C232.379 809.515 254.876 814.651 274.79 821.01C287.664 825.121 295.867 832.867 301.888 844.863Q302.537 846.127 303.099 847.433Q303.661 848.738 304.133 850.079Q304.605 851.42 304.986 852.789Q305.366 854.159 305.652 855.551Q305.939 856.943 306.13 858.351Q306.321 859.76 306.417 861.177Q306.512 862.596 306.511 864.017Q306.51 865.438 306.413 866.856C305.677 877.38 298.569 898.681 295.405 909.899C288.795 933.335 282.608 956.985 275.346 980.225C265.263 979.097 254.126 979.984 243.969 979.985L178.788 979.971L108.043 979.881C96.6367 979.861 82.5817 978.85 71.5335 980.321Z"/>
	<path fill="white" d="M249.748 476.891C250.785 498.338 250.029 520.305 249.967 541.785C249.94 551.395 249.274 561.514 250.558 571.045Q250.919 573.57 251.464 576.061Q252.01 578.553 252.736 580.997Q253.462 583.442 254.365 585.827Q255.268 588.213 256.344 590.525C259.453 597.273 265.015 607.407 272.563 609.89C274.542 610.541 276.679 610.584 278.559 609.6C290.647 603.273 286.035 555.389 286.393 541.863C286.608 533.76 287.474 525.188 289.696 517.372C291.313 511.684 294.142 505.188 299.657 502.352C302.765 500.754 306.493 500.39 309.798 501.589C314.922 503.447 318.35 508.528 320.633 513.241C323.982 520.157 325.458 527.871 326.21 535.468C327.094 544.401 326.902 553.42 326.886 562.385L326.807 597.618L326.765 641.713C326.789 661.213 326.852 679.815 323.232 699.088C321.176 710.039 317.329 720.564 313.78 731.1L300.23 770.871C294.178 787.357 288.903 804.096 282.543 820.469C269.385 815.994 255.837 812.62 242.41 809.062L169.27 790.245L183.042 745.19C185.508 736.917 188.821 728.06 189.627 719.452C190.176 713.599 189.29 707.2 188.94 701.316L186.757 666.27L183.648 617.498C182.923 606.015 181.538 594.041 182.792 582.568Q183.065 580.133 183.532 577.727Q183.998 575.322 184.655 572.961Q185.313 570.6 186.156 568.3Q187 565.999 188.024 563.773C193.916 550.923 203.201 540.174 211.369 528.757L232.681 499.58C238.233 491.961 243.626 484.063 249.748 476.891Z"/>
	<path fill="#343D95" d="M707.735 297.75L734.179 297.644C751.115 297.603 767.673 296.116 780.588 309.177C786.142 314.793 790.031 322.594 791.191 330.404C792.841 341.516 791.945 353.636 791.95 364.866L792.02 426.343L792.12 637.633Q765.737 626.28 738.975 615.854L739.031 325.63C724.741 325.327 710.345 325.769 696.045 325.771L602.972 325.745L333.569 325.621L297.763 325.543C296.962 346.9 297.725 368.55 297.811 389.929L297.909 499.649C290.659 504.924 288.326 511.687 286.205 519.96C286.368 514.865 287.58 487.953 285.512 485.048C284.003 485.805 283.549 487.766 283.308 489.359C282.483 494.81 283.393 501.418 283.449 507.001L283.566 560.782C283.588 570.408 284.372 580.431 283.369 589.999C282.88 594.667 281.79 602.764 278.431 606.283C277.562 607.193 276.75 607.569 275.48 607.617C273.155 607.704 271.143 606.311 269.52 604.787C258.729 594.653 252.867 576.199 252.669 561.728C251.959 509.764 252.586 457.71 252.562 405.737L252.547 359.678C252.549 349.855 251.805 339.36 253.505 329.672C254.837 322.085 258.591 315.338 263.992 309.886C269.692 304.133 277.111 299.662 285.222 298.537C296.803 296.931 311.672 298.032 323.539 298.024L401.921 297.866L707.735 297.75Z"/>
	<path fill="#2A2626" d="M766.512 485.522C767.951 485.433 769.558 485.265 770.988 485.488C773.762 485.922 776.541 487.918 778.01 490.276Q778.273 490.691 778.492 491.13Q778.711 491.569 778.883 492.028Q779.056 492.488 779.181 492.962Q779.306 493.437 779.382 493.922Q779.458 494.407 779.484 494.897Q779.509 495.387 779.485 495.877Q779.46 496.367 779.386 496.852Q779.312 497.337 779.188 497.812C778.242 501.506 775.759 503.37 772.592 505.166C770.816 505.606 769.039 505.735 767.252 505.27C764.707 504.608 762.64 503.028 761.346 500.737Q761.076 500.257 760.855 499.752Q760.634 499.247 760.464 498.722Q760.295 498.197 760.179 497.659Q760.063 497.12 760.001 496.572Q759.94 496.024 759.933 495.473Q759.927 494.922 759.975 494.372Q760.024 493.823 760.128 493.282Q760.231 492.74 760.388 492.212C761.376 488.814 763.536 487.186 766.512 485.522Z"/>
	<path fill="white" d="M766.943 488.502C767.871 488.407 768.826 488.296 769.76 488.329C771.641 488.394 773.587 489.467 774.806 490.871C776.111 492.373 776.611 494.249 776.398 496.213C776.093 499.018 774.396 500.671 772.261 502.299C771.161 502.457 769.982 502.664 768.875 502.507C766.972 502.238 765.218 501.112 764.105 499.56C762.945 497.943 762.607 495.864 762.952 493.921C763.417 491.309 764.893 490.014 766.943 488.502Z"/>
	<path fill="#A2B4DC" d="M330.765 689.245L655.63 689.339C653.733 723.354 656.434 771.14 673.658 801.102C679.633 811.495 688.319 820.428 695.797 829.751C680.576 830.053 665.324 829.827 650.099 829.782L295.242 829.701L285.415 821.728C290.751 808.018 295.238 794.023 300.109 780.148Q311.345 748.812 321.628 717.15Q324.286 708.661 326.308 699.998C326.937 697.177 326.424 692.063 328.168 689.807C328.651 689.182 330.004 689.313 330.765 689.245Z"/>
	<path fill="#D6E5F4" d="M297.663 832.628C345.548 831.72 393.604 832.512 441.506 832.505L698.59 832.902C707.899 843.941 718.356 854.439 726.521 866.352C723.723 871.202 721.142 876.143 719.895 881.64C718.224 889.012 718.904 896.826 721.427 903.921C725.52 915.429 737.06 930.438 744.003 941.011L768.768 979.491Q601.638 981.162 434.5 980.406Q382.86 979.91 331.217 980.135L297.511 979.922C291.128 979.883 284.571 979.563 278.214 980.084C284.322 963.309 288.478 945.474 293.334 928.292Q297.966 911.921 302.346 895.48C304.34 888.239 306.678 880.916 308.114 873.549C311.352 856.933 306.799 846.14 297.663 832.628Z"/>
	<path fill="white" d="M300.406 328.441C317.943 328.145 335.53 328.463 353.072 328.468L454.983 328.452L736.383 328.518L736.007 615.098C729.684 613.424 723.712 612.397 717.182 611.99C716.58 576.543 717.196 540.97 717.165 505.506C707.2 504.532 696.622 505.175 686.591 505.163C662.745 505.134 638.752 505.679 614.924 504.925C611.126 501.967 607.577 498.682 603.775 495.707C604.068 498.882 604.498 501.904 605.483 504.943L549.562 504.922C539.75 504.932 528.519 503.87 518.884 505.746C518.627 506.127 518.535 506.216 518.383 506.717C516.958 511.416 517.937 560.513 517.958 570.198C518.003 591.611 517.3 613.241 518.042 634.626C518.124 636.974 518.326 639.367 519.271 641.54C520.908 642.443 621.924 641.923 633.349 641.933L666.596 642.018C669.861 646.726 672.474 651.982 675.247 656.994L329.918 657.237L329.866 641.949C387.282 641.208 444.747 642.26 502.172 641.742C503.166 631.489 502.5 620.586 502.506 610.261L502.444 549.03L502.436 449.193C502.434 430.488 502.92 411.64 502.249 392.952C494.985 392.592 487.605 392.843 480.328 392.85L439.939 392.886L318.146 392.977C317.65 405.121 317.998 417.391 317.994 429.548Q318.074 466.454 317.753 503.358Q316.272 502.178 314.756 501.044C310.096 497.583 306.06 497.662 300.602 498.488L300.406 328.441Z"/>
	<path fill="#2A2626" d="M518.958 393.233C534.147 393.037 549.363 393.233 564.556 393.207C578.905 393.182 593.297 392.922 607.641 393.276C607.892 414.167 607.533 435.082 607.667 455.977C607.732 466.225 609.031 479.659 607.613 489.477L607.097 489.528L607.391 489.8L606.886 490.112C597.44 491.125 587.164 490.353 577.618 490.36L518.34 490.302C518.151 481.056 517.851 395.591 518.252 394.329C518.384 393.915 518.722 393.599 518.958 393.233Z"/>
	<path fill="white" d="M539.664 395.75Q572.556 395.505 605.448 395.636L605.494 453.608C605.502 464.901 605.832 476.317 605.292 487.592C598.749 487.948 592.075 487.716 585.517 487.737L520.764 487.857L520.561 395.877L539.664 395.75Z"/>
	<path fill="#2A2626" d="M624.616 393.2C644.451 392.785 664.339 393.045 684.18 393.048C694.676 393.049 706.886 391.984 717.124 393.657C717.552 413.323 717.299 433.04 717.294 452.711C717.29 464.05 717.914 475.804 717.219 487.092C717.144 488.298 717.184 489.255 716.376 490.22C705.931 490.606 695.361 490.263 684.9 490.253L623.848 490.187L623.689 426.497C623.664 416.383 622.804 405.629 623.737 395.602C623.829 394.613 624.099 394.026 624.616 393.2Z"/>
	<path fill="#D6E5F4" d="M626.115 395.556C655.395 395.228 685.286 394.79 714.536 395.836L714.877 487.851L626.247 487.733C625.643 457.045 626.12 426.254 626.115 395.556Z"/>
	<path fill="#2A2626" d="M317.616 344.392L600.136 344.4L674.232 344.367C688.467 344.353 702.771 344.038 716.995 344.483C716.997 355.844 717.328 367.315 716.763 378.66C708.019 379.937 694.111 378.958 684.951 378.933L615.072 378.737L383.952 378.626C376.002 378.628 321.241 379.553 318.33 378.145C316.381 371.691 317.585 352.09 317.616 344.392Z"/>
	<path fill="white" d="M320.141 347.005L714.251 347.023Q714.327 361.687 714.223 376.351C697.915 376.872 681.45 376.387 665.128 376.297L584.525 376.078L320.144 376.165C319.908 366.46 320.113 356.715 320.141 347.005Z"/>
	<path fill="#2A2626" d="M699.925 351.593C700.598 351.744 701.429 351.703 701.838 352.32C703.379 354.649 702.434 361.088 702.107 363.815L700.579 363.19C698.58 360.407 699.692 354.807 699.925 351.593Z"/>
	<path fill="#2A2626" d="M363.057 353.412C363.997 353.859 363.834 353.928 364.237 354.822C363.351 357.109 360.206 357.296 358.993 359.259C357.25 362.08 358.603 366.38 357.25 369.594C356.729 369.161 356.402 368.985 356.075 368.411C354.837 366.239 354.793 362.563 355.685 360.251C357.217 356.28 359.292 354.961 363.057 353.412Z"/>
	<path fill="white" d="M249.949 434.839L150.569 434.953C134.366 434.957 117.519 435.851 101.387 434.653C98.4547 434.435 93.5582 434.008 91.2315 432.223C88.6678 430.256 87.5141 426.638 87.3706 423.548C87.0754 417.193 87.3891 410.687 87.4141 404.317L87.4181 368.82L87.3824 247.822L87.3876 148.877C87.376 132.048 86.3668 114.672 87.4609 97.9067C87.6478 95.0419 88.5867 93.129 90.568 91.0589C92.2698 89.2808 94.4565 87.8694 96.9489 87.6175C108.147 86.4858 120.191 87.3419 131.474 87.367L193.359 87.2601L415.101 87.2364C420.426 87.2311 426.911 86.3983 430.889 90.6154C432.652 92.4847 433.322 94.4458 433.556 96.9648C434.227 104.195 433.773 111.858 433.786 119.14L433.766 163.744L433.887 294.612C428.377 295.385 422.486 295.043 416.926 295.03Q401.484 295.036 386.044 294.741Q351.459 294.562 316.874 294.768C305.23 294.763 291.837 293.319 280.555 296.418C271.753 298.836 263.847 304.502 258.393 311.782C257.633 312.797 256.921 313.819 256.291 314.92L255.039 316.832C248.217 329.936 249.376 347.932 249.949 362.513C249.813 378.73 250.523 395.084 249.897 411.273C250.095 419.116 249.952 426.992 249.949 434.839Z"/>
	<path fill="#A2B4DC" d="M129.457 292.002L306.292 292.055C316.25 292.03 389.329 290.89 391.331 291.689C391.423 292.835 391.386 293.32 392.026 294.308C395.595 294.739 399.393 294.499 402.994 294.496C413.187 294.488 423.74 293.879 433.887 294.612C428.377 295.385 422.486 295.043 416.926 295.03Q401.484 295.036 386.044 294.741Q351.459 294.562 316.874 294.768C305.23 294.763 291.837 293.319 280.555 296.418C271.753 298.836 263.847 304.502 258.393 311.782C257.633 312.797 256.921 313.819 256.291 314.92C242.356 314.663 228.359 314.95 214.419 314.957L129.343 314.971Q129.463 303.487 129.457 292.002Z"/>
	<path fill="#A2B4DC" d="M129.598 148.215C160.275 149.431 191.169 148.558 221.871 148.553L392.01 148.556L391.987 170.099L129.453 170.118C129.484 162.864 129.063 155.441 129.598 148.215Z"/>
	<path fill="#A2B4DC" d="M129.407 171.989L391.91 171.989C391.762 179.141 391.769 186.303 391.705 193.457C390.873 194.04 389.864 194.031 388.863 194.069C379.756 194.408 370.507 194.06 361.383 194.064L305.575 194.086L129.394 193.998L129.407 171.989Z"/>
	<path fill="#A2B4DC" d="M129.477 268.026L391.531 268.003L391.485 289.973L129.489 290.257C129.568 282.85 129.487 275.434 129.477 268.026Z"/>
	<path fill="#A2B4DC" d="M129.5 220.012L391.588 220.003L391.659 242.083C361.986 242.779 332.127 242.175 302.439 242.173L129.504 242.138L129.5 220.012Z"/>
	<path fill="#A2B4DC" d="M129.466 196C158.573 195.572 187.753 195.991 216.867 195.99L391.651 195.982L391.561 218.098C376.912 218.432 362.212 218.164 347.555 218.205L268.085 218.389L129.474 218.08L129.466 196Z"/>
	<path fill="#A2B4DC" d="M129.492 244.01L391.64 243.971L391.562 266.054C378.324 266.498 364.952 266.162 351.698 266.229L269.354 266.405L129.444 266.315L129.492 244.01Z"/>
	<path fill="#A2B4DC" d="M129.33 316.399Q169.918 316.707 210.507 316.571C225.243 316.552 240.349 315.854 255.039 316.832C248.217 329.936 249.376 347.932 249.949 362.513C249.813 378.73 250.523 395.084 249.897 411.273C248.425 404.901 249.426 390.664 249.453 383.513C236.465 382.422 222.939 382.982 209.9 382.887Q169.657 382.509 129.415 383.006L129.357 364.311C158.613 363.82 187.968 364.046 217.231 364.029C224.605 364.025 243.706 364.998 249.159 363.736L249.523 362.871C243.518 361.504 226.707 362.499 219.396 362.496L129.364 362.862Q129.469 351.433 129.279 340.006L217.637 340.049C223.949 340.048 244.925 340.921 249.352 339.669L249.479 339.053C248.866 338.608 248.43 338.395 247.66 338.371C235.839 338.003 223.885 338.393 212.048 338.35L129.27 338.166Q129.356 327.283 129.33 316.399Z"/>
	<path fill="#D6E5F4" d="M436.421 130.156C443.5 124.433 449.961 118.328 457.428 113.014Q469.535 104.376 482.235 96.6369Q494.935 88.8981 508.163 82.0996C569.3 49.9204 631.285 36.2752 700.063 48.0829C737.025 54.4286 776.461 70.6395 804.364 96.0498C807.875 99.2471 812.456 102.703 815.181 106.538C816.353 107.328 816.976 107.837 817.766 109.054C858.943 153.433 870.982 202.632 871.446 261.587L871.112 263.947C870.665 272.155 870.275 280.42 869.052 288.557C867.21 300.809 864.104 312.82 861.981 325.014Q860.109 335.992 859.456 347.109Q858.803 358.226 859.378 369.347C859.537 372.769 859.243 378.541 860.782 381.598C849.169 409.623 852.555 437.24 863.948 464.782C873.286 487.357 885.451 508.331 899.395 528.368C904.697 535.987 913.185 544.46 917.12 552.488C908.502 552.093 899.734 552.364 891.1 552.332C884.509 552.307 877.003 551.546 870.571 552.714C869.91 553.78 869.747 554.514 869.871 555.787C870.572 562.961 872.228 570.271 873.193 577.452Q877.885 612.261 883.152 646.988C860.22 647.553 837.223 647.227 814.28 647.46C808.273 643.754 802.093 641.293 795.538 638.767C794.512 612.178 795.301 585.261 795.329 558.639L795.373 412.629L795.326 362.087C795.308 351.544 796.049 340.227 794.282 329.83Q794.012 328.186 793.616 326.568Q793.219 324.95 792.698 323.368Q792.177 321.786 791.535 320.249Q790.892 318.712 790.132 317.23Q789.373 315.747 788.5 314.328Q787.627 312.91 786.647 311.563Q785.667 310.216 784.585 308.949Q783.503 307.683 782.326 306.504Q781.172 305.375 779.934 304.339Q778.696 303.303 777.38 302.368Q776.065 301.432 774.68 300.602Q773.295 299.772 771.85 299.053Q770.405 298.334 768.908 297.73Q767.411 297.126 765.871 296.64Q764.331 296.155 762.758 295.792Q761.185 295.428 759.589 295.189C748.436 293.51 735.94 294.563 724.619 294.591L661.912 294.624L436.507 294.676L436.421 130.156Z"/>
	<path fill="#2A2626" d="M815.181 106.538C816.353 107.328 816.976 107.837 817.766 109.054L709.01 109.229L674.653 109.114C668.435 109.091 661.893 108.689 655.709 109.281C653.607 109.482 651.936 109.848 650.374 111.347C648.379 113.263 648.016 116.237 647.822 118.866C647.443 124.03 647.748 129.41 647.78 134.593Q647.942 149.953 647.914 165.313C647.838 192.927 647.045 220.717 647.648 248.311C647.718 251.518 647.619 256.196 650.103 258.522C651.605 259.928 653.44 260.64 655.465 260.881C661.123 261.555 667.153 261.194 672.85 261.176L701.668 261.098L817.678 261.222L852.764 261.315C858.887 261.325 865.374 260.913 871.446 261.587L871.112 263.947L728.572 263.827L682.869 263.932C674.218 263.956 665.347 264.363 656.72 263.728C653.759 263.509 651.336 263.236 649.046 261.154C645.601 258.022 645.236 253.615 645.033 249.199C644.601 239.801 644.988 230.246 645.007 220.828L645.065 168.65L644.963 136.098C644.927 130.222 644.47 123.99 645.097 118.157C645.421 115.146 646.018 111.827 648.224 109.59C649.811 107.981 651.804 106.978 654.043 106.71C660.044 105.991 666.466 106.447 672.502 106.477L705.254 106.587L815.181 106.538Z"/>
	<path fill="#2A2626" d="M521.411 94.5262C527.03 94.0581 558.84 93.664 563.026 95.0811C565.397 95.8839 566.655 98.5752 567.756 100.602C566.959 138.956 568.014 177.398 567.774 215.767L567.759 236.233C567.798 241.268 568.29 246.908 567.293 251.856C566.834 254.134 565.034 255.392 563.242 256.619C557.637 257.945 532.785 257.698 526.254 257.058C523.728 256.81 520.165 256.212 518.541 254.048C517.371 252.488 516.936 250.993 516.774 249.071C515.996 239.816 516.612 230.002 516.614 220.687L516.638 165.018L516.566 123.602C516.553 116.277 515.907 108.251 516.928 100.995C517.372 97.8348 518.965 96.3948 521.411 94.5262Z"/>
	<path fill="#F28A20" d="M522.7 97.0877C529.824 96.8273 537.013 96.9998 544.144 96.9718C548.899 96.9532 554.399 96.3688 559.058 97.2376C561.032 97.6055 562.477 98.1252 563.986 99.4522C564.775 101.249 564.934 103.108 564.98 105.056C565.209 114.871 565.358 249.402 564.499 251.54C563.88 253.08 562.654 253.706 561.278 254.422C550.161 254.748 538.695 254.963 527.579 254.575C525.392 254.499 522.067 254.441 520.484 252.754C518.137 241.05 519.332 227.106 519.299 215.146L519.399 141.519L519.445 114.771C519.446 110.563 518.976 105.626 519.616 101.51C519.95 99.3573 520.995 98.3271 522.7 97.0877Z"/>
	<path fill="#D6E5F4" d="M871.446 261.587C865.374 260.913 858.887 261.325 852.764 261.315L817.678 261.222L701.668 261.098L672.85 261.176C667.153 261.194 661.123 261.555 655.465 260.881C653.44 260.64 651.605 259.928 650.103 258.522C647.619 256.196 647.718 251.518 647.648 248.311C647.045 220.717 647.838 192.927 647.914 165.313Q647.942 149.953 647.78 134.593C647.748 129.41 647.443 124.03 647.822 118.866C648.016 116.237 648.379 113.263 650.374 111.347C651.936 109.848 653.607 109.482 655.709 109.281C661.893 108.689 668.435 109.091 674.653 109.114L709.01 109.229L817.766 109.054C858.943 153.433 870.982 202.632 871.446 261.587Z"/>
	<path fill="#2A2626" d="M776.954 125.084C780.283 124.888 783.653 125.194 786.739 126.538Q787.135 126.707 787.522 126.897Q787.909 127.086 788.286 127.296Q788.662 127.505 789.027 127.733Q789.393 127.962 789.746 128.209Q790.099 128.456 790.438 128.721Q790.778 128.987 791.103 129.269Q791.429 129.551 791.739 129.85Q792.049 130.149 792.344 130.464Q792.638 130.778 792.916 131.108Q793.194 131.437 793.454 131.78Q793.714 132.124 793.956 132.48Q794.198 132.836 794.422 133.205Q794.645 133.573 794.849 133.953Q795.053 134.332 795.237 134.722Q795.421 135.111 795.585 135.51Q795.748 135.908 795.891 136.315C797.353 140.495 797.09 144.963 795.055 148.907C792.239 154.367 787.552 156.815 781.925 158.479C777.679 158.915 773.727 158.459 769.994 156.237Q769.281 155.811 768.615 155.317Q767.948 154.822 767.333 154.264Q766.719 153.706 766.163 153.09Q765.607 152.473 765.115 151.805Q764.623 151.136 764.2 150.422Q763.776 149.708 763.426 148.956Q763.076 148.203 762.802 147.42Q762.528 146.636 762.333 145.829C761.302 141.504 762.199 136.979 764.514 133.217C767.446 128.451 771.629 126.227 776.954 125.084Z"/>
	<path fill="#F28A20" d="M776.311 127.557C779.16 127.46 781.754 127.351 784.49 128.341Q785.234 128.602 785.948 128.939Q786.661 129.276 787.336 129.685Q788.01 130.093 788.639 130.57Q789.268 131.047 789.844 131.586Q790.42 132.125 790.937 132.72Q791.454 133.316 791.907 133.962Q792.359 134.608 792.743 135.298Q793.126 135.987 793.436 136.713C794.812 140.021 794.881 143.759 793.443 147.061C791.433 151.676 787.489 154.173 782.957 155.897C779.405 156.462 775.946 156.217 772.659 154.658Q772.006 154.354 771.387 153.987Q770.768 153.62 770.188 153.194Q769.608 152.767 769.073 152.285Q768.538 151.803 768.054 151.271Q767.569 150.739 767.14 150.161Q766.71 149.583 766.34 148.966Q765.97 148.348 765.663 147.697Q765.355 147.046 765.114 146.368C763.881 142.837 764.226 138.811 765.936 135.497C768.234 131.041 771.767 129.087 776.311 127.557Z"/>
	<path fill="#2A2626" d="M801.432 175.663Q802.598 175.547 803.77 175.537Q804.942 175.527 806.11 175.622Q807.278 175.718 808.432 175.918Q809.587 176.119 810.719 176.422Q811.85 176.726 812.95 177.131Q814.05 177.535 815.109 178.037Q816.168 178.539 817.177 179.135Q818.187 179.73 819.138 180.414Q819.656 180.795 820.155 181.202Q820.653 181.609 821.131 182.04Q821.609 182.471 822.064 182.925Q822.52 183.38 822.952 183.856Q823.384 184.333 823.792 184.831Q824.2 185.328 824.582 185.846Q824.965 186.363 825.321 186.899Q825.677 187.435 826.006 187.988Q826.334 188.541 826.635 189.11Q826.936 189.679 827.208 190.262Q827.48 190.845 827.722 191.441Q827.965 192.037 828.177 192.644Q828.389 193.251 828.571 193.869Q828.753 194.486 828.904 195.111Q829.054 195.737 829.173 196.369Q829.293 197.002 829.38 197.639C830.285 204.268 828.476 210.625 824.351 215.873C819.648 221.857 813.554 224.873 806.122 225.831C800.204 226.299 794.118 225.106 789.092 221.858Q788.564 221.518 788.055 221.151Q787.546 220.785 787.056 220.392Q786.567 219.999 786.098 219.581Q785.63 219.164 785.184 218.722Q784.738 218.281 784.315 217.817Q783.892 217.353 783.495 216.867Q783.097 216.382 782.725 215.877Q782.352 215.371 782.007 214.847Q781.662 214.323 781.344 213.782Q781.026 213.241 780.737 212.684Q780.448 212.127 780.188 211.555Q779.928 210.984 779.699 210.4Q779.469 209.816 779.27 209.221Q779.071 208.626 778.903 208.021Q778.735 207.416 778.599 206.803Q778.462 206.191 778.358 205.572Q778.249 204.932 778.171 204.287Q778.094 203.642 778.049 202.994Q778.004 202.346 777.991 201.696Q777.978 201.047 777.998 200.398Q778.017 199.748 778.07 199.101Q778.122 198.453 778.206 197.809Q778.29 197.165 778.407 196.526Q778.523 195.887 778.671 195.255Q778.819 194.622 778.999 193.998Q779.178 193.374 779.388 192.759Q779.599 192.145 779.84 191.541Q780.08 190.938 780.351 190.348Q780.622 189.757 780.921 189.181Q781.221 188.604 781.549 188.044Q781.877 187.483 782.233 186.94Q782.589 186.396 782.971 185.871C787.623 179.482 793.855 176.801 801.432 175.663Z"/>
	<path fill="white" d="M802.11 178.174C807.348 177.913 812.391 178.97 816.792 181.937Q817.276 182.265 817.743 182.618Q818.21 182.97 818.658 183.346Q819.106 183.722 819.535 184.12Q819.964 184.518 820.372 184.937Q820.78 185.356 821.166 185.795Q821.552 186.234 821.916 186.692Q822.28 187.15 822.62 187.626Q822.96 188.102 823.275 188.595Q823.591 189.088 823.881 189.595Q824.171 190.103 824.435 190.625Q824.699 191.147 824.936 191.682Q825.173 192.217 825.383 192.763Q825.593 193.309 825.775 193.864Q825.957 194.42 826.111 194.985Q826.264 195.549 826.389 196.121Q826.514 196.692 826.61 197.269Q826.697 197.814 826.756 198.363Q826.815 198.912 826.847 199.463Q826.879 200.015 826.883 200.567Q826.888 201.119 826.864 201.671Q826.841 202.222 826.79 202.772Q826.739 203.322 826.661 203.868Q826.582 204.415 826.477 204.957Q826.371 205.499 826.238 206.035Q826.106 206.571 825.946 207.1Q825.787 207.628 825.602 208.148Q825.416 208.668 825.205 209.179Q824.994 209.689 824.757 210.188Q824.521 210.687 824.259 211.173Q823.998 211.66 823.713 212.132Q823.428 212.605 823.119 213.063Q822.811 213.521 822.48 213.963C818.247 219.646 812.471 222.354 805.625 223.349C799.695 223.663 793.901 222.272 789.138 218.598Q788.709 218.263 788.296 217.907Q787.884 217.552 787.489 217.176Q787.095 216.801 786.72 216.406Q786.344 216.012 785.989 215.599Q785.633 215.186 785.298 214.757Q784.963 214.327 784.65 213.882Q784.337 213.436 784.046 212.976Q783.755 212.515 783.487 212.041Q783.219 211.567 782.975 211.08Q782.731 210.594 782.511 210.095Q782.291 209.597 782.096 209.089Q781.901 208.58 781.731 208.063Q781.561 207.545 781.417 207.02Q781.273 206.495 781.155 205.963Q781.037 205.431 780.945 204.895Q780.853 204.358 780.788 203.817Q780.724 203.254 780.688 202.689Q780.652 202.124 780.644 201.557Q780.636 200.991 780.655 200.425Q780.674 199.859 780.721 199.295Q780.768 198.73 780.843 198.169Q780.917 197.607 781.019 197.05Q781.121 196.493 781.25 195.942Q781.379 195.39 781.534 194.846Q781.69 194.301 781.872 193.765Q782.054 193.229 782.263 192.702Q782.471 192.175 782.704 191.659Q782.938 191.143 783.197 190.639Q783.455 190.135 783.738 189.645Q784.021 189.154 784.327 188.678Q784.634 188.202 784.963 187.741Q785.292 187.28 785.644 186.836C789.808 181.528 795.589 179.049 802.11 178.174Z"/>
	<path fill="#2A2626" d="M694.834 169.693Q696.302 169.589 697.774 169.609Q699.246 169.628 700.711 169.771Q702.176 169.914 703.624 170.179Q705.072 170.444 706.492 170.829Q707.913 171.215 709.296 171.718Q710.679 172.221 712.016 172.838Q713.352 173.455 714.632 174.182Q715.911 174.909 717.126 175.741C725.274 181.251 731.005 189.491 732.801 199.202C734.558 208.705 732.189 218.386 726.669 226.268C720.235 235.455 711.448 239.993 700.626 241.974C691.217 242.886 681.902 240.634 674.38 234.78Q673.659 234.219 672.967 233.624Q672.275 233.029 671.612 232.401Q670.95 231.772 670.318 231.113Q669.687 230.453 669.089 229.763Q668.491 229.073 667.927 228.355Q667.363 227.637 666.835 226.892Q666.307 226.148 665.816 225.378Q665.324 224.608 664.871 223.816Q664.418 223.023 664.004 222.209Q663.59 221.396 663.216 220.563Q662.843 219.73 662.51 218.879Q662.177 218.029 661.886 217.164Q661.595 216.298 661.347 215.42Q661.098 214.541 660.893 213.651Q660.688 212.762 660.526 211.863Q660.365 210.964 660.247 210.059Q660.14 209.192 660.075 208.32Q660.011 207.449 659.99 206.575Q659.969 205.701 659.991 204.828Q660.013 203.954 660.078 203.083Q660.144 202.211 660.252 201.344Q660.36 200.477 660.511 199.616Q660.662 198.755 660.856 197.903Q661.049 197.051 661.285 196.209Q661.52 195.368 661.797 194.539Q662.074 193.71 662.391 192.896Q662.708 192.081 663.066 191.284Q663.423 190.486 663.819 189.707Q664.216 188.929 664.65 188.17Q665.084 187.412 665.556 186.676Q666.027 185.94 666.534 185.228Q667.041 184.517 667.583 183.831C674.598 175.034 683.857 170.918 694.834 169.693Z"/>
	<path fill="white" d="M692.13 172.629C700.58 172.06 707.804 172.94 715.067 177.634Q715.778 178.094 716.465 178.588Q717.153 179.082 717.815 179.609Q718.477 180.137 719.112 180.696Q719.748 181.255 720.355 181.845Q720.962 182.436 721.539 183.055Q722.116 183.674 722.662 184.321Q723.208 184.968 723.721 185.641Q724.234 186.314 724.714 187.012Q725.194 187.709 725.638 188.43Q726.083 189.15 726.491 189.891Q726.9 190.633 727.271 191.393Q727.643 192.154 727.976 192.932Q728.31 193.71 728.605 194.504Q728.9 195.297 729.155 196.104Q729.41 196.911 729.625 197.73Q729.841 198.549 730.015 199.377C731.77 208.059 729.735 216.844 724.829 224.156C719.022 232.811 710.938 237.365 700.882 239.396C692.419 239.953 684.958 238.723 677.816 233.923Q677.118 233.446 676.444 232.936Q675.77 232.426 675.121 231.884Q674.473 231.342 673.852 230.769Q673.23 230.196 672.638 229.593Q672.045 228.99 671.482 228.359Q670.92 227.728 670.388 227.071Q669.857 226.414 669.358 225.731Q668.86 225.048 668.395 224.342Q667.93 223.636 667.5 222.909Q667.07 222.181 666.676 221.433Q666.282 220.685 665.925 219.919Q665.568 219.153 665.249 218.37Q664.93 217.588 664.649 216.79Q664.368 215.993 664.126 215.183Q663.884 214.373 663.682 213.552Q663.48 212.732 663.318 211.902Q663.166 211.092 663.054 210.275Q662.943 209.459 662.873 208.638Q662.803 207.816 662.775 206.993Q662.746 206.169 662.76 205.345Q662.773 204.521 662.828 203.698Q662.882 202.876 662.979 202.058Q663.075 201.239 663.213 200.426Q663.35 199.614 663.528 198.809Q663.707 198.004 663.926 197.21Q664.144 196.415 664.403 195.633Q664.662 194.85 664.959 194.082Q665.257 193.313 665.594 192.561Q665.93 191.808 666.304 191.074Q666.677 190.339 667.088 189.624Q667.498 188.91 667.944 188.217Q668.39 187.524 668.871 186.854C674.624 178.685 682.437 174.37 692.13 172.629Z"/>
</svg>
