<?xml version="1.0" encoding="utf-8" ?>
<svg xmlns="http://www.w3.org/2000/svg" xmlns:xlink="http://www.w3.org/1999/xlink" width="1024" height="1024">
	<path fill="#FEFEFE" d="M0 0L1024 0L1024 1024L0 1024L0 0Z"/>
	<path fill="#D9E5EE" d="M231.122 63.6823C231.326 63.6551 231.528 63.6199 231.732 63.6009C241.927 62.6505 253.259 66.9305 261.224 73.1078C270.941 80.6433 276.676 90.9259 278.143 103.147Q278.267 104.223 278.337 105.305Q278.408 106.386 278.425 107.469Q278.442 108.552 278.406 109.635Q278.37 110.718 278.281 111.798Q278.192 112.878 278.05 113.952Q277.909 115.026 277.714 116.092Q277.52 117.158 277.273 118.213Q277.026 119.268 276.728 120.31Q276.43 121.351 276.081 122.377Q275.732 123.403 275.333 124.41Q274.935 125.417 274.487 126.404Q274.039 127.391 273.543 128.354Q273.047 129.317 272.505 130.255Q271.963 131.193 271.375 132.103Q270.787 133.014 270.155 133.894Q269.523 134.774 268.849 135.622C260.358 146.168 249.295 150.902 236.123 152.396C224.373 152.921 214.712 150.589 205.287 143.317C196.473 136.517 190.041 125.77 188.663 114.664C187.202 102.887 190.946 90.2342 198.219 80.903C206.388 70.4228 218.164 65.2206 231.122 63.6823Z"/>
	<path fill="#FEFEFE" d="M232.33 78.2124C239.846 77.6852 246.845 79.7405 252.834 84.3712C259.089 89.2075 262.962 96.0784 263.848 103.95C264.794 112.348 262.439 119.974 257.135 126.546C251.326 133.745 244.287 137.352 235.121 138.31C227.703 138.664 219.82 136.346 214.073 131.568C207.943 126.471 203.702 118.728 203.049 110.747Q202.986 110.027 202.96 109.306Q202.934 108.584 202.944 107.862Q202.955 107.139 203.001 106.419Q203.048 105.698 203.131 104.98Q203.214 104.263 203.333 103.551Q203.452 102.838 203.607 102.133Q203.761 101.427 203.951 100.73Q204.141 100.034 204.366 99.3472Q204.591 98.6608 204.851 97.9867Q205.11 97.3126 205.403 96.6524Q205.696 95.9922 206.022 95.3476Q206.348 94.703 206.705 94.0756Q207.063 93.4483 207.452 92.8398Q207.841 92.2312 208.261 91.6431Q208.68 91.055 209.128 90.4887Q209.577 89.9224 210.053 89.3795Q210.576 88.7749 211.128 88.1967Q211.68 87.6186 212.259 87.0682Q212.839 86.5178 213.445 85.9966Q214.051 85.4753 214.682 84.9845Q215.313 84.4936 215.967 84.0344Q216.621 83.5751 217.297 83.1485Q217.973 82.722 218.669 82.3291Q219.365 81.9362 220.08 81.578Q220.794 81.2198 221.526 80.8972Q222.257 80.5745 223.003 80.2881Q223.749 80.0018 224.509 79.7524Q225.268 79.5031 226.039 79.2913Q226.81 79.0796 227.59 78.9059Q228.37 78.7323 229.158 78.5972Q229.946 78.4621 230.739 78.3658Q231.533 78.2696 232.33 78.2124Z"/>
	<path fill="#668CC3" d="M782.406 499.244C813.372 502.26 855.739 531.672 875.388 555.519Q877.055 557.502 878.672 559.526Q880.289 561.55 881.855 563.613Q883.421 565.677 884.935 567.78Q886.449 569.882 887.91 572.021Q889.37 574.161 890.777 576.336Q892.184 578.512 893.536 580.722Q894.887 582.932 896.183 585.175Q897.479 587.418 898.719 589.693Q899.958 591.968 901.141 594.273Q902.323 596.578 903.447 598.912Q904.571 601.246 905.636 603.608Q906.702 605.969 907.708 608.357Q908.713 610.744 909.659 613.156Q910.605 615.568 911.49 618.003Q912.375 620.437 913.199 622.893Q914.023 625.35 914.785 627.826Q915.547 630.302 916.247 632.796Q916.947 635.29 917.585 637.801Q918.222 640.312 918.796 642.838Q919.37 645.365 919.881 647.904Q920.392 650.444 920.839 652.996Q921.286 655.548 921.669 658.11Q922.052 660.672 922.371 663.243Q922.69 665.814 922.944 668.392Q923.199 670.97 923.388 673.554Q923.578 676.138 923.703 678.725Q923.828 681.313 923.888 683.903Q923.948 686.493 923.944 689.083Q923.939 691.674 923.87 694.264Q923.8 696.853 923.666 699.441Q923.531 702.028 923.333 704.611Q923.133 707.194 922.87 709.771Q922.621 712.262 922.31 714.747Q922 717.231 921.629 719.708Q921.258 722.184 920.827 724.65Q920.395 727.116 919.903 729.571Q919.412 732.026 918.86 734.469Q918.308 736.911 917.697 739.339Q917.086 741.767 916.415 744.179Q915.744 746.592 915.015 748.987Q914.286 751.382 913.498 753.759Q912.71 756.135 911.864 758.492Q911.018 760.849 910.115 763.184Q909.212 765.519 908.252 767.831Q907.292 770.144 906.276 772.432Q905.259 774.72 904.187 776.983Q903.115 779.246 901.988 781.481Q900.86 783.717 899.679 785.924Q898.497 788.132 897.262 790.31Q896.027 792.488 894.739 794.635Q893.45 796.782 892.11 798.897Q890.77 801.011 889.378 803.093Q887.986 805.174 886.544 807.221Q885.102 809.268 883.61 811.278Q882.118 813.289 880.577 815.263Q879.036 817.236 877.448 819.172Q875.859 821.107 874.224 823.003Q872.589 824.899 870.907 826.754Q869.226 828.609 867.499 830.423Q865.773 832.236 864.003 834.007Q862.233 835.778 860.42 837.505Q858.607 839.232 856.752 840.914Q854.897 842.596 853.002 844.232Q851.107 845.868 849.172 847.457C831.676 861.743 812.329 874.338 791.322 882.827C790.619 878.26 790.632 873.398 790.521 868.78C801.164 863.962 811.527 857.809 821.268 851.371C863.596 823.395 895.618 782.12 905.855 731.744C917.054 676.633 907.43 625.43 876.247 578.49C857.299 549.968 816.446 519.042 782.423 512.178L782.406 499.244Z"/>
	<path fill="#D9E5EE" d="M152.815 145.709C170.386 144.151 188.961 150.052 202.508 161.212Q203.82 162.289 205.078 163.429Q206.335 164.57 207.534 165.771Q208.734 166.972 209.872 168.232Q211.01 169.491 212.084 170.806Q213.159 172.12 214.167 173.486Q215.174 174.852 216.113 176.266Q217.052 177.68 217.92 179.139Q218.787 180.598 219.581 182.099Q220.376 183.599 221.094 185.137Q221.813 186.675 222.455 188.246Q223.096 189.818 223.659 191.42Q224.222 193.021 224.705 194.649Q225.187 196.276 225.589 197.925Q225.99 199.575 226.309 201.242Q226.629 202.909 226.865 204.59Q227.101 206.271 227.253 207.962C228.871 226.665 222.708 244.637 210.56 258.864C197.951 273.633 180.374 281.375 161.241 282.807C143.906 284.408 125.509 278.306 112.132 267.319Q110.781 266.208 109.487 265.031Q108.194 263.854 106.96 262.614Q105.726 261.374 104.556 260.075Q103.385 258.775 102.281 257.419Q101.176 256.063 100.141 254.653Q99.1052 253.244 98.1411 251.784Q97.1769 250.325 96.2864 248.82Q95.396 247.314 94.5816 245.767Q93.7671 244.219 93.0307 242.632Q92.2942 241.046 91.6376 239.425Q90.981 237.804 90.4058 236.152Q89.8306 234.5 89.3383 232.822Q88.846 231.143 88.4377 229.443Q88.0295 227.742 87.7064 226.023Q87.3832 224.304 87.146 222.571Q86.9088 220.839 86.758 219.096C85.2253 201.594 91.2548 184.387 102.485 171.037C115.748 155.269 132.44 147.544 152.815 145.709Z"/>
	<path fill="#FEFEFE" d="M152.204 166.666Q153.373 166.557 154.545 166.504Q155.717 166.45 156.891 166.452Q158.064 166.454 159.236 166.511Q160.409 166.568 161.577 166.681Q162.745 166.793 163.906 166.96Q165.068 167.128 166.22 167.35Q167.373 167.572 168.513 167.848Q169.654 168.124 170.78 168.454Q171.906 168.783 173.016 169.166Q174.125 169.548 175.216 169.982Q176.306 170.417 177.374 170.902Q178.443 171.387 179.487 171.922Q180.532 172.457 181.55 173.041Q182.568 173.625 183.557 174.256Q184.547 174.887 185.505 175.564Q186.464 176.241 187.389 176.963C197.382 184.676 203.415 195.891 204.991 208.37C206.607 221.166 202.964 233.607 194.99 243.717C187.203 253.59 175.952 259.594 163.49 260.991C151.333 262.459 139.121 259.64 129.089 252.516C118.688 245.13 111.651 234.334 109.67 221.697C107.676 208.969 110.495 197.058 118.167 186.685C126.602 175.28 138.289 168.657 152.204 166.666Z"/>
	<path fill="#3A7569" d="M142.558 718.461C114.059 685.033 129.389 663.104 114.501 632.038C104.337 610.827 87.174 605.787 70.9481 591.986C62.371 584.691 55.0906 575.198 48.9593 565.778C26.9681 531.993 10.7919 479.862 19.4452 440.083C24.1042 418.666 35.4399 400.007 54.0564 388.082C72.2079 376.456 94.8817 373.581 115.769 378.164C156.276 387.052 182.476 418.423 203.867 451.571C205.132 469.024 203.425 491.111 207.932 507.728L207.878 508.938C211.15 513.417 212.544 530.044 214.165 536.483C216.512 545.804 233.202 596.737 239.611 599.034C240.275 629.972 239.541 661.039 239.541 691.993C239.541 703.595 238.479 718.055 239.751 729.259L239.653 731.324C235.916 728.915 224.871 720.908 221.91 718.144C220.352 716.691 219.234 714.586 217.899 712.91C217.66 712.898 217.421 712.891 217.182 712.875C211.909 712.52 207.706 709.435 201.991 709.946C197.661 710.334 193.313 711.829 189.21 713.188C176.955 717.248 165.517 721.839 152.311 720.657C149.182 720.377 145.364 719.894 142.558 718.461Z"/>
	<path fill="#FEFEFE" d="M217.899 712.91C200.881 691.691 184.54 662.88 176.525 636.899C173.893 628.37 172.316 619.566 170.569 610.823C164.514 580.524 158.648 554.073 137.27 530.283Q134.153 526.764 130.733 523.539Q127.313 520.314 123.617 517.409Q119.921 514.504 115.98 511.942Q112.038 509.38 107.883 507.182C104.885 505.625 96.9709 502.46 94.8089 500.504C94.2487 499.997 94.4565 499.637 94.462 498.941C94.923 498.342 95.0245 497.947 95.814 497.755C100.089 496.715 109.665 503.222 113.523 505.506C137.89 519.928 156.454 543.868 165.392 570.663C168.307 579.403 169.957 588.493 172.219 597.413C173.209 592.899 173.572 588.154 174.25 583.577C175.861 572.699 177.526 561.58 180.59 551.001C184.607 537.136 194.608 515.021 207.932 507.728L207.878 508.938C202.86 516.372 196.475 523.113 192.421 531.152Q187.864 540.213 185.034 549.953C179.767 568.331 174.194 605.936 177.655 624.185C183.018 652.472 204.493 690.684 223.07 712.761C228.089 718.725 234.382 723.618 239.751 729.259L239.653 731.324C235.916 728.915 224.871 720.908 221.91 718.144C220.352 716.691 219.234 714.586 217.899 712.91Z"/>
	<path fill="#3A7569" d="M207.878 508.938C211.15 513.417 212.544 530.044 214.165 536.483C216.512 545.804 233.202 596.737 239.611 599.034C240.275 629.972 239.541 661.039 239.541 691.993C239.541 703.595 238.479 718.055 239.751 729.259C234.382 723.618 228.089 718.725 223.07 712.761C204.493 690.684 183.018 652.472 177.655 624.185C174.194 605.936 179.767 568.331 185.034 549.953Q187.864 540.213 192.421 531.152C196.475 523.113 202.86 516.372 207.878 508.938Z"/>
	<path fill="#EBA992" d="M708.945 180.918C709.162 176.197 710.46 171.515 714.08 168.222C719.757 163.058 751.347 162.663 759.637 163.312C763.732 163.632 767.562 165.334 770.274 168.487C773.537 172.279 773.659 177.048 773.169 181.795C772.551 187.775 771.715 193.81 770.738 199.743C782.025 202.105 793.948 204.943 804.066 210.595C806.974 203.687 812.479 189.635 819.543 186.548C822.976 185.047 826.87 184.869 830.316 186.414C838.762 190.2 867.382 215.503 870.445 223.824C871.775 227.438 871.552 231.243 869.82 234.683C866.068 242.134 855.463 245.704 849.026 250.573C857.859 260.662 862.732 274.349 867.124 286.843C875.153 284.499 889.642 279.561 897.513 283.78C900.926 285.61 902.975 289.246 903.991 292.869C905.805 299.342 907.43 330.519 906.588 337.268Q906.401 338.769 905.902 340.197Q905.404 341.625 904.616 342.916C902.821 345.859 899.8 348.381 896.413 349.191C888.62 351.055 878.744 349.265 870.847 348.356C868.014 360.966 863.785 371.905 857.223 383.018C863.953 385.836 870.329 388.771 876.547 392.638C878.73 392.108 882.194 391.119 884.384 391.787L884.843 392.735L884.595 393.282C884.398 393.251 884.201 393.217 884.003 393.189C881.548 392.845 879.783 393.135 877.406 393.67C880.053 396.893 881.58 399.628 882.754 403.665C882.016 406.894 881.148 409.904 879.309 412.721C874.882 419.503 849.186 443.578 842.498 447.794C841.132 448.655 838.887 450.011 837.185 449.845C829.588 449.103 819.063 431.856 814.265 426.34C807.546 429.141 800.195 432.018 794.286 436.34C796.569 444.269 800.459 456.352 796.241 464.122C794.877 466.636 792.352 468.696 789.55 469.377C787.257 469.935 784.806 470.067 782.455 470.184L782.541 427.171C782.55 419.813 783.174 411.792 782.118 404.513C781.836 402.569 781.082 400.884 780.231 399.13C776.76 394.689 773.621 393.102 768.074 392.415C755.569 392.774 742.964 392.41 730.447 392.441L645.052 392.476C639.312 380.936 635.38 373.191 631.016 360.805C623.69 362.856 614.273 366.73 606.726 366.124C603.031 365.827 600.048 364.052 597.693 361.227C596.358 359.627 595.333 357.81 594.85 355.772C593.331 349.365 592.542 318.723 593.41 311.903C593.946 307.692 596.037 304.669 599.434 302.157C606.333 297.054 619.809 300.635 627.655 301.689C629.821 287.013 635.314 274.383 642.411 261.529C634.723 258.847 623.128 254.777 618.285 247.798C616.475 245.189 615.704 242.1 616.314 238.962C616.78 236.564 617.906 234.41 619.314 232.435C622.23 228.346 646.468 202.513 650.352 199.889C653.409 197.824 657.731 196.743 661.385 197.512C668.696 199.052 676.209 213.377 680.5 219.521C687.478 214.838 695.016 210.314 702.962 207.476C706.246 206.302 709.681 205.631 712.928 204.35L712.84 203.305C712.332 198.873 711.195 183.908 708.945 180.918Z"/>
	<path fill="#FEFEFE" d="M708.088 392.202C703.463 388.318 698.19 385.265 693.662 381.298Q692.3 380.121 690.997 378.88Q689.694 377.639 688.453 376.337Q687.211 375.034 686.034 373.673Q684.857 372.312 683.748 370.895Q682.638 369.479 681.598 368.01Q680.558 366.542 679.59 365.025Q678.622 363.507 677.729 361.945Q676.836 360.383 676.02 358.78Q675.203 357.176 674.465 355.535Q673.727 353.894 673.069 352.219Q672.411 350.544 671.835 348.839Q671.259 347.134 670.767 345.404Q670.274 343.673 669.865 341.921Q669.457 340.168 669.134 338.398Q668.81 336.628 668.573 334.844Q668.336 333.06 668.185 331.267C666.371 310.053 673.899 287.595 687.58 271.358C701.099 255.314 721.202 244.297 742.182 242.677C765.425 240.882 785.989 247.877 803.639 263.064C818.889 276.186 829.093 296.975 830.423 317.003C831.832 338.222 823.741 360.2 809.68 376.038C801.169 385.625 791.039 392.458 780.231 399.13C776.76 394.689 773.621 393.102 768.074 392.415C760.987 391.18 752.854 391.933 745.629 391.942C733.133 391.959 720.574 391.747 708.088 392.202Z"/>
	<path fill="#668CC3" d="M330.987 967.673C323.702 966.797 315.599 967.349 308.221 967.255Q283.657 967.164 259.113 966.175C181.987 962.448 115.223 931.373 63.2617 874.005C40.2418 848.59 15.9402 811.839 17.9159 776.261C18.934 757.928 27.8629 740.408 41.6017 728.322C63.0661 709.44 91.5487 701.676 118.982 710.907C125.665 713.156 134.965 718.232 141.697 718.454C141.984 718.463 142.271 718.459 142.558 718.461C145.364 719.894 149.182 720.377 152.311 720.657C165.517 721.839 176.955 717.248 189.21 713.188C193.313 711.829 197.661 710.334 201.991 709.946C207.706 709.435 211.909 712.52 217.182 712.875C217.421 712.891 217.66 712.898 217.899 712.91C219.234 714.586 220.352 716.691 221.91 718.144C224.871 720.908 235.916 728.915 239.653 731.324C239.511 736.808 239.506 742.641 243.67 746.817C245.913 749.067 248.411 749.809 251.51 750.274C260.498 751.622 270.78 750.662 279.921 750.624C299.924 750.541 319.995 750.197 339.994 750.567C339.124 767.057 339.499 783.643 339.551 800.155L340.543 903.586C340.588 916.808 341.66 930.374 340.878 943.545C340.654 947.321 338.651 961.738 336.472 964.211C336.085 964.65 335.565 964.794 334.988 964.785C334.314 964.775 333.44 964.435 332.785 964.249C331.64 964.931 331.593 965.051 331.23 966.397C331.126 966.785 331.054 967.27 330.987 967.673Z"/>
	<path fill="#FEFEFE" d="M203.867 451.571C204.404 438.414 205.214 425.247 207.139 412.212C213.245 370.859 228.334 328.538 249.608 292.554Q251.699 289.06 253.875 285.619Q256.05 282.177 258.31 278.789Q260.569 275.402 262.91 272.071Q265.252 268.74 267.674 265.467Q270.096 262.194 272.597 258.981Q275.098 255.768 277.677 252.617Q280.256 249.466 282.911 246.379Q285.566 243.293 288.296 240.272Q291.026 237.251 293.829 234.297Q296.632 231.344 299.506 228.46Q302.38 225.576 305.324 222.763Q308.268 219.95 311.28 217.21Q314.291 214.469 317.369 211.804Q320.447 209.138 323.589 206.548Q326.731 203.958 329.935 201.446Q333.139 198.934 336.404 196.501Q339.669 194.067 342.992 191.715Q346.315 189.362 349.695 187.091Q353.074 184.82 356.508 182.633Q359.943 180.445 363.429 178.342Q366.916 176.239 370.453 174.222Q373.99 172.205 377.575 170.275Q381.16 168.345 384.791 166.503Q388.422 164.661 392.098 162.908Q395.773 161.156 399.49 159.493Q403.207 157.831 406.963 156.26Q410.719 154.689 414.513 153.21Q418.307 151.732 422.136 150.346Q425.964 148.96 429.826 147.669Q433.687 146.377 437.579 145.18Q441.471 143.983 445.39 142.882Q449.31 141.78 453.256 140.775Q456.205 140.015 459.168 139.31Q462.131 138.606 465.106 137.956Q468.082 137.307 471.069 136.713Q474.056 136.119 477.054 135.581Q480.051 135.043 483.058 134.561Q486.065 134.079 489.081 133.653Q492.097 133.228 495.12 132.858Q498.143 132.488 501.172 132.175Q504.201 131.862 507.236 131.605Q510.271 131.349 513.31 131.149Q516.349 130.949 519.391 130.805Q522.433 130.662 525.477 130.575Q528.521 130.489 531.567 130.459Q534.612 130.429 537.657 130.456Q540.703 130.483 543.747 130.567Q546.792 130.65 549.834 130.791Q552.876 130.931 555.915 131.128Q558.954 131.326 561.989 131.579Q565.024 131.833 568.054 132.143Q571.083 132.454 574.107 132.82Q577.13 133.187 580.146 133.61Q583.162 134.033 586.17 134.512Q589.177 134.991 592.175 135.526Q595.174 136.062 598.161 136.652Q601.149 137.243 604.125 137.89Q607.101 138.536 610.064 139.238Q613.028 139.94 615.978 140.697Q618.928 141.454 621.863 142.266Q624.798 143.078 627.718 143.944Q630.638 144.811 633.541 145.732Q636.444 146.652 639.329 147.627Q642.214 148.602 645.081 149.63C667.194 157.771 688.669 168.98 708.945 180.918C711.195 183.908 712.332 198.873 712.84 203.305L712.928 204.35C709.681 205.631 706.246 206.302 702.962 207.476C695.016 210.314 687.478 214.838 680.5 219.521C676.209 213.377 668.696 199.052 661.385 197.512C657.731 196.743 653.409 197.824 650.352 199.889C646.468 202.513 622.23 228.346 619.314 232.435C617.906 234.41 616.78 236.564 616.314 238.962C615.704 242.1 616.475 245.189 618.285 247.798C623.128 254.777 634.723 258.847 642.411 261.529C635.314 274.383 629.821 287.013 627.655 301.689C619.809 300.635 606.333 297.054 599.434 302.157C596.037 304.669 593.946 307.692 593.41 311.903C592.542 318.723 593.331 349.365 594.85 355.772C595.333 357.81 596.358 359.627 597.693 361.227C600.048 364.052 603.031 365.827 606.726 366.124C614.273 366.73 623.69 362.856 631.016 360.805C635.38 373.191 639.312 380.936 645.052 392.476C575.053 393.282 504.945 392.58 434.938 392.518L430.925 392.53L398.236 392.485C395.806 392.587 393.386 392.671 390.954 392.667C382.693 392.122 357.918 394.113 352.07 392.078C350.104 392.123 348.043 392.036 346.121 392.481L299.537 392.428C297.13 392.517 294.786 392.337 292.391 392.142C292.127 392.214 291.864 392.291 291.599 392.357C279.081 395.485 250.29 387.089 242.413 398.966C240.624 401.664 240.091 404.429 239.814 407.586C238.51 422.408 239.581 439.391 239.605 454.433C239.664 491.478 240.51 528.593 239.505 565.62C240.762 571.213 239.882 592.299 239.611 599.034C233.202 596.737 216.512 545.804 214.165 536.483C212.544 530.044 211.15 513.417 207.878 508.938L207.932 507.728C203.425 491.111 205.132 469.024 203.867 451.571Z"/>
	<path fill="#3F68AC" d="M203.867 451.571C204.404 438.414 205.214 425.247 207.139 412.212C213.245 370.859 228.334 328.538 249.608 292.554Q251.699 289.06 253.875 285.619Q256.05 282.177 258.31 278.789Q260.569 275.402 262.91 272.071Q265.252 268.74 267.674 265.467Q270.096 262.194 272.597 258.981Q275.098 255.768 277.677 252.617Q280.256 249.466 282.911 246.379Q285.566 243.293 288.296 240.272Q291.026 237.251 293.829 234.297Q296.632 231.344 299.506 228.46Q302.38 225.576 305.324 222.763Q308.268 219.95 311.28 217.21Q314.291 214.469 317.369 211.804Q320.447 209.138 323.589 206.548Q326.731 203.958 329.935 201.446Q333.139 198.934 336.404 196.501Q339.669 194.067 342.992 191.715Q346.315 189.362 349.695 187.091Q353.074 184.82 356.508 182.633Q359.943 180.445 363.429 178.342Q366.916 176.239 370.453 174.222Q373.99 172.205 377.575 170.275Q381.16 168.345 384.791 166.503Q388.422 164.661 392.098 162.908Q395.773 161.156 399.49 159.493Q403.207 157.831 406.963 156.26Q410.719 154.689 414.513 153.21Q418.307 151.732 422.136 150.346Q425.964 148.96 429.826 147.669Q433.687 146.377 437.579 145.18Q441.471 143.983 445.39 142.882Q449.31 141.78 453.256 140.775Q456.205 140.015 459.168 139.31Q462.131 138.606 465.106 137.956Q468.082 137.307 471.069 136.713Q474.056 136.119 477.054 135.581Q480.051 135.043 483.058 134.561Q486.065 134.079 489.081 133.653Q492.097 133.228 495.12 132.858Q498.143 132.488 501.172 132.175Q504.201 131.862 507.236 131.605Q510.271 131.349 513.31 131.149Q516.349 130.949 519.391 130.805Q522.433 130.662 525.477 130.575Q528.521 130.489 531.567 130.459Q534.612 130.429 537.657 130.456Q540.703 130.483 543.747 130.567Q546.792 130.65 549.834 130.791Q552.876 130.931 555.915 131.128Q558.954 131.326 561.989 131.579Q565.024 131.833 568.054 132.143Q571.083 132.454 574.107 132.82Q577.13 133.187 580.146 133.61Q583.162 134.033 586.17 134.512Q589.177 134.991 592.175 135.526Q595.174 136.062 598.161 136.652Q601.149 137.243 604.125 137.89Q607.101 138.536 610.064 139.238Q613.028 139.94 615.978 140.697Q618.928 141.454 621.863 142.266Q624.798 143.078 627.718 143.944Q630.638 144.811 633.541 145.732Q636.444 146.652 639.329 147.627Q642.214 148.602 645.081 149.63C667.194 157.771 688.669 168.98 708.945 180.918C711.195 183.908 712.332 198.873 712.84 203.305Q709.825 201.13 706.757 199.029Q703.69 196.927 700.572 194.902Q697.455 192.876 694.289 190.926Q691.123 188.977 687.91 187.105Q684.698 185.234 681.441 183.441Q678.184 181.648 674.884 179.935Q671.584 178.221 668.244 176.589Q664.903 174.957 661.524 173.406Q658.145 171.856 654.729 170.388Q651.313 168.92 647.862 167.536Q644.411 166.152 640.928 164.852Q637.444 163.553 633.93 162.338Q630.416 161.123 626.874 159.995Q623.331 158.866 619.762 157.824Q616.193 156.782 612.6 155.827Q609.007 154.872 605.391 154.005Q601.776 153.138 598.14 152.359Q594.505 151.58 590.852 150.89Q587.198 150.2 583.529 149.599Q579.86 148.998 576.177 148.486Q572.495 147.975 568.801 147.553Q565.107 147.132 561.404 146.8Q557.7 146.468 553.99 146.227Q550.28 145.986 546.565 145.835Q542.85 145.684 539.133 145.623Q535.415 145.563 531.697 145.593Q527.979 145.623 524.263 145.743Q520.547 145.864 516.836 146.074Q513.124 146.285 509.418 146.587Q505.712 146.888 502.015 147.279Q498.317 147.671 494.631 148.152Q490.944 148.633 487.27 149.204Q483.414 149.79 479.574 150.472Q475.733 151.153 471.911 151.929Q468.089 152.705 464.287 153.576Q460.485 154.446 456.706 155.411Q452.926 156.375 449.172 157.432Q445.418 158.49 441.691 159.64Q437.964 160.79 434.267 162.032Q430.569 163.273 426.904 164.606Q423.238 165.939 419.607 167.363Q415.976 168.786 412.38 170.298Q408.785 171.811 405.229 173.412Q401.672 175.013 398.156 176.701Q394.641 178.39 391.167 180.165Q387.694 181.94 384.266 183.8Q380.838 185.661 377.457 187.605Q374.076 189.55 370.745 191.577Q367.413 193.605 364.132 195.714Q360.851 197.824 357.624 200.014Q354.396 202.203 351.224 204.473Q348.052 206.742 344.936 209.088Q341.821 211.435 338.765 213.858Q335.709 216.282 332.713 218.78Q329.718 221.278 326.785 223.849Q323.853 226.421 320.984 229.064Q318.116 231.707 315.314 234.42Q312.512 237.133 309.778 239.915Q307.045 242.697 304.38 245.545Q301.716 248.394 299.123 251.307Q296.53 254.221 294.01 257.198Q291.49 260.174 289.044 263.213Q286.598 266.251 284.228 269.349Q281.858 272.447 279.566 275.602Q277.764 278.029 276.011 280.491Q274.258 282.954 272.553 285.45Q270.849 287.947 269.195 290.477Q267.541 293.006 265.937 295.569Q264.333 298.131 262.78 300.724Q261.227 303.317 259.726 305.941Q258.225 308.565 256.776 311.218Q255.327 313.871 253.931 316.552Q252.535 319.233 251.193 321.941Q249.85 324.649 248.561 327.383Q247.273 330.118 246.039 332.877Q244.804 335.636 243.625 338.419Q242.446 341.203 241.322 344.009Q240.198 346.815 239.13 349.642Q238.062 352.47 237.05 355.319Q236.038 358.167 235.083 361.035Q234.127 363.903 233.229 366.789Q232.331 369.675 231.49 372.578Q230.649 375.482 229.866 378.401Q229.083 381.321 228.358 384.255Q227.633 387.19 226.966 390.138Q226.299 393.086 225.691 396.047Q225.083 399.008 224.533 401.981Q223.984 404.953 223.493 407.936Q223.003 410.918 222.571 413.91Q222.14 416.902 221.768 419.902Q221.396 422.901 221.084 425.908Q220.771 428.915 220.518 431.927Q220.266 434.939 220.073 437.955Q219.88 440.972 219.746 443.992Q219.613 447.012 219.54 450.033Q219.466 453.055 219.453 456.078C219.331 470.691 219.777 485.368 222 499.833Q224.092 514.316 227.564 528.532Q231.036 542.748 235.857 556.565C236.823 559.33 237.792 563.29 239.505 565.62C240.762 571.213 239.882 592.299 239.611 599.034C233.202 596.737 216.512 545.804 214.165 536.483C212.544 530.044 211.15 513.417 207.878 508.938L207.932 507.728C203.425 491.111 205.132 469.024 203.867 451.571Z"/>
	<path fill="#FEFEFE" d="M360.491 283.609C360.629 280.134 360.924 260.273 362.185 259.111C365.47 256.083 384.005 258.241 388.475 258.851C393.119 259.485 399.152 260.146 403.094 262.856C404.762 266.162 399.626 282.886 398.518 287.209C404.059 289.409 409.157 291.363 413.986 294.965C417.065 291.401 426.224 279.082 430.005 277.821C435.041 278.395 446.491 291.657 449.789 295.808C453.523 300.508 456.828 305.571 460.058 310.626C453.867 316.177 446.296 318.636 439.566 323.225C441.899 329.913 443.598 336.521 444.962 343.481L445.706 343.491C450.79 343.535 465.666 340.494 469.177 343.775C472.952 351.425 469.419 372.563 466.699 380.587C466.029 382.562 465.158 385.031 463.186 386.048C460.389 387.492 444.623 380.694 440.859 379.48C439.345 383.936 437.084 388.329 434.938 392.518L430.925 392.53L398.236 392.485C395.806 392.587 393.386 392.671 390.954 392.667C382.693 392.122 357.918 394.113 352.07 392.078C350.104 392.123 348.043 392.036 346.121 392.481L299.537 392.428C297.13 392.517 294.786 392.337 292.391 392.142C296.317 389.946 300.474 388.477 304.608 386.743C302.34 380.867 301.273 374.921 299.545 368.917C294.246 368.5 282.055 369.444 277.887 367.174C274.165 361.855 276.389 344.951 277.526 338.645C278.097 335.476 279.344 327.44 282.256 325.708C284.766 324.215 300.418 328.98 304.065 329.824C306.928 322.233 310.635 316.549 315.766 310.293C310.709 306.103 301.915 300.484 299.352 294.374C299.201 292.766 300.165 291.6 301.134 290.411C305.981 284.466 326.107 266.785 333.069 266.485C334.309 266.432 334.752 267.086 335.463 267.982C340.085 273.811 343.798 281.259 347.672 287.636C351.917 285.894 355.932 284.33 360.491 283.609Z"/>
	<path fill="#3F68AC" d="M346.121 392.481C335.576 384.349 327.416 374.749 325.686 361.049C324.127 348.699 327.221 336.034 335.001 326.255C343.08 316.1 354.767 310.192 367.577 308.755C380.399 307.317 392.654 310.936 402.7 319.061C411.871 326.48 417.549 336.694 418.726 348.442C419.933 360.489 416.616 373.556 408.756 382.958C405.757 386.546 401.766 389.429 398.236 392.485C395.806 392.587 393.386 392.671 390.954 392.667C398.13 388.966 404.347 384.067 408.901 377.318C415.465 367.59 417.514 356.131 415.187 344.654C412.978 333.76 406.085 324.731 396.892 318.664Q395.998 318.075 395.077 317.53Q394.155 316.985 393.208 316.485Q392.262 315.986 391.291 315.533Q390.321 315.081 389.33 314.676Q388.339 314.272 387.329 313.916Q386.319 313.56 385.293 313.254Q384.268 312.948 383.228 312.693Q382.188 312.437 381.137 312.233Q380.087 312.028 379.027 311.875Q377.967 311.723 376.902 311.622Q375.836 311.521 374.766 311.472Q373.697 311.423 372.626 311.427Q371.556 311.43 370.487 311.486Q369.418 311.542 368.353 311.65Q367.288 311.758 366.229 311.918Q365.17 312.078 364.121 312.289Q363.001 312.521 361.895 312.809Q360.788 313.096 359.697 313.438Q358.605 313.78 357.533 314.176Q356.46 314.571 355.408 315.02Q354.356 315.468 353.328 315.968Q352.299 316.468 351.297 317.019Q350.295 317.569 349.321 318.169Q348.348 318.768 347.405 319.416Q346.462 320.063 345.553 320.756Q344.643 321.449 343.769 322.186Q342.895 322.924 342.059 323.704Q341.223 324.483 340.426 325.304Q339.63 326.124 338.875 326.983Q338.12 327.842 337.408 328.737Q336.697 329.633 336.031 330.562Q335.365 331.492 334.746 332.453Q334.197 333.312 333.691 334.196Q333.185 335.08 332.723 335.988Q332.261 336.896 331.844 337.825Q331.426 338.755 331.055 339.704Q330.683 340.652 330.359 341.618Q330.034 342.584 329.757 343.564Q329.48 344.545 329.251 345.538Q329.022 346.53 328.842 347.533Q328.662 348.536 328.531 349.546Q328.4 350.557 328.319 351.572Q328.238 352.588 328.206 353.606Q328.174 354.625 328.192 355.643Q328.21 356.662 328.278 357.678Q328.346 358.695 328.464 359.707Q328.581 360.719 328.748 361.724Q328.914 362.729 329.13 363.725C332.185 377.426 340.807 384.855 352.07 392.078C350.104 392.123 348.043 392.036 346.121 392.481Z"/>
	<path fill="#3F68AC" d="M360.491 283.609C360.629 280.134 360.924 260.273 362.185 259.111C365.47 256.083 384.005 258.241 388.475 258.851C393.119 259.485 399.152 260.146 403.094 262.856C404.762 266.162 399.626 282.886 398.518 287.209C404.059 289.409 409.157 291.363 413.986 294.965C417.065 291.401 426.224 279.082 430.005 277.821C435.041 278.395 446.491 291.657 449.789 295.808C453.523 300.508 456.828 305.571 460.058 310.626C453.867 316.177 446.296 318.636 439.566 323.225C441.899 329.913 443.598 336.521 444.962 343.481L445.706 343.491C450.79 343.535 465.666 340.494 469.177 343.775C472.952 351.425 469.419 372.563 466.699 380.587C466.029 382.562 465.158 385.031 463.186 386.048C460.389 387.492 444.623 380.694 440.859 379.48C439.345 383.936 437.084 388.329 434.938 392.518L430.925 392.53C434.442 387.467 435.951 381.639 439.168 376.515C443.386 375.113 453.042 381.046 457.579 382.422C459.361 382.963 460.712 383.383 462.404 382.477C467.254 375.051 467.969 354.093 466.719 345.482C458.592 345.304 450.579 347.382 442.525 345.718C440.284 337.646 438.273 329.645 435.715 321.646C442.5 318.052 449.402 314.381 455.872 310.253C450.385 299.038 439.681 289.007 430.375 280.86C424.507 286.274 419.516 293.525 414.178 299.572C408.846 293.672 398.713 292.43 395.275 287.998C395.146 287.832 394.979 287.67 394.943 287.464C394.706 286.113 397.816 277.434 398.334 275.431C399.287 271.747 400.054 268.065 400.572 264.295C388.99 261.143 376.559 260.561 364.621 260.816C364.354 269.116 364.057 277.447 364.528 285.743C358.21 287.08 352.554 288.856 346.583 291.342C341.589 284.415 337.236 277.007 332.511 269.89C321.319 275.113 310.618 284.462 302.418 293.601C306.451 298.348 312.273 304.255 317.785 307.154C319.115 306.901 320.192 306.551 321.471 307.182C321.427 309.93 315.048 315.686 313.252 318.351C309.954 323.248 307.991 328.451 306.047 333.977C298.685 331.555 291.207 330.022 283.693 328.176Q282.956 330.369 282.328 332.597Q281.701 334.824 281.185 337.08Q280.669 339.335 280.266 341.614Q279.863 343.893 279.574 346.189Q279.284 348.484 279.11 350.792Q278.935 353.099 278.875 355.412Q278.816 357.726 278.871 360.039Q278.927 362.352 279.097 364.66C286.71 365.595 294.642 365.427 302.3 365.548C303.054 373.424 305.617 380.665 308.29 388.037C305.429 389.614 302.387 390.797 299.537 392.428C297.13 392.517 294.786 392.337 292.391 392.142C296.317 389.946 300.474 388.477 304.608 386.743C302.34 380.867 301.273 374.921 299.545 368.917C294.246 368.5 282.055 369.444 277.887 367.174C274.165 361.855 276.389 344.951 277.526 338.645C278.097 335.476 279.344 327.44 282.256 325.708C284.766 324.215 300.418 328.98 304.065 329.824C306.928 322.233 310.635 316.549 315.766 310.293C310.709 306.103 301.915 300.484 299.352 294.374C299.201 292.766 300.165 291.6 301.134 290.411C305.981 284.466 326.107 266.785 333.069 266.485C334.309 266.432 334.752 267.086 335.463 267.982C340.085 273.811 343.798 281.259 347.672 287.636C351.917 285.894 355.932 284.33 360.491 283.609Z"/>
	<path fill="#FEFEFE" d="M352.07 392.078C340.807 384.855 332.185 377.426 329.13 363.725Q328.914 362.729 328.748 361.724Q328.581 360.719 328.464 359.707Q328.346 358.695 328.278 357.678Q328.21 356.662 328.192 355.643Q328.174 354.624 328.206 353.606Q328.238 352.588 328.319 351.572Q328.4 350.557 328.531 349.546Q328.662 348.536 328.842 347.533Q329.022 346.53 329.251 345.538Q329.48 344.545 329.757 343.564Q330.034 342.584 330.359 341.618Q330.683 340.652 331.055 339.704Q331.426 338.755 331.844 337.825Q332.261 336.896 332.723 335.988Q333.185 335.08 333.691 334.196Q334.197 333.312 334.746 332.453Q335.365 331.492 336.031 330.562Q336.697 329.633 337.408 328.737Q338.12 327.842 338.875 326.983Q339.63 326.124 340.426 325.304Q341.223 324.483 342.059 323.704Q342.895 322.924 343.769 322.186Q344.643 321.449 345.553 320.756Q346.462 320.063 347.405 319.416Q348.348 318.768 349.321 318.169Q350.295 317.569 351.297 317.019Q352.299 316.468 353.328 315.968Q354.356 315.468 355.408 315.02Q356.46 314.571 357.533 314.176Q358.605 313.78 359.697 313.438Q360.788 313.096 361.895 312.809Q363.001 312.521 364.121 312.289Q365.17 312.078 366.229 311.918Q367.288 311.758 368.353 311.65Q369.418 311.542 370.487 311.486Q371.556 311.43 372.626 311.427Q373.697 311.423 374.766 311.472Q375.836 311.521 376.902 311.622Q377.967 311.723 379.027 311.875Q380.087 312.028 381.138 312.233Q382.188 312.437 383.228 312.693Q384.268 312.948 385.294 313.254Q386.319 313.56 387.329 313.916Q388.339 314.271 389.33 314.676Q390.321 315.081 391.291 315.533Q392.262 315.986 393.208 316.485Q394.155 316.985 395.077 317.53Q395.998 318.075 396.892 318.664C406.085 324.731 412.978 333.76 415.187 344.654C417.514 356.131 415.465 367.59 408.901 377.318C404.347 384.067 398.13 388.966 390.954 392.667C382.693 392.122 357.918 394.113 352.07 392.078Z"/>
	<path d="M352.07 392.078C357.918 394.113 382.693 392.122 390.954 392.667C393.386 392.671 395.806 392.587 398.236 392.485L430.925 392.53L434.938 392.518C504.945 392.58 575.053 393.282 645.052 392.476L730.447 392.441C742.964 392.41 755.569 392.774 768.074 392.415C773.621 393.102 776.76 394.689 780.231 399.13C781.082 400.884 781.836 402.569 782.118 404.513C783.174 411.792 782.55 419.813 782.541 427.171L782.455 470.184C782.434 479.865 782.273 489.566 782.406 499.244L782.423 512.178C816.446 519.042 857.299 549.968 876.247 578.49C907.43 625.43 917.054 676.633 905.855 731.744C895.618 782.12 863.596 823.395 821.268 851.371C811.527 857.809 801.164 863.962 790.521 868.78C790.632 873.398 790.619 878.26 791.322 882.827C792.457 910.117 793.888 937.583 797.613 964.655L879.426 964.452C892.184 964.448 905.224 963.777 917.934 964.488C919.67 964.585 921.222 964.755 922.845 965.405C923.216 966.346 923.067 966.282 922.779 967.187C921.406 968.035 919.597 967.887 918.024 967.922C903.04 968.248 887.95 967.878 872.953 967.897L770.652 967.883L494.096 967.916L370.398 967.848Q358.126 967.803 345.854 967.943C341.203 967.985 335.493 968.628 330.987 967.673C331.054 967.27 331.126 966.785 331.23 966.397C331.593 965.051 331.64 964.931 332.785 964.249C333.44 964.435 334.314 964.775 334.988 964.785C335.565 964.794 336.085 964.65 336.472 964.211C338.651 961.738 340.654 947.321 340.878 943.545C341.66 930.374 340.588 916.808 340.543 903.586L339.551 800.155C339.499 783.643 339.124 767.057 339.994 750.567C319.995 750.197 299.924 750.541 279.921 750.624C270.78 750.662 260.498 751.622 251.51 750.274C248.411 749.809 245.913 749.067 243.67 746.817C239.506 742.641 239.511 736.808 239.653 731.324L239.751 729.259C238.479 718.055 239.541 703.595 239.541 691.993C239.541 661.039 240.275 629.972 239.611 599.034C239.882 592.299 240.762 571.213 239.505 565.62C240.51 528.593 239.664 491.478 239.605 454.433C239.581 439.391 238.51 422.408 239.814 407.586C240.091 404.429 240.624 401.664 242.413 398.966C250.29 387.089 279.081 395.485 291.599 392.357C291.864 392.291 292.127 392.214 292.391 392.142C294.786 392.337 297.13 392.517 299.537 392.428L346.121 392.481C348.043 392.036 350.104 392.123 352.07 392.078Z"/>
	<path fill="#FEFEFE" d="M439.338 623.647C440.755 624.168 441.645 624.356 442.462 625.754C444.496 629.234 445.625 639.848 444.861 643.84L444.418 643.268C442.695 640.316 439.972 637.822 438.492 634.785C436.756 631.222 438.188 627.199 439.338 623.647Z"/>
	<path fill="#FEFEFE" d="M535.103 690.402L535.403 690.503C536.3 692.426 534.579 708.866 534.436 712.722C533.702 711.684 533.235 710.525 532.7 709.375C530.865 705.234 528.836 701.194 526.817 697.142C529.453 694.778 532.341 692.623 535.103 690.402Z"/>
	<path fill="#5F4237" d="M579.188 628.854C579.724 631.453 579.464 634.322 579.448 636.971C578.482 638.5 577.53 640.23 576.028 641.299C573.269 643.265 570.256 642.755 567.123 642.305C566.082 639.805 566.282 636.8 566.195 634.129C569.3 633.837 573.322 633.907 576.133 632.62C577.963 631.781 578.485 630.6 579.188 628.854Z"/>
	<path fill="#5F4237" d="M599.408 738.111C600.138 738.064 600.888 738.044 601.619 738.082C604.357 738.223 610.367 743.74 612.185 746.04C613.231 747.363 613.556 748.638 613.39 750.287C613.17 752.455 612.082 754.875 610.345 756.243C609.368 757.012 608.183 757.434 606.935 757.155C604.853 756.691 604.112 754.893 603.206 753.191L602.655 752.198L600.618 751.827C599.925 750.611 601.302 746.84 601.182 745.068C601.098 743.813 600.733 742.972 599.691 742.237C598.203 741.187 594.287 744.812 592.424 745.182L591.9 744.583L592.067 743.279C593.818 740.748 596.669 739.333 599.408 738.111Z"/>
	<path fill="#5F4237" d="M724.664 595.229C726.321 596.04 729.143 602.695 732.973 605.553C734.512 610.013 735.314 613.115 739.362 615.82L749.038 616.724C749.126 619.145 749.993 622.395 748.729 624.508L747.125 624.556Q737.701 624.424 728.38 625.826C728.594 624.598 728.988 623.093 728.98 621.857C728.972 620.562 728.627 620.284 727.779 619.465C726.487 619.259 725.426 619.056 724.203 618.559C720.697 614.467 724.595 601.581 724.659 596.113L724.664 595.229Z"/>
	<path fill="#FEFEFE" d="M611.025 689.422C615.531 692.185 619.863 695.558 624.192 698.608C618.463 708.449 611.669 717.681 605.036 726.925C603.246 729.673 601.478 732.321 599.342 734.815C598.533 718.95 602.178 702.822 611.025 689.422Z"/>
	<path fill="#FEFEFE" d="M586.497 948.021C594.835 947.98 603.574 947.414 611.809 948.896C613.515 950.262 627.074 963.303 627.262 964.589L586.199 964.51Q586.396 956.266 586.497 948.021Z"/>
	<path fill="#FEFEFE" d="M817.116 569.233C821.426 572.235 818.502 584.66 822.826 589.025C823.689 589.896 824.536 590.363 825.778 590.37C829.527 587.711 828.198 579.198 829.96 574.903C830.225 574.255 830.035 574.477 830.695 574.194C831.848 579.015 829.947 583.664 830.709 588.237L831.723 588.939L833.003 588.645C835.169 585.816 834.126 580.406 835.441 576.872L836.036 576.757C837.492 578.947 837.039 582.09 836.889 584.623C835.999 594.98 834.365 605.281 833.348 615.63Q825.471 612.964 817.637 610.176C815.943 596.956 816.804 582.568 817.116 569.233Z"/>
	<path fill="#FEFEFE" d="M532.873 948.731C539.614 948.444 546.392 948.538 553.139 948.515Q552.574 956.465 552.108 964.421L525.814 964.454L504.422 964.445C510.074 959.95 520.711 951.787 527.302 949.49C529.042 948.883 531.044 948.842 532.873 948.731Z"/>
	<path fill="#5F4237" d="M564.361 594.839C568.643 596.846 572.531 597.709 577.223 598.21C577.632 600.135 577.844 602.285 579.085 603.865C580.335 604.376 581.363 603.921 582.606 603.585C583.441 603.36 583.636 603.536 584.445 603.771C585.507 604.888 586.019 605.536 586.218 607.153C586.94 613.011 580.837 620.127 577.168 624.185C577.123 624.233 577.081 624.285 577.031 624.329C575.032 626.069 572.707 626.984 570.029 626.903C566.91 626.809 564.124 624.773 562.147 622.501C558.874 618.74 557.114 614 557.47 609.009C557.874 603.351 560.172 598.607 564.361 594.839Z"/>
	<path fill="#FEFEFE" d="M412.714 946.711C420.262 946.711 439.799 945.342 446.066 947.274C451.133 948.835 456.083 952.564 460.614 955.341C463.931 957.374 468.54 959.409 471.348 961.959C472.106 962.647 472.188 962.703 472.192 963.746C470.735 964.615 469.8 964.413 468.125 964.424C447.734 964.331 427.289 964.813 406.908 964.257C409.076 958.473 411.33 952.743 412.714 946.711Z"/>
	<path fill="#FEFEFE" d="M344.637 946.724C356.354 946.312 368.124 946.543 379.849 946.552C382.608 948.192 402.67 960.555 403.423 961.708C403.802 962.288 403.59 962.602 403.481 963.227C402.083 964.397 401.864 964.318 400.125 964.453L340.481 964.437Q342.657 955.603 344.637 946.724Z"/>
	<path fill="#3F68AC" d="M786.953 942.732L791.721 942.753C792.322 950.052 793.361 957.357 794.218 964.632L742.625 964.579C739.87 964.634 737.013 964.896 734.317 964.256C734.024 963.191 734.16 962.854 734.412 961.808C738.475 958.345 760.437 944.843 765.543 943.658C772.16 942.123 780.113 942.851 786.953 942.732Z"/>
	<path fill="#3F68AC" d="M685.61 942.084C695.746 940.859 708.016 941.854 718.355 941.903C717.526 949.337 717.226 956.974 716.908 964.453L679.021 964.484C669.27 964.491 659.515 964.75 649.765 964.558L649.253 964.905L649.164 963.906L647.664 964.018L647.295 964.365L646.86 964.291L646.613 963.715C648.276 960.44 679.867 944.817 685.61 942.084Z"/>
	<path fill="#FEFEFE" d="M659.714 701.817C660.602 703.492 660.667 705.958 660.967 707.815C662.201 715.458 663.716 724.854 669.341 730.653C672.051 733.447 675.688 734.616 679.522 734.519C686.696 734.337 691.494 729.856 696.135 724.968Q695.056 735.601 694.355 746.265L667.25 746.213L620.607 746.357Q632.86 733.542 644.441 720.116C649.672 714.146 655.068 708.263 659.714 701.817Z"/>
	<path fill="#668CC3" d="M392.743 837.401C393.592 838.296 393.628 839.742 393.822 840.947C395.803 853.243 396.896 865.86 398.428 878.233L406.952 943.283C407.237 945.37 407.545 945.859 409.223 947.152C408.6 949.721 406.453 956.84 404.595 958.619L401.483 956.422L382.795 943.973C383.589 932.198 384.961 920.48 386.066 908.733C387.301 895.597 388.265 882.436 389.581 869.308C390.647 858.682 392.033 848.057 392.743 837.401Z"/>
	<path fill="#FEFEFE" d="M569.318 848.449C571.023 850.821 581.507 931.673 582.394 942.437C582.994 949.717 582.662 957.167 582.586 964.472L569.25 964.474L555.365 964.421Q559.213 925.102 564.229 885.915C565.789 873.467 566.829 860.738 569.318 848.449Z"/>
	<path fill="#668CC3" d="M815.672 613.886C815.817 613.916 815.963 613.944 816.108 613.975L816.832 614.135C823.225 615.499 829.362 618.058 835.599 620.006C835.321 634.147 833.599 655.538 829.292 668.709C827.522 674.119 824.659 679.477 819.303 682.041C813.314 684.908 806.788 683.412 800.858 681.307C796.435 679.548 792.47 677.05 788.483 674.48C788.489 663.338 789.861 652.173 790.452 641.047C795.175 644.431 799.17 648.934 804.019 652.045L804.758 651.69C809.369 644.048 813.226 623.46 815.672 613.886Z"/>
	<path fill="#FEFEFE" d="M742.049 838.272C744.463 843.43 747.533 866.602 748.759 873.875C752.599 896.644 756.317 919.539 760.804 942.187Q746.383 950.07 732.174 958.33L731.416 958.748C730.429 960.475 730.496 962.636 730.343 964.582L720.463 964.499C720.073 942.071 725.657 919.287 729.934 897.427C733.79 877.72 737.46 857.817 742.049 838.272Z"/>
	<path fill="#668CC3" d="M443.94 751.011C461.245 750.471 478.731 750.109 496.035 750.58C490.931 751.059 485.764 750.953 480.641 750.988C475.135 793.894 467.483 836.709 454.566 878.048C452.844 883.558 451.441 889.363 449.458 894.757C448.284 888.989 449.115 880.402 449.081 874.366Q448.997 853.455 448.443 832.552C447.729 805.312 445.152 778.208 443.94 751.011Z"/>
	<path fill="#3F68AC" d="M581.942 636.456Q585.156 636.859 588.358 637.348C593.3 638.121 597.908 639.355 602.219 641.977C615.775 650.221 647.966 685.786 657.619 699.017C645.207 715.513 630.153 730.109 617.174 746.217C612.818 741.995 608.483 737.906 603.463 734.476C611.547 724.565 623.789 708.448 628.23 696.665Q619.601 691.251 611.292 685.356C610.935 685.688 610.576 686.018 610.229 686.361C599.041 697.398 595.732 720.171 595.699 735.222C592.854 737.439 590.282 740.073 587.668 742.558L573.125 742.545L538.847 742.544C540.753 740.242 540.675 739.517 541.247 736.838C542.927 728.969 537.913 730.864 537.47 725.098C536.445 711.772 538.669 698.31 538.829 684.991C532.961 687.918 527.36 692.029 522.308 696.185C529.584 706.602 532.485 717.766 534.171 730.162C530.11 733.088 528.982 736.891 526.361 740.93C513.135 728.457 501.604 715.219 491.439 700.119C503.615 685.368 534.558 648.89 550.398 640.856C554.27 638.892 559.023 638.172 563.261 637.446C563.204 638.944 563.087 641.148 563.756 642.519C564.703 644.464 566.255 645.917 568.369 646.478C571.276 647.251 574.437 646.436 576.915 644.832C580.285 642.652 581.197 640.27 581.942 636.456Z"/>
	<path fill="#3A7569" d="M695.623 773.636C724.2 777.277 753.522 779.487 781.976 773.725Q784.15 822.486 787.145 871.205C788.371 893.836 789.211 916.532 791.113 939.12Q777.234 939.563 763.348 939.545Q757.667 902.317 750.809 865.288C748.627 853.004 745.254 840.376 744.324 827.953C746.558 820.713 754.839 798.381 753.513 791.703C753.401 791.784 753.281 791.853 753.177 791.944C744.187 799.85 721.491 919.308 718.727 938.132Q704.601 938.261 690.477 938.037C692.768 883.258 693.576 828.424 695.623 773.636Z"/>
	<path fill="#3A7569" d="M383.624 624.722C398.377 624.485 416.833 623.13 429.506 632.076C447.712 644.928 457.694 681.586 461.184 703.104C462.14 708.999 463.964 717.132 460.014 722.283C458.279 724.546 455.829 725.8 453.027 726.156C448.177 726.772 443.903 724.257 440.826 720.67C434.174 712.918 428.113 692.694 425.58 682.425C424.738 679.01 424.132 670.422 421.663 668.458L420.879 668.755C420.274 669.671 419.715 670.695 419.644 671.819C419.274 677.716 426.652 700.179 429.319 706.481C431.476 711.579 434.701 716.474 436.361 721.751C438.786 729.457 439.418 739.531 440.451 747.665C438.87 748.476 437.171 749.235 435.494 749.825C418.589 755.764 373.311 754.734 355.361 751.331C351.091 750.522 347.4 749.285 343.486 747.412C343.527 738.617 345.431 729.42 346.536 720.678Q349.03 700.993 350.315 681.192C350.547 677.534 351.453 673.836 351.282 670.169C351.207 668.569 350.982 667.266 350.083 665.91L349.278 665.841C346.511 669.565 345.682 699.742 344.5 707.142L343.848 707.443C343.672 707.301 343.491 707.166 343.321 707.018C341.095 705.075 339.335 700.272 339.095 697.366C337.707 680.509 347.732 647.572 358.703 634.889C365.525 627.003 373.739 625.485 383.624 624.722Z"/>
	<path fill="#FEFEFE" d="M496.035 750.58Q510.013 750.472 523.99 750.541C524.528 753.837 524.417 757.658 527.278 759.792C527.397 759.881 527.519 759.965 527.639 760.052C527.745 765.925 526.489 771.947 526.002 777.814Q524.566 795.441 523.82 813.11C522.051 856.793 522.8 901.536 527.15 945.042C516.971 950.305 507.784 958.102 498.287 964.534C493.057 964.503 480.681 965.516 476.492 963.873C476.456 963.615 476.43 963.356 476.385 963.099C475.753 959.555 469.188 956.344 466.253 954.551Q457.205 949.061 448.095 943.673C448.601 927.499 447.857 910.824 449.458 894.757C451.441 889.363 452.844 883.558 454.566 878.048C467.483 836.709 475.135 793.894 480.641 750.988C485.764 750.953 490.931 751.059 496.035 750.58Z"/>
	<path fill="#668CC3" d="M538.734 746.094C547.499 745.742 584.983 744.819 590.603 747.696C594.511 749.697 596.62 754.233 599.921 757.032C603.798 760.319 606.988 759.872 611.661 759.327C611.872 778.163 612.428 797.008 612.498 815.842C612.572 835.829 612.139 855.784 611.96 875.767C611.753 898.756 611.741 921.69 610.348 944.645C602.251 944.557 594.147 944.639 586.049 944.649C583.619 916.416 579.232 888.144 574.636 860.191C572.157 845.112 570.189 830.019 566.626 815.142C565.24 810.743 560.799 796.059 556.773 794.037C556.058 793.679 556.162 793.883 555.333 794.269C554.56 797.541 558.705 802.904 560.023 806.136C563.677 815.099 566.625 826.364 566.828 836.076C567.023 845.361 564.405 855.285 563.289 864.542C560.069 891.247 556.305 917.904 553.625 944.668C545.952 944.61 538.27 944.724 530.596 944.763Q528.507 921.632 527.492 898.429Q526.476 875.226 526.537 852Q526.597 828.775 527.733 805.578Q528.869 782.38 531.078 759.26C533.035 756.989 535.592 751.801 536.62 749.061C537.135 747.69 537.691 747.082 538.734 746.094Z"/>
	<path fill="#668CC3" d="M731.825 628.704C732.017 628.682 732.208 628.651 732.4 628.638C749.61 627.442 773.987 627.34 787.698 639.403C783.297 682.885 784.229 726.661 782.06 770.296Q774.579 771.547 767.035 772.339Q759.491 773.131 751.912 773.46Q744.334 773.789 736.75 773.655Q729.166 773.52 721.604 772.922C713.05 772.281 704.567 770.949 696.013 770.358C696.991 758.564 697.707 746.762 698.803 734.976C699.341 729.186 699.647 723.2 700.924 717.523C701.759 713.816 703.19 710.164 704.461 706.586C706.234 701.685 713.68 683.327 712.558 679.32L711.855 679.012C710.692 679.497 709.773 680.329 709.192 681.462C708.181 683.431 707.663 686.22 706.919 688.365C703.798 697.355 698.328 717.181 692.691 723.839C689.752 727.309 684.761 730.943 680.14 731.247C677.446 731.424 675.035 730.388 673.043 728.615C670.094 725.992 668.206 722.191 666.968 718.49C663.911 709.348 663.141 699.073 661.867 689.541C660.566 679.81 659.057 670.012 658.349 660.221C663.651 659.062 668.906 657.878 674.125 656.375C675.219 661.535 677.68 676.808 680.505 680.423C681.156 681.257 680.846 680.986 681.998 681.189C684.019 679.292 688.597 661.464 690.258 657.253C692.16 652.431 694.516 647.892 697.811 643.868C706.711 632.997 718.341 629.954 731.825 628.704Z"/>
	<path fill="#FEFEFE" d="M651.393 750.262Q672.494 749.881 693.598 749.908L687.393 937.528C673.885 943.317 660.836 951.086 647.906 958.069C647.114 958.525 646.164 959.002 645.481 959.607C644.284 960.668 644.186 963.031 643.936 964.538L632.386 964.689C626.709 958.074 619.959 952.326 613.871 946.074C614.646 938.733 614.628 931.25 614.848 923.872Q615.497 902.747 615.731 881.613Q616.519 840.301 615.805 798.988C615.626 784.378 615.627 769.747 614.961 755.15C615.909 753.519 617.023 751.979 618.083 750.418Q634.739 750.448 651.393 750.262Z"/>
	<path fill="#EBA992" d="M343.561 751.704C361.618 758.917 406.801 758.604 426.46 755.626C431.341 754.886 435.884 753.673 440.538 752.04Q444.178 799.801 445.188 847.691Q446.197 895.58 444.572 943.452L410.582 943.314C407.553 925.607 405.545 907.591 403.352 889.759L396.611 837.509C394.671 823.275 392.558 813.141 383.598 801.326C382.037 799.268 380.372 796.722 377.685 796.355C375.994 797.907 376.378 798.421 377.663 800.055C382.211 805.836 388.958 814.08 390.12 821.553C390.597 824.62 390.01 828.243 389.775 831.349C386.973 868.402 381.549 906.211 379.383 943.155C367.807 943.05 356.218 943.194 344.641 943.222C344.685 931.029 344.245 918.837 344.133 906.644L343.361 812C343.214 791.88 342.732 771.819 343.561 751.704Z"/>
	<path fill="#FEFEFE" d="M782.423 512.178C816.446 519.042 857.299 549.968 876.247 578.49C907.43 625.43 917.054 676.633 905.855 731.744C895.618 782.12 863.596 823.395 821.268 851.371C811.527 857.809 801.164 863.962 790.521 868.78C789.5 838.449 786.25 808.133 785.71 777.764C785.488 765.289 786.382 752.666 786.761 740.187L788.167 678.622C796.629 683.683 806.786 688.642 816.939 686.403C822.162 685.251 826.264 682.093 829.024 677.548C837.256 663.993 837.341 643.726 838.449 628.213C838.641 625.518 839.667 620.123 838.918 617.717C838.7 617.019 837.533 616.641 836.906 616.301C836.662 615.549 840.532 582.525 840.68 576.141C836.621 574.042 832.565 571.94 828.396 570.065L827.733 570.533C826.873 572.198 824.542 581.891 824.379 583.92L824.329 584.619C823.557 584.383 822.594 571.438 820.829 568.547C820.096 567.346 819.126 566.565 817.716 566.298C816.634 566.093 815.323 566.295 814.455 566.966C812.394 572.878 813.268 603.395 814.024 610.303C813.929 610.444 813.837 610.587 813.738 610.724C810.905 614.625 805.43 640.201 803.155 647.241C796.739 641.137 790.07 636.222 782.34 631.906C781.716 592.039 782.269 552.056 782.423 512.178Z"/>
	<path fill="#FEFEFE" d="M251.043 746.908C249.876 746.267 248.8 745.613 247.758 744.779C245.331 742.839 244.372 741.041 244.033 737.964C242.593 724.886 243.653 710.965 243.613 697.774Q243.458 652.804 243.781 607.837L243.763 469.058L243.733 427.191C243.739 421.426 243.411 415.556 243.693 409.806C243.856 406.495 244.453 402.611 246.745 400.037C248.814 397.715 252.428 396.727 255.424 396.584C276.624 395.568 298.176 396.391 319.426 396.223L497.355 396.283L673.527 396.252L731.546 396.144C743.261 396.104 755.073 395.754 766.775 396.206C769.977 396.33 773.084 396.872 775.462 399.189C777.56 401.233 778.367 403.899 778.634 406.744C779.348 414.334 778.874 422.252 778.865 429.889L778.649 476.767L778.534 630.406C769.997 626.764 761.24 625.518 752.057 624.867C752.089 621.871 751.823 619.109 751.35 616.151C755.083 609.689 763.255 603.65 763.203 595.47C763.172 590.643 762.761 583.487 759.141 580.013C755.251 576.279 748.524 575.366 743.33 575.389C741.009 573.011 739.106 571.381 735.914 570.318C732.636 570.711 729.609 571.127 726.46 572.159C722.649 575.146 718.223 578.325 717.468 583.489C716.706 588.712 719.928 592.929 722.755 596.93C722.439 602.093 720.56 607.073 720.242 612.219C719.854 618.48 721.281 618.103 724.37 622.383C725.231 623.577 725.079 624.34 724.949 625.753C724.719 626.001 724.557 626.335 724.26 626.495C723.096 627.124 719.678 627.143 718.185 627.489Q715.702 628.054 713.309 628.926Q710.916 629.797 708.651 630.961C692.295 639.363 686.756 654.586 681.469 671.176C679.979 664.823 676.432 654.764 675.752 648.92C675.039 642.793 677.943 626.189 674.655 621.899C673.413 621.384 673.401 621.352 672.115 621.719C671.942 622.052 671.66 622.348 671.597 622.717C671.277 624.609 672.205 628.433 672.367 630.524C672.902 637.43 672.968 646.162 670.991 652.819C670.947 652.967 670.897 653.114 670.851 653.261C666.782 654.374 662.651 655.315 658.557 656.334C657.397 650.346 652.53 629.63 653.781 624.901L654.697 624.485C658.414 625.958 657.084 632.028 660.159 634.494C661.243 634.621 661.268 634.651 662.192 634.083C661.832 627.263 660.599 620.898 661.817 614.07L661.929 614.5L662.106 615.219C663.509 620.748 663.301 627.14 665.134 632.416C665.589 633.726 665.924 634.175 667.136 634.805L668.051 634.333C668.847 629.348 667.312 618.303 664.676 613.971C663.743 612.438 662.846 611.746 661.095 611.282C659.89 611.514 659.142 611.484 658.408 612.607C656.74 615.157 657.646 620.458 657.917 623.38C656.786 622.453 655.056 620.901 653.526 620.765C652.064 620.636 651.704 621.029 650.602 621.851C649.622 623.71 649.966 626.988 650.139 629.098C650.757 636.645 652.881 644.185 653.898 651.706C654.602 656.909 654.625 662.203 655.197 667.426C656.232 676.885 657.877 686.315 659.362 695.713C653.126 687.208 645.527 679.14 638.425 671.33C628.49 660.404 610.352 640.712 596.564 636.161C591.692 634.553 586.598 634.435 581.521 634.197C581.396 631.606 581.485 628.998 581.511 626.405C586.567 626.658 591.699 627.611 596.765 627.299C599.46 627.133 602.114 626.839 603.99 624.732C602.177 621.48 596.548 620.571 594.308 615.595C593.502 613.805 593.794 611.308 593.781 609.379C593.735 602.879 593.012 595.563 589.084 590.134C586.495 586.556 581.878 583.879 577.483 583.377C571.987 582.75 564.693 584.443 560.444 587.972C555.958 591.697 553.819 597.313 553.418 603.01C553.049 608.264 554.191 616.21 557.084 620.687C558.506 622.888 560.808 624.612 562.469 626.652C564.403 629.028 563.656 631.849 563.374 634.66Q560.087 635.282 556.837 636.075C552.496 637.14 548.205 638.714 544.467 641.201C531.166 650.049 496.062 687.175 487.749 700.84C494.604 711.312 502.882 721.223 511.338 730.436C514.74 734.144 518.854 737.507 521.881 741.498C523.197 743.233 523.673 744.287 523.383 746.525C521.021 747.576 454.724 746.721 443.573 747.334C443.137 740.174 441.99 733.094 440.676 726.049C443.35 727.695 446.111 729.064 449.237 729.585C452.845 730.186 456.271 729.351 459.226 727.204C462.845 724.574 464.908 720.572 465.488 716.184C467.155 703.571 459.842 680.05 455.309 667.724C453.282 662.212 449.939 655.859 449.307 650.079C448.641 643.994 448.702 626.049 444.853 621.901C443.839 620.808 442.424 620.566 440.994 620.489C439.18 620.391 436.931 620.54 435.665 622.042C433.981 624.039 434.434 628.138 434.41 630.614C424.279 625.054 416.353 622.864 404.852 621.97C410.033 618.791 414.976 615.506 418.283 610.239C421.612 604.936 421.574 600.418 420.198 594.586Q420.407 594.107 420.606 593.624C422.543 588.882 422.94 584.572 420.781 579.781C416.948 571.273 411.835 570.922 405.061 566.821C403.655 565.969 402.557 564.473 400.925 564.034C398.695 563.433 396.77 564.394 394.809 565.337C392.062 564.844 389.14 564.269 386.348 564.559C383.399 564.867 370.744 574.049 368.874 576.36C364.392 581.899 363.26 589.197 364.04 596.117C365.221 606.589 371.042 614.888 379.074 621.372C367.461 623.716 359.982 626.795 352.931 636.849C344.322 649.126 333.32 683.327 336.2 698.533C337.164 703.621 339.656 709.53 344.047 712.539C342.9 724.029 341.352 735.429 339.998 746.892L251.043 746.908Z"/>
	<path fill="#A5C1DC" d="M726.46 572.159C719.848 568.544 695.316 569.127 687.056 564.808C685.688 564.092 684.964 563.552 684.552 562.02C682.788 555.458 687.478 521.398 690.898 515.885C691.712 514.572 692.588 513.948 694.101 513.658C699.762 512.572 735.072 518.524 739.831 521.701C740.988 523.327 741.266 524.916 741.369 526.896C741.589 531.123 740.743 535.706 740.251 539.905Q738.482 555.169 735.914 570.318C732.636 570.711 729.609 571.127 726.46 572.159Z"/>
	<path fill="#3F68AC" d="M628.689 457.648C630.016 457.764 631.402 457.855 632.669 458.295C634.113 458.796 635.065 459.53 635.965 460.769C639.3 465.361 641.684 471.004 644.463 475.965C648.123 482.498 652.34 488.886 655.577 495.628C656.635 497.832 656.732 500.117 655.832 502.408C653.873 507.389 622.828 523.011 616.897 525.304C615.135 525.156 613.178 524.789 611.592 523.981C610.215 523.279 609.195 522.368 608.286 521.12C605.593 517.422 591.105 490.378 589.949 486.27C589.384 484.261 588.78 481.997 589.987 480.112C591.18 478.249 593.207 476.62 595.013 475.385C600.288 471.78 623.329 458.642 628.689 457.648Z"/>
	<path fill="#A5C1DC" d="M310.46 480.086C318.969 479.615 346.434 479.273 353.686 480.579C354.752 480.771 356.725 481.09 357.287 482.085C358.394 484.045 358.71 486.939 358.862 489.167C359.17 493.67 359.125 529.31 358.251 531.128C357.338 533.027 355.744 533.718 353.924 534.508C341.126 534.6 325.199 535.591 312.682 534.566C308.689 534.239 307.594 533.075 305.077 530.123C304.119 523.598 303.362 489.241 305.171 484.245C306.015 481.914 308.388 481.011 310.46 480.086Z"/>
	<path fill="#EBA992" d="M358.841 412.676C367.246 412.41 395.396 411.423 401.92 412.962C404.571 413.587 405.577 415.523 406.955 417.672C407.222 424.887 408.262 461.923 405.617 465.963C404.428 467.778 402.584 468.404 400.584 468.913C394.791 469.086 360.374 469.418 356.566 468.148C355.339 467.739 354.698 466.286 354.255 465.154C353.481 463.176 353.054 460.962 352.889 458.848C352.409 452.663 351.781 419.737 353.926 415.877C354.918 414.091 357.053 413.338 358.841 412.676Z"/>
	<path fill="#EBA992" d="M278.342 555.65Q290.436 555.837 302.53 555.676C308.677 555.602 315.565 554.98 321.604 556.105C323.674 556.491 325.535 557.434 326.585 559.332C328.105 562.079 328.125 602.311 326.945 605.689C325.998 608.401 324.15 609.7 321.678 610.934C315.166 611.212 280.755 611.926 276.619 610.117C275.187 609.491 273.81 608.646 273.301 607.104C271.753 602.414 271.107 562.683 272.966 559.337C274.129 557.245 276.146 556.294 278.342 555.65Z"/>
	<path fill="#EBA992" d="M686.371 413.183Q699.194 412.947 712.018 412.859C717.175 412.81 722.58 412.452 727.708 413.006C729.309 413.179 731.595 413.371 732.676 414.699C733.477 416.785 733.905 418.846 734.074 421.071C734.552 427.394 735.283 462.072 733.314 466.555C732.556 468.282 730.636 468.923 729.017 469.534C720.732 469.497 687.876 470.896 682.399 468.181C681.356 467.664 680.651 466.991 680.343 465.856C679.752 463.682 679.544 425.191 679.972 421.13C680.162 419.331 680.6 417.246 681.616 415.718C682.79 413.951 684.431 413.58 686.371 413.183Z"/>
	<path fill="#A5C1DC" d="M450.748 550.579C457.47 549.835 491.347 549.755 497.201 550.688C498.933 550.964 499.861 551.933 500.829 553.328C501.597 554.434 501.801 555.614 501.89 556.937C502.206 561.585 501.931 600.405 501.37 602.542C500.805 604.695 499.475 605.741 497.726 606.977Q483.835 607.07 469.943 607C463.556 606.991 457.016 607.31 450.664 606.611C449.282 605.324 448.225 603.871 447.102 602.358C446.512 596.722 445.586 558.681 446.863 554.893C447.573 552.789 448.936 551.726 450.748 550.579Z"/>
	<path fill="#EBA992" d="M493.626 414.038C497.667 413.836 500.475 414.849 503.485 417.57C508.076 421.719 512.22 426.369 516.674 430.665C520.927 434.769 527.266 439.254 530.386 444.253C531.839 446.583 531.809 449.577 531.962 452.23C528.951 457.977 504.562 481.561 498.876 485.426C496.937 485.559 494.606 485.675 492.796 484.848C488.464 482.869 461.589 456.287 460.448 452.016C460.002 450.349 460.724 448.135 461.418 446.635C463.993 441.069 484.126 420.26 489.5 416.144C490.738 415.195 492.186 414.607 493.626 414.038Z"/>
</svg>
