<?xml version="1.0" encoding="UTF-8"?>
<svg id="Layer_3" xmlns="http://www.w3.org/2000/svg" version="1.1" viewBox="0 0 3000 3000">
  <!-- Generator: Adobe Illustrator 29.0.0, SVG Export Plug-In . SVG Version: 2.1.0 Build 186)  -->
  <rect x="0" y="0" width="3000" height="3000" fill="#7351a1"/>
  <rect x="0" y="550.14" width="3000" height="2160" fill="#e7a558"/>
  <rect x="0" y="5" width="3000" height="2576.57" fill="#fecc6d"/>
  <rect x="622.31" y="1102.35" width="1849.07" height="1256.42" rx="85.49" ry="85.49" fill="#54c1bb"/>
  <rect x="718.49" y="1211.99" width="1656.71" height="634.76" rx="47.11" ry="47.11" fill="#a9e0dd"/>
  <g>
    <rect x="1248.54" y="1888.73" width="596.6" height="289.96" rx="18.09" ry="18.09" fill="#a9e0dd"/>
    <rect x="1248.54" y="2216.74" width="280.52" height="63.01" rx="18.46" ry="18.46" fill="#8f74b4"/>
    <rect x="1564.62" y="2216.74" width="280.52" height="63.01" rx="18.46" ry="18.46" fill="#8f74b4"/>
  </g>
  <path d="M2386.34,1102.35H707.34c-40.63,0-76.4-25.98-87.87-63.82l-154.65-510.37c-13.11-43.26,20.3-86.61,66.75-86.61h2030.53c46.45,0,79.86,43.35,66.75,86.61l-154.65,510.37c-11.47,37.84-47.24,63.82-87.87,63.82Z" fill="#29b1aa"/>
  <path d="M2553.62,519.91l-151.47,499.86c-1.81,6.01-8.46,10.36-15.8,10.36H707.35c-7.35,0-14-4.35-15.82-10.36l-151.46-499.86h2013.55Z" fill="#f8e0c2"/>
  <rect x="1281.07" y="458.44" width="395.1" height="54" rx="27" ry="27" fill="#a9e0dd"/>
  <circle cx="1649.06" cy="485.94" r="14.82" fill="#fffefc"/>
  <g>
    <rect x="765.47" y="1257.59" width="141.58" height="54.66" rx="14.08" ry="14.08" fill="#8f74b4"/>
    <path d="M940.21,1257.59h65.95c7.77,0,14.08,6.31,14.08,14.08v26.5c0,7.77-6.31,14.08-14.08,14.08h-65.95c-7.77,0-14.08-6.31-14.08-14.08v-26.5c0-7.77,6.31-14.08,14.08-14.08Z" fill="#8f74b4"/>
    <rect x="765.47" y="1336.99" width="141.58" height="76.5" rx="7.68" ry="7.68" fill="#8f74b4"/>
    <rect x="926.14" y="1336.99" width="84.95" height="76.5" rx="7.68" ry="7.68" fill="#8f74b4"/>
    <rect x="765.47" y="1425.89" width="184.38" height="76.5" rx="7.68" ry="7.68" fill="#8f74b4"/>
    <rect x="765.47" y="1514.79" width="222.9" height="76.5" rx="7.68" ry="7.68" fill="#8f74b4"/>
    <rect x="1005.32" y="1514.79" width="106.84" height="76.5" rx="7.68" ry="7.68" fill="#8f74b4"/>
    <rect x="1123.16" y="1514.79" width="106.84" height="76.5" rx="7.68" ry="7.68" fill="#8f74b4"/>
    <rect x="1240.99" y="1514.79" width="106.84" height="76.5" rx="7.68" ry="7.68" fill="#8f74b4"/>
    <rect x="1358.83" y="1514.79" width="106.84" height="76.5" rx="7.68" ry="7.68" fill="#8f74b4"/>
    <rect x="1476.67" y="1514.79" width="106.84" height="76.5" rx="7.68" ry="7.68" fill="#8f74b4"/>
    <rect x="1594.5" y="1514.79" width="106.84" height="76.5" rx="7.68" ry="7.68" fill="#8f74b4"/>
    <rect x="1712.34" y="1514.79" width="106.84" height="76.5" rx="7.68" ry="7.68" fill="#8f74b4"/>
    <rect x="1830.17" y="1514.79" width="106.84" height="76.5" rx="7.68" ry="7.68" fill="#8f74b4"/>
    <rect x="1948.01" y="1514.79" width="106.84" height="76.5" rx="7.68" ry="7.68" fill="#8f74b4"/>
    <rect x="2065.84" y="1514.79" width="106.84" height="76.5" rx="7.68" ry="7.68" fill="#8f74b4"/>
    <rect x="2102.22" y="1616.03" width="219.12" height="76.5" rx="7.68" ry="7.68" fill="#8f74b4"/>
    <rect x="1978.43" y="1616.03" width="106.84" height="76.5" rx="7.68" ry="7.68" fill="#8f74b4"/>
    <rect x="1860.59" y="1616.03" width="106.84" height="76.5" rx="7.68" ry="7.68" fill="#8f74b4"/>
    <rect x="1742.76" y="1616.03" width="106.84" height="76.5" rx="7.68" ry="7.68" fill="#8f74b4"/>
    <rect x="1624.92" y="1616.03" width="106.84" height="76.5" rx="7.68" ry="7.68" fill="#8f74b4"/>
    <rect x="1507.08" y="1616.03" width="106.84" height="76.5" rx="7.68" ry="7.68" fill="#8f74b4"/>
    <rect x="1389.25" y="1616.03" width="106.84" height="76.5" rx="7.68" ry="7.68" fill="#8f74b4"/>
    <rect x="1271.41" y="1616.03" width="106.84" height="76.5" rx="7.68" ry="7.68" fill="#8f74b4"/>
    <rect x="1153.58" y="1616.03" width="106.84" height="76.5" rx="7.68" ry="7.68" fill="#8f74b4"/>
    <rect x="1035.74" y="1616.03" width="106.84" height="76.5" rx="7.68" ry="7.68" fill="#8f74b4"/>
    <rect x="917.91" y="1616.03" width="106.84" height="76.5" rx="7.68" ry="7.68" fill="#8f74b4"/>
    <rect x="759.87" y="1616.03" width="132.69" height="76.5" rx="7.68" ry="7.68" fill="#8f74b4"/>
    <rect x="759.87" y="1717.28" width="188.99" height="76.5" rx="7.68" ry="7.68" fill="#8f74b4"/>
    <rect x="974.05" y="1717.28" width="108.82" height="76.5" rx="7.68" ry="7.68" fill="#8f74b4"/>
    <rect x="1108.05" y="1717.28" width="108.82" height="76.5" rx="7.68" ry="7.68" fill="#8f74b4"/>
    <rect x="1846.16" y="1717.28" width="108.81" height="76.5" rx="7.68" ry="7.68" fill="#8f74b4"/>
    <rect x="1978.43" y="1717.28" width="104.4" height="76.5" rx="7.68" ry="7.68" fill="#8f74b4"/>
    <rect x="2099.41" y="1765.62" width="104.4" height="28.15" fill="#8f74b4"/>
    <rect x="2099.41" y="1722.66" width="104.4" height="28.15" rx="7.68" ry="7.68" fill="#8f74b4"/>
    <rect x="2220.4" y="1717.28" width="104.4" height="76.5" rx="7.68" ry="7.68" fill="#8f74b4"/>
    <rect x="1241.74" y="1717.28" width="576.68" height="76.5" rx="7.68" ry="7.68" fill="#8f74b4"/>
    <rect x="980.47" y="1425.89" width="84.95" height="76.5" rx="7.68" ry="7.68" fill="#8f74b4"/>
    <rect x="1074.3" y="1425.89" width="84.95" height="76.5" rx="7.68" ry="7.68" fill="#8f74b4"/>
    <rect x="1168.14" y="1425.89" width="84.95" height="76.5" rx="7.68" ry="7.68" fill="#8f74b4"/>
    <rect x="1261.97" y="1425.89" width="84.95" height="76.5" rx="7.68" ry="7.68" fill="#8f74b4"/>
    <rect x="1355.81" y="1425.89" width="84.95" height="76.5" rx="7.68" ry="7.68" fill="#8f74b4"/>
    <rect x="1449.65" y="1425.89" width="84.95" height="76.5" rx="7.68" ry="7.68" fill="#8f74b4"/>
    <rect x="1543.48" y="1425.89" width="84.95" height="76.5" rx="7.68" ry="7.68" fill="#8f74b4"/>
    <rect x="1637.32" y="1425.89" width="84.95" height="76.5" rx="7.68" ry="7.68" fill="#8f74b4"/>
    <rect x="1731.16" y="1425.89" width="84.95" height="76.5" rx="7.68" ry="7.68" fill="#8f74b4"/>
    <rect x="1824.99" y="1425.89" width="84.95" height="76.5" rx="7.68" ry="7.68" fill="#8f74b4"/>
    <rect x="1918.83" y="1425.89" width="84.95" height="76.5" rx="7.68" ry="7.68" fill="#8f74b4"/>
    <rect x="2012.67" y="1425.89" width="84.95" height="76.5" rx="7.68" ry="7.68" fill="#8f74b4"/>
    <rect x="2106.5" y="1425.89" width="84.95" height="76.5" rx="7.68" ry="7.68" fill="#8f74b4"/>
    <rect x="2200.34" y="1425.89" width="121" height="171.32" rx="7.68" ry="7.68" fill="#8f74b4"/>
    <rect x="1027.88" y="1336.99" width="84.95" height="76.5" rx="7.68" ry="7.68" fill="#8f74b4"/>
    <rect x="1129.62" y="1336.99" width="84.95" height="76.5" rx="7.68" ry="7.68" fill="#8f74b4"/>
    <rect x="1231.35" y="1336.99" width="84.95" height="76.5" rx="7.68" ry="7.68" fill="#8f74b4"/>
    <rect x="1333.09" y="1336.99" width="84.95" height="76.5" rx="7.68" ry="7.68" fill="#8f74b4"/>
    <rect x="1434.83" y="1336.99" width="84.95" height="76.5" rx="7.68" ry="7.68" fill="#8f74b4"/>
    <rect x="1536.57" y="1336.99" width="84.95" height="76.5" rx="7.68" ry="7.68" fill="#8f74b4"/>
    <rect x="1638.31" y="1336.99" width="84.95" height="76.5" rx="7.68" ry="7.68" fill="#8f74b4"/>
    <rect x="1740.05" y="1336.99" width="84.95" height="76.5" rx="7.68" ry="7.68" fill="#8f74b4"/>
    <rect x="1841.78" y="1336.99" width="84.95" height="76.5" rx="7.68" ry="7.68" fill="#8f74b4"/>
    <rect x="1943.52" y="1336.99" width="84.95" height="76.5" rx="7.68" ry="7.68" fill="#8f74b4"/>
    <rect x="2045.26" y="1336.99" width="84.95" height="76.5" rx="7.68" ry="7.68" fill="#8f74b4"/>
    <rect x="2149.96" y="1336.99" width="171.37" height="76.5" rx="7.68" ry="7.68" fill="#8f74b4"/>
    <path d="M1048.48,1257.59h65.95c7.77,0,14.08,6.31,14.08,14.08v26.5c0,7.77-6.31,14.08-14.08,14.08h-65.95c-7.77,0-14.08-6.31-14.08-14.08v-26.5c0-7.77,6.31-14.08,14.08-14.08Z" fill="#8f74b4"/>
    <path d="M1156.75,1257.59h65.95c7.77,0,14.08,6.31,14.08,14.08v26.5c0,7.77-6.31,14.08-14.08,14.08h-65.95c-7.77,0-14.08-6.31-14.08-14.08v-26.5c0-7.77,6.31-14.08,14.08-14.08Z" fill="#8f74b4"/>
    <rect x="1250.95" y="1257.59" width="94.1" height="54.66" rx="14.08" ry="14.08" fill="#8f74b4"/>
    <rect x="1359.22" y="1257.59" width="94.1" height="54.66" rx="14.08" ry="14.08" fill="#8f74b4"/>
    <rect x="1467.49" y="1257.59" width="94.1" height="54.66" rx="14.08" ry="14.08" fill="#8f74b4"/>
    <path d="M1589.83,1257.59h65.95c7.77,0,14.08,6.31,14.08,14.08v26.5c0,7.77-6.31,14.08-14.08,14.08h-65.95c-7.77,0-14.08-6.31-14.08-14.08v-26.5c0-7.77,6.31-14.08,14.08-14.08Z" fill="#8f74b4"/>
    <rect x="1684.03" y="1257.59" width="94.1" height="54.66" rx="14.08" ry="14.08" fill="#8f74b4"/>
    <path d="M1806.37,1257.59h65.95c7.77,0,14.08,6.31,14.08,14.08v26.5c0,7.77-6.31,14.08-14.08,14.08h-65.95c-7.77,0-14.08-6.31-14.08-14.08v-26.5c0-7.77,6.31-14.08,14.08-14.08Z" fill="#8f74b4"/>
    <rect x="1900.57" y="1257.59" width="94.1" height="54.66" rx="14.08" ry="14.08" fill="#8f74b4"/>
    <rect x="2008.83" y="1257.59" width="94.1" height="54.66" rx="14.08" ry="14.08" fill="#8f74b4"/>
    <path d="M2131.18,1257.59h65.95c7.77,0,14.08,6.31,14.08,14.08v26.5c0,7.77-6.31,14.08-14.08,14.08h-65.95c-7.77,0-14.08-6.31-14.08-14.08v-26.5c0-7.77,6.31-14.08,14.08-14.08Z" fill="#8f74b4"/>
    <rect x="2227.24" y="1257.59" width="94.1" height="54.66" rx="14.08" ry="14.08" fill="#8f74b4"/>
  </g>
  <rect x="874.18" y="1060.86" width="1345.32" height="98.7" rx="15.65" ry="15.65" fill="#a9e0dd"/>
  <g>
    <polygon points="1580.17 519.91 1333.25 1030.13 1107.62 1030.13 1254.81 519.91 1580.17 519.91" fill="#fffefc"/>
    <polygon points="1823.27 519.91 1501.84 1030.13 1405.92 1030.13 1684.96 519.91 1823.27 519.91" fill="#fffefc"/>
  </g>
  <path d="M1366.77,1851.39c-15.36,39.24-47.45,102.06-118.44,163.99-31.82,46.91-63.64,93.82-95.46,140.73l-213.88,843.89H282.44c157.1-312.59,314.21-625.17,471.31-937.76,26.71-125.23,37.79-226.89,42.95-298.06,7.56-104.32,5.77-189.41,66.38-239.48,25.34-20.93,58.99-33.6,67.68-24.73,12.02,12.28-33.34,56.05-39.05,124.08-3.34,39.84,8.07,74.14,19.52,98.49-5.15-50.04-6.02-141.36,52.06-203.04,24.82-26.35,60.24-47.13,67.68-40.35,8.54,7.78-27.66,44.59-35.14,101.52-5.37,40.86,6.05,77,18.22,103.25-3.04-45.47.66-115.17,44.26-174.4,26.6-36.15,69.31-70.11,81.56-61.61,11.02,7.66-8.9,45.36-21.69,98.05-16.2,66.7-14.18,129.34-5.21,183.08,5.9-44.54,20.23-107.8,58.57-173.1,29.41-50.11,76.66-107.71,91.11-100.22,11.08,5.75-2.56,46.94-26.03,139.27-41.16,161.9-61.26,243.17-37.75,259,37.69,25.37,151.56-101.69,179.61-78.09,13.42,11.28-1.59,49.64-11.71,75.49Z" fill="#d76a74"/>
  <path d="M2789.36,3000h-656.55l-141.57-558.54-72.32-285.35c-31.82-46.91-63.64-93.82-95.46-140.73-70.98-61.93-103.07-124.75-118.43-163.99-10.12-25.85-25.14-64.21-11.72-75.49,28.05-23.6,141.93,103.46,179.61,78.09,23.52-15.83,3.42-97.1-37.74-259-23.47-92.33-37.11-133.52-26.03-139.27,14.45-7.49,61.69,50.11,91.11,100.22,38.33,65.3,52.66,128.56,58.56,173.1,8.97-53.74,11-116.38-5.2-183.08-12.8-52.69-32.71-90.39-21.69-98.05,12.24-8.5,54.96,25.46,81.56,61.61,43.59,59.23,47.3,128.93,44.25,174.4,12.18-26.25,23.59-62.39,18.22-103.25-7.48-56.93-43.68-93.74-35.14-101.52,7.44-6.78,42.87,14,67.68,40.35,58.08,61.68,57.21,153,52.06,203.04,11.45-24.35,22.87-58.65,19.52-98.49-5.71-68.03-51.07-111.8-39.04-124.08,8.69-8.87,42.34,3.8,67.68,24.73,60.61,50.07,58.81,135.16,66.38,239.48,5.16,71.17,16.24,172.83,42.95,298.06,46.66,92.84,93.32,185.67,139.98,278.51,110.44,219.75,220.89,439.5,331.33,659.25Z" fill="#d76a74"/>
  <circle cx="288.12" cy="1673.15" r="235.12" fill="#fef6e6"/>
  <circle cx="288.12" cy="1673.15" r="197.62" fill="#34113c"/>
  <path d="M248.84,1888.52s-30.8,118.17-14.21,130.76c16.58,12.59,90.02,22.95,117.27,0s-28.43-137.84-28.43-137.84l-74.62,7.09Z" fill="#fef6e6"/>
  <g>
    <path d="M2941.36,1920.99l-235.46,67.04c-11.03,3.14-22.72-3.96-26.11-15.86l-130.99-460.08c-3.39-11.9,2.81-24.09,13.84-27.23l235.46-67.04c11.03-3.14,22.72,3.96,26.11,15.86l130.99,460.08c3.39,11.9-2.81,24.09-13.84,27.23Z" fill="#412061"/>
    <path d="M2634.96,1474.48h226.54c7.53,0,13.64,6.11,13.64,13.64v403.16c0,7.53-6.11,13.64-13.64,13.64h-226.54c-7.53,0-13.64-6.11-13.64-13.64v-403.15c0-7.53,6.11-13.64,13.64-13.64Z" transform="translate(-357.65 817.13) rotate(-15.89)" fill="#f8e0c2"/>
    <circle cx="2810.67" cy="1923.77" r="18.15" fill="#ffe9bf"/>
    <g>
      <polygon points="2747.67 1466.08 2773.17 1906.37 2703.2 1926.29 2677.7 1486 2747.67 1466.08" fill="#fffefc"/>
      <polygon points="2776.29 1457.93 2801.79 1898.22 2787.17 1902.38 2761.66 1462.1 2776.29 1457.93" fill="#fffefc"/>
    </g>
    <rect x="2642.75" y="1468.72" width="93.74" height="25.71" rx="12.86" ry="12.86" transform="translate(-302.9 793.12) rotate(-15.89)" fill="#412061"/>
    <circle cx="2720.96" cy="1472.4" r="4.86" fill="#ffe9bf"/>
  </g>
  <polygon points="1011.46 3000 1112.83 2449.67 1080.25 2442.64 613.21 2341.88 562.15 2330.86 218.86 3000 1011.46 3000" fill="#fffefc"/>
  <polygon points="564.71 2279.75 443.86 2447.86 1089.16 2645.86 1142.58 2417 564.71 2279.75" fill="#f8e0c2"/>
  <polygon points="2847.15 3000 2054.55 3000 1953.19 2449.67 1991.24 2441.46 2458.03 2340.75 2503.87 2330.86 2847.15 3000" fill="#fffefc"/>
  <polygon points="2501.29 2279.75 2622.15 2447.86 1976.85 2645.86 1923.43 2417 2501.29 2279.75" fill="#f8e0c2"/>
  <g>
    <g>
      <path d="M408.64,1648.26c-4.4-.88-11.07,14.92-13.78,26.36-15.18,64.08-92.84,99.55-113.66,108-20.82-8.45-98.48-43.92-113.66-108-2.71-11.44-9.38-27.24-13.78-26.36-8.13,1.62-20.69,56.62,3.45,96.81,29.35,48.89,97.32,49.14,123.22,49.24,25.44.1,95.02.36,124.76-49.24,24.09-40.18,11.56-95.19,3.45-96.81Z" fill="#8f74b4"/>
      <path d="M280.69,1757.46c5.47.03,22.43-.36,40.91-9.28,28.93-13.96,43.42-38.76,47.1-49.71,13.86-41.2,8.11-103.68,2.47-105.38-3.16-.95-7.94,16.24-9.88,28.7-10.56,67.66-63.3,106.02-80.09,116.66-16.79-10.64-69.53-48.99-80.09-116.66-1.94-12.45-6.73-29.65-9.88-28.7-5.63,1.7-11.38,64.19,2.47,105.38,3.66,10.89,18.17,35.73,47.1,49.71,17.94,8.67,34.38,9.25,39.89,9.28Z" fill="#8f74b4"/>
      <path d="M281.22,1689.28c4.1,0,15.87-.38,28.6-6.33,21.72-10.16,32.31-29.18,34.88-36.82,10.27-30.52,6.01-76.82,1.83-78.08-2.34-.71-5.88,12.03-7.32,21.26-7.56,48.45-44.32,76.62-58,85.57-13.69-8.95-50.44-37.12-58-85.57-1.44-9.23-4.98-21.97-7.32-21.26-4.17,1.26-8.43,47.56,1.83,78.08,2.57,7.64,13.16,26.66,34.88,36.82,12.75,5.96,24.53,6.33,28.63,6.33Z" fill="#8f74b4"/>
    </g>
    <path d="M305.29,1554.04c-17.28-.93-21.5,10.26-21.5,10.26,0,0-4.22-11.2-21.5-10.26-17.28.93-7.1,48.06,21.5,60.65,28.6-12.6,38.78-59.72,21.5-60.65Z" fill="#8f74b4"/>
  </g>
</svg>