<?xml version="1.0" encoding="utf-8" ?>
<svg xmlns="http://www.w3.org/2000/svg" xmlns:xlink="http://www.w3.org/1999/xlink" width="1024" height="1024">
	<path fill="#FEFEFE" d="M0 0L1024 0L1024 1024L0 1024L0 0Z"/>
	<path fill="#BFE8FB" d="M89.5495 707.597C86.7346 707.644 83.7756 707.817 80.9851 707.411C69.9463 705.804 58.336 698.8 50.4466 691.122C39.4715 680.44 33.1105 667.317 32.9771 651.853Q32.9343 648.475 33.4338 645.133C35.1073 634.185 40.8668 622.387 47.3174 613.473C54.7285 603.231 64.3273 593.822 66.8059 580.923C71.3677 557.183 50.1989 538.099 63.1609 514.636Q64.1604 512.824 65.4049 511.171Q66.6495 509.518 68.1142 508.057C74.6781 501.477 84.2592 497.92 93.5021 498.035C102.213 498.144 111.2 501.806 117.241 508.052C124.176 515.224 128.348 524.246 128.15 534.304C127.804 551.949 114.201 560.989 116.809 580.065C118.55 592.796 126.315 601.701 133.419 611.856C144.65 627.911 150.523 646.027 144.542 665.236C141.46 675.137 135.878 684.486 128.31 691.597C118.462 700.849 106.424 706.04 93.2116 708.38Q93.0492 733.52 93.2026 758.658C93.2187 764.723 94.1815 776.281 92.8022 781.745L90.7985 781.387C87.9946 778.092 91.4598 718.285 89.5495 707.597Z"/>
	<path d="M89.6387 658.185L89.8859 581.895C89.8801 575.39 88.8228 549.169 90.1658 545.001L91.0262 544.342L92.1339 544.668C93.7084 552.184 92.7003 573.767 92.7137 582.724L92.7802 677.646C96.8734 673.58 119.988 651.805 124.24 649.632L125.271 649.722C125.475 650.27 125.758 650.605 125.535 651.193C124.479 653.99 97.0043 677.788 92.5996 682.059L92.5234 750.217C92.5422 760.481 91.7234 771.598 92.8022 781.745L90.7985 781.387C87.9946 778.092 91.4598 718.285 89.5495 707.597C83.951 703.201 66.9291 689.639 64.3136 683.736L64.9624 682.922L64.2452 683.574L64.5228 684.045L65.3438 683.085C73.1935 687.867 82.5601 697.716 89.7732 703.936Q89.9389 683.468 89.8458 663C85.3556 658.484 60.2359 635.604 58.9794 632.518L59.3611 631.745C60.3484 631.749 61.135 631.803 61.97 632.394C64.7685 634.371 67.3931 637.586 69.941 639.938C76.5188 646.009 83.2237 651.939 89.6387 658.185Z"/>
	<path d="M382.909 263.366C431.892 215.16 464.164 171.708 528.151 141.085Q536.066 137.237 544.244 133.986Q552.422 130.736 560.818 128.1Q569.215 125.463 577.784 123.457Q586.352 121.45 595.046 120.083C600.124 119.331 625.276 115.295 628.981 118.035C628.974 118.419 629.135 118.844 628.961 119.186C628.586 119.921 619.723 120.124 617.991 120.253Q613.282 120.616 608.59 121.156Q603.897 121.696 599.229 122.411Q594.56 123.126 589.922 124.017Q585.283 124.907 580.681 125.97Q576.08 127.034 571.521 128.27Q566.962 129.505 562.453 130.911Q557.944 132.317 553.491 133.891Q549.038 135.465 544.647 137.205C508.643 151.541 477.101 173.644 449.141 200.295C439.706 209.289 430.862 218.811 421.792 228.162C410.411 239.895 398.814 251.417 387.622 263.334Q395.156 263.512 402.691 263.386C403.902 263.089 404.939 262.848 406.195 262.82C410.351 259.066 413.023 253.069 416.831 248.818C422.718 242.245 429.308 236.266 435.488 229.971C441.17 224.183 446.518 218.072 452.435 212.515C501.052 166.859 539.32 146.423 604.56 132.106C633.799 125.689 662.883 122.404 692.856 123.92C701.733 124.368 710.819 124.668 719.629 125.815C763.439 131.521 808.936 147.412 845.504 172.499C866.34 186.793 888.112 207.519 905.074 226.317C950.79 276.983 981.843 344.819 987.964 412.909C989.451 429.449 988.872 446.164 988.864 462.75Q989.018 500.043 988.742 537.336L988.392 631.315C988.398 648.273 989.107 665.518 988.452 682.447C995.875 697.172 998.565 713.104 993.337 729.093C988.134 745.008 974.41 760.116 959.525 767.604C953.273 770.75 946.466 772.089 939.491 771.937C939.492 782.351 940.415 855.27 938.834 858.293L938.294 858.299C937.415 857.177 936.982 856.146 936.871 854.728C936.303 847.461 936.931 839.634 936.923 832.304L936.831 780.771L935.945 779.517C934.724 779.694 934.305 779.78 933.317 780.583C926.501 786.123 919.656 794.771 913.242 801.144C906.727 807.617 884.248 827.461 875.569 827.317C875.499 835.928 874.777 844.622 874.387 853.234Q873.189 878.877 872.312 904.532C906.969 905.039 941.716 904.575 976.382 904.628L1004.99 904.634C1009.09 904.631 1013.57 904.201 1017.62 904.562C1018.94 904.68 1019.79 905.155 1020.67 906.134L1020.56 906.874C1020.43 906.947 1020.3 907.035 1020.16 907.093C1017.07 908.337 901.554 907.417 887.721 907.453L12.31 907.543C10.1249 907.539 7.17511 907.867 5.13429 907.095C4.77772 905.9 4.79011 905.962 5.33494 904.837C9.85206 903.634 18.7874 904.56 23.6916 904.555L70.9979 904.502L71.07 838.221C71.1191 828.698 72.0445 820.629 79.2933 813.593C90.2198 802.987 105.912 805.505 119.83 805.605C118.022 803.297 116.434 800.753 115.512 797.956C113.978 793.304 114.163 788.434 116.524 784.088C119.517 778.579 124.731 775.525 130.501 773.667C129.549 771.676 128.609 769.656 127.793 767.605Q127.44 766.717 127.131 765.812Q126.823 764.907 126.56 763.988Q126.296 763.069 126.079 762.138Q125.861 761.207 125.69 760.266Q125.519 759.326 125.394 758.378Q125.27 757.43 125.192 756.477Q125.115 755.525 125.085 754.569Q125.055 753.613 125.072 752.658Q125.089 751.702 125.154 750.748Q125.218 749.794 125.33 748.845Q125.442 747.895 125.6 746.952Q125.759 746.01 125.964 745.076Q126.169 744.142 126.42 743.22Q126.671 742.297 126.967 741.388Q127.263 740.479 127.604 739.586Q127.945 738.693 128.33 737.818Q128.707 736.98 129.126 736.162Q129.544 735.344 130.003 734.548Q130.461 733.752 130.959 732.98Q131.456 732.207 131.991 731.46Q132.527 730.714 133.098 729.994Q133.67 729.275 134.276 728.585Q134.883 727.895 135.523 727.236Q136.163 726.576 136.835 725.95Q137.507 725.323 138.209 724.731Q138.911 724.138 139.642 723.582Q140.373 723.025 141.13 722.505Q141.888 721.985 142.67 721.503Q143.453 721.021 144.258 720.579Q145.063 720.137 145.889 719.735Q146.716 719.333 147.561 718.973Q148.406 718.613 149.268 718.295Q150.105 717.994 150.956 717.735Q151.806 717.476 152.669 717.258Q153.531 717.04 154.403 716.865Q155.275 716.69 156.154 716.557Q157.034 716.424 157.919 716.335Q158.803 716.245 159.692 716.199Q160.58 716.152 161.469 716.149Q162.358 716.146 163.247 716.186Q164.135 716.226 165.021 716.31Q165.906 716.393 166.786 716.52Q167.667 716.646 168.54 716.815Q169.413 716.985 170.277 717.196Q171.141 717.408 171.993 717.661Q172.846 717.915 173.685 718.209Q174.524 718.504 175.348 718.839Q176.172 719.174 176.978 719.549C186.17 723.851 192.832 731.703 196.133 741.238C200.308 753.299 198.119 763.215 192.689 774.369C194.69 775.183 196.676 775.991 198.48 777.199C202.76 780.063 206.015 784.35 206.798 789.517C207.757 795.85 204.976 800.802 201.377 805.7C211.767 806.238 223.759 804.202 233.736 807.323C242.903 810.19 247.236 816.602 251.429 824.674C253.127 820.533 255.206 817.193 258.459 814.092C268.36 804.656 278.456 804.167 291.411 804.424C290.431 797.928 289.485 791.084 291.791 784.741C294.246 777.989 299.198 774.477 305.417 771.538C305.233 760.745 303.895 744.177 306.679 734.054C309.786 722.757 317.879 716.262 327.671 710.727L264.663 710.624C252.904 710.642 236.19 711.951 225.084 709.462Q223.901 709.195 222.74 708.845Q221.578 708.495 220.445 708.064Q219.311 707.632 218.211 707.121Q217.111 706.611 216.05 706.023Q214.989 705.436 213.972 704.774Q212.956 704.113 211.988 703.382Q211.021 702.65 210.108 701.852Q209.195 701.053 208.341 700.192C203.435 695.28 199.612 688.724 198.533 681.822C196.97 671.83 197.984 660.569 197.988 650.43L197.935 590.356L197.554 348.337C176.293 349.653 154.2 357.284 135.106 366.382C91.4912 387.163 59.9504 423.889 47.6197 470.776C45.8366 477.556 44.6142 484.94 43.8814 491.907C43.4529 495.981 43.842 500.921 42.4762 504.774C41.4971 505.126 41.6066 505.276 40.5619 504.891C40.3489 504.293 40.1705 503.758 40.0945 503.125C39.5115 498.266 40.7621 492.036 41.4791 487.155C45.2579 461.427 54.756 436.084 70.5443 415.204C102.392 373.083 146.256 352.225 197.637 345.172L197.59 319.126C197.57 302.433 197.269 288.615 209.86 275.962C215.186 270.611 222.352 266.223 229.781 264.628C241.975 262.01 267.979 263.416 281.763 263.432L382.909 263.366Z"/>
	<path fill="#F7CEF0" d="M814.22 897.583L830.875 897.572L830.607 904.507C825.165 904.663 819.679 904.54 814.232 904.539L814.22 897.583Z"/>
	<path fill="#F7CEF0" d="M834.471 897.644L869.073 897.619C869.04 899.914 868.842 902.184 868.652 904.47L834.414 904.456L834.471 897.644Z"/>
	<path fill="#FDF6FC" d="M880.664 737.219C884.191 737.112 887.732 737.257 891.259 737.337C892.353 744.383 895.69 752.799 894.999 759.836C894.172 761.183 893.676 761.325 892.312 762.053C889.552 763.329 886.811 764.497 883.791 764.984C882.213 765.239 880.961 765.222 879.619 764.248C879.301 755.298 880.324 746.18 880.664 737.219Z"/>
	<path fill="#FEFEFE" d="M710.356 523.927C711.738 523.885 713.16 523.784 714.449 524.383C720.973 527.418 734.964 541.039 741.173 546.398C737.124 551.742 732.383 556.666 727.891 561.643C726.534 563.343 724.681 565.713 722.897 566.918C721.981 567.537 721.773 567.467 720.775 567.24C720.525 566.749 720.277 566.323 720.158 565.769C719.308 561.816 724.735 554.836 726.724 551.619C722.584 544.992 710.558 531.092 710.356 523.927Z"/>
	<path fill="#BFE8FB" d="M904.895 692.362C914.673 701.259 928.25 712.205 936.504 721.989C936.616 735.766 937.296 749.702 936.721 763.462C930.919 758.627 912.446 739.407 907.311 737.819L906.563 738.118C908.724 743.989 931.434 759.768 936.151 766.757C936.715 767.593 936.7 768.523 936.737 769.494C925.016 770.418 912.389 757.913 904.518 750.494C901.814 747.944 898.982 744.666 895.734 742.904L893.762 734.378C895.571 730.299 896.375 725.599 897.451 721.278C899.841 711.68 901.966 701.806 904.895 692.362Z"/>
	<path fill="#FEFEFE" d="M830.731 544.65C836.908 544.166 843.243 545.617 848.375 549.151Q848.908 549.525 849.422 549.925Q849.937 550.325 850.431 550.749Q850.925 551.173 851.398 551.621Q851.87 552.069 852.321 552.54Q852.771 553.011 853.198 553.503Q853.625 553.995 854.027 554.507Q854.429 555.019 854.806 555.551Q855.183 556.082 855.533 556.631Q855.883 557.18 856.207 557.746Q856.53 558.311 856.825 558.892Q857.12 559.473 857.386 560.067Q857.652 560.662 857.889 561.268Q858.126 561.875 858.333 562.493Q858.541 563.11 858.717 563.737Q858.894 564.364 859.04 564.999Q859.185 565.634 859.3 566.275C860.615 573.707 858.895 581.951 854.467 588.074Q854.061 588.634 853.628 589.173Q853.195 589.713 852.737 590.23Q852.278 590.748 851.795 591.243Q851.312 591.738 850.805 592.208Q850.299 592.679 849.77 593.125Q849.241 593.57 848.691 593.989Q848.141 594.409 847.571 594.801Q847.001 595.193 846.413 595.557Q845.825 595.92 845.22 596.255Q844.615 596.59 843.994 596.895Q843.373 597.2 842.738 597.474Q842.104 597.748 841.456 597.992Q840.809 598.235 840.15 598.446Q839.492 598.658 838.824 598.837Q838.156 599.016 837.48 599.162Q836.804 599.309 836.122 599.422C829.3 600.074 823.738 599.185 817.988 595.147C811.696 590.728 807.008 583.328 805.816 575.727Q805.716 575.073 805.649 574.414Q805.582 573.756 805.547 573.095Q805.513 572.434 805.511 571.772Q805.509 571.11 805.54 570.449Q805.571 569.788 805.635 569.129Q805.698 568.47 805.794 567.815Q805.89 567.161 806.018 566.511Q806.146 565.862 806.307 565.22Q806.467 564.578 806.659 563.944Q806.85 563.311 807.073 562.687Q807.296 562.064 807.549 561.453Q807.802 560.841 808.086 560.243Q808.369 559.645 808.681 559.062Q808.994 558.478 809.335 557.911Q809.676 557.343 810.044 556.794Q810.413 556.244 810.808 555.713C815.755 549.102 822.729 545.736 830.731 544.65Z"/>
	<path fill="#FDF6FC" d="M895.734 742.904C898.982 744.666 901.814 747.944 904.518 750.494C912.389 757.913 925.016 770.418 936.737 769.494C936.636 773.267 936.687 777 936.831 780.771L935.945 779.517C934.724 779.694 934.305 779.78 933.317 780.583C926.501 786.123 919.656 794.771 913.242 801.144C906.727 807.617 884.248 827.461 875.569 827.317C877.441 807.418 877.628 787.189 879.083 767.226C880.949 767.892 882.873 768.433 884.765 769.024C888.432 766.899 895.219 765.274 897.813 761.93C900.687 758.226 896.603 748.105 895.838 743.552L895.734 742.904Z"/>
	<path fill="#FDF6FC" d="M780.821 692.395C782.157 700.255 781.206 710.475 781.194 718.554Q781.065 761.549 778.958 804.493L745.536 804.452L745.626 788.103L745.747 781.357L746.179 780.996L746.889 780.384C753.929 774.381 759.891 764.289 761.411 755.108C761.823 752.62 761.66 749.895 760.084 747.814C758.439 745.643 756.351 745.335 753.792 744.978C753.827 740 754.105 734.85 753.711 729.892C753.073 721.85 749.279 716.053 743.264 710.992C748.626 711.101 753.948 711.143 759.17 709.742C768.837 707.15 775.861 700.908 780.821 692.395Z"/>
	<path fill="#FEFEFE" d="M156.72 719.579C160.115 719.252 163.574 719.152 166.948 719.722C175.863 721.226 183.822 726.607 189.001 733.953C194.562 741.842 197.736 754.28 194.203 763.543C192.696 767.495 189.746 771.371 189.049 775.507C193.327 777.835 198.047 780.06 201.067 784.02C203.219 786.843 204.502 790.391 203.954 793.962C203.217 798.772 199.997 802.683 196.22 805.509C185.632 805.953 174.857 805.597 164.25 805.594L124.96 805.551C121.239 803.013 118.221 799.081 117.465 794.557C116.829 790.76 117.864 787.007 120.162 783.95C124.365 778.356 129.77 776.921 136.322 776.107C133.046 771.105 130.065 766.215 128.789 760.298C126.9 751.544 128.782 741.935 133.652 734.447C139.061 726.13 147.196 721.602 156.72 719.579Z"/>
	<path fill="#5FA6F3" d="M784.294 744.433C815.203 743.972 846.184 744.443 877.1 744.489C876.8 758.646 875.472 772.922 874.724 787.078C872.844 822.682 870.75 858.32 869.445 893.949L834.493 894.193C834.631 867.123 838.322 839.688 842.391 812.977C843.14 808.226 848.515 782.128 847.303 779.645L845.708 779.237C843.13 781.65 842.426 792.937 841.785 796.825C836.426 829.336 832.534 861.353 831.219 894.302C825.552 894.433 819.879 894.272 814.212 894.176L814.436 853.957C814.484 846.015 815.368 837.057 813.71 829.288Q813.51 828.321 813.248 827.369Q812.986 826.416 812.663 825.483Q812.34 824.55 811.957 823.639Q811.574 822.729 811.133 821.845Q810.692 820.961 810.195 820.108Q809.698 819.255 809.146 818.435Q808.594 817.616 807.991 816.834Q807.388 816.052 806.735 815.311C800.364 808.186 791.473 804.984 782.122 804.378C783.08 784.413 783.62 764.411 784.294 744.433Z"/>
	<path fill="#BFE8FB" d="M900.053 659.382C900.167 659.266 900.283 659.151 900.394 659.033C907.235 651.784 912.728 640.233 912.266 630.105C911.957 623.323 909.458 616.921 907.82 610.398C904.607 597.603 907.425 583.576 916.268 573.634Q916.826 573.003 917.415 572.4Q918.004 571.798 918.622 571.225Q919.24 570.653 919.886 570.112Q920.532 569.571 921.203 569.063Q921.875 568.555 922.572 568.081Q923.268 567.606 923.987 567.168Q924.706 566.729 925.447 566.326Q926.187 565.924 926.946 565.559Q927.705 565.193 928.481 564.866Q929.258 564.539 930.05 564.252Q930.841 563.964 931.646 563.716Q932.452 563.467 933.268 563.26Q934.084 563.052 934.91 562.885Q935.736 562.718 936.569 562.593Q937.402 562.467 938.24 562.383Q939.079 562.299 939.92 562.257C948.62 561.793 957.256 564.411 963.718 570.38C971.196 577.287 976.313 587.296 976.684 597.523C977.602 622.891 956.555 635.35 972.843 662.479C977.27 669.853 983.617 675.462 988.452 682.447C995.875 697.172 998.565 713.104 993.337 729.093C988.134 745.008 974.41 760.116 959.525 767.604C953.273 770.75 946.466 772.089 939.491 771.937Q939.683 757.3 939.636 742.661C943.715 738.627 973.966 711.051 974.247 708.938L973.309 708.605C967.528 710.371 945.918 733.207 939.545 738.782C939.228 708.091 939.71 677.341 939.725 646.642C939.732 634.18 940.343 621.434 939.691 609.011C939.616 607.564 939.577 605.931 938.698 604.728L937.88 604.873C937.084 606.03 936.899 607.031 936.807 608.403C936.6 611.456 936.897 614.597 936.89 617.662L936.866 640.412Q937.053 679.159 936.664 717.904Q921.292 703.249 905.395 689.165C906.559 684.725 907.418 680.201 908.349 675.708C906.025 670.172 902.737 664.783 900.053 659.382Z"/>
	<path fill="#B6D9B5" d="M94.8288 808.64C95.2998 808.603 95.7715 808.572 96.2437 808.556C106.533 808.21 116.983 808.578 127.286 808.586L189.234 808.78C199.762 808.856 220.73 807.572 230.221 809.451C234.847 810.366 239.414 813.132 242.715 816.444C245.791 819.529 247.522 822.988 248.42 827.226C250.304 836.114 249.357 846.239 249.359 855.326L249.181 904.506L229.25 904.484L74.1327 904.466L74.0869 856.575C74.082 848.219 73.452 839.31 74.3421 831.025C74.7199 827.508 75.456 824.113 77.2368 821.014C81.0926 814.303 87.5946 810.592 94.8288 808.64Z"/>
	<path fill="#F7CEF0" d="M394.6 807.241C404.27 807.325 412.348 808.308 419.549 815.525C423.401 819.385 425.973 824.149 427.218 829.457C429.487 839.129 428.358 850.673 428.347 860.58L428.372 904.6L286.75 904.48L252.429 904.481L252.419 904.018C252.173 889.641 252.369 875.226 252.357 860.846C252.349 851.484 251.141 836.764 253.419 828.016C254.514 823.812 256.981 820.045 259.993 816.956C263.856 812.995 269.261 809.465 274.695 808.265C283.784 806.257 302.353 807.417 312.498 807.418C339.852 807.42 367.253 807.734 394.6 807.241Z"/>
	<path fill="#FE8A56" d="M655.523 807.623C656.012 807.586 656.502 807.556 656.992 807.539C665.969 807.228 675.053 807.511 684.041 807.527L735.324 807.617L766.269 807.717C773.756 807.756 781.567 807.431 788.948 808.822C793.997 809.773 798.881 812.569 802.503 816.213C806.267 820 809.433 825.176 810.628 830.443C812.433 838.399 811.269 849.801 811.221 858.131Q811.038 881.367 811.132 904.603L787.832 904.502L631.001 904.495L631.092 860.023C631.071 851.027 630.245 841.221 631.693 832.344Q631.962 830.672 632.409 829.038Q632.856 827.404 633.476 825.828Q634.096 824.251 634.883 822.751Q635.669 821.251 636.613 819.844C641.143 813.083 647.677 809.232 655.523 807.623Z"/>
	<path fill="#F7CEF0" d="M745.625 546.467C757.419 557.823 768.123 570.604 778.799 583.013C784.068 589.136 796.014 604.74 801.796 608.504L802.614 608.262L802.224 606.221L802.902 606.368L802.144 605.751C802.324 605.67 802.492 605.549 802.685 605.508C804.621 605.091 846.998 605.225 850.872 605.601Q853.426 605.853 855.912 606.492Q858.397 607.131 860.756 608.143Q862.66 608.961 864.453 610Q866.246 611.039 867.903 612.284Q869.559 613.528 871.056 614.961Q872.552 616.395 873.868 617.996C880.052 625.593 884.038 635.891 888.636 644.527C894.184 654.949 900.803 665.49 905.198 676.422C902.063 695.851 895.645 715.081 890.445 734.031L880.893 733.867C880.878 725.798 882.351 664.285 881.304 662.036C881.078 661.55 880.69 661.158 880.383 660.719C880.171 660.899 879.946 661.064 879.748 661.259C878.708 662.279 878.715 662.776 878.553 664.165C877.716 671.375 878.304 679.323 878.157 686.635Q877.469 713.993 877.513 741.359L784.424 741.128L784.418 658.35L723.454 571.342Q734.636 558.991 745.625 546.467Z"/>
	<path fill="#F7CEF0" d="M240.502 266.721L241.439 266.697C253.126 266.426 264.89 266.703 276.585 266.719L345.557 266.794L566.241 266.89L688.66 266.898L725.466 266.95C732.82 266.963 740.404 266.586 747.705 267.428C755.754 268.356 762.974 271.976 768.779 277.605C775.785 284.397 779.499 292.729 779.592 302.486L741.25 302.494L201.372 302.49C202.17 293.987 204.899 286.537 210.599 280.086C218.579 271.055 228.765 267.498 240.502 266.721Z"/>
	<path d="M503.323 283.75C505.309 283.705 507.469 283.523 509.439 283.744C510.95 283.913 512.162 284.359 513.095 285.526C513.006 285.642 512.932 285.771 512.828 285.874C509.896 288.773 484.87 287.521 479.629 287.514C476.802 287.609 472.782 288.29 470.319 286.736C470.071 285.553 470.182 285.616 470.845 284.582C474.099 282.905 497.989 283.788 503.323 283.75Z"/>
	<path fill="#FDF6FC" d="M356.771 711.009C369.234 710.34 381.882 710.683 394.369 710.641L469.309 710.635Q583.462 710.247 697.615 711.023C683.765 721.743 688.377 728.315 686.371 742.555C686.338 742.791 686.158 744.528 686.006 744.707C684.727 746.215 681.535 746.563 680.07 748.493C678.503 750.556 678.793 754.219 679.239 756.597C680.955 765.75 686.952 776.685 694.584 782.118C694.765 789.512 694.643 796.933 694.644 804.33L673.06 804.144C661.088 804.042 649.875 803.237 640.071 811.353C634.915 815.621 631.019 821.758 629.248 828.206C627.202 835.654 627.865 843.872 627.889 851.531L627.909 884.126C627.904 890.207 628.228 896.508 627.606 902.553C627.588 902.73 627.566 902.907 627.546 903.084L627.283 904.237C623.364 905.481 587.989 904.627 581.549 904.633L431.868 904.689C430.626 899.541 431.503 892.069 431.503 886.692C431.503 870.424 431.971 854.072 431.558 837.816C431.315 828.242 428.286 819.602 421.209 812.937C412.039 804.302 402.394 804.003 390.477 804.333C399.024 778.436 380.107 776.718 378.791 769.785C378.346 767.443 379.486 766.37 380.701 764.522C381.499 754.732 382.082 742.568 378.823 733.227C375.015 722.314 366.877 715.816 356.771 711.009Z"/>
	<path fill="#FEFEFE" d="M432.121 859.93C454.74 860.784 477.511 860.092 500.141 860.06L627.308 860.514C627.269 873.839 626.274 890.055 627.546 903.084L627.283 904.237C623.364 905.481 587.989 904.627 581.549 904.633L431.868 904.689C432.715 900.054 432.182 894.529 432.176 889.781L432.121 859.93Z"/>
	<path fill="#FDF6FC" d="M402.691 263.386C403.902 263.089 404.939 262.848 406.195 262.82C410.351 259.066 413.023 253.069 416.831 248.818C422.718 242.245 429.308 236.266 435.488 229.971C441.17 224.183 446.518 218.072 452.435 212.515C501.052 166.859 539.32 146.423 604.56 132.106C633.799 125.689 662.883 122.404 692.856 123.92C701.733 124.368 710.819 124.668 719.629 125.815C763.439 131.521 808.936 147.412 845.504 172.499C866.34 186.793 888.112 207.519 905.074 226.317C950.79 276.983 981.843 344.819 987.964 412.909C989.451 429.449 988.872 446.164 988.864 462.75Q989.018 500.043 988.742 537.336L988.392 631.315C988.398 648.273 989.107 665.518 988.452 682.447C983.617 675.462 977.27 669.853 972.843 662.479C956.555 635.35 977.602 622.891 976.684 597.523C976.313 587.296 971.196 577.287 963.718 570.38C957.256 564.411 948.62 561.793 939.92 562.257Q939.079 562.299 938.24 562.383Q937.402 562.467 936.569 562.593Q935.736 562.718 934.91 562.885Q934.084 563.052 933.268 563.26Q932.452 563.467 931.646 563.716Q930.841 563.964 930.05 564.252Q929.258 564.539 928.481 564.866Q927.705 565.193 926.946 565.559Q926.187 565.924 925.447 566.326Q924.707 566.729 923.987 567.168Q923.268 567.606 922.572 568.081Q921.875 568.555 921.203 569.063Q920.532 569.571 919.886 570.112Q919.24 570.653 918.622 571.225Q918.004 571.798 917.415 572.4Q916.826 573.003 916.268 573.634C907.425 583.576 904.607 597.603 907.82 610.398C909.458 616.921 911.957 623.323 912.266 630.105C912.728 640.233 907.235 651.784 900.394 659.033C900.283 659.151 900.167 659.266 900.053 659.382C896.611 652.61 892.894 645.968 889.353 639.246C884.276 629.61 880.156 618.683 871.76 611.366C861.839 602.72 850.674 601.634 838.048 602.56C846.368 599.912 852.919 596.479 857.788 589.009Q858.22 588.332 858.619 587.634Q859.017 586.937 859.38 586.22Q859.744 585.503 860.072 584.77Q860.399 584.036 860.69 583.287Q860.981 582.539 861.234 581.776Q861.488 581.014 861.704 580.24Q861.919 579.466 862.096 578.682Q862.273 577.899 862.411 577.107Q862.55 576.316 862.649 575.519Q862.747 574.721 862.807 573.92Q862.866 573.119 862.886 572.316Q862.906 571.513 862.886 570.709Q862.866 569.906 862.806 569.105Q862.746 568.304 862.647 567.507Q862.548 566.709 862.41 565.918Q862.271 565.127 862.094 564.343Q861.935 563.609 861.739 562.884Q861.543 562.158 861.31 561.444Q861.078 560.73 860.809 560.028Q860.54 559.327 860.236 558.64Q859.932 557.953 859.593 557.283Q859.254 556.612 858.881 555.96Q858.509 555.308 858.103 554.675Q857.698 554.043 857.261 553.432Q856.824 552.821 856.356 552.233Q855.888 551.645 855.391 551.082Q854.894 550.519 854.369 549.981Q853.844 549.444 853.292 548.934Q852.74 548.425 852.163 547.944Q851.586 547.463 850.986 547.012Q850.385 546.561 849.762 546.141Q849.139 545.721 848.495 545.334C841.561 541.145 833.054 540.089 825.229 542.027C817.1 544.041 810.546 549.193 806.354 556.402C802.317 563.346 801.013 571.895 803.177 579.671C806.229 590.632 814.233 597.055 823.789 602.339L799.827 602.367C794.027 596.105 788.407 589.652 782.703 583.299C784.274 565.419 782.796 544.917 782.74 526.679L783.061 424.588C783.077 384.946 782.703 345.28 783.144 305.643C783.067 294.022 780.15 283.546 771.64 275.204C759.807 263.602 746.538 263.403 731.032 263.435L708.399 263.511C651.33 263.475 594.204 264.052 537.144 263.37C520.325 263.831 503.405 263.482 486.577 263.476L402.691 263.386Z"/>
	<path fill="#FEFEFE" d="M715.522 196.632C715.482 190.073 714.083 160.624 717.039 157.027C719.184 155.906 721.339 155.444 723.73 155.178C730.706 154.401 773.88 154.459 779.435 156.001C780.704 156.354 781.668 156.648 782.292 157.884C784.547 162.351 783.431 189.152 783.346 195.718C789.141 198.226 794.909 200.814 800.86 202.937C806.189 196.915 812.321 191.754 818.162 186.25C822.286 182.365 826.497 177.476 831.271 174.411C832.037 173.919 832.841 173.696 833.743 173.666C834.765 173.631 835.775 173.767 836.628 174.364C841.842 178.014 848.72 186.171 853.526 190.921C860.099 197.419 867.111 203.556 873.537 210.179C875.386 212.085 876.964 213.705 876.883 216.55C876.781 220.196 853.022 244.271 849.13 248.941C851.502 253.304 854.331 257.434 856.519 261.884C859.166 267.268 860.978 273.091 862.889 278.769C868.072 278.713 902.199 277.202 904.616 279.456C905.665 280.434 905.808 282.418 905.952 283.764C906.804 291.728 906.152 300.266 906.119 308.279C906.08 317.614 906.49 327.051 906.204 336.37C906.125 338.938 905.773 341.606 905.024 344.063L904.7 343.783L904.689 344.441C898.336 346.091 870.187 345.059 861.483 345.223C857.48 356.395 852.73 362.836 848.121 372.879C853.791 378.778 871.556 397.671 874.013 403.673C873.837 405.526 872.214 407.242 871.047 408.634C863.733 417.354 853.749 426.102 845.512 434.249C841.538 438.179 837.928 442.695 833.647 446.275C833.523 446.379 833.396 446.481 833.27 446.583C831.007 446.567 828.73 446.605 826.469 446.523C822.636 442.048 805.493 421.007 801.356 419.673C795.997 419.997 788.59 428.94 783.838 426.723L783.402 424.556C789.559 420.516 796.615 417.366 803.052 413.703C806.229 418.13 810.05 422.091 813.653 426.17C818.954 432.173 824.179 438.224 829.678 444.048C836.048 438.487 841.869 432.295 847.838 426.315L870.127 404.213C867.934 400.802 865.044 397.866 862.42 394.787C856.119 387.393 849.745 380.185 843.023 373.171C849.869 362.826 854.704 353.199 858.391 341.387C873.128 341.458 887.854 341.038 902.59 341.166C902.278 321.728 902.528 302.248 902.45 282.806C897.277 282.351 891.899 282.648 886.693 282.638L860.076 282.482C855.418 267.657 852.625 262.795 844.824 249.349C847.339 245.279 850.92 241.932 854.072 238.355C860.739 230.79 867.542 223.417 874.349 215.981C866.341 208.099 858.504 200.035 850.45 192.202C844.966 186.869 839.08 181.873 833.928 176.218C828.73 180.571 823.83 185.509 818.83 190.108C812.616 195.825 806.102 201.409 800.328 207.562C793.444 203.922 786.988 200.78 779.479 198.536C779.364 185.543 779.594 172.551 779.286 159.559C759.384 159.197 739.415 159.507 719.506 159.585C719.348 172.991 719.522 186.397 719.233 199.802C712.172 202.166 705.873 204.121 699.666 208.323C691.374 201.213 683.622 192.935 676.001 185.102C672.205 181.2 668.607 177.065 664.331 173.674C660.365 177.207 624.355 214.538 623.037 217.013C622.958 217.162 622.913 217.329 622.827 217.474C622.755 217.594 622.652 217.693 622.565 217.802C625.214 221.782 629.166 225.293 632.425 228.821C638.888 235.818 645.265 242.916 651.913 249.738C648.236 254.102 646.138 256.906 644.603 262.438C643.119 263.192 641.116 262.881 639.461 262.869C640.066 257.996 644.122 253.778 646.159 249.361C646.039 249.198 645.92 249.034 645.798 248.872C642.081 243.943 617.653 221.484 618.654 217.324C619.519 213.726 653.189 179.154 658.389 174.406C659.902 173.024 661.697 171.545 663.565 170.682C664.129 170.422 664.668 170.312 665.273 170.195C671.557 173.872 677.105 181.515 682.244 186.72C688.047 192.599 694.086 198.255 699.905 204.129C705.05 201.614 710.518 199.371 715.522 196.632Z"/>
	<path fill="#FEFEFE" d="M201.46 306.174C223.766 305.681 246.171 306.109 268.488 306.118L399.685 306.185L779.525 306.027L779.516 578.796C775.091 574.095 748.991 542.805 745.257 541.947L743.865 543.338C736.852 540.747 724.627 525.457 716.214 521.497C714.402 520.645 712.351 520.524 710.486 521.291C709.009 521.898 707.76 523.089 707.302 524.652C705.961 529.227 719.448 546.947 722.537 551.805C720.89 555.69 717.846 559.173 717.122 563.401C716.864 564.911 716.99 566.213 717.6 567.622C719.814 572.744 723.862 577.615 727.06 582.198L745.484 608.305C750.885 616.219 778.589 653.522 780.204 659.23C781.669 664.406 781.102 671.109 781.018 676.475C780.879 685.403 778.516 692.518 771.916 698.854C766.563 703.992 760.069 707.003 752.676 707.721C745.612 708.406 738.326 708.097 731.233 708.095L692.75 707.959L574.103 707.832L344.213 707.745L278.147 707.78C264.537 707.844 250.837 708.25 237.235 707.919C226.818 707.665 217.316 705.1 209.977 697.32C206.286 693.407 202.359 687.069 201.677 681.699C200.198 670.062 201.297 650.876 201.319 638.559L201.306 552.07L201.232 395.195C201.203 365.574 200.368 335.774 201.46 306.174Z"/>
	<path fill="#B6D9B5" d="M237.054 528.002L263.14 527.964L263.401 537.426L237.021 537.444L237.054 528.002Z"/>
	<path fill="#F7BFAB" d="M389.069 392.494C403.375 392.897 417.759 392.654 432.071 392.535L432.011 401.491L389.042 401.556L389.069 392.494Z"/>
	<path fill="#BFE8FB" d="M237.057 473.453L287.531 473.324C287.568 476.229 287.561 479.095 287.396 481.997C270.436 482.41 253.432 482.301 236.466 482.402C236.499 479.418 236.822 476.427 237.057 473.453Z"/>
	<path fill="#BFE8FB" d="M356.03 420.137C379.071 421.047 402.438 420.251 425.51 420.187L425.467 427.904L425.4 427.985L424.622 428.022L425.237 428.391C419.392 429.434 410.116 428.541 403.976 428.54L355.997 428.724L356.03 420.137Z"/>
	<path fill="#BFE8FB" d="M313.532 473.07C337.995 473.702 362.515 473.453 386.987 473.469L386.859 482.442L313.506 482.368L313.532 473.07Z"/>
	<path fill="#F7BFAB" d="M236.504 420.095L331.045 419.998L330.985 428.476Q283.734 428.202 236.482 428.412L236.504 420.095Z"/>
	<path fill="#BFE8FB" d="M653.276 385.259C653.964 385.385 654.694 385.491 655.368 385.69C656.656 386.069 657.017 386.29 657.658 387.462C657.436 390.711 646.22 415.813 644.091 420.945L606.228 512.177C603.464 518.816 601.339 525.691 598.51 532.305C596.782 531.754 595.149 530.716 593.548 529.864C597.007 519.331 601.804 509.435 605.932 499.177C616.445 473.052 627.455 447.076 638.347 421.106C643.372 409.123 648.699 397.443 653.276 385.259Z"/>
	<path fill="#BFE8FB" d="M686.912 397.384C698.239 408.591 709.308 420.146 720.521 431.484C727.679 438.722 735.143 445.663 741.921 453.262L702.153 496.282C695.374 503.549 688.79 511.416 681.457 518.103C680.217 516.856 678.865 515.713 677.552 514.542C684.566 506.173 692.59 498.405 700.127 490.495L735.142 453.512C729.576 446.875 683.827 403.157 683.308 401.061C684.199 399.462 685.508 398.521 686.912 397.384Z"/>
	<path fill="#F7CEF0" d="M278.332 634.746L334.471 634.504L334.463 643.331L295.128 643.459L237.372 643.446L237.265 634.82L278.332 634.746Z"/>
	<path fill="#BFE8FB" d="M572.479 399.273C572.772 399.319 573.07 399.338 573.357 399.411C574.871 399.793 575.971 401.776 576.838 402.966C568.158 410.221 560.802 418.574 552.9 426.614C541.563 438.149 530.107 449.517 518.997 461.276C522.436 466.094 527.477 470.45 531.628 474.677C544.094 487.371 557.321 499.353 569.468 512.346C568.214 513.481 566.83 514.467 565.481 515.486C547.372 497.425 528.568 480.144 510.924 461.589C520.732 452.903 529.723 442.821 538.814 433.387C549.896 421.888 561.252 410.631 572.479 399.273Z"/>
	<path fill="#F7BFAB" d="M236.17 500.676L331.823 500.782C331.983 503.823 331.84 506.861 331.748 509.903C320.339 509.384 308.781 509.676 297.357 509.668L236.397 509.722C236.084 506.715 236.158 503.694 236.17 500.676Z"/>
	<path fill="#F7BFAB" d="M356.964 500.466L451.916 500.962C452.106 503.889 452.025 506.811 451.975 509.742C420.222 509.422 388.433 509.825 356.676 509.967C356.579 506.794 356.793 503.633 356.964 500.466Z"/>
	<path fill="#BFE8FB" d="M236.54 366.058L346.393 366.002L346.333 374.101L236.592 374.16L236.54 366.058Z"/>
	<path fill="#FAD76C" d="M359.456 554.029C390.155 554.905 421.087 554.104 451.803 554.041C451.891 557.284 452.114 560.569 451.752 563.8C421.158 562.482 390.131 563.58 359.49 563.796L359.456 554.029Z"/>
	<path fill="#FAD76C" d="M236.932 554.055L332.447 553.976L332.409 563.912Q284.7 563.632 236.992 563.968L236.932 554.055Z"/>
	<path fill="#BFE8FB" d="M348.542 392.249L364.874 392.222L364.813 401.494L254.306 401.56Q245.389 401.507 236.476 401.772C236.406 398.665 236.451 395.546 236.442 392.438C273.78 392.978 311.197 392.423 348.542 392.249Z"/>
	<path fill="#F7CEF0" d="M359.067 634.622L500.667 634.976L500.76 643.385C495.943 643.978 490.572 643.561 485.706 643.551L456.129 643.494L359.049 643.45L359.067 634.622Z"/>
	<path fill="#B6D9B5" d="M289.382 527.989L433.018 528.122L432.925 537.471C416.622 537.899 400.213 537.473 383.895 537.471L289.339 537.554L289.382 527.989Z"/>
	<path fill="#BFE8FB" d="M236.871 580.655C255.944 581.091 275.123 580.615 294.205 580.584L402.417 580.503L402.415 589.288C347.284 589.962 292.052 588.076 236.937 589.523L236.871 580.655Z"/>
	<path fill="#F7BFAB" d="M237.305 446.476L451.72 446.517L451.609 455.561L311.926 455.755C287.11 455.782 262.057 454.924 237.265 455.84L237.305 446.476Z"/>
	<path fill="#F7CEF0" d="M237.136 608.501C246.855 609.761 257.622 608.922 267.455 608.957L327.422 609.094L531.582 609.187C531.716 612.442 531.707 615.714 531.758 618.972L237.21 618.96C237.063 615.488 237.149 611.978 237.136 608.501Z"/>
</svg>
