<svg width="414" height="414" viewBox="0 0 414 414" fill="none" xmlns="http://www.w3.org/2000/svg">
<path d="M164.468 88.6377C164.468 88.6377 167.444 104.971 155.428 110.68C146.258 114.529 150.576 119.914 155.088 129.844L156.366 128.97L153.633 115.208C153.633 115.208 156.77 113.203 159.018 111.489C161.619 109.257 163.64 106.426 164.905 103.241C165.94 100.378 165.293 89.0905 165.293 89.0905L164.468 88.6377Z" fill="#E4E5E6"/>
<path d="M182.742 128.097C182.742 128.097 190.456 129.456 192.639 129.084C194.823 128.712 207.194 119.817 207.194 119.817C207.194 119.817 196.715 131.025 195.049 131.364C193.383 131.704 183.324 131.364 183.324 131.364L182.742 128.097Z" fill="#E4E5E6"/>
<path d="M133.062 153.39C133.062 153.39 132.448 160.311 129.537 162.009C126.626 163.707 107.058 165.244 107.058 165.244L132.318 164.742L136.28 155.751L133.062 153.39Z" fill="#E4E5E6"/>
<path d="M194.354 299.875C194.354 299.875 192.51 307.783 191.588 308.414C190.666 309.044 185.863 311.745 185.863 311.745L194.354 313.362L198.283 300.878L194.354 299.875Z" fill="#E4E5E6"/>
<path d="M129.165 97.4518C129.165 97.4518 132.14 96.0449 134.518 99.7482C134.257 98.3739 133.856 97.0299 133.321 95.7376C132.69 94.5732 129.278 95.4142 129.165 95.5112C129.116 96.1572 129.116 96.8059 129.165 97.4518Z" fill="#E4E5E6"/>
<path d="M153.811 263.358C153.811 263.358 149.315 268.42 148.118 268.323C146.503 267.986 144.914 267.532 143.364 266.965L147.164 271.59L156.398 265.93L153.811 263.358Z" fill="#E4E5E6"/>
<path d="M93.0369 164.678C93.0369 164.678 91.4197 170.37 86.2447 171.146C81.0697 171.923 78.741 171.971 77.5281 170.306L82.509 168.915L83.1235 164.839C83.2934 165.557 83.7107 166.192 84.3022 166.633C84.8937 167.074 85.6216 167.292 86.3579 167.249C88.7026 166.738 90.955 165.871 93.0369 164.678Z" fill="#E4E5E6"/>
<path d="M144.107 120.399C139.242 124.267 133.499 126.877 127.386 128C122.001 128.954 108.917 122.275 96.8533 125.687C96.8533 125.687 108.174 118.523 106.67 99.9256C105.166 81.3279 114.756 60.4339 147.099 65.6574C147.099 65.6574 175.998 56.2777 176.985 78.1421C176.985 90.2548 170.516 85.5811 169.303 98.179C168.268 107.397 171.406 112.232 171.406 112.232C169.771 114.015 167.79 115.446 165.584 116.437C162.915 117.229 156.398 117.504 154.749 119.073L153.843 114.82C153.843 114.82 161.46 110.324 162.802 108.141C164.144 105.958 166.57 98.648 165.212 88.8479C165.212 88.8479 154.684 86.4059 149.266 77.2688C149.266 77.2688 139.563 77.0747 135.245 88.1363C133.903 90.5297 135.52 94.2331 134.647 98.179C134.647 98.179 132.318 92.9393 129.472 95.2519C126.626 97.5645 130.733 102.173 131.348 102.513C131.901 102.955 132.588 103.196 133.297 103.196C134.005 103.196 134.692 102.955 135.245 102.513C135.245 102.513 142.668 115.628 144.107 120.399Z" fill="#5D43E4"/>
<path d="M136.943 156.301C136.943 156.301 132.254 151.676 127.079 151.32C127.079 151.32 131.93 135.65 134.21 132.367C136.491 129.084 142.717 127.257 144.108 127.903C145.498 128.55 150.431 133.547 156.285 129.052C157.143 128.169 157.775 127.093 158.129 125.914C158.129 125.914 176.031 119.235 183.793 121.208C182.762 124.494 182.572 127.986 183.244 131.364L166.57 130.475C166.57 130.475 162.996 153.633 183.001 165.649C183.001 165.649 160.522 164.63 136.28 184.845C136.28 184.845 148.49 161.767 141.682 140.631L136.943 156.301Z" fill="#C9C0F6"/>
<path d="M204.38 301.622L184.57 295.476C184.57 295.476 201.065 264.976 190.537 246.055C190.537 246.055 162.543 269.31 161.605 269.294C160.668 269.278 149.396 259.025 147.762 255.936C146.129 252.847 164.549 240.443 169.643 233.878C169.643 233.878 143.202 227.652 136.183 213.728C129.165 199.804 136.28 184.845 136.28 184.845C136.28 184.845 160.829 163.336 183.001 165.649C183.001 165.649 213.889 188.952 218.822 204.671C221.021 213.647 210.121 224.886 210.121 224.886C210.121 224.886 224.514 236.999 223.948 250.292C223.382 263.585 204.38 301.622 204.38 301.622Z" fill="#9382ED"/>
<path d="M129.779 267.223C129.779 267.223 134.453 286.824 149.671 286.177V273.304C149.671 273.304 143.606 270.878 140.695 260.593L129.779 267.223Z" fill="#5D43E4"/>
<path d="M181.901 308.413L178.538 319.96C178.538 319.96 199.561 334.514 209.119 325.798L197.345 312.86C197.345 312.86 187.254 315.464 181.901 308.413Z" fill="#5D43E4"/>
<path d="M13.8594 162.123L15.0884 172.344L65.383 171.115L64.1701 162.123H13.8594Z" fill="#5D43E4"/>
<path d="M5.85425 127.903L13.8593 162.123H64.17L52.7527 128.097L5.85425 127.903Z" fill="#9382ED"/>
<path d="M65.383 171.114L83.1235 169.901L80.4552 159.454L63.6526 160.602L65.383 171.114Z" fill="#9382ED"/>
<path d="M245.699 168.446L247.64 172.829L287.487 170.646L285.547 165.357L245.699 168.446Z" fill="#5D43E4"/>
<path d="M358.935 142.199V157.837L372.535 152.048L358.935 142.199Z" fill="#5D43E4"/>
<path d="M275.698 51.8145L282.393 75.862L306.328 70.7679L301.395 51.8145H275.698Z" fill="#5D43E4"/>
<path d="M262.179 42.3379L337.297 38.6831V28.8506L261.483 31.7615L262.179 42.3379Z" fill="#C9C0F6"/>
<path d="M227.037 128.016L227.522 137.282L301.395 133.644L299.39 121.224L227.037 128.016Z" fill="#C9C0F6"/>
<path d="M322.969 116.906L324.101 125.687L401.095 124.895L399.704 110.275L322.969 116.906Z" fill="#C9C0F6"/>
<path d="M354.439 203.927L357.366 216.072L273.159 226.761L271.445 216.072L354.439 203.927Z" fill="#C9C0F6"/>
<path d="M165.341 89.5273C165.878 93.0528 166.035 96.6256 165.81 100.185C165.673 101.988 165.342 103.772 164.824 105.505L164.322 106.815C164.128 107.236 163.87 107.64 163.643 108.06C163.121 108.842 162.507 109.558 161.816 110.195C160.499 111.455 159.07 112.592 157.546 113.591L155.25 114.982C154.972 115.141 154.716 115.337 154.49 115.564C154.49 115.564 154.49 115.968 154.587 116.162C155.154 119.66 155.543 123.185 155.751 126.723H155.573C154.468 123.345 153.539 119.912 152.792 116.437C152.792 116.195 152.792 116.065 152.662 115.726C152.612 115.277 152.733 114.827 153.002 114.464C153.357 114.019 153.79 113.641 154.28 113.349C155.088 112.863 155.897 112.475 156.592 112.022C158.086 111.172 159.499 110.187 160.813 109.079C163.546 107.058 164.387 103.467 164.888 100.055C165.352 96.5655 165.444 93.0365 165.163 89.5273H165.341Z" fill="#1F164C"/>
<path d="M148.49 91.6623C147.264 92.1629 145.974 92.4895 144.657 92.6326C143.35 92.8412 142.018 92.8412 140.711 92.6326C141.713 91.6271 143.034 91.0035 144.447 90.8699C145.846 90.6442 147.28 90.9252 148.49 91.6623Z" fill="#1F164C"/>
<path d="M152.371 108.125C151.831 108.508 151.19 108.722 150.528 108.74C149.865 108.763 149.205 108.63 148.603 108.352C147.954 108.079 147.394 107.631 146.986 107.058C146.795 106.777 146.663 106.46 146.599 106.126C146.535 105.792 146.541 105.449 146.614 105.117C147.069 105.458 147.544 105.772 148.037 106.055C148.49 106.282 148.894 106.492 149.347 106.686C150.383 107.104 151.393 107.585 152.371 108.125Z" fill="#1F164C"/>
<path d="M155.476 90.9988C155.707 90.3307 156.157 89.7605 156.754 89.3817C157.321 89.0008 157.959 88.7369 158.63 88.6054C159.297 88.476 159.985 88.4914 160.646 88.6504C161.307 88.8094 161.927 89.1084 162.463 89.5272C161.869 89.7781 161.251 89.9677 160.619 90.0932C160.053 90.2226 159.503 90.3196 159.002 90.4167L155.476 90.9988Z" fill="#1F164C"/>
<path d="M141.633 96.5615C142.287 95.7797 143.104 95.1505 144.027 94.7179C144.504 94.4033 145.076 94.2659 145.644 94.3297C145.958 94.3899 146.251 94.5324 146.493 94.7426C146.734 94.9528 146.916 95.2233 147.019 95.5265L146.921 95.6882C146.275 95.9307 145.951 96.0763 145.579 96.1733C145.207 96.2704 144.852 96.1733 144.415 96.1733C143.505 96.2576 142.609 96.4531 141.747 96.7555L141.633 96.5615Z" fill="#1F164C"/>
<path d="M145.87 97.354C146.576 97.354 147.148 96.782 147.148 96.0764C147.148 95.3708 146.576 94.7988 145.87 94.7988C145.165 94.7988 144.593 95.3708 144.593 96.0764C144.593 96.782 145.165 97.354 145.87 97.354Z" fill="#1F164C"/>
<path d="M156.479 93.3433C157.134 92.5565 157.958 91.9266 158.889 91.4997C159.365 91.1838 159.938 91.0463 160.506 91.1115C160.821 91.1644 161.116 91.3045 161.356 91.516C161.596 91.7274 161.772 92.0019 161.864 92.3083V92.4538C161.217 92.6964 160.878 92.8419 160.522 92.939C160.166 93.036 159.778 92.939 159.358 92.939C158.443 93.0157 157.541 93.2058 156.673 93.505L156.479 93.3433Z" fill="#1F164C"/>
<path d="M160.732 94.1362C161.438 94.1362 162.01 93.5642 162.01 92.8586C162.01 92.153 161.438 91.5811 160.732 91.5811C160.027 91.5811 159.455 92.153 159.455 92.8586C159.455 93.5642 160.027 94.1362 160.732 94.1362Z" fill="#1F164C"/>
<path d="M154.458 96.0283C155.595 97.0883 156.427 98.4343 156.867 99.9257C156.988 100.373 157.031 100.838 156.997 101.3C156.955 101.559 156.873 101.811 156.754 102.044C156.618 102.282 156.443 102.495 156.237 102.675C155.867 102.961 155.422 103.132 154.956 103.167C154.49 103.201 154.024 103.098 153.617 102.869V102.691C154.247 102.077 154.813 101.737 154.959 101.365C155.23 100.997 155.393 100.56 155.428 100.104C155.322 98.728 154.96 97.3842 154.361 96.1415L154.458 96.0283Z" fill="#1F164C"/>
<path d="M148.49 77.3498C146.132 77.6241 143.875 78.4616 141.908 79.7918C139.942 81.0993 138.286 82.8215 137.057 84.8374C135.861 86.7712 135.327 89.042 135.537 91.3062C135.666 93.6026 136.28 96.1577 135.537 98.7129L134.825 101.025L134.033 98.6805C133.564 97.2898 132.577 95.7534 131.591 95.5594C131.341 95.495 131.08 95.495 130.83 95.5594C130.541 95.6469 130.263 95.7719 130.006 95.9313C129.783 96.0746 129.607 96.279 129.498 96.52C129.389 96.7609 129.352 97.0282 129.391 97.2898C129.623 98.8301 130.228 100.29 131.154 101.543C131.591 102.163 132.232 102.609 132.965 102.804C133.352 102.878 133.75 102.875 134.136 102.794C134.522 102.714 134.888 102.558 135.213 102.335L135.326 102.481C135.011 102.803 134.629 103.052 134.207 103.211C133.785 103.37 133.334 103.436 132.884 103.403C131.945 103.315 131.073 102.876 130.442 102.174C129.842 101.517 129.301 100.808 128.825 100.055C128.312 99.3133 127.95 98.4782 127.758 97.597C127.635 97.0649 127.635 96.512 127.758 95.9798C127.948 95.4058 128.316 94.9074 128.809 94.5567C129.244 94.2514 129.724 94.0168 130.232 93.8613C130.796 93.6909 131.398 93.6909 131.963 93.8613C132.987 94.1989 133.847 94.9088 134.372 95.8505C134.858 96.6435 135.224 97.5047 135.456 98.4056H133.952C134.744 96.3841 134.307 94.0069 134.259 91.5487C134.124 89.0303 134.817 86.5368 136.232 84.4493C137.579 82.404 139.378 80.6948 141.489 79.4529C143.6 78.211 145.967 77.4694 148.409 77.2852L148.49 77.3498Z" fill="#1F164C"/>
<path d="M135.326 102.465C138.073 106.26 140.533 110.254 142.684 114.416C143.831 116.484 144.795 118.648 145.563 120.885C146.28 123.157 146.661 125.521 146.695 127.903H146.517C145.547 125.72 144.706 123.601 143.833 121.434C142.959 119.267 142.215 117.117 141.342 114.966C139.51 110.698 137.454 106.531 135.181 102.481L135.326 102.465Z" fill="#1F164C"/>
<path d="M144.334 120.189C141.414 123.262 137.868 125.672 133.935 127.257C131.945 128.082 129.85 128.627 127.709 128.874C125.545 129.032 123.37 128.901 121.241 128.486C117.068 127.661 113.155 126.399 109.095 125.688C105.046 124.912 100.886 124.912 96.8372 125.688C98.8006 124.925 100.856 124.425 102.95 124.2C105.063 123.982 107.193 123.982 109.306 124.2C113.527 124.604 117.57 125.817 121.58 126.594C123.542 126.998 125.547 127.155 127.548 127.062C129.549 126.9 131.525 126.504 133.434 125.882C135.385 125.265 137.274 124.469 139.078 123.505C140.919 122.548 142.678 121.439 144.334 120.189Z" fill="#1F164C"/>
<path d="M149.493 76.6865C151.059 78.5773 152.833 80.286 154.781 81.7807C156.696 83.2556 158.73 84.57 160.862 85.7104C163.011 86.8353 165.231 87.8185 167.508 88.6537C168.64 89.1227 169.821 89.43 170.985 89.8666C172.15 90.3032 173.363 90.5458 174.559 90.9825C173.298 90.9825 172.053 90.8531 170.791 90.7399C169.544 90.5746 168.308 90.337 167.088 90.0283C164.621 89.4179 162.237 88.511 159.988 87.3276C157.748 86.1112 155.681 84.5991 153.843 82.8318C151.986 81.1045 150.505 79.0124 149.493 76.6865Z" fill="#1F164C"/>
<path d="M130.297 97.4997C130.513 97.302 130.787 97.1794 131.079 97.1503C131.37 97.1212 131.663 97.187 131.914 97.338C132.179 97.5001 132.383 97.7443 132.496 98.0334C132.594 98.3108 132.594 98.6131 132.496 98.8905C131.817 98.3466 131.079 97.8801 130.297 97.4997Z" fill="#1F164C"/>
<path d="M147.164 65.6571C143.38 65.0522 139.539 64.8732 135.714 65.1235C131.928 65.2812 128.189 66.0343 124.637 67.3552C121.134 68.6589 117.972 70.7376 115.386 73.4358C112.903 76.256 111.031 79.5597 109.888 83.1389C108.679 86.7124 107.961 90.4336 107.753 94.2005C107.446 97.9847 107.511 101.85 107.171 105.715C106.971 109.62 106.061 113.456 104.487 117.035C102.739 120.534 100.115 123.52 96.8696 125.703C99.8441 123.292 102.182 120.188 103.678 116.663C105.038 113.127 105.744 109.374 105.764 105.585C106.039 98.017 105.554 90.0443 108.141 82.4759C109.418 78.704 111.467 75.2397 114.157 72.3038C116.933 69.4353 120.362 67.2822 124.152 66.0291C131.633 63.7334 139.612 63.6044 147.164 65.6571Z" fill="#1F164C"/>
<path d="M147.94 65.7545C152.012 64.3574 156.269 63.5726 160.571 63.4258C164.965 63.0709 169.336 64.3365 172.861 66.9836C175.299 69.32 176.919 72.3808 177.478 75.7111C178.037 79.0414 177.507 82.4632 175.966 85.4681C174.956 87.3595 173.844 89.195 172.635 90.9665L171.018 90.077C172.295 88.1041 173.573 86.6001 174.527 84.7403C175.513 82.948 176.118 80.9716 176.306 78.9346C176.463 76.8684 176.183 74.7921 175.484 72.8414C174.785 70.8908 173.681 69.1096 172.247 67.6143C168.947 64.9681 164.796 63.6168 160.571 63.8139C156.288 63.8379 152.033 64.4918 147.94 65.7545Z" fill="#1F164C"/>
<path d="M154.247 119.154C155.635 118.384 157.136 117.838 158.695 117.537C160.312 117.213 161.929 117.1 163.384 116.776C164.912 116.531 166.375 115.981 167.686 115.159C168.976 114.287 170.14 113.242 171.147 112.054V112.539C170.291 110.821 169.64 109.008 169.206 107.138C168.764 105.267 168.531 103.352 168.511 101.429C168.481 99.4978 168.687 97.5697 169.125 95.6883C169.56 93.7927 170.212 91.9532 171.066 90.2061L172.683 91.0632C171.824 92.6532 171.145 94.3348 170.662 96.0764C170.165 97.8244 169.893 99.6287 169.853 101.446C169.778 103.277 169.913 105.111 170.257 106.912C170.587 108.711 171.13 110.464 171.875 112.135L172.004 112.426L171.81 112.62C170.709 113.808 169.452 114.841 168.074 115.693C166.678 116.532 165.127 117.082 163.514 117.31C161.897 117.553 160.279 117.601 158.792 117.86C157.218 118.05 155.685 118.487 154.247 119.154Z" fill="#1F164C"/>
<path d="M135.245 131.364C136.722 129.905 138.447 128.722 140.34 127.871C141.39 127.312 142.589 127.097 143.768 127.256C144.773 127.68 145.723 128.223 146.598 128.874C148.084 129.931 149.916 130.387 151.725 130.151C152.688 130.024 153.64 129.818 154.571 129.537C155.04 129.418 155.495 129.25 155.929 129.035C156.333 128.809 156.819 128.582 156.964 128.081C156.948 128.351 156.874 128.614 156.745 128.851C156.617 129.089 156.437 129.295 156.22 129.456C155.824 129.809 155.39 130.119 154.927 130.378C154.005 130.885 153.028 131.286 152.016 131.574C150.93 131.876 149.79 131.921 148.684 131.704C147.601 131.461 146.567 131.034 145.628 130.442C144.892 129.882 144.107 129.39 143.283 128.971C142.452 128.862 141.607 128.962 140.825 129.262C138.923 129.845 137.059 130.547 135.245 131.364Z" fill="#1F164C"/>
<path d="M166.894 125.688C166.894 127.628 166.781 129.553 166.894 131.477C166.917 133.391 167.047 135.302 167.282 137.202C167.68 140.986 168.443 144.723 169.562 148.36C170.75 151.969 172.466 155.38 174.656 158.484L176.435 160.683C177.033 161.411 177.81 161.993 178.473 162.656L179.508 163.659C179.88 163.966 180.284 164.225 180.672 164.516C181.448 165.05 182.289 165.632 183.017 166.133C179.374 164.612 176.131 162.271 173.54 159.293C171.013 156.22 169.078 152.705 167.832 148.926C166.666 145.161 166.013 141.255 165.891 137.315C165.713 133.412 166.05 129.502 166.894 125.688Z" fill="#1F164C"/>
<path d="M144.108 179.507C146.253 177.235 148.67 175.236 151.304 173.556C153.932 171.842 156.721 170.39 159.633 169.222C161.088 168.607 162.592 168.154 164.08 167.605C165.592 167.179 167.125 166.834 168.673 166.57C171.756 166.021 174.896 165.858 178.02 166.084C174.977 166.562 171.96 167.194 168.98 167.977C166.034 168.747 163.144 169.714 160.328 170.871C157.485 172.016 154.71 173.323 152.016 174.785C149.347 176.273 146.679 177.777 144.108 179.507Z" fill="#1F164C"/>
<path d="M172.554 190.504C181.546 197.409 190.23 204.751 198.607 212.433C202.812 216.25 206.871 220.233 210.784 224.384C214.796 228.478 218.428 232.927 221.636 237.677C222.412 238.906 223.026 240.265 223.706 241.559C224.244 242.967 224.592 244.441 224.741 245.941C224.977 248.848 224.83 251.773 224.304 254.642C223.291 260.282 221.703 265.804 219.566 271.121C215.377 281.699 210.297 291.903 204.38 301.621C207 296.575 209.507 291.497 211.803 286.322C214.1 281.147 216.347 275.94 218.272 270.619C220.233 265.373 221.716 259.961 222.703 254.447C223.172 251.724 223.281 248.951 223.026 246.2C222.89 244.87 222.575 243.564 222.088 242.319C221.442 241.122 220.876 239.893 220.132 238.728C217.034 234.037 213.509 229.641 209.604 225.597C205.787 221.425 201.728 217.511 197.685 213.516C193.642 209.522 189.47 205.738 185.281 201.921C181.093 198.105 176.807 194.256 172.554 190.504Z" fill="#1F164C"/>
<path d="M203.167 301.622C199.855 301.414 196.571 300.872 193.367 300.005C190.115 299.157 187.011 297.815 184.165 296.026L183.664 295.719L183.907 295.121C185.669 290.916 187.141 286.582 188.58 282.183C189.961 277.822 191.106 273.39 192.009 268.906C192.967 264.438 193.508 259.89 193.626 255.322C193.743 250.737 192.969 246.173 191.346 241.883C193.493 246.033 194.666 250.618 194.774 255.289C194.97 259.952 194.645 264.623 193.804 269.213C192.978 273.793 191.838 278.31 190.392 282.733C188.971 287.147 187.275 291.468 185.314 295.67L185.071 294.765C187.722 296.622 190.639 298.067 193.723 299.05C196.795 300.167 199.954 301.027 203.167 301.622Z" fill="#1F164C"/>
<path d="M136.28 184.844C135.12 189.03 134.373 193.32 134.049 197.652C133.575 201.904 134.005 206.208 135.31 210.282C136.014 212.234 137.115 214.018 138.544 215.522C140.004 217.111 141.583 218.587 143.267 219.937C146.633 222.598 150.296 224.861 154.183 226.68C161.88 230.578 170.354 232.939 178.295 236.545C182.398 238.247 186.128 240.736 189.276 243.871C192.271 247.184 193.91 251.502 193.868 255.968C193.576 251.632 191.706 247.554 188.612 244.502C185.449 241.599 181.753 239.336 177.729 237.839C169.756 234.605 161.314 232.179 153.374 228.346C149.395 226.408 145.651 224.02 142.215 221.23C140.489 219.814 138.867 218.273 137.364 216.621C135.789 214.961 134.612 212.965 133.919 210.783C132.704 206.494 132.423 201.994 133.094 197.587C133.688 193.236 134.756 188.962 136.28 184.844Z" fill="#1F164C"/>
<path d="M183.001 166.134C188.358 169.568 193.485 173.35 198.348 177.454C203.289 181.53 207.852 186.044 211.981 190.941C214.06 193.419 215.891 196.095 217.447 198.93C219.163 201.81 220.017 205.121 219.905 208.472C219.342 211.703 218.078 214.772 216.202 217.463C214.428 220.124 212.391 222.6 210.121 224.854C212.102 222.384 213.876 219.755 215.426 216.994C217.061 214.365 218.109 211.414 218.498 208.342C218.413 205.306 217.52 202.347 215.911 199.771C214.377 197.05 212.584 194.483 210.558 192.106C206.49 187.288 202.103 182.75 197.426 178.521C195.098 176.354 192.72 174.268 190.311 172.214C187.901 170.161 185.459 168.188 183.001 166.134Z" fill="#1F164C"/>
<path d="M190.537 246.055C187.303 249.208 183.761 252.216 180.3 255.192C176.839 258.167 173.282 261.078 169.74 263.957L164.355 268.21L162.996 269.261L162.317 269.779C162.153 269.921 161.968 270.035 161.767 270.118C161.498 270.194 161.212 270.194 160.942 270.118C160.267 269.96 159.637 269.65 159.099 269.213C158.615 268.861 158.151 268.483 157.708 268.081C154.402 264.913 151.412 261.43 148.781 257.682C150.398 259.299 152.016 260.917 153.633 262.534C155.225 264.138 156.898 265.66 158.646 267.094C159.07 267.432 159.513 267.745 159.972 268.032C160.337 268.3 160.748 268.497 161.185 268.614C161.185 268.614 161.185 268.614 161.331 268.485L161.994 267.935L163.336 266.836L168.64 262.502C172.214 259.671 175.788 256.825 179.459 254.108C183.13 251.391 186.737 248.626 190.537 246.055Z" fill="#1F164C"/>
<path d="M169.643 233.877C166.635 237.786 163.355 241.477 159.827 244.922C156.366 248.418 152.658 251.661 148.733 254.625C151.721 250.73 154.979 247.05 158.484 243.612C161.973 240.112 165.702 236.859 169.643 233.877Z" fill="#1F164C"/>
<path d="M133.369 133.45C132.998 135.067 132.512 136.523 132.092 138.043C131.671 139.563 131.154 141.067 130.653 142.571C129.65 145.579 128.572 148.56 127.418 151.514L126.836 150.398C128.62 150.79 130.367 151.331 132.06 152.016C133.848 152.758 135.466 153.859 136.814 155.25L135.585 155.525C136.183 153.908 136.814 152.29 137.445 150.673C138.075 149.056 138.755 147.439 139.499 145.935C139.159 147.552 138.722 149.282 138.334 150.964C137.946 152.646 137.445 154.199 136.976 155.929L136.652 157.045L135.747 156.204C134.45 155.127 132.971 154.289 131.38 153.73C129.758 153.08 128.094 152.539 126.399 152.113L125.397 151.838L125.769 150.9C126.917 147.956 128.081 145.013 129.343 142.118C129.973 140.663 130.62 139.207 131.283 137.768C131.946 136.329 132.609 134.873 133.369 133.45Z" fill="#1F164C"/>
<path d="M139.499 137.282C141.203 139.422 142.502 141.856 143.331 144.463C144.213 147.078 144.757 149.795 144.948 152.548C145.19 156.648 144.714 160.758 143.542 164.694C143.121 165.987 142.652 167.249 142.135 168.494C142.49 165.809 142.862 163.19 143.04 160.554C143.04 159.891 143.04 159.227 143.17 158.581V156.608C143.17 155.282 143.17 153.972 143.073 152.678C142.897 150.06 142.519 147.459 141.94 144.899C141.372 142.288 140.554 139.737 139.499 137.282Z" fill="#1F164C"/>
<path d="M170.727 191.41C171.211 190.826 171.818 190.357 172.505 190.036C173.185 189.68 173.938 189.487 174.705 189.47C174.212 190.05 173.604 190.523 172.919 190.857C172.234 191.191 171.488 191.379 170.727 191.41Z" fill="#1F164C"/>
<path d="M159.584 125.688C161.377 124.561 163.285 123.628 165.276 122.906C167.272 122.134 169.327 121.528 171.422 121.095C175.63 120.196 179.961 120.015 184.23 120.561L185.362 120.691L184.844 121.677C184.453 122.407 184.129 123.17 183.874 123.957C183.594 124.747 183.378 125.559 183.227 126.383C182.877 128.065 182.966 129.808 183.486 131.445C182.548 129.842 182.119 127.992 182.257 126.141C182.299 125.236 182.424 124.338 182.629 123.456C182.835 122.561 183.117 121.684 183.47 120.836L184.068 121.952C182.011 121.831 179.948 121.831 177.891 121.952C175.825 122.058 173.768 122.285 171.729 122.631C167.603 123.313 163.541 124.335 159.584 125.688Z" fill="#1F164C"/>
<path d="M136.264 155.687C135.891 157.913 135.351 160.108 134.647 162.252C134.46 162.802 134.244 163.342 134 163.869C133.879 164.143 133.739 164.408 133.58 164.662C133.309 164.994 132.932 165.223 132.512 165.309C131.383 165.599 130.23 165.794 129.068 165.891C124.556 166.279 120.076 166.295 115.597 166.263C111.117 166.231 106.654 166.053 102.174 165.745C97.6943 165.438 93.2471 165.115 88.7998 164.549C93.2794 164.387 97.7429 164.371 102.222 164.371C106.702 164.371 111.149 164.371 115.613 164.371C120.076 164.371 124.556 164.468 128.971 164.371C130.054 164.352 131.135 164.255 132.205 164.08C132.415 164.08 132.706 163.886 132.609 164.08C132.739 163.869 132.884 163.659 133.014 163.417C133.291 162.947 133.539 162.461 133.758 161.961C134.647 159.875 135.456 157.773 136.264 155.687Z" fill="#1F164C"/>
<path d="M77.5281 170.289C78.859 171.007 80.3737 171.311 81.8783 171.163C83.3518 171.059 84.8072 170.777 86.2124 170.322C87.6082 169.877 88.9161 169.193 90.0775 168.3C91.282 167.346 92.2875 166.165 93.0369 164.823C92.8593 166.489 92.1505 168.054 91.0154 169.287C89.8644 170.55 88.4124 171.501 86.7946 172.052C85.2061 172.625 83.511 172.84 81.8298 172.683C80.9766 172.643 80.1443 172.406 79.398 171.991C78.6516 171.576 78.0116 170.993 77.5281 170.289Z" fill="#1F164C"/>
<path d="M62.4719 160.441C65.7126 159.827 68.9841 159.39 72.2721 159.131C75.5065 158.84 78.8217 158.678 82.1046 158.613H82.9455V159.39C83.0587 161.136 83.1234 162.899 83.1557 164.645C83.1881 166.392 83.1557 168.155 83.0749 169.917C82.6706 168.203 82.3148 166.489 82.0237 164.759C81.7326 163.028 81.4739 161.282 81.2636 159.551L82.1369 160.311C78.9025 160.57 75.6682 160.748 72.3044 160.78C69.0233 160.835 65.7415 160.722 62.4719 160.441Z" fill="#1F164C"/>
<path d="M13.8594 162.139C20.9588 161.12 28.0906 160.683 35.2063 160.36C42.3219 160.036 49.486 159.988 56.634 160.36C49.5345 161.362 42.4189 161.815 35.2871 162.122C28.1553 162.43 21.0235 162.575 13.8594 162.139Z" fill="#1F164C"/>
<path d="M13.8594 164.128C14.4739 166.829 14.9591 169.562 15.4766 172.214L15.0238 171.826L27.5893 171.163C31.7778 170.985 35.9663 170.872 40.1548 170.742C44.3434 170.613 48.548 170.565 52.7366 170.548C56.9251 170.532 61.1298 170.548 65.3183 170.548L64.8655 171.082C64.6067 168.074 64.3156 165.066 64.1216 162.042C64.7361 165.001 65.2536 167.977 65.7388 170.969L65.8358 171.47H65.2859C61.0974 171.68 56.9089 171.955 52.7204 172.117C48.5319 172.279 44.3272 172.408 40.1387 172.521C35.9502 172.635 31.7616 172.683 27.557 172.699H14.9752H14.6841V172.327C14.393 169.643 14.0696 166.894 13.8594 164.128Z" fill="#1F164C"/>
<path d="M13.4712 160.441C11.9726 155.05 10.5279 149.659 9.13711 144.269C7.77867 138.867 6.33938 133.482 5.0618 128.097L4.85156 127.094H5.88656C13.6976 127.094 21.5248 126.981 29.3358 127.094L41.0604 127.224C44.974 127.224 48.8714 127.385 52.785 127.466H53.2378L53.351 127.871C54.3537 131.105 55.3887 134.339 56.3266 137.574C57.2646 140.808 58.2834 144.042 59.1891 147.277C57.96 144.156 56.8118 140.986 55.6313 137.849C54.4507 134.711 53.351 131.542 52.2028 128.372L52.7688 128.792C48.8714 128.792 44.9578 128.954 41.0442 128.938H29.2873C21.4763 128.938 13.6652 128.825 5.83805 128.776L6.63047 127.757C7.90805 133.191 9.00773 138.641 10.1883 144.091C11.3688 149.541 12.42 154.958 13.4712 160.441Z" fill="#1F164C"/>
<path d="M36.8071 145.012C36.7541 146.16 36.3218 147.258 35.578 148.134C35.2007 148.604 34.7299 148.99 34.1954 149.268C33.6609 149.547 33.0743 149.711 32.473 149.751C31.8503 149.775 31.2291 149.674 30.6459 149.455C30.0627 149.236 29.5292 148.902 29.0769 148.473C28.5949 148.043 28.2035 147.521 27.9258 146.938C27.6481 146.355 27.4896 145.722 27.4597 145.077C27.4167 143.744 27.892 142.445 28.7858 141.455C29.2479 140.961 29.8101 140.571 30.4347 140.312C31.0594 140.052 31.7323 139.929 32.4083 139.951C33.0489 139.99 33.6724 140.173 34.2323 140.487C34.7923 140.8 35.2744 141.236 35.6427 141.762C36.3771 142.688 36.7862 143.83 36.8071 145.012ZM36.613 145.012C36.5962 144.488 36.452 143.975 36.1928 143.519C35.9336 143.062 35.5672 142.676 35.1252 142.393C34.3496 141.887 33.428 141.654 32.5053 141.73C31.6137 141.79 30.7783 142.187 30.1681 142.84C29.5579 143.493 29.2185 144.353 29.2185 145.247C29.2185 146.141 29.5579 147.001 30.1681 147.654C30.7783 148.307 31.6137 148.704 32.5053 148.764C33.5285 148.825 34.5374 148.502 35.3354 147.859C35.7506 147.512 36.0815 147.076 36.3028 146.583C36.5242 146.09 36.6303 145.553 36.613 145.012Z" fill="#1F164C"/>
<path d="M79.2422 159.454C80.2668 158.376 81.4179 157.426 82.6706 156.624C83.3002 156.209 83.9536 155.831 84.6274 155.492C85.3847 155.077 86.2239 154.834 87.0855 154.78C88.6629 155.053 90.1567 155.683 91.452 156.624C92.7178 157.421 93.8802 158.372 94.9127 159.454C93.4734 159.001 92.115 158.451 90.7889 157.837C90.1097 157.578 89.479 157.271 88.8159 157.044C88.248 156.802 87.6495 156.638 87.037 156.559C86.4416 156.609 85.8605 156.768 85.3228 157.028C84.6598 157.255 84.0291 157.562 83.3498 157.821C82.0238 158.484 80.6653 159.001 79.2422 159.454Z" fill="#1F164C"/>
<path d="M127.079 152.016C126.933 153.277 126.674 154.522 126.48 155.767V156.026H126.141C123.812 156.463 121.467 156.835 119.122 157.126C116.777 157.417 114.432 157.676 112.071 157.87C109.71 158.064 107.349 158.226 104.988 158.323C102.627 158.42 100.266 158.484 97.8237 158.484C100.152 157.951 102.481 157.498 104.826 157.142C107.171 156.786 109.516 156.463 111.861 156.22C114.206 155.978 116.567 155.768 118.928 155.606C121.289 155.444 123.666 155.25 126.027 155.25L125.672 155.557C126.141 154.393 126.545 153.212 127.079 152.016Z" fill="#1F164C"/>
<path d="M183.632 122.518C185.324 122.097 187.084 122.02 188.807 122.291C190.519 122.488 192.171 123.039 193.658 123.908C190.249 124.672 186.679 124.184 183.599 122.534L183.632 122.518Z" fill="#1F164C"/>
<path d="M183.276 130.862C185.362 131.008 187.448 131.202 189.534 131.202C190.558 131.258 191.584 131.258 192.607 131.202C193.097 131.175 193.585 131.104 194.063 130.991C194.276 130.939 194.487 130.874 194.693 130.797L195.324 130.425C198.692 128.118 201.672 125.29 204.154 122.048C206.822 118.814 209.313 115.58 211.835 112.232L219.242 102.108C217.374 105.865 215.29 109.509 213 113.024C210.734 116.582 208.25 119.996 205.561 123.245C202.779 126.399 199.965 129.714 195.955 131.687L195.195 132.043C194.909 132.134 194.617 132.204 194.321 132.253C193.785 132.327 193.245 132.365 192.704 132.366C191.622 132.359 190.542 132.283 189.47 132.14C187.381 131.839 185.313 131.412 183.276 130.862Z" fill="#1F164C"/>
<path d="M215.555 97.3546C211.847 102.104 207.868 106.634 203.636 110.923C199.471 115.27 195.054 119.369 190.408 123.197C197.887 113.738 206.313 105.068 215.555 97.3223V97.3546Z" fill="#1F164C"/>
<path d="M217.932 95.8831C218.32 92.6487 218.822 89.5599 219.258 86.3902L219.646 84.0129C219.822 83.1078 220.287 82.2846 220.972 81.668C221.653 81.1575 222.385 80.7185 223.156 80.3581L225.258 79.2422L225.015 79.4363C226.228 77.8191 227.538 76.1049 228.832 74.4715C229.479 73.6468 230.142 72.8543 230.853 72.0457C231.193 71.6415 231.549 71.2533 231.937 70.8652C232.141 70.6538 232.357 70.454 232.584 70.2668C232.798 70.0717 233.06 69.9377 233.344 69.8787C233.482 69.8468 233.626 69.8478 233.763 69.8815C233.901 69.9152 234.029 69.9807 234.136 70.0728C234.239 70.1544 234.326 70.2528 234.395 70.3639C234.442 70.4499 234.474 70.5427 234.492 70.6388C234.511 70.7891 234.511 70.9413 234.492 71.0916C234.441 71.6856 234.322 72.2717 234.136 72.8382C233.975 73.3557 233.813 73.857 233.635 74.3583C233.279 75.361 232.923 76.3313 232.535 77.3178L231.371 80.2287C231.28 80.3846 231.215 80.5538 231.177 80.73C231.152 80.8637 231.152 81.0007 231.177 81.1343L231.662 82.6383C232.319 84.684 232.727 86.8018 232.875 88.9454C233.108 91.1709 232.584 93.4101 231.387 95.3009C231.043 95.7908 230.596 96.1993 230.077 96.4976C229.561 96.7389 229.018 96.918 228.46 97.0313L225.404 97.6943C223.349 97.967 221.455 98.9513 220.051 100.476C221.086 98.5676 223.285 97.759 225.226 97.096L228.201 96.158C228.67 96.0382 229.121 95.8588 229.544 95.6243C229.909 95.3684 230.222 95.0445 230.465 94.6702C231.399 92.9522 231.73 90.9704 231.403 89.0424C231.166 87.0306 230.727 85.0477 230.093 83.1235L229.576 81.6842C229.461 81.3131 229.417 80.9235 229.447 80.536C229.497 80.2022 229.589 79.8761 229.721 79.5657L230.837 76.6709C231.209 75.7006 231.565 74.7303 231.888 73.76C232.222 72.8719 232.482 71.9578 232.665 71.0269C232.656 71.0859 232.656 71.1459 232.665 71.2048C232.725 71.2841 232.79 71.3597 232.859 71.4312C232.945 71.4983 233.044 71.5472 233.15 71.575C233.255 71.6028 233.365 71.6089 233.473 71.5929C233.813 71.4959 233.587 71.5929 233.57 71.5929C233.395 71.7344 233.228 71.8856 233.069 72.0457C232.713 72.4015 232.374 72.7735 232.034 73.1454L229.996 75.4742L226.002 80.2287L225.889 80.3743H225.759L223.592 81.3769C222.901 81.665 222.236 82.0112 221.603 82.4119C221.077 82.8201 220.697 83.3874 220.52 84.0291L220.018 86.3579C219.42 89.6731 218.725 92.7781 217.932 95.8831Z" fill="#1F164C"/>
<path d="M226.18 84.2549C226.052 86.4807 225.716 88.6896 225.177 90.853C224.941 91.8171 224.811 92.804 224.789 93.7963C224.789 93.8933 224.789 93.7963 224.789 93.7963C224.789 93.6993 224.951 93.9257 225.015 93.9904C225.204 94.1524 225.41 94.2934 225.63 94.4108C226.098 94.6875 226.614 94.874 227.15 94.9607C226.605 95.249 225.982 95.3566 225.371 95.2679C225.058 95.2288 224.749 95.1583 224.449 95.0577C224.272 95.0014 224.103 94.9197 223.948 94.8151C223.732 94.6564 223.569 94.4367 223.479 94.1844C223.146 92.9615 223.146 91.6716 223.479 90.4487C223.933 88.217 224.853 86.1063 226.18 84.2549Z" fill="#1F164C"/>
<path d="M150.803 260.06C149.782 261.43 148.495 262.579 147.019 263.439C145.588 264.348 143.986 264.953 142.312 265.218C143.329 263.854 144.61 262.71 146.081 261.855C147.521 260.952 149.126 260.342 150.803 260.06Z" fill="#1F164C"/>
<path d="M156.334 265.93C155.293 267.373 153.98 268.598 152.469 269.536C151.003 270.536 149.354 271.234 147.617 271.59C149.766 268.728 152.86 266.722 156.35 265.93H156.334Z" fill="#1F164C"/>
<path d="M188.823 297.821C188.47 302.289 186.874 306.569 184.214 310.177C184.352 307.958 184.838 305.776 185.653 303.708C186.41 301.598 187.478 299.614 188.823 297.821Z" fill="#1F164C"/>
<path d="M198.283 300.797C198.16 305.007 196.792 309.087 194.354 312.521C194.458 308.308 195.828 304.223 198.283 300.797Z" fill="#1F164C"/>
<path d="M129.779 267.224C131.396 265.849 133.143 264.571 134.89 263.342C136.636 262.113 138.415 260.949 140.226 259.833L141.358 259.138L141.601 260.528C141.83 261.725 142.211 262.888 142.733 263.989C143.267 265.118 143.894 266.2 144.609 267.224C145.335 268.308 146.129 269.345 146.986 270.329L148.296 271.8C148.749 272.285 149.218 272.754 149.671 273.256C147.271 271.963 145.136 270.23 143.38 268.145C142.504 267.076 141.745 265.916 141.116 264.685C140.442 263.408 139.999 262.023 139.806 260.593L141.164 261.289C139.337 262.388 137.477 263.423 135.585 264.41C133.693 265.396 131.768 266.399 129.779 267.224Z" fill="#1F164C"/>
<path d="M178.538 319.96C179.118 315.98 179.955 312.042 181.044 308.171L181.659 305.923L182.742 308.106C183.369 309.136 184.27 309.971 185.346 310.516C186.508 311.156 187.755 311.63 189.049 311.923C190.39 312.243 191.752 312.465 193.125 312.586C193.82 312.586 194.515 312.747 195.227 312.78C195.939 312.812 196.634 312.78 197.345 312.893C195.955 313.245 194.538 313.483 193.108 313.604C191.657 313.717 190.198 313.669 188.758 313.459C187.261 313.26 185.811 312.8 184.473 312.101C183.012 311.378 181.834 310.188 181.125 308.721H182.823C181.631 312.553 180.2 316.307 178.538 319.96Z" fill="#1F164C"/>
<path d="M203.167 319.265C204.299 320.219 205.367 321.254 206.402 322.24C207.437 323.227 208.536 324.278 209.636 325.313L210.105 325.798L209.62 326.283C208.73 327.158 207.689 327.865 206.547 328.369C205.438 328.879 204.27 329.248 203.07 329.469C200.693 329.883 198.257 329.817 195.906 329.275C194.733 329.017 193.578 328.687 192.445 328.289C191.346 327.868 190.294 327.334 189.211 326.849C188.127 326.364 187.173 325.701 186.219 325.054C185.265 324.407 184.327 323.696 183.438 322.968C184.505 323.437 185.524 323.938 186.559 324.44L189.712 325.75C191.804 326.558 193.971 327.16 196.181 327.545C198.313 327.962 200.5 328.017 202.65 327.706C204.767 327.386 206.775 326.56 208.504 325.297V326.267C207.55 325.135 206.628 323.987 205.722 322.822C204.817 321.658 204.008 320.494 203.167 319.265Z" fill="#1F164C"/>
<path d="M149.671 277.444C150.107 280.776 150.334 284.123 150.463 287.455V288.296H149.606C147.531 288.145 145.505 287.596 143.639 286.678C141.788 285.821 140.072 284.699 138.544 283.347C137.052 281.987 135.737 280.444 134.631 278.754C133.564 277.074 132.69 275.278 132.027 273.401C132.642 274.194 133.159 275.019 133.644 275.811C134.129 276.603 134.809 277.347 135.472 278.059C136.716 279.502 138.079 280.839 139.547 282.053C141.054 283.215 142.68 284.213 144.399 285.029C146.065 285.83 147.842 286.375 149.671 286.646L148.846 287.439C149.008 284.123 149.25 280.776 149.671 277.444Z" fill="#1F164C"/>
<path d="M125.526 268.76L130.022 276.441C131.508 278.967 133.128 281.413 134.873 283.767C135.705 284.929 136.642 286.011 137.671 287.002C138.66 287.948 139.856 288.651 141.164 289.055C142.521 289.544 143.925 289.891 145.353 290.09C146.796 290.347 148.277 290.303 149.703 289.961C146.873 291.177 143.702 291.343 140.76 290.43L139.644 290.139C139.288 290.026 138.9 289.816 138.512 289.654C137.795 289.277 137.123 288.821 136.507 288.295C135.356 287.269 134.315 286.126 133.402 284.883C131.621 282.454 130.078 279.86 128.793 277.137C127.473 274.44 126.381 271.638 125.526 268.76Z" fill="#1F164C"/>
<path d="M176.646 324.828L184.99 328.726C187.772 329.971 190.553 331.232 193.383 332.219C194.777 332.742 196.21 333.153 197.669 333.448C199.096 333.766 200.564 333.859 202.019 333.723C203.511 333.706 204.985 333.394 206.356 332.806C207.727 332.218 208.968 331.364 210.008 330.294C209.267 331.688 208.145 332.844 206.774 333.626C205.363 334.402 203.823 334.917 202.229 335.146C200.625 335.433 198.982 335.433 197.378 335.146C195.816 334.867 194.28 334.462 192.785 333.933C189.868 332.851 187.049 331.52 184.359 329.955C181.661 328.446 179.082 326.732 176.646 324.828Z" fill="#1F164C"/>
<path d="M261.483 33.9609C262.615 43.4377 263.585 52.9305 264.507 62.4396C265.429 71.9487 266.238 81.4416 267.111 90.9345L266.157 90.1259C271.946 89.6245 277.752 89.2202 283.558 88.7998L300.975 87.5707C312.586 86.843 324.214 86.1152 335.841 85.6301C324.279 86.94 312.683 88.0073 301.088 89.0747L283.703 90.5302C277.898 90.9991 272.092 91.5005 266.286 91.8886H265.413V91.0153C264.701 81.5062 263.796 71.9972 263.262 62.472C262.728 52.9467 261.984 43.4862 261.483 33.9609Z" fill="#1F164C"/>
<path d="M265.494 31.7612C277.445 30.9041 289.412 30.2411 301.379 29.6104C313.346 28.9796 325.297 28.4945 337.264 27.9932H338.219V28.9635V38.796V39.6369H337.378C326.445 40.1706 315.513 40.8175 304.565 41.2541C293.617 41.6907 282.684 42.1597 271.72 42.4346C282.636 41.4805 293.568 40.6881 304.5 39.9604C315.432 39.2326 326.348 38.5857 337.281 37.8904L336.456 38.7798V28.9473L337.41 29.8529C325.427 30.2572 313.459 30.7747 301.492 31.0982C289.525 31.4216 277.477 31.648 265.494 31.7612Z" fill="#1F164C"/>
<path d="M335.841 44.9248C336.495 50.5446 336.803 56.1992 336.763 61.8568C336.811 67.5145 336.503 73.1696 335.841 78.7887C335.188 73.1689 334.88 67.5143 334.919 61.8568C334.88 56.1992 335.188 50.5446 335.841 44.9248Z" fill="#1F164C"/>
<path d="M227.037 128C233.198 127.046 239.376 126.286 245.57 125.558C251.764 124.83 257.941 124.216 264.135 123.601C270.329 122.987 276.539 122.485 282.749 122.081L292.064 121.466C295.169 121.321 298.274 121.127 301.395 121.046C298.322 121.531 295.234 121.919 292.145 122.356L282.878 123.488C276.701 124.232 270.507 124.846 264.313 125.445C258.119 126.043 251.909 126.561 245.699 126.965C239.489 127.369 233.279 127.757 227.037 128Z" fill="#1F164C"/>
<path d="M227.037 131.752C228.115 141.067 229.107 150.388 230.012 159.713L232.746 187.691L231.856 186.979L269.051 181.578L306.247 176.451L305.6 177.276C304.128 160.829 302.657 144.366 301.427 127.903C303.481 144.285 305.293 160.7 307.104 177.131L307.185 177.842L306.457 177.955L269.262 183.389L232.066 188.548L231.242 188.677V187.836L228.994 159.81C228.282 150.463 227.63 141.11 227.037 131.752Z" fill="#1F164C"/>
<path d="M233.635 137.283C239.554 136.588 245.473 136.086 251.424 135.666C257.375 135.245 263.278 134.841 269.213 134.501C275.148 134.162 281.083 133.903 287.002 133.757L295.913 133.531C298.889 133.531 301.864 133.45 304.84 133.531C301.896 133.903 298.921 134.162 295.961 134.469L287.083 135.197C281.148 135.682 275.213 136.038 269.294 136.377C263.375 136.717 257.424 136.959 251.505 137.105C245.586 137.251 239.586 137.348 233.635 137.283Z" fill="#1F164C"/>
<path d="M275.698 51.7499C279.984 51.5235 284.269 51.3941 288.636 51.2647L301.476 50.9736H302.107L302.236 51.6205L305.843 70.5416L306.004 71.4149L305.147 71.6089L292.064 74.4875C287.714 75.4579 283.348 76.3958 278.965 77.2691L278.237 77.4146V76.7031C277.946 73.3393 277.59 69.9756 277.332 66.6118C277.073 63.2481 276.782 59.8682 276.572 56.5044C277.138 59.8358 277.623 63.1834 278.189 66.5148C278.755 69.8462 279.127 73.21 279.596 76.5575L278.803 76.0077C283.137 74.8918 287.471 73.873 291.741 72.8704L304.791 69.8139L304.096 70.8812L300.781 51.8954L301.525 52.5261L288.684 52.235C284.269 52.1542 279.984 52.0248 275.698 51.7499Z" fill="#1F164C"/>
<path d="M309.966 54.7254C315.254 53.4991 320.753 53.4991 326.041 54.7254C320.753 55.9518 315.254 55.9518 309.966 54.7254Z" fill="#1F164C"/>
<path d="M309.966 64.6874C312.611 64.0341 315.329 63.7243 318.052 63.7656C320.777 63.7079 323.497 64.018 326.138 64.6874C320.85 65.9137 315.351 65.9137 310.063 64.6874H309.966Z" fill="#1F164C"/>
<path d="M271.445 216.072C271.833 221.377 272.011 226.681 272.156 231.969C272.302 237.257 272.35 242.562 272.367 247.866C272.383 253.171 272.367 258.459 272.156 263.763L271.898 271.704C271.752 274.356 271.655 277.008 271.445 279.66C271.235 277.008 271.154 274.356 270.992 271.704L270.733 263.763C270.572 258.459 270.555 253.171 270.523 247.866C270.491 242.562 270.523 237.274 270.749 231.969C270.976 226.665 271.073 221.377 271.445 216.072Z" fill="#1F164C"/>
<path d="M275.698 214.132C289.202 211.997 302.721 210.137 316.241 208.261C329.761 206.385 343.313 204.639 356.881 203.054L357.835 202.957V203.895C358.094 214.116 358.434 224.336 358.563 234.622L358.806 249.952L359.016 265.219L358.126 249.92L357.399 234.589C356.897 224.385 356.574 214.164 356.202 203.96L357.172 204.801C343.652 206.628 330.068 208.035 316.516 209.798C302.964 211.56 289.299 212.87 275.698 214.132Z" fill="#1F164C"/>
<path d="M275.698 279.66C281.86 278.431 288.037 277.396 294.231 276.426C300.425 275.455 306.619 274.534 312.813 273.66C319.007 272.787 325.233 272.043 331.459 271.299L340.806 270.28C343.927 270.005 347.049 269.666 350.186 269.439C347.113 270.07 344.024 270.588 340.936 271.17L331.653 272.787C325.475 273.806 319.265 274.679 313.071 275.552C306.878 276.426 300.651 277.17 294.425 277.914C288.199 278.657 281.957 279.175 275.698 279.66Z" fill="#1F164C"/>
<path d="M275.698 226.778C281.666 225.662 287.649 224.757 293.633 223.884C299.616 223.01 305.616 222.266 311.616 221.49C317.616 220.714 323.632 220.067 329.648 219.501L338.688 218.66C341.712 218.45 344.72 218.175 347.76 218.029C344.768 218.595 341.777 219.048 338.801 219.646L329.826 220.989C323.842 221.894 317.842 222.606 311.842 223.398C305.843 224.191 299.827 224.805 293.795 225.371C287.762 225.937 281.747 226.406 275.698 226.778Z" fill="#1F164C"/>
<path d="M322.969 116.906L325.168 130.992L327.238 145.142C328.629 154.587 329.858 164.047 331.119 173.492L330.246 172.732C336.715 172.613 343.156 172.543 349.571 172.521L368.88 172.408C381.818 172.408 394.642 172.408 407.531 172.78C394.594 173.346 381.786 173.653 368.897 173.977L349.587 174.268C343.119 174.397 336.677 174.467 330.262 174.478H329.486L329.389 173.718C328.241 164.257 327.011 154.797 325.993 145.304L324.375 131.089L322.969 116.906Z" fill="#1F164C"/>
<path d="M333.658 115.208C345.205 113.947 356.784 112.96 368.347 111.974L385.715 110.647C391.505 110.178 397.295 109.79 403.1 109.435H403.99V110.324L404.523 122.89C404.734 127.062 404.831 131.267 404.96 135.455C405.089 139.644 405.251 143.832 405.332 148.021L405.558 160.602L404.556 148.053C404.232 143.881 404.006 139.692 403.715 135.504C403.424 131.315 403.133 127.143 402.939 122.954L402.259 110.405L403.181 111.23C397.392 111.682 391.602 112.119 385.812 112.459L368.428 113.607C356.865 114.157 345.27 114.82 333.658 115.208Z" fill="#1F164C"/>
<path d="M329.777 125.688C335.227 125.17 340.693 124.863 346.159 124.588C351.625 124.313 357.091 124.135 362.557 123.973C368.023 123.812 373.489 123.763 378.956 123.796H387.171C389.904 123.893 392.637 123.909 395.386 124.054C392.653 124.329 389.92 124.491 387.187 124.701L378.988 125.154C373.538 125.445 368.072 125.607 362.59 125.752C357.107 125.898 351.657 125.963 346.191 125.93C340.725 125.898 335.243 125.93 329.777 125.688Z" fill="#1F164C"/>
<path d="M359.016 142.199C359.113 145.029 359.323 147.73 359.469 150.285C359.614 152.84 359.808 155.347 359.841 157.821L358.692 157.061C363.172 155.024 367.716 153.099 372.293 151.239L372.115 152.727C369.98 151.11 367.91 149.493 365.776 147.665C363.641 145.838 361.328 144.075 359.016 142.199ZM359.016 142.199L365.856 146.566C368.25 148.086 370.708 149.671 373.118 151.417L374.331 152.274L372.956 152.889C368.439 154.916 363.9 156.84 359.339 158.662L358.175 159.115V157.837C358.175 155.104 358.401 152.371 358.547 149.751C358.692 147.132 358.838 144.593 359.016 142.199Z" fill="#1F164C"/>
<path d="M245.699 168.446C246.508 169.837 247.236 171.26 247.996 172.667L247.608 172.441C250.917 172.042 254.233 171.713 257.553 171.454C260.868 171.179 264.184 170.985 267.515 170.824C274.162 170.516 280.808 170.355 287.487 170.629C280.873 171.648 274.243 172.247 267.612 172.635C264.378 172.845 260.965 173.007 257.65 173.104C254.335 173.201 250.987 173.249 247.656 173.217H247.43L247.349 172.974C246.75 171.422 246.184 169.983 245.699 168.446Z" fill="#1F164C"/>
<path d="M250.551 166.133C256.348 165.359 262.185 164.921 268.033 164.824C273.876 164.654 279.724 164.833 285.547 165.357C273.941 166.844 262.211 167.105 250.551 166.133Z" fill="#1F164C"/>
<path d="M250.551 145.919C259.909 143.455 269.546 142.205 279.224 142.199C274.56 143.47 269.808 144.394 265.008 144.965C260.219 145.631 255.387 145.95 250.551 145.919Z" fill="#1F164C"/>
<path d="M253.704 157.093C258.375 155.829 263.131 154.904 267.936 154.328C272.72 153.658 277.547 153.345 282.377 153.39C273.016 155.838 263.38 157.083 253.704 157.093Z" fill="#1F164C"/>
<path d="M302.98 235.398C312.341 232.949 321.977 231.705 331.653 231.694C322.291 234.143 312.656 235.387 302.98 235.398Z" fill="#1F164C"/>
<path d="M291.983 249.726C298.824 248.108 305.762 246.96 312.699 245.974C319.637 244.987 326.607 244.357 333.723 244.065C326.882 245.683 319.944 246.831 313.007 247.801C306.069 248.771 299.034 249.499 291.983 249.726Z" fill="#1F164C"/>
<path d="M292.113 260.561C298.953 258.943 305.875 257.795 312.813 256.825C319.75 255.855 326.737 255.127 333.836 254.9C326.979 256.518 320.058 257.682 313.12 258.652C306.182 259.623 299.18 260.366 292.113 260.561Z" fill="#1F164C"/>
<path d="M196.812 388.901C243.121 388.901 280.663 384.383 280.663 378.81C280.663 373.237 243.121 368.719 196.812 368.719C150.502 368.719 112.96 373.237 112.96 378.81C112.96 384.383 150.502 388.901 196.812 388.901Z" fill="#C9C0F6"/>
<path d="M280.905 378.81C280.805 379.287 280.593 379.734 280.286 380.113C279.98 380.493 279.588 380.794 279.143 380.993C278.357 381.439 277.534 381.818 276.685 382.125C274.991 382.719 273.262 383.21 271.51 383.597C268.016 384.405 264.491 385.02 260.949 385.537C253.882 386.605 246.783 387.381 239.651 387.995C225.404 389.289 211.108 389.904 196.812 390.114C182.516 390.324 168.187 389.952 153.875 389.047C146.727 388.594 139.579 387.995 132.448 387.041C128.874 386.572 125.3 386.006 121.726 385.198C119.905 384.809 118.111 384.301 116.357 383.677C115.4 383.345 114.475 382.928 113.591 382.432C113.054 382.12 112.559 381.74 112.12 381.3C111.451 380.638 111.053 379.75 111.004 378.81C111.045 377.862 111.437 376.963 112.103 376.287C112.537 375.844 113.027 375.458 113.559 375.139C114.434 374.62 115.354 374.182 116.308 373.829C118.062 373.176 119.855 372.636 121.677 372.212C125.251 371.338 128.809 370.708 132.383 370.158C139.515 369.058 146.663 368.33 153.827 367.732C160.991 367.134 168.139 366.778 175.303 366.535C182.467 366.293 189.647 366.26 196.812 366.293C211.14 366.422 225.452 367.312 239.716 368.832C246.831 369.576 253.947 370.449 261.014 371.71C264.539 372.292 268.065 372.972 271.542 373.845C273.295 374.271 275.018 374.811 276.701 375.462C277.558 375.778 278.386 376.167 279.175 376.627C279.608 376.839 279.988 377.145 280.287 377.522C280.587 377.9 280.798 378.34 280.905 378.81ZM280.42 378.81C280.42 378.066 279.612 377.484 278.803 377.047C278.036 376.631 277.235 376.28 276.41 375.996C274.737 375.416 273.031 374.941 271.299 374.573C267.822 373.813 264.281 373.327 260.755 372.956C253.672 372.147 246.556 371.759 239.441 371.468C232.325 371.177 225.193 371.128 218.078 371.112C210.962 371.096 203.846 371.112 196.731 371.193C189.615 371.274 182.5 371.354 175.384 371.613C168.268 371.872 161.169 372.098 154.086 372.567C147.002 373.036 139.919 373.586 132.917 374.508C129.423 374.961 125.93 375.511 122.55 376.255C120.907 376.606 119.286 377.06 117.699 377.613C116.969 377.868 116.26 378.182 115.58 378.551C115.355 378.693 115.139 378.85 114.933 379.02C114.772 379.166 114.933 379.117 114.933 378.858C114.933 378.6 114.82 378.551 114.933 378.697C115.126 378.891 115.344 379.06 115.58 379.198C116.251 379.587 116.955 379.917 117.683 380.184C119.268 380.771 120.888 381.257 122.534 381.64C125.914 382.481 129.391 383.079 132.884 383.613C139.887 384.664 146.97 385.376 154.053 385.958C168.252 387.09 182.5 387.575 196.763 387.737C211.027 387.898 225.274 387.737 239.538 387.025C246.653 386.588 253.769 386.055 260.836 385.117C264.378 384.615 267.903 384.066 271.364 383.241C273.121 382.822 274.849 382.292 276.539 381.656C277.362 381.353 278.157 380.98 278.916 380.54C279.628 380.152 280.372 379.537 280.42 378.81Z" fill="#1F164C"/>
<path d="M145.87 69.6844C142.616 69.8474 139.392 70.3902 136.264 71.3016C133.189 72.1533 130.254 73.4441 127.548 75.1343L125.655 76.5089C125.073 77.0102 124.523 77.5763 124.038 78.1261C123.463 78.6277 122.923 79.168 122.421 79.7433C121.877 80.2758 121.374 80.8488 120.917 81.4575C118.925 83.9725 117.192 86.6814 115.742 89.5434H115.419C115.419 88.6863 115.516 87.8454 115.597 86.9883L115.758 85.6945C115.852 85.2728 115.971 84.857 116.114 84.4493C116.373 83.6084 116.696 82.8321 116.987 81.975C117.278 81.1179 117.861 80.4549 118.297 79.6786C120.321 76.7937 123.072 74.4951 126.27 73.0158C129.328 71.467 132.597 70.3772 135.973 69.7814C139.267 69.2141 142.621 69.0728 145.951 69.3609L145.87 69.6844Z" fill="#C9C0F6"/>
<path d="M154.247 76.3955C157.148 77.8835 159.961 79.5357 162.673 81.3441L166.651 83.9316C167.977 84.8534 169.352 85.662 170.743 86.794C167.26 87.0253 163.801 86.0737 160.926 84.0933C159.484 83.1943 158.167 82.1066 157.013 80.8589C155.813 79.5626 154.874 78.0472 154.247 76.3955Z" fill="#C9C0F6"/>
<path d="M113.333 103.5C113.995 104.722 114.408 106.063 114.545 107.446C114.693 108.805 114.639 110.178 114.384 111.521C114.119 112.923 113.568 114.255 112.767 115.435C112.389 116.077 111.875 116.627 111.259 117.046C110.644 117.466 109.944 117.744 109.209 117.861C109.821 116.776 110.242 115.595 110.454 114.368C110.713 113.235 110.939 112.087 111.149 110.907C111.36 109.726 111.635 108.513 111.942 107.284C112.287 105.982 112.752 104.715 113.333 103.5Z" fill="#C9C0F6"/>
<path d="M174.656 203.766C179.067 206.415 183.297 209.354 187.319 212.563C191.378 215.717 195.243 219.032 199.011 222.638C202.747 226.21 206.237 230.03 209.458 234.072L211.852 237.241C212.579 238.325 213.242 239.457 213.938 240.557C214.633 241.656 215.102 242.902 215.668 244.066C216.136 245.272 216.52 246.51 216.816 247.769L215.862 246.152C215.584 245.584 215.254 245.043 214.876 244.535C214.099 243.516 213.453 242.449 212.612 241.495C211.771 240.54 210.994 239.538 210.186 238.584L207.631 235.786C204.121 232.131 200.547 228.557 196.86 225.048L185.782 214.536C182.031 210.994 178.311 207.469 174.656 203.766Z" fill="#C9C0F6"/>
<path d="M11.1748 132.722C12.8848 132.322 14.6278 132.078 16.3821 131.995C18.1196 131.96 19.8576 132.014 21.5895 132.156C25.0503 132.302 28.5272 132.496 31.988 132.722V132.884C28.5272 133.127 25.0503 133.304 21.5895 133.45C19.8576 133.593 18.1196 133.647 16.3821 133.612C14.6271 133.536 12.8833 133.292 11.1748 132.884V132.722Z" fill="#C9C0F6"/>
<path d="M139.725 185.977C139.822 189.551 139.628 193.044 139.531 196.521C139.434 199.998 139.321 203.442 139.531 207.016C138.821 205.364 138.363 203.614 138.173 201.825C137.96 200.049 137.884 198.26 137.946 196.472C138.002 194.694 138.181 192.922 138.48 191.168C138.732 189.402 139.149 187.664 139.725 185.977Z" fill="#C9C0F6"/>
<path d="M202.262 191.41C204.625 193.276 206.758 195.414 208.617 197.782C209.561 198.948 210.436 200.169 211.237 201.437C212.082 202.694 212.777 204.045 213.307 205.464C211.208 203.342 209.222 201.113 207.356 198.785C205.451 196.476 203.747 194.009 202.262 191.41Z" fill="#C9C0F6"/>
</svg>
