<?xml version="1.0" encoding="utf-8" ?>
<svg xmlns="http://www.w3.org/2000/svg" xmlns:xlink="http://www.w3.org/1999/xlink" width="1024" height="1024">
	<path fill="#FEFEFE" d="M0 0L1024 0L1024 1024L0 1024L0 0Z"/>
	<path fill="#C84F3F" d="M256.556 569.729C256.602 577.936 255.024 588.639 260.093 595.624C262.746 599.28 266.867 601.319 271.274 601.959Q271.994 602.065 272.72 602.113Q273.445 602.161 274.173 602.149Q274.9 602.138 275.624 602.067Q276.348 601.996 277.064 601.867Q277.78 601.738 278.483 601.551Q279.186 601.364 279.872 601.121Q280.557 600.877 281.221 600.579Q281.884 600.28 282.521 599.929C288.141 596.836 292.835 591.09 297.294 586.575C307.709 576.03 317.965 564.064 329.714 555.005L329.923 556.596C322.591 564.132 314.926 571.367 307.515 578.833C300.55 585.849 292.696 595.559 284.57 600.864C281.654 602.769 278.353 603.89 274.857 604.006Q274.367 604.022 273.877 604.014Q273.388 604.005 272.899 603.972Q272.41 603.94 271.923 603.883Q271.437 603.826 270.953 603.745Q270.47 603.664 269.992 603.559Q269.513 603.454 269.04 603.325Q268.567 603.196 268.102 603.044Q267.636 602.892 267.178 602.717Q266.721 602.542 266.272 602.345Q265.824 602.147 265.386 601.928Q264.948 601.708 264.521 601.467Q264.095 601.226 263.68 600.964Q263.266 600.703 262.866 600.42Q262.465 600.138 262.079 599.836Q261.693 599.535 261.323 599.214Q260.952 598.894 260.598 598.555C256.399 594.476 254.773 589.352 254.801 583.615C254.821 579.579 255.079 575.546 255.072 571.51Q228.154 571.331 201.235 571.498L201.196 583.117L200.683 584.37L200.031 583.956C199.384 579.549 200.109 574.812 199.968 570.337L199.946 569.748Q228.251 569.528 256.556 569.729Z"/>
	<defs>
		<linearGradient id="gradient_0" gradientUnits="userSpaceOnUse" x1="458.23834" y1="166.15398" x2="414.16388" y2="143.03242">
			<stop offset="0" stop-color="#5C9F7E"/>
			<stop offset="1" stop-color="#78B9A5"/>
		</linearGradient>
	</defs>
	<path fill="url(#gradient_0)" d="M479.394 117.21C480.825 117.1 482.331 116.867 483.738 117.221C484.558 117.427 484.31 117.411 484.768 118.259L484.417 119.073C483.282 119.921 470.17 120.673 466.989 121.529C449.027 126.363 432.783 137.722 425.251 155.176C422.471 161.619 421.047 168.55 417.482 174.655C411.815 184.359 403.963 189.469 393.23 192.322C391.423 192.709 390.072 192.805 388.244 192.507L387.836 191.836C389.387 189.229 397.156 188.362 400.134 186.947Q401.64 186.24 403.069 185.389Q404.499 184.537 405.837 183.549Q407.176 182.561 408.41 181.446Q409.645 180.331 410.764 179.1C417.545 171.612 418.856 163.184 422.595 154.224C424.868 148.779 428.257 143.767 432.122 139.33C444.444 125.185 460.967 118.425 479.394 117.21Z"/>
	<path fill="#9B9C9C" d="M907.623 481.783C912.567 480.433 921.12 479.392 925.841 481.543L925.576 482.091C920.681 483.397 913.948 483.491 908.833 483.465C891.009 487.432 876.944 494.317 866.892 510.088C864.575 513.722 862.642 517.506 860.86 521.424Q857.391 530.631 854.82 540.127C851.621 551.907 850.049 568.371 840.707 577.086C840.645 577.213 840.597 577.348 840.521 577.467C837.434 582.305 828.261 586.568 822.912 588.17C821.367 588.633 820.196 588.901 818.768 588.095L818.691 587.284C820.352 585.762 823.88 585.428 826.049 584.533C831.418 582.318 835.636 579.126 839.66 574.99C851.037 559.817 850.913 539.179 858.314 522.152C860.485 515.366 864.755 508.426 869.184 502.887Q870.067 501.793 871.002 500.742Q871.937 499.692 872.922 498.689Q873.906 497.686 874.939 496.732Q875.972 495.778 877.05 494.875Q878.128 493.972 879.249 493.123Q880.369 492.274 881.53 491.481Q882.691 490.687 883.889 489.951Q885.087 489.216 886.319 488.539Q887.552 487.862 888.816 487.246Q890.08 486.631 891.372 486.077Q892.665 485.524 893.983 485.034Q895.301 484.544 896.641 484.119Q897.981 483.694 899.34 483.335Q900.7 482.976 902.075 482.683Q903.45 482.391 904.838 482.165Q906.226 481.94 907.623 481.783Z"/>
	<path fill="#C76058" d="M127.174 432.788C128.453 433.208 128.648 433.027 129.954 432.611C125.347 437.37 116.97 443.173 117.019 450.398C117.046 454.406 118.153 458.541 121.221 461.284C128.31 467.62 142.016 465.306 150.922 465.527Q150.437 494.746 150.856 523.965C142.3 523.86 127.644 521.652 121.191 527.897C118.628 530.378 117.411 533.819 117.38 537.346C117.349 540.73 118.405 543.967 120.257 546.784C122.991 550.946 127.039 554.427 130.563 557.925C137.997 565.304 145.975 572.559 152.873 580.427C154.353 581.496 155.689 583.225 156.989 584.553C163.114 590.815 170.74 600.61 179.797 602.011C184.361 602.716 189.621 601.29 193.283 598.493C202.712 591.293 198.225 580.092 199.865 570.192C199.89 570.044 199.919 569.896 199.946 569.748L199.968 570.337C200.109 574.812 199.384 579.549 200.031 583.956L200.683 584.37L201.196 583.117C201.225 583.341 201.27 583.564 201.285 583.789C201.625 588.832 200.459 594.043 197.053 597.91C193.717 601.697 188.629 604.281 183.552 604.344C170.825 604.502 159.549 589.422 151.345 581.033L131.234 561.029C126.911 556.739 121.476 552.261 118.16 547.136Q117.57 546.208 117.112 545.209Q116.653 544.21 116.333 543.159Q116.014 542.107 115.84 541.021Q115.666 539.936 115.64 538.837C115.505 534.65 116.749 529.965 119.678 526.865C126.018 520.156 140.157 522.011 148.787 521.998C149.7 503.827 149.013 485.328 149.02 467.122C143.734 466.928 138.428 467.301 133.143 467.076C127.861 466.85 122.359 465.357 118.753 461.243C116.101 458.218 115.058 454.011 115.389 450.052C116.008 442.652 121.867 437.314 127.174 432.788Z"/>
	<path fill="#9B9C9C" d="M337.805 163.655C338.511 163.551 339.225 163.544 339.938 163.512C343.546 163.35 352.777 162.249 355.335 164.589C353.759 166.625 346.076 166.136 343.437 166.203C331.189 166.515 321.028 170.02 310.797 176.9L310.235 177.283C298.008 185.722 289.975 197.068 284.942 211.014C280.6 223.047 278.154 234.875 268.411 243.957C253.234 258.104 229.287 252.551 214.585 264.85C205.23 272.675 204.225 283.605 203.117 294.878C202.893 299.056 203.77 305.589 201.369 309.124L200.689 308.892C200.472 308.208 200.291 307.576 200.184 306.865C199.213 300.467 200.206 291.963 201.189 285.57C207.656 243.509 246.631 261.667 267.066 241.646C276.568 232.336 278.58 220.047 283.068 208.143C285.414 201.92 288.708 195.749 292.64 190.384C303.542 175.509 319.677 166.363 337.805 163.655Z"/>
	<path fill="#C84F3F" d="M127.174 432.788C136.364 423.393 145.856 414.267 155.173 404.995C160.51 399.684 166.035 392.793 172.276 388.713C175.035 386.91 178.645 386.086 181.909 386.081C187.084 386.074 192.746 387.763 196.43 391.536C203.011 398.274 201.228 409.291 201.303 417.884L254.974 417.6C254.892 408.833 253.732 398.932 260.312 392.009C263.918 388.215 269.219 386.122 274.428 386.195C278.256 386.249 281.549 387.603 284.618 389.835C293.093 396 302.254 407.463 309.829 415.202C318.014 423.565 326.84 431.263 334.823 439.829C338.449 443.72 341.35 447.671 341.072 453.248C340.879 457.108 339.258 460.951 336.288 463.485C329.472 469.301 315.494 466.595 306.931 466.981L306.836 522.32C316.999 522.413 332.798 520.081 340.338 528.034C341.328 529.078 342.193 530.216 343.006 531.399L341.113 531.457C340.653 530.81 340.166 530.23 339.602 529.67C331.563 521.679 315.677 523.964 305.063 523.998C304.594 504.401 305.152 484.707 305.215 465.099C313.283 464.949 328.365 467.32 334.853 462.305C337.45 460.298 339.01 456.92 339.24 453.68C339.566 449.104 337.271 445.33 334.331 442.037C326.653 433.436 317.779 425.847 309.7 417.636C302.341 410.155 291.147 396.724 283.145 391.098C280.448 389.202 277.447 387.968 274.13 387.834C269.473 387.647 265.035 389.647 261.779 392.934C255.056 399.723 256.583 410.74 256.662 419.469C237.619 419.725 218.552 419.53 199.506 419.532C199.615 411.235 201.219 399.748 195.224 393.101C192.291 389.85 187.845 387.856 183.489 387.681C179.746 387.531 176.18 388.571 173.021 390.564C167.706 393.918 163.358 399.324 158.92 403.724C149.252 413.312 139.765 423.184 129.954 432.611C128.648 433.027 128.453 433.208 127.174 432.788Z"/>
	<path fill="#9B9C9C" d="M757.027 411.674C757.103 410.367 757.197 410.05 758.041 408.981C763.976 401.454 772.224 394.773 779.083 388.043C785.708 381.543 791.877 374.462 798.811 368.299C800.004 367.238 801.252 366.279 802.547 365.346C813.015 377.841 826.031 388.936 837.446 400.621C840.591 403.842 844.296 406.819 846.989 410.424C838.593 417.169 831.026 425.708 823.434 433.362C816.868 439.916 808.784 450.383 801.85 455.628C791.129 445.689 780.798 434.936 770.442 424.588C766.309 420.458 761.83 414.847 757.027 411.674Z"/>
	<path fill="#FEFEFE" d="M759.862 410.816C762.892 406.437 767.579 402.653 771.287 398.81C781.373 388.356 791.558 378.114 801.919 367.933C811.73 377.396 821.509 386.964 831.109 396.643C835.354 400.923 840.513 405.342 843.856 410.338C836.735 417.87 829.247 425.079 821.89 432.38C814.741 438.358 808.223 446.018 801.552 452.605C795.962 446.608 789.746 440.99 783.965 435.149C775.932 427.034 768.198 418.63 759.862 410.816Z"/>
	<path fill="#C84F3F" d="M684.42 123.208C695.123 122.777 704.949 126.075 713.192 132.918Q714.031 133.617 714.833 134.356Q715.636 135.096 716.401 135.874Q717.166 136.653 717.892 137.469Q718.618 138.284 719.302 139.135Q719.986 139.985 720.627 140.868Q721.268 141.752 721.865 142.666Q722.461 143.58 723.012 144.523Q723.562 145.465 724.065 146.434Q724.568 147.403 725.022 148.396Q725.476 149.388 725.881 150.402Q726.285 151.416 726.639 152.448Q726.992 153.481 727.294 154.53Q727.596 155.579 727.846 156.642Q728.095 157.704 728.292 158.778Q728.488 159.852 728.631 160.934Q728.774 162.016 728.863 163.104C729.868 174.751 726.626 186.26 718.999 195.201C710.417 205.263 699.135 209.84 686.191 210.875C675.443 210.96 665.358 207.896 657.02 200.955Q656.209 200.274 655.432 199.554Q654.655 198.834 653.915 198.076Q653.175 197.319 652.473 196.526Q651.771 195.733 651.109 194.906Q650.447 194.079 649.827 193.22Q649.207 192.362 648.63 191.474Q648.053 190.586 647.52 189.67Q646.987 188.755 646.501 187.814Q646.014 186.873 645.574 185.91Q645.134 184.946 644.743 183.962Q644.351 182.978 644.008 181.976Q643.666 180.974 643.373 179.956Q643.08 178.938 642.838 177.907Q642.596 176.876 642.405 175.834Q642.214 174.792 642.075 173.742Q641.935 172.693 641.848 171.637Q641.744 170.527 641.696 169.413Q641.648 168.299 641.656 167.184Q641.664 166.069 641.728 164.955Q641.792 163.842 641.912 162.733Q642.031 161.625 642.207 160.524Q642.382 159.422 642.612 158.331Q642.842 157.24 643.127 156.162Q643.411 155.084 643.75 154.021Q644.088 152.959 644.479 151.915Q644.87 150.87 645.313 149.847Q645.756 148.824 646.25 147.824Q646.744 146.824 647.287 145.85Q647.831 144.877 648.422 143.931Q649.014 142.986 649.652 142.072Q650.29 141.157 650.973 140.276Q651.656 139.395 652.383 138.549C660.639 128.957 671.948 124.089 684.42 123.208Z"/>
	<path fill="#FEFEFE" d="M680.763 125.15Q681.668 125.045 682.576 124.981Q683.485 124.916 684.396 124.892Q685.306 124.868 686.217 124.884Q687.128 124.9 688.037 124.956Q688.946 125.012 689.852 125.109Q690.757 125.205 691.658 125.341Q692.559 125.478 693.452 125.654Q694.346 125.83 695.231 126.045Q696.116 126.26 696.991 126.515Q697.865 126.769 698.728 127.062Q699.59 127.354 700.439 127.685Q701.288 128.015 702.121 128.383Q702.955 128.751 703.771 129.155Q704.587 129.559 705.385 129.999Q706.183 130.439 706.96 130.914Q707.737 131.388 708.493 131.897Q709.368 132.482 710.212 133.11Q711.056 133.738 711.868 134.407Q712.68 135.076 713.457 135.785Q714.235 136.494 714.976 137.241Q715.717 137.988 716.42 138.771Q717.123 139.554 717.786 140.371Q718.449 141.188 719.07 142.037Q719.691 142.886 720.27 143.765Q720.848 144.644 721.381 145.551Q721.915 146.458 722.402 147.39Q722.89 148.322 723.33 149.278Q723.771 150.233 724.163 151.21Q724.555 152.186 724.898 153.181Q725.241 154.175 725.534 155.186Q725.827 156.196 726.069 157.22Q726.311 158.244 726.502 159.279C728.513 170.297 726.33 181.689 719.911 190.928C712.72 201.277 702.404 206.752 690.201 208.87C679.569 209.963 669.163 207.548 660.449 201.266Q659.638 200.681 658.858 200.056Q658.077 199.432 657.328 198.77Q656.579 198.108 655.863 197.409Q655.147 196.711 654.467 195.979Q653.787 195.246 653.144 194.481Q652.5 193.716 651.895 192.92Q651.29 192.124 650.725 191.299Q650.16 190.474 649.637 189.622Q649.113 188.771 648.632 187.894Q648.151 187.018 647.714 186.119Q647.276 185.22 646.884 184.3Q646.491 183.381 646.145 182.443Q645.798 181.505 645.498 180.552Q645.198 179.598 644.945 178.631Q644.692 177.664 644.487 176.685Q644.282 175.706 644.126 174.719C642.245 163.169 644.76 151.977 651.649 142.49C658.647 132.851 669.054 126.929 680.763 125.15Z"/>
	<path fill="#B3DDD3" d="M482.093 198.616C485.683 197.909 487.745 197.76 490.919 199.664C496.024 202.813 526.109 232.861 527.278 237.889C528.279 242.193 526.793 246.645 524.391 250.188C523.616 251.33 522.53 252.54 521.135 252.876C520.99 252.911 520.838 252.908 520.689 252.925C516.578 253.974 511.969 253.861 507.737 253.991C507.638 263.577 508.043 273.395 507.592 282.957C507.702 284.752 507.487 286.613 508.533 288.096C514.983 289.516 521.5 286.207 526.305 294.159C527.923 296.838 528.019 299.848 527.136 302.791C526.637 304.453 525.895 305.545 524.808 306.901C520.633 312.105 495.343 338.112 490.956 340.553C487.404 342.529 483.622 342.255 479.748 341.878C476.527 339.748 474.497 337.779 473.619 333.898C472.871 330.592 473.354 326.606 473.524 323.229C464.425 322.816 449.912 322.715 441.005 323.582C441.988 327.738 442.113 332.961 439.911 336.745C438.357 339.416 435.754 341.246 432.752 341.937C430.451 342.466 427.993 342.361 425.717 341.775C419.922 340.274 400.643 319.041 395.435 313.414C393.137 311.676 390.734 309.685 389.107 307.281C387.026 304.207 385.853 300.416 386.766 296.723C387.662 293.102 390.09 290.963 393.119 289.056C397.085 287.628 402.966 288.435 407.174 288.525C407.765 277.216 407.497 265.821 407.492 254.498C401.222 254.521 395.906 255.045 390.551 251.144C390.435 251.036 390.317 250.928 390.202 250.818C387.623 248.347 386.298 245.594 386.335 241.982C386.357 239.922 386.789 237.591 387.809 235.779C392.198 227.98 406.819 214.501 413.609 207.604C418.076 203.066 422.691 197.925 429.636 198.09C432.448 198.157 434.918 199.385 436.779 201.479C441.349 206.622 440.555 213.626 440.274 219.962C450.974 220.001 462.554 220.871 473.133 219.424C473.104 214.957 472.512 209.419 474.344 205.261C475.856 201.827 478.728 199.969 482.093 198.616Z"/>
	<path fill="#FEFEFE" d="M483.013 200.257C485.283 200.041 487.052 199.985 489.134 201.007C495.01 205.84 524.527 233.941 525.014 239.478C525.17 241.254 525.057 243.086 524.949 244.864C523.665 246.964 522.405 248.454 520.631 250.142C520.219 250.533 519.822 250.944 519.418 251.344C514.839 251.722 510.237 251.566 505.647 251.504L506.074 258.235Q505.933 274.355 505.981 290.475C511.749 290.358 518.539 289.749 523.168 293.915C524.425 295.046 525.153 296.511 525.234 298.207C525.47 303.14 521.35 307.33 518.138 310.589C513.525 315.27 508.743 319.787 504.157 324.494C499.948 328.813 495.794 333.994 490.843 337.467C488.873 338.85 486.567 339.874 484.126 339.914C481.917 339.95 479.642 339.102 478.058 337.542C474.483 334.022 475.526 326.574 475.428 321.906C470.961 320.936 443.658 320.554 439.78 321.909C439.639 322.394 439.429 322.936 439.372 323.436C439.516 328.213 440.349 333.178 436.747 336.935C435.384 338.356 433.595 339.327 431.85 340.199C430.089 340.164 427.97 340.294 426.344 339.578C420.206 336.876 401.141 315.982 394.661 309.942Q394.143 309.413 393.643 308.867C391.15 306.157 388.366 303.031 388.711 299.056C389.035 295.323 391.651 292.96 394.398 290.784C399.148 289.657 404.586 290.294 409.446 290.467C409.226 277.765 409.957 264.795 409.09 252.144C403.116 251.989 396.665 253.807 391.617 249.784C390.12 247.79 388.853 245.642 388.547 243.122C388.094 239.396 389.868 236.907 392.068 234.138C397.572 227.21 404.247 221.215 410.43 214.907C414.6 210.652 418.652 205.432 423.417 201.871C424.496 201.065 425.596 200.681 426.93 200.555C429.838 200.281 432.844 201.042 435.031 203.05C439.215 206.893 438.324 216.587 438.524 221.84C442.316 222.157 472.852 222.233 474.905 221.51L475.57 219.594C474.771 215.638 474.664 209.693 476.291 205.957C477.654 202.826 479.954 201.472 483.013 200.257Z"/>
	<path fill="#FEFEFE" d="M129.954 432.611C139.765 423.184 149.252 413.312 158.92 403.724C163.358 399.324 167.706 393.918 173.021 390.564C176.18 388.571 179.746 387.531 183.489 387.681C187.845 387.856 192.291 389.85 195.224 393.101C201.219 399.748 199.615 411.235 199.506 419.532C218.552 419.53 237.619 419.725 256.662 419.469C256.583 410.74 255.056 399.723 261.779 392.934C265.035 389.647 269.473 387.647 274.13 387.834C277.447 387.968 280.448 389.202 283.145 391.098C291.147 396.724 302.341 410.155 309.7 417.636C317.779 425.847 326.653 433.436 334.331 442.037C337.271 445.33 339.566 449.104 339.24 453.68C339.01 456.92 337.45 460.298 334.853 462.305C328.365 467.32 313.283 464.949 305.215 465.099C305.152 484.707 304.594 504.401 305.063 523.998C315.677 523.964 331.563 521.679 339.602 529.67C340.166 530.23 340.653 530.81 341.113 531.457L323.073 531.498C324.798 538.46 326.818 548.619 329.714 555.005C317.965 564.064 307.709 576.03 297.294 586.575C292.835 591.09 288.141 596.836 282.521 599.929Q281.884 600.28 281.221 600.579Q280.557 600.877 279.872 601.121Q279.186 601.364 278.483 601.551Q277.78 601.738 277.064 601.867Q276.348 601.996 275.624 602.067Q274.9 602.138 274.173 602.149Q273.445 602.161 272.72 602.113Q271.994 602.065 271.274 601.959C266.867 601.319 262.746 599.28 260.093 595.624C255.024 588.639 256.602 577.936 256.556 569.729Q228.251 569.528 199.946 569.748C199.919 569.896 199.89 570.044 199.865 570.192C198.225 580.092 202.712 591.293 193.283 598.493C189.621 601.29 184.361 602.716 179.797 602.011C170.74 600.61 163.114 590.815 156.989 584.553C155.689 583.225 154.353 581.496 152.873 580.427C145.975 572.559 137.997 565.304 130.563 557.925C127.039 554.427 122.991 550.946 120.257 546.784C118.405 543.967 117.349 540.73 117.38 537.346C117.411 533.819 118.628 530.378 121.191 527.897C127.644 521.652 142.3 523.86 150.856 523.965Q150.437 494.745 150.922 465.527C142.016 465.306 128.31 467.62 121.221 461.284C118.153 458.541 117.046 454.406 117.019 450.398C116.97 443.173 125.347 437.37 129.954 432.611Z"/>
	<path d="M612.895 476.287C604.792 462.843 599.852 450.127 603.837 434.219Q604.105 433.19 604.423 432.176Q604.741 431.162 605.109 430.164Q605.477 429.167 605.893 428.189Q606.309 427.211 606.773 426.254Q607.238 425.298 607.748 424.365Q608.259 423.433 608.815 422.527Q609.371 421.621 609.971 420.743Q610.571 419.866 611.213 419.019Q611.855 418.172 612.539 417.357Q613.222 416.543 613.945 415.763Q614.667 414.984 615.427 414.241Q616.187 413.497 616.983 412.793Q617.779 412.088 618.609 411.423Q619.438 410.758 620.299 410.135Q621.161 409.512 622.052 408.932Q622.943 408.352 623.861 407.817C633.555 402.111 645.155 400.154 656.079 403.069C666.844 405.941 676.578 413.324 682.089 423.034C688.015 433.474 689.32 446.907 686.053 458.409C683.85 466.164 679.418 472.398 673.733 478C699.597 486.627 720.165 500.031 732.626 525.175C741.691 543.468 744.051 566.938 745.548 587.247C761.288 603.139 764.18 613.227 764.141 635.179C764.124 644.966 764.02 654.792 764.304 664.574L830.234 664.542C839.594 664.518 853.241 663.485 862.148 664.834C865.655 665.365 868.992 666.726 871.533 669.261C874.387 672.108 875.5 675.83 875.455 679.794C875.409 683.755 874.156 687.584 871.201 690.328C869.045 692.331 866.243 693.604 863.373 694.18C858.413 695.176 852.816 694.775 847.767 694.81L821.891 694.946Q821.359 798.437 821.977 901.922C831.899 901.925 919.825 901.194 921.859 902.447C922.337 903.553 922.394 903.487 921.982 904.607C920.407 905.451 918.189 905.333 916.423 905.381C894.087 905.995 870.255 905.382 847.764 905.391L692.017 905.19L114.994 905.291L114.191 904.747C114.071 903.591 114.023 903.434 114.551 902.415C122.344 900.807 137.933 902.027 146.49 902.024L227.892 902.056Q228.544 798.398 227.754 694.74C219.385 694.793 206.758 696.766 200.372 690.341C197.593 687.544 195.723 683.513 195.813 679.542Q195.839 678.735 195.945 677.934Q196.052 677.133 196.238 676.347Q196.425 675.561 196.689 674.798Q196.953 674.034 197.293 673.301Q197.633 672.568 198.044 671.873Q198.456 671.178 198.935 670.527Q199.414 669.877 199.956 669.278Q200.498 668.679 201.097 668.137C203.295 666.154 205.692 665.082 208.599 664.656C213.823 663.889 219.542 664.226 224.82 664.207L252.246 664.131C288.622 664.056 325.032 664.718 361.403 664.143C350.505 628.444 340.438 592.417 329.923 556.596L329.714 555.005C326.818 548.619 324.798 538.46 323.073 531.498L341.113 531.457L343.006 531.399C395.388 532.303 447.862 530.545 500.23 531.683C504.275 545.424 507.768 559.272 511.241 573.164C513.277 581.31 515.593 589.522 517.11 597.776Q524.943 574.385 533.796 551.36C536.735 543.626 539.104 535.529 542.58 528.031Q543.411 526.274 544.315 524.554Q545.219 522.833 546.194 521.152Q547.169 519.471 548.214 517.832Q549.259 516.193 550.371 514.599Q551.483 513.005 552.662 511.459Q553.84 509.914 555.081 508.419Q556.323 506.923 557.627 505.482Q558.93 504.04 560.292 502.654Q561.655 501.268 563.074 499.94Q564.494 498.612 565.967 497.345Q567.441 496.078 568.966 494.873Q570.492 493.669 572.066 492.53Q573.641 491.39 575.261 490.318Q576.882 489.245 578.547 488.241Q580.211 487.237 581.916 486.304Q583.621 485.371 585.363 484.51C594.275 480.169 603.073 477.523 612.895 476.287Z"/>
	<path fill="#B3DDD3" d="M565.788 695.512L576.662 695.58L576.66 705.631L565.85 705.646L565.788 695.512Z"/>
	<path fill="#FEFEFE" d="M562.332 642.363C563.608 648.282 562.643 658.932 562.598 665.377L547.669 665.337C547.658 665.297 547.635 665.258 547.636 665.217C547.691 662.231 559.739 645.909 562.332 642.363Z"/>
	<path fill="#FEFEFE" d="M474.689 628.223C478.58 628.133 482.311 628.396 486.165 628.91C480.629 631.021 475.265 632.519 470.33 635.939C459.802 643.237 456.706 653.051 454.465 665.09L440.61 665.078L428.762 665.182C430.424 656.63 433.73 648.959 439.671 642.483C448.726 632.614 461.667 628.812 474.689 628.223Z"/>
	<path fill="#FEFEFE" d="M644.021 809.543L655.414 809.583L655.136 902L644.166 902.013C643.371 871.258 644.037 840.315 644.021 809.543Z"/>
	<path fill="#FEFEFE" d="M518.537 809.563L525.358 809.647C526.818 831.309 528.81 853.006 530.531 874.657C531.187 882.899 533.028 893 532.443 901.119C531.352 901.939 529.89 901.737 528.583 901.757Q521.507 901.802 514.433 901.636C514.532 888.701 515.612 875.617 516.253 862.689L518.537 809.563Z"/>
	<path fill="#FEFEFE" d="M740.481 802.13C741.671 804.361 740.944 891.418 740.945 902.002L729.089 902.025C728.59 901.411 728.528 900.959 728.458 900.148C727.65 890.808 728.417 879.725 728.399 870.158L728.385 807.403C732.6 806 736.569 804.226 740.481 802.13Z"/>
	<path fill="#FEFEFE" d="M217.304 667.243Q249.037 667.111 280.767 667.487Q279.614 668.642 278.526 669.858C275.877 672.838 274.532 676.441 274.87 680.463C275.261 685.101 277.637 688.537 281.056 691.511L267.75 691.556L229.734 691.538C223.207 691.545 215.768 692.236 209.363 691.111C206.96 690.689 204.724 689.784 202.899 688.135C200.263 685.754 199.012 682.214 198.913 678.708C198.835 675.972 199.742 673.439 201.683 671.488C205.956 667.193 211.701 667.314 217.304 667.243Z"/>
	<path fill="#FEFEFE" d="M617.451 809.522L640.737 809.54Q640.928 855.703 640.619 901.865C635.481 902.282 630.002 901.965 624.83 901.977C622.665 884.001 621.556 865.885 620.195 847.834C619.234 835.099 617.815 822.279 617.451 809.522Z"/>
	<path fill="#FEFEFE" d="M231.355 694.738C235.313 694.678 239.28 694.735 243.238 694.739C244.196 734.174 243.465 773.809 243.445 813.269L243.437 869.683C243.44 880.445 243.705 891.275 243.296 902.024L231.48 902.037L231.367 767.428C231.346 743.473 230.289 718.502 231.355 694.738Z"/>
	<path fill="#FEFEFE" d="M303.409 695.006L315.223 694.977C315.883 703.48 315.488 712.274 315.476 720.812L315.414 765.404L315.543 901.996L303.383 902.014C302.829 862.843 303.238 823.6 303.296 784.422C303.34 754.633 302.895 724.788 303.409 695.006Z"/>
	<path fill="#FEFEFE" d="M764.363 667.697L829.494 667.657C839.642 667.652 851.369 666.684 861.34 667.888C863.717 668.175 865.709 668.604 867.66 670.076C870.164 671.967 871.568 674.852 871.91 677.938C872.365 682.04 871.261 685.242 868.68 688.39C866.189 690.332 863.588 690.99 860.496 691.356C850.168 692.576 838.866 691.682 828.448 691.678L764.332 691.651Q764.169 679.674 764.363 667.697Z"/>
	<path fill="#FEFEFE" d="M805.649 694.932L818.366 694.919L818.509 844.924Q818.415 863.163 818.569 881.402C818.624 888.027 819.426 895.482 818.418 901.985L805.919 901.991L805.649 694.932Z"/>
	<path fill="#FEFEFE" d="M515.255 756.616C522.228 755.96 529.673 756.417 536.696 756.405Q556.789 756.306 576.882 756.462C576.963 763.23 576.998 770.107 575.234 776.691C572.155 788.186 565.09 796.58 554.919 802.503C552.273 803.803 549.492 804.88 546.611 805.529C536.366 807.837 516.138 807.801 507 801.892C501.089 798.069 496.976 792.187 495.671 785.24C494.388 778.407 495.544 771.469 499.661 765.792C503.561 760.415 508.837 757.68 515.255 756.616Z"/>
	<path fill="#9B9C9C" d="M528.475 809.573L614.062 809.477C616.283 832.068 617.564 854.951 619.045 877.61L533.926 877.559C533.118 865.873 532.551 854.169 531.48 842.502C530.477 831.561 528.941 820.546 528.475 809.573Z"/>
	<path fill="#FEFEFE" d="M721.335 809.25C722.636 809.068 723.708 809.014 725.032 809.119C725.971 810.994 725.152 892.626 725.15 902.002L661.875 901.993C660.759 902.047 659.997 902.008 658.93 901.668C657.495 897.62 658.492 822.151 658.519 809.606C679.305 809.554 700.6 810.44 721.335 809.25Z"/>
	<path fill="#FEFEFE" d="M286.954 667.647C296.805 667.076 306.894 667.487 316.769 667.506Q348.363 667.533 379.955 667.908L562.495 668.312L562.497 691.705L555.125 691.652L357.083 691.558L312.242 691.542C304.581 691.537 293.712 692.641 286.486 690.696C283.673 689.939 280.521 686.548 279.189 684.046C277.781 681.401 277.446 678.35 278.489 675.517C279.984 671.457 283.236 669.443 286.954 667.647Z"/>
	<path fill="#FEFEFE" d="M764.334 694.801L802.213 694.936L802.484 901.995L781.907 902.012L744.278 901.999Q744.005 870.009 744.063 838.021C744.046 825.165 743.465 812.012 744.287 799.189Q745.772 797.771 747.236 796.33C753.657 789.992 758.963 782.559 761.74 773.903C766.106 760.297 764.511 744.416 764.415 730.265Q764.245 712.533 764.334 694.801Z"/>
	<path fill="#FEFEFE" d="M246.712 694.889Q273.325 694.794 299.937 694.995L299.986 901.982L246.457 902.076L246.712 694.889Z"/>
	<path fill="#FEFEFE" d="M338.605 542.554C389.762 542.368 441.03 541.782 492.175 542.45C493.775 552.81 497.877 565.28 500.522 575.631C503.731 588.194 506.22 601.523 510.454 613.763C509.313 617.761 507.831 621.707 506.501 625.649C499.113 625.396 491.745 625.034 484.35 624.944C473.804 624.778 463.955 625.015 454.007 629.017C443.817 633.117 434.555 640.668 430.126 650.894L369.685 650.704C363.4 630.749 358.132 610.337 352.271 590.239C347.65 574.39 342.162 558.685 338.605 542.554Z"/>
	<path fill="#C76058" d="M388.407 599.018C389.644 598.925 390.946 598.793 392.179 598.967C395.201 599.394 398.178 601.474 399.944 603.908C401.745 606.388 402.576 609.485 401.96 612.514C401.278 615.87 399.253 617.785 396.54 619.656C395.381 619.642 394.198 619.632 393.061 619.387C389.628 618.649 386.574 616.248 384.747 613.289C383.223 610.821 382.429 607.757 383.215 604.905C384.035 601.926 385.811 600.49 388.407 599.018Z"/>
	<path fill="#EED3AA" d="M413.48 556.458C414.475 556.438 415.51 556.409 416.495 556.557C420.005 557.086 423.66 559.993 425.494 562.943C427.138 565.588 427.84 568.706 426.989 571.746C426.153 574.733 424.067 575.971 421.48 577.372C420.736 577.442 419.998 577.522 419.248 577.486C416.231 577.341 412.943 575.714 410.899 573.508C408.876 571.327 407.691 568.383 407.929 565.395C408.252 561.35 410.62 558.988 413.48 556.458Z"/>
	<path fill="#B3DDD3" d="M396.119 620.889C398.002 621.533 399.952 622.192 401.623 623.292C405.151 625.613 407.981 629.493 408.803 633.66C409.241 635.879 409.106 638.001 407.691 639.85C406.144 641.871 403.768 642.898 401.329 643.299L400.809 643.262C396.746 642.939 392.672 641.57 390.042 638.266C388.533 636.37 387.8 634.013 388.075 631.597C388.621 626.801 392.613 623.677 396.119 620.889Z"/>
	<path fill="#9B9C9C" d="M377.883 559C381.182 559.072 383.866 559.534 386.607 561.493C390.862 564.534 391.904 568.983 392.737 573.809C391.339 577.45 389.884 579.403 386.551 581.458C385.127 581.532 383.767 581.573 382.365 581.261C378.978 580.506 375.887 578.042 374.069 575.131C372.311 572.316 371.373 568.6 372.328 565.345C373.217 562.309 375.135 560.41 377.883 559Z"/>
	<path fill="#B3DDD3" d="M475.723 695.239C504.066 694.347 534.106 694.477 562.44 695.17L562.551 708.967L576.692 709.221L576.729 753.025L536.655 753.15C530.012 753.158 523.139 752.679 516.533 753.256C513.674 753.505 510.881 754.096 508.214 755.176C501.807 757.772 496.47 762.783 493.88 769.236C490.965 776.501 491.151 785.316 494.404 792.427C498.646 801.701 506.189 806.054 515.262 809.497Q514.826 823.932 514.122 838.357C513.629 851.405 512.778 864.451 512.458 877.502L428.933 877.505C428.978 864.102 429.662 850.664 430.099 837.266L431.615 786.3L432.515 761.192C432.719 753.907 432.581 746.448 433.757 739.239C435.01 731.558 437.547 724.441 441.937 717.993C449.771 706.486 461.904 697.814 475.723 695.239Z"/>
	<path fill="#FEFEFE" d="M318.594 694.978C344.143 694.698 369.728 694.996 395.282 694.977C418.49 694.96 441.763 694.58 464.964 695.05C458.41 698.07 452.545 701.499 447.283 706.502C439.056 714.324 433.739 723.887 431.028 734.9C428.001 747.196 428.869 772.089 428.49 785.46L425.856 864.424C425.494 876.974 425.411 889.519 424.709 902.059L318.958 901.831Q318.221 798.403 318.594 694.978Z"/>
	<path fill="#FEFEFE" d="M611.229 479.658C611.303 479.649 611.376 479.636 611.449 479.632C620.657 479.053 630.016 479.408 639.246 479.384C647.529 479.362 656.184 478.88 664.415 479.725C679.187 481.241 694.085 488.486 705.595 497.646C736.533 522.266 738.005 548.415 742.173 584.589C733.055 578.921 723.77 575.818 712.975 575.465C697.364 574.956 681.599 575.482 665.97 575.421C652.955 575.37 629.282 573.89 617.604 576.538Q615.896 576.942 614.219 577.456Q612.541 577.97 610.901 578.593Q609.26 579.216 607.664 579.944Q606.068 580.673 604.523 581.504Q602.978 582.335 601.49 583.265Q600.002 584.196 598.578 585.221Q597.155 586.246 595.801 587.363Q594.447 588.479 593.169 589.681C586.773 595.78 581.081 604.292 578.678 612.852C575.452 624.348 576.915 638.38 576.922 650.301Q577.085 671.376 576.629 692.446C572.968 692.503 569.322 692.404 565.662 692.289C566.369 663.024 565.291 633.73 568.38 604.561C568.707 598.032 572.642 567.816 570.005 563.722L569.291 563.782C566.45 569.153 563.518 625.665 562.828 635.977C555.175 645.101 549.63 655.941 542.085 665.234C530.95 665.656 519.691 665.307 508.537 665.317Q483.234 665.457 457.932 665.223C459.526 656.07 461.945 647.532 469.158 641.146C479.407 632.072 490.973 632.293 503.845 633.046C502.989 635.209 501.977 637.31 501.163 639.49C500.43 641.452 499.73 643.12 500.636 645.114L501.692 645.472C501.974 645.35 502.306 645.307 502.536 645.105C504.29 643.565 540.133 541.808 545.582 529.537Q547.365 525.532 549.608 521.765Q551.851 517.998 554.522 514.521C568.171 496.545 588.627 482.833 611.229 479.658Z"/>
	<path fill="#FEFEFE" d="M624.808 578.675C625.523 578.579 625.261 578.595 625.977 578.576C643.036 578.113 660.185 578.428 677.255 578.422C690.473 578.417 712.475 577.012 724.628 580.069C732.676 582.093 739.921 586.511 745.916 592.188C756.285 602.006 760.702 614.182 760.95 628.263C761.468 657.618 761.279 687.062 761.335 716.425C761.362 730.301 762.728 754.168 760.091 766.694Q759.729 768.486 759.241 770.247Q758.752 772.008 758.139 773.73Q757.527 775.452 756.793 777.126Q756.059 778.8 755.208 780.418Q754.357 782.035 753.393 783.588Q752.429 785.141 751.357 786.621Q750.285 788.102 749.11 789.502Q747.936 790.902 746.664 792.215C731.279 807.915 714.798 806.166 694.625 806.297Q625.309 806.613 555.997 805.833C565.344 799.795 572.569 793.482 576.746 782.887C581.79 770.093 579.888 753.759 579.855 740.244L580.141 661.025C580.168 647.997 578.721 629.676 581.139 617.331C582.51 610.334 585.857 603.918 590.171 598.29C598.691 587.171 611 580.454 624.808 578.675Z"/>
</svg>
