<?xml version="1.0" encoding="utf-8" ?>
<svg xmlns="http://www.w3.org/2000/svg" xmlns:xlink="http://www.w3.org/1999/xlink" width="1024" height="1024">
	<path fill="#FEFEFE" d="M0 0L1024 0L1024 1024L0 1024L0 0Z"/>
	<path fill="#344476" d="M355.273 175.568C362.707 176.374 370.52 175.947 378.013 176.065C372.608 179.142 362.265 174.699 356.995 177.343C356.982 181.403 357.074 185.491 356.946 189.547L356.91 190.78C357.072 196.467 356.997 202.187 357.01 207.877C357.029 216.313 356.754 224.323 350.197 230.628C342.259 238.26 329.329 236.755 319.207 236.465C317.741 236.423 316.522 236.648 315.479 235.553C319.49 232.043 339.495 239.075 349.728 228.832Q350.555 228.004 351.265 227.074Q351.975 226.144 352.556 225.128Q353.136 224.112 353.577 223.029Q354.018 221.945 354.311 220.812C356.684 211.861 355.331 186.526 355.273 175.568Z"/>
	<path fill="#344476" d="M914.302 363.028C915.201 353.093 913.098 315.213 915.076 309.631C915.432 308.628 915.7 308.785 916.614 308.386L917.579 308.606L939.084 308.777L931.924 309.944C927.211 310.056 922.008 310.65 917.346 310.172C914.716 315.773 917.346 353.123 916.031 363.454C914.525 369.72 911.402 374.662 905.773 378.038C898.981 382.112 885.144 382.611 877.246 381.568L872.191 381.039Q874.436 380.498 876.703 380.061C885.56 379.539 896.15 381.442 904.26 376.992C909.948 373.87 912.558 369 914.302 363.028Z"/>
	<path fill="#4D67AF" d="M916.38 254.83C920.308 254.254 924.425 254.427 928.388 254.394C938.662 254.309 948.028 254.119 956.625 260.6Q957.167 261.007 957.689 261.44Q958.211 261.872 958.711 262.33Q959.211 262.788 959.689 263.269Q960.166 263.75 960.619 264.254Q961.073 264.758 961.501 265.284Q961.929 265.809 962.331 266.355Q962.734 266.901 963.109 267.465Q963.484 268.03 963.831 268.612Q964.178 269.194 964.497 269.793Q964.815 270.391 965.105 271.004Q965.394 271.618 965.652 272.244Q965.911 272.871 966.14 273.509Q966.368 274.147 966.564 274.796Q966.761 275.445 966.926 276.102Q967.091 276.76 967.224 277.425Q967.357 278.09 967.457 278.76C968.481 286.028 966.62 293.643 962.029 299.416C957.005 305.734 949.61 309.138 941.674 309.844C938.463 310.13 935.144 310.084 931.924 309.944L939.084 308.777L917.579 308.606L916.614 308.386C929.445 306.802 943.744 311.198 955.113 303.224Q955.636 302.862 956.139 302.473Q956.643 302.084 957.125 301.67Q957.608 301.256 958.069 300.817Q958.53 300.379 958.967 299.917Q959.405 299.455 959.818 298.972Q960.231 298.488 960.619 297.984Q961.007 297.48 961.368 296.956Q961.729 296.433 962.063 295.891Q962.397 295.35 962.703 294.792Q963.008 294.234 963.285 293.661Q963.561 293.089 963.808 292.502Q964.054 291.916 964.27 291.318Q964.486 290.719 964.671 290.111Q964.856 289.502 965.01 288.885Q965.163 288.268 965.285 287.643Q965.406 287.019 965.495 286.389Q965.589 285.752 965.651 285.112Q965.713 284.471 965.743 283.829Q965.772 283.186 965.769 282.542Q965.767 281.899 965.732 281.256Q965.696 280.614 965.629 279.974Q965.562 279.334 965.462 278.698Q965.363 278.062 965.231 277.432Q965.1 276.802 964.937 276.18Q964.774 275.557 964.58 274.943Q964.386 274.33 964.162 273.727Q963.937 273.124 963.682 272.533Q963.428 271.942 963.144 271.364Q962.86 270.787 962.547 270.225Q962.234 269.662 961.894 269.116Q961.553 268.57 961.185 268.042Q960.818 267.514 960.424 267.005C948.029 251.096 931.962 258.856 915.67 256.288C915.356 256.238 915.042 256.18 914.729 256.127C917.51 255.667 920.566 255.482 923.376 255.655C923.531 255.665 923.687 255.678 923.842 255.69C921.351 255.331 918.862 255.259 916.38 254.83Z"/>
	<path fill="#4D67AF" d="M702.064 247.335L703.926 247.249L704.036 330.243C704.058 340.546 702.885 357.222 704.423 366.717C704.967 370.073 706.567 373.015 708.909 375.468C713.665 380.448 720.535 380.366 726.962 380.369L783.067 380.054C783.065 370.153 782.422 359.737 783.649 349.914C783.782 346.827 785.394 343.091 786.947 340.418C790.402 334.472 796.334 330.388 802.973 328.808C810.224 327.084 817.202 328.422 823.484 332.327C829.615 336.427 833.434 341.696 834.846 349.025C836.653 358.4 835.104 370.276 835.397 380.093Q856.05 379.921 876.703 380.061Q874.436 380.498 872.191 381.039L877.246 381.568C872.026 382.078 866.577 381.803 861.326 381.818L833.492 381.881C833.464 372.398 834.208 362.412 833.363 353.004C832.642 344.963 829.196 339.115 823.06 334.039C816.138 330.418 809.169 328.771 801.474 331.252C795.27 333.253 790.35 337.771 787.487 343.585C786.314 345.967 785.655 348.498 785.203 351.102C783.798 360.846 784.803 371.932 784.876 381.813L784.175 381.854C772.549 382.484 760.577 381.969 748.91 382.001C739.472 382.027 725.252 383.119 716.229 381.398C713.2 380.82 710.554 379.29 708.308 377.199C705.451 374.539 703.294 371.029 702.635 367.149C701.141 358.351 702.414 343.767 702.416 334.383C702.423 305.467 703.117 276.225 702.064 247.335Z"/>
	<path fill="#8CB9E3" d="M356.946 189.547C361.981 191.124 366.051 194.998 368.476 199.623C373.442 209.096 371.534 238.197 371.502 250.078L371.467 272.115C385.706 271.97 401.984 269.518 412.969 280.663C417.835 285.6 420.196 292.4 420.071 299.268C419.937 306.581 417.095 313.479 411.652 318.429C400.811 328.288 385.269 326.26 371.639 326.564L371.613 356.189C371.648 363.224 372.469 371.363 370.938 378.232Q370.782 378.953 370.577 379.662Q370.371 380.371 370.117 381.064Q369.863 381.756 369.562 382.43Q369.26 383.103 368.912 383.754Q368.565 384.405 368.173 385.03Q367.781 385.656 367.346 386.252Q366.912 386.849 366.437 387.414Q365.962 387.978 365.449 388.509C361.338 392.742 355.621 395.092 349.912 396.207C344.077 396.89 291.832 397.195 288.255 395.817C285.166 394.627 286.702 374.875 286.367 371.065C286.061 367.586 285.252 364.253 283.632 361.138C280.219 354.573 274.404 350.807 267.505 348.757C265.502 348.247 263.648 348.003 261.575 348.032C255.491 348.117 250.332 349.899 246.055 354.325C235.862 364.873 238.575 383.033 238.619 396.548Q215.668 396.546 192.719 396.194C186.242 396.114 179.532 396.569 173.09 396.047C167.144 395.565 162.205 393.067 158.382 388.478C154.823 384.206 152.461 377.992 153.011 372.391C154.987 372.64 155.699 379.906 156.417 381.731Q156.789 382.65 157.251 383.528Q157.713 384.405 158.26 385.232Q158.808 386.058 159.435 386.826Q160.063 387.594 160.764 388.295Q161.316 388.847 161.907 389.358Q162.497 389.868 163.124 390.333Q163.751 390.798 164.411 391.216Q165.07 391.634 165.759 392.002Q166.447 392.37 167.161 392.686Q167.875 393.002 168.61 393.265Q169.345 393.528 170.098 393.736Q170.85 393.943 171.616 394.095C177.174 395.24 183.558 394.612 189.246 394.71Q213.312 395.036 237.381 395.006C237.419 385.502 236.279 374.81 238.175 365.521C239.409 359.472 242.492 354.083 247.82 350.775Q248.408 350.416 249.013 350.086Q249.617 349.756 250.236 349.454Q250.855 349.152 251.488 348.88Q252.121 348.608 252.766 348.365Q253.41 348.123 254.066 347.912Q254.721 347.7 255.386 347.519Q256.051 347.339 256.723 347.19Q257.396 347.041 258.075 346.923Q258.753 346.806 259.437 346.721Q260.12 346.635 260.807 346.582Q261.494 346.529 262.182 346.508Q262.871 346.487 263.559 346.499Q264.248 346.511 264.936 346.555Q265.623 346.599 266.308 346.675Q266.992 346.751 267.672 346.859Q268.353 346.968 269.027 347.108C276.045 349.595 282.449 353.62 285.743 360.622C289.653 368.929 288.287 385.048 288.552 394.566Q307.709 394.814 326.867 394.854C333.233 394.875 340.19 394.345 346.469 395.077C352.723 394.783 358.843 393.214 363.432 388.68C366.51 385.638 368.573 381.672 369.54 377.468C371.046 370.923 370.367 363.528 370.378 356.828L370.331 325.286C384.55 324.338 399.98 327.546 411.247 316.534Q411.679 316.114 412.09 315.672Q412.502 315.231 412.89 314.77Q413.279 314.309 413.645 313.83Q414.01 313.35 414.352 312.853Q414.693 312.356 415.009 311.843Q415.326 311.329 415.616 310.801Q415.907 310.273 416.171 309.731Q416.435 309.189 416.672 308.634Q416.909 308.08 417.119 307.514Q417.328 306.949 417.509 306.374Q417.69 305.798 417.843 305.215Q417.995 304.632 418.119 304.041Q418.242 303.451 418.337 302.856Q418.431 302.26 418.495 301.661Q418.56 301.061 418.595 300.459Q418.63 299.857 418.635 299.254C418.719 292.26 416.005 286.018 411.009 281.157C400.043 270.488 384.003 273.246 370.02 273.428Q369.902 258.811 370.02 244.194C368.564 232.395 371.838 218.331 369.272 206.963C367.65 199.778 362.853 194.694 356.91 190.78L356.946 189.547Z"/>
	<path fill="#010101" d="M471.506 52.0763L473.463 52.6366C473.658 52.9799 473.964 53.2805 474.048 53.6664C474.796 57.1191 474.019 76.2224 474.013 81.1012L473.985 163.863C498.979 164.232 524.022 163.872 549.02 163.89L701.7 163.978C701.709 157.048 700.959 117.3 702.663 114.156L703.623 114.215L704.325 115.105C704.637 132.192 704.429 149.343 704.359 166.434L471.475 166.483L471.506 52.0763Z"/>
	<path fill="#4D67AF" d="M227.958 15.4223C229.958 12.1 232.852 8.95948 235.936 6.61118C242.759 1.417 249.788 0.633624 258.012 1.75309C265.148 4.00825 271.663 7.91477 275.313 14.7337C275.89 15.8114 276.356 16.8728 276.741 18.03C277.533 21.043 278.298 24.1048 278.062 27.2512C278.79 34.5767 278.386 42.1702 278.485 49.5393C292.194 49.5846 306.022 49.2305 319.716 49.6853C329.168 49.5738 344.839 47.0727 352.033 54.2018C353.898 56.0498 355.369 58.5115 356.055 61.0471C357.921 66.8976 356.611 81.9717 356.643 88.798L356.98 124.608C367.838 124.498 381.357 122.792 391.489 127.276C398.192 130.534 403.124 135.625 405.639 142.717C407.247 147.25 407.562 151.606 406.863 156.348C404.502 164.033 400.704 169.986 393.467 173.922C385.213 178.413 375.736 177.688 366.658 177.584C363.517 177.548 360.101 177.751 356.995 177.343C362.265 174.699 372.608 179.142 378.013 176.065C383.573 175.381 388.805 174.491 393.661 171.519C399.82 167.75 402.94 162.289 404.535 155.425C404.707 151.904 404.716 148.45 403.914 144.992C402.074 137.064 396.674 132.844 390.083 128.871C379.599 124.693 366.153 126.446 355.031 126.592L354.967 88.2465C354.932 80.129 355.798 68.7044 353.69 60.9647C352.855 59.2256 352.037 57.5857 350.694 56.1737C343.783 48.9025 328.406 51.6797 319.173 51.4277C311.972 51.7879 304.636 51.5571 297.42 51.5922C291.219 51.6223 284.779 51.9927 278.604 51.5436C277.286 51.4478 277.378 51.5249 276.522 50.5411C275.937 40.3044 277.948 29.1241 275.214 19.1556C274.853 18.1267 274.419 17.1964 273.919 16.2279C270.322 9.25276 263.773 6.03224 256.663 3.73398C248.918 2.90546 242.731 3.8131 236.488 8.91048C234.05 10.901 232.005 13.2353 230.231 15.833C225.324 26.5133 227.031 40.2112 227.189 51.7737L221.891 51.6202L181.173 51.4823C174.872 51.463 167.511 50.688 161.356 51.7499C158.254 52.2852 155.321 53.4915 153.116 55.7966C151.184 57.8164 150.093 60.4727 149.669 63.2121C148.722 69.3231 149.402 76.2879 149.434 82.5067C149.506 96.7586 149.825 111.176 149.369 125.415L147.561 125.612L147.452 84.1894C147.444 77.3422 146.807 69.8325 147.758 63.0886C148.208 59.8979 149.398 56.7456 151.629 54.3709C153.83 52.0273 156.786 50.7005 159.907 50.0993C166.904 48.7512 175.149 49.6022 182.296 49.6559Q202.94 49.9061 223.585 49.85L224.226 49.647C225.914 47.893 224.964 28.2306 225.445 24.1817C225.824 20.991 226.667 18.3387 227.958 15.4223Z"/>
	<path fill="#010101" d="M558.882 83.6219C564.25 83.087 569.68 84.1765 574.17 87.2523Q574.643 87.5822 575.098 87.9352Q575.554 88.2882 575.991 88.6634Q576.429 89.0386 576.847 89.4351Q577.266 89.8316 577.664 90.2484Q578.062 90.6652 578.439 91.1013Q578.816 91.5374 579.17 91.9916Q579.525 92.4459 579.857 92.9172Q580.189 93.3886 580.496 93.8758Q580.804 94.3631 581.088 94.865Q581.371 95.367 581.629 95.8824Q581.887 96.3978 582.119 96.9254Q582.351 97.453 582.557 97.9914Q582.762 98.5299 582.941 99.0779Q583.119 99.626 583.27 100.182Q583.421 100.738 583.545 101.301Q583.668 101.865 583.763 102.433Q583.854 102.97 583.918 103.511Q583.982 104.052 584.018 104.595Q584.055 105.139 584.063 105.683Q584.071 106.228 584.052 106.772Q584.033 107.316 583.986 107.859Q583.939 108.402 583.864 108.941Q583.79 109.481 583.688 110.016Q583.586 110.551 583.457 111.08Q583.328 111.609 583.172 112.131Q583.016 112.652 582.834 113.166Q582.652 113.679 582.443 114.182Q582.235 114.686 582.002 115.178Q581.768 115.67 581.51 116.149Q581.252 116.629 580.969 117.094Q580.687 117.56 580.381 118.011Q580.075 118.461 579.747 118.896C575.797 124.123 570.289 126.848 563.931 127.818C558.882 128.156 553.68 127.103 549.405 124.322C544.369 121.045 540.952 115.655 539.776 109.796Q539.664 109.263 539.579 108.725Q539.494 108.188 539.437 107.646Q539.379 107.105 539.35 106.561Q539.32 106.017 539.318 105.473Q539.316 104.928 539.342 104.384Q539.368 103.84 539.421 103.298Q539.475 102.757 539.556 102.218Q539.637 101.68 539.745 101.146Q539.854 100.612 539.989 100.085Q540.125 99.5577 540.287 99.0379Q540.449 98.5182 540.638 98.0073Q540.826 97.4965 541.041 96.9959Q541.255 96.4954 541.495 96.0064Q541.734 95.5174 541.998 95.0413Q542.262 94.5652 542.551 94.1032Q542.839 93.6411 543.15 93.1944C547.013 87.5374 552.368 84.9535 558.882 83.6219Z"/>
	<path fill="#FEFEFE" d="M559.889 86.1473C564.124 86.0538 568.085 86.6088 571.789 88.8183C576.416 91.5779 579.703 96.4543 580.977 101.644Q581.095 102.117 581.187 102.596Q581.28 103.075 581.348 103.558Q581.416 104.041 581.458 104.526Q581.5 105.012 581.517 105.5Q581.534 105.987 581.526 106.474Q581.517 106.962 581.483 107.448Q581.449 107.935 581.39 108.419Q581.331 108.903 581.246 109.383Q581.162 109.864 581.052 110.339Q580.943 110.814 580.809 111.283Q580.675 111.752 580.516 112.213Q580.358 112.674 580.176 113.126Q579.993 113.579 579.788 114.021Q579.582 114.463 579.354 114.894Q579.125 115.325 578.875 115.743Q578.624 116.161 578.352 116.566C574.882 121.79 570.008 124.229 564.075 125.519C559.298 125.618 554.97 124.947 550.871 122.322Q550.447 122.051 550.037 121.759Q549.628 121.467 549.234 121.155Q548.839 120.843 548.461 120.511Q548.083 120.179 547.723 119.828Q547.362 119.477 547.02 119.109Q546.678 118.74 546.354 118.355Q546.031 117.97 545.728 117.568Q545.424 117.167 545.142 116.751Q544.859 116.335 544.598 115.905Q544.337 115.475 544.098 115.032Q543.859 114.59 543.643 114.136Q543.427 113.681 543.234 113.217Q543.041 112.752 542.872 112.279Q542.703 111.805 542.558 111.323Q542.413 110.842 542.293 110.353Q542.172 109.865 542.077 109.371Q541.986 108.89 541.919 108.405Q541.852 107.921 541.809 107.433Q541.767 106.946 541.749 106.457Q541.731 105.967 541.738 105.478Q541.745 104.989 541.777 104.5Q541.808 104.012 541.865 103.526Q541.921 103.04 542.002 102.557Q542.082 102.074 542.187 101.597Q542.292 101.119 542.421 100.646Q542.55 100.174 542.703 99.7094Q542.855 99.2444 543.031 98.7877Q543.207 98.331 543.406 97.8838Q543.604 97.4366 543.825 96.9999Q544.046 96.5633 544.289 96.1384Q544.532 95.7134 544.796 95.3013Q545.06 94.8892 545.344 94.4909C548.889 89.5194 554.002 87.046 559.889 86.1473Z"/>
	<path fill="#F37B3F" d="M147.561 125.612L149.369 125.415C173.837 125.914 198.388 125.483 222.866 125.456C231.873 125.446 245.297 124.34 253.875 125.874C257.03 126.439 259.91 128.314 262.084 130.62C265.925 134.694 268.188 140.97 267.736 146.569C267.634 147.837 267.377 149.118 267.033 150.341L265.486 150.472C264.835 143.415 265.12 136.204 259.153 131.123C256.922 129.223 253.271 128.516 250.446 128.167C241.758 127.094 232.046 127.927 223.241 127.915C201.723 127.883 180.155 128.21 158.645 127.848C155.785 127.885 152.201 127.563 149.447 128.174L147.931 127.758C130.082 128.62 111.887 127.939 94.0034 127.919C87.6618 127.912 80.7734 127.198 74.5115 127.917C72.9458 128.097 71.4525 128.658 70.1067 129.467C66.5254 132.917 65.9427 135.681 65.8318 140.6C65.644 148.932 66.2124 157.277 65.9251 165.611C66.0915 177.593 66.8846 190.286 65.8601 202.195C62.5067 204.321 38.4102 201.43 31.3001 203.768C24.685 205.999 19.684 210.019 16.5984 216.369C13.4928 222.761 13.0918 230.655 15.4937 237.35C15.5495 237.505 15.6089 237.659 15.6664 237.814C18.9756 244.242 23.9978 250.223 31.1216 252.55C31.3534 252.626 31.5883 252.691 31.8217 252.762C40.5115 255.238 56.4229 253.52 66.1285 253.79L66.2053 303.294C66.2252 310.37 65.325 319.885 66.7795 326.611C67.2894 328.969 69.0073 330.846 70.6538 332.525C72.0365 333.453 73.7072 334.107 75.3536 334.35C83.5517 335.558 92.5494 334.833 100.868 334.819L147.132 334.813Q147.344 322.271 147.293 309.727C147.305 305.054 146.874 299.692 147.773 295.115C148.046 291.61 149.901 288.091 152.005 285.346C155.174 281.21 159.669 277.884 164.662 276.325C172.882 273.76 185.014 274.926 193.64 274.914L231.119 275.021C235.921 275.055 241.255 275.709 245.974 275.005C246.9 273.696 246.807 271.41 246.94 269.815C246.064 259.903 246.756 249.216 246.709 239.218L246.68 172.353C237.627 171.755 228.415 172.061 219.341 172.05C213.589 172.084 208.385 172.72 204.114 177.05C201.868 179.329 200.547 182.024 199.6 185.045L198.043 183.809C198.879 180.163 200.501 176.945 203.358 174.457C210.548 168.196 221.769 169.865 230.539 170.42C236.643 170.162 242.766 170.287 248.874 170.315C248.735 181.693 249.92 275.081 248.391 277.917Q220.935 277.56 193.476 277.507C184.972 277.469 174 276.305 165.843 278.065C162.384 278.811 158.767 281.379 156.277 283.825C152.608 287.429 150.622 291.643 149.514 296.607C149.162 310.009 149.316 323.366 149.408 336.77C134.557 337.431 119.53 336.934 104.657 336.972C95.1898 336.997 84.6057 337.992 75.2448 336.657C72.8418 336.314 70.9017 335.543 69.0074 334.003L68.5887 333.587C66.7732 331.752 65.0547 329.653 64.4294 327.086C62.8576 320.635 63.945 308.897 63.9721 302.008L64.0436 255.977C52.6496 255.593 39.3746 257.877 28.5762 253.834C22.0306 251.523 17.1279 245.625 14.004 239.674Q13.7976 239.185 13.605 238.691Q13.3317 238.002 13.0942 237.299Q12.8567 236.597 12.6556 235.883Q12.4545 235.17 12.2903 234.447Q12.1261 233.724 11.9992 232.993Q11.8724 232.262 11.7832 231.526Q11.6941 230.79 11.6429 230.051Q11.5916 229.311 11.5785 228.57Q11.5653 227.828 11.5902 227.087Q11.6151 226.346 11.6781 225.607Q11.7411 224.869 11.8419 224.134Q11.9427 223.399 12.0811 222.671Q12.2195 221.943 12.3952 221.222Q12.5708 220.502 12.7832 219.792Q12.9956 219.081 13.2443 218.383Q13.4929 217.684 13.7771 216.999Q14.0612 216.314 14.3802 215.645C17.6184 208.708 22.8026 204.599 29.8803 202.074C38.9331 199.232 53.9071 200.517 63.6178 200.508C63.6169 197.133 63.7236 193.785 63.8973 190.414C63.4549 185.574 63.7943 180.396 63.7965 175.514C63.8004 167.086 63.6533 158.625 63.9146 150.202C63.4605 145.262 63.0505 139.17 64.064 134.344C64.742 131.116 66.1801 129.528 68.896 127.774C70.9519 126.783 72.6296 126.08 74.9325 125.936C82.6922 124.708 91.8281 125.565 99.7119 125.562L147.561 125.612Z"/>
	<path fill="#4D67AF" d="M650.932 341.594C658.004 339.578 665.775 339.705 672.389 343.228C674.035 344.105 675.455 345.261 676.887 346.444C680.038 348.743 682.56 352.64 684.117 356.163C686.889 362.432 686.769 371.827 684.133 378.126C681.468 384.494 675.895 389.359 669.561 391.916C662.723 394.677 655.176 394.62 648.457 391.538C641.803 388.485 636.856 382.8 634.389 375.954Q634.158 375.322 633.959 374.68Q633.76 374.038 633.593 373.387Q633.426 372.736 633.292 372.077Q633.157 371.418 633.056 370.753Q632.954 370.089 632.886 369.42Q632.817 368.751 632.782 368.08Q632.747 367.408 632.745 366.736Q632.744 366.064 632.775 365.392Q632.807 364.721 632.872 364.051Q632.937 363.382 633.035 362.717Q633.133 362.052 633.264 361.392Q633.395 360.733 633.559 360.081Q633.723 359.429 633.918 358.786Q634.114 358.142 634.342 357.51Q634.569 356.877 634.828 356.257Q635.087 355.636 635.376 355.029C638.537 348.497 644.129 343.912 650.932 341.594Z"/>
	<path fill="#FEFEFE" d="M652.074 343.222C658.892 341.694 666.272 341.762 672.365 345.63Q674.049 346.686 675.63 347.891C678.174 350.342 680.512 352.976 682.044 356.195C684.659 361.691 684.888 370.16 682.739 375.865C680.275 382.409 674.918 387.404 668.595 390.212C662.744 392.811 656.751 393.088 650.788 390.651Q650.194 390.412 649.613 390.143Q649.031 389.874 648.465 389.576Q647.898 389.278 647.347 388.952Q646.796 388.626 646.262 388.272Q645.728 387.919 645.212 387.539Q644.697 387.159 644.201 386.753Q643.706 386.347 643.231 385.917Q642.757 385.487 642.305 385.034Q641.853 384.58 641.424 384.104Q640.995 383.629 640.591 383.132Q640.187 382.635 639.809 382.118Q639.43 381.602 639.078 381.067Q638.726 380.532 638.402 379.98Q638.078 379.427 637.782 378.86Q637.485 378.292 637.218 377.71Q636.951 377.128 636.714 376.533C634.225 370.324 634.162 362.811 636.895 356.667C639.859 350.003 645.465 345.809 652.074 343.222Z"/>
	<path fill="#F37B3F" d="M636.877 264.609C634.29 267.07 631.467 269.052 628.193 270.49Q627.488 270.792 626.768 271.058Q626.049 271.324 625.317 271.554Q624.584 271.784 623.842 271.976Q623.099 272.169 622.348 272.324Q621.596 272.479 620.838 272.596Q620.08 272.713 619.317 272.791Q618.553 272.87 617.787 272.91Q617.021 272.951 616.254 272.952Q615.487 272.954 614.72 272.917Q613.954 272.88 613.19 272.805Q612.427 272.73 611.668 272.616Q610.909 272.502 610.157 272.351Q609.405 272.199 608.662 272.01Q607.918 271.821 607.185 271.594Q606.452 271.368 605.731 271.105Q605.011 270.842 604.304 270.543Q603.648 270.276 603.006 269.977Q602.364 269.678 601.737 269.347Q601.111 269.016 600.502 268.655Q599.893 268.293 599.303 267.901Q598.713 267.51 598.143 267.089Q597.573 266.668 597.025 266.22Q596.477 265.771 595.952 265.296Q595.427 264.821 594.926 264.32Q594.425 263.819 593.95 263.293Q593.475 262.768 593.027 262.219Q592.579 261.671 592.158 261.101Q591.738 260.531 591.347 259.94Q590.956 259.35 590.594 258.741Q590.233 258.132 589.902 257.505Q589.572 256.879 589.273 256.236Q588.974 255.594 588.708 254.938C585.69 247.424 585.949 239.137 589.191 231.733C592.256 224.736 597.677 219.091 604.918 216.381C613.132 213.307 621.721 214.269 629.622 217.736C636.929 221.674 641.441 226.989 644.349 234.76C646.136 242.588 646.35 251.345 642.005 258.461C640.618 260.733 638.797 262.781 636.877 264.609Z"/>
	<path fill="#FEFEFE" d="M635.912 262.509C634.599 263.658 633.272 264.848 631.814 265.812Q631.21 266.217 630.585 266.59Q629.961 266.964 629.318 267.305Q628.676 267.646 628.017 267.954Q627.358 268.263 626.684 268.537Q626.01 268.811 625.323 269.051Q624.636 269.291 623.938 269.495Q623.24 269.7 622.532 269.869Q621.825 270.037 621.109 270.17Q620.394 270.303 619.673 270.399Q618.952 270.495 618.227 270.554Q617.502 270.614 616.775 270.636Q616.047 270.659 615.32 270.644Q614.593 270.629 613.867 270.578Q613.141 270.526 612.419 270.438Q611.697 270.35 610.98 270.225Q610.263 270.1 609.554 269.939Q608.91 269.789 608.274 269.607Q607.639 269.424 607.013 269.21Q606.388 268.996 605.774 268.751Q605.16 268.505 604.559 268.229Q603.958 267.953 603.372 267.646Q602.786 267.34 602.216 267.005Q601.646 266.669 601.094 266.305Q600.542 265.942 600.009 265.55Q599.476 265.159 598.964 264.741Q598.451 264.324 597.96 263.881Q597.469 263.438 597.001 262.97Q596.533 262.503 596.09 262.013Q595.646 261.522 595.228 261.01Q594.81 260.498 594.418 259.965Q594.026 259.433 593.661 258.881Q593.297 258.329 592.961 257.76Q592.609 257.178 592.286 256.579Q591.963 255.98 591.671 255.365Q591.379 254.751 591.119 254.122Q590.858 253.494 590.629 252.853Q590.4 252.212 590.204 251.561Q590.008 250.909 589.845 250.249Q589.682 249.588 589.553 248.92Q589.423 248.252 589.327 247.579Q589.232 246.905 589.17 246.227Q589.108 245.55 589.081 244.87Q589.053 244.19 589.06 243.51Q589.067 242.829 589.108 242.15Q589.149 241.471 589.225 240.795Q589.3 240.119 589.409 239.447Q589.519 238.776 589.662 238.11Q589.805 237.445 589.981 236.788C591.842 229.933 596.171 223.883 602.427 220.385C610.11 216.089 618.273 216.317 626.435 218.763C633.335 222.112 638.929 227.171 641.546 234.618Q642.172 236.377 642.587 238.197C643.806 247.436 642.32 254.215 636.576 261.678C636.36 261.959 636.135 262.234 635.912 262.509Z"/>
	<path fill="#8CB9E3" d="M898.522 959.733C917.224 961.544 933.283 971.168 945.121 985.462C953.856 996.011 959.565 1007.54 962.23 1021.01L912.888 1021.1C908.039 1021.12 900.06 1022.03 895.679 1021.45C896.663 1021.35 897.393 1021.17 898.308 1020.8C899.211 1014.41 898.551 1007.3 898.546 1000.82L898.522 959.733Z"/>
	<path fill="#8CB9E3" d="M126.428 952.943C126.794 975.768 126.277 998.66 126.441 1021.5C104.846 1021.83 83.1402 1021.67 61.5424 1021.4C63.2952 1013.02 66.2431 1005.39 70.5429 997.975C83.7925 975.125 101.4 966.125 125.983 959.59C126.032 957.372 126.253 955.154 126.428 952.943Z"/>
	<path fill="#FEFEFE" d="M70.1067 129.467C71.4525 128.658 72.9458 128.097 74.5115 127.917C80.7734 127.198 87.6618 127.912 94.0034 127.919C111.887 127.939 130.082 128.62 147.931 127.758L149.447 128.174C150.031 146.057 149.542 164.077 149.508 181.974C149.484 194.292 150.154 207.08 149.368 219.346C149.463 223.626 149.762 227.675 153.17 230.763C155.515 232.889 158.428 233.841 161.485 234.367C180.602 235.234 200.244 234.633 219.388 234.268C219.572 220.897 218.369 215.004 208.058 205.649C205.526 203.351 202.823 201.061 200.801 198.284C197.615 193.911 197.155 189.017 198.043 183.809L199.6 185.045C200.547 182.024 201.868 179.329 204.114 177.05C208.385 172.72 213.589 172.084 219.341 172.05C228.415 172.061 237.627 171.755 246.68 172.353L246.709 239.218C246.756 249.216 246.064 259.903 246.94 269.815C246.807 271.41 246.9 273.696 245.974 275.005C241.255 275.709 235.921 275.055 231.119 275.021L193.64 274.914C185.014 274.926 172.882 273.76 164.662 276.325C159.669 277.884 155.174 281.21 152.005 285.346C149.901 288.091 148.046 291.61 147.773 295.115C146.874 299.692 147.305 305.054 147.293 309.727Q147.344 322.271 147.132 334.813L100.868 334.819C92.5494 334.833 83.5517 335.558 75.3536 334.35C73.7072 334.107 72.0365 333.453 70.6538 332.525C69.0073 330.846 67.2894 328.969 66.7795 326.611C65.325 319.885 66.2252 310.37 66.2053 303.294L66.1285 253.79C56.4229 253.52 40.5115 255.238 31.8217 252.762C31.5883 252.691 31.3534 252.626 31.1216 252.55C23.9978 250.223 18.9756 244.242 15.6664 237.814C15.6089 237.659 15.5495 237.505 15.4937 237.35C13.0918 230.655 13.4928 222.761 16.5984 216.369C19.684 210.019 24.685 205.999 31.3001 203.768C38.4102 201.43 62.5067 204.321 65.8601 202.195C66.8846 190.286 66.0915 177.593 65.9251 165.611C66.2124 157.277 65.644 148.932 65.8318 140.6C65.9427 135.681 66.5254 132.917 70.1067 129.467Z"/>
	<path fill="#344476" d="M198.043 183.809L199.6 185.045C199.281 190.984 200.493 195.076 204.499 199.669C206.918 202.441 209.99 204.707 212.696 207.196C222.774 216.468 220.792 223.754 221.085 235.956L219.388 234.268C219.572 220.897 218.369 215.004 208.058 205.649C205.526 203.351 202.823 201.061 200.801 198.284C197.615 193.911 197.155 189.017 198.043 183.809Z"/>
	<path fill="#4D67AF" d="M147.931 127.758L149.447 128.174C150.031 146.057 149.542 164.077 149.508 181.974C149.484 194.292 150.154 207.08 149.368 219.346C149.463 223.626 149.762 227.675 153.17 230.763C155.515 232.889 158.428 233.841 161.485 234.367C180.602 235.234 200.244 234.633 219.388 234.268L221.085 235.956C218.854 237.094 167.384 236.835 160.433 236.171C157.18 235.551 154.001 234.43 151.591 232.062C145.254 225.839 147.416 209.703 147.491 201.176Q147.405 189.208 147.537 177.241C146.821 170.453 147.4 163.031 147.411 156.197C147.426 146.909 146.801 136.976 147.931 127.758Z"/>
	<path fill="#FEFEFE" d="M781.954 177.417C782.139 169.223 781.414 160.837 782.072 152.677C782.645 145.558 785.866 139.222 791.418 134.671Q791.967 134.229 792.537 133.814Q793.107 133.399 793.697 133.012Q794.286 132.626 794.894 132.268Q795.501 131.91 796.126 131.582Q796.75 131.255 797.389 130.957Q798.029 130.66 798.682 130.395Q799.335 130.129 800 129.895Q800.665 129.661 801.34 129.46Q802.016 129.258 802.701 129.09Q803.385 128.922 804.077 128.787Q804.769 128.652 805.467 128.551Q806.165 128.45 806.867 128.382Q807.569 128.315 808.273 128.282Q808.977 128.249 809.682 128.25Q810.387 128.251 811.091 128.286Q811.795 128.322 812.497 128.391C819.421 129.083 824.763 132.346 829.166 137.624C831.943 141.09 833.757 144.412 834.736 148.784C836.145 155.077 834.546 173.686 835.884 176.886C836.179 177.592 836.907 177.839 837.536 178.098C843.331 177.083 850.074 177.74 855.977 177.764L890.1 177.944C897.307 177.754 904.398 177.828 910.009 183.131Q910.78 183.868 911.47 184.682Q912.16 185.497 912.76 186.378Q913.361 187.26 913.867 188.2Q914.372 189.14 914.776 190.127C917.597 197.237 916.348 244.235 916.38 254.83C918.862 255.259 921.351 255.331 923.842 255.69C923.687 255.678 923.531 255.665 923.376 255.655C920.566 255.482 917.51 255.667 914.729 256.127C915.042 256.18 915.356 256.238 915.67 256.288C931.962 258.856 948.029 251.096 960.424 267.005Q960.818 267.514 961.185 268.042Q961.553 268.57 961.894 269.116Q962.234 269.662 962.547 270.225Q962.86 270.787 963.144 271.364Q963.428 271.942 963.682 272.533Q963.937 273.124 964.162 273.727Q964.386 274.33 964.58 274.943Q964.774 275.557 964.937 276.18Q965.1 276.802 965.231 277.432Q965.363 278.062 965.462 278.698Q965.562 279.334 965.629 279.974Q965.696 280.614 965.732 281.256Q965.767 281.899 965.769 282.542Q965.772 283.186 965.743 283.829Q965.713 284.471 965.651 285.112Q965.589 285.752 965.495 286.389Q965.406 287.019 965.285 287.643Q965.163 288.268 965.01 288.885Q964.856 289.502 964.671 290.111Q964.486 290.719 964.27 291.318Q964.054 291.916 963.808 292.502Q963.561 293.089 963.285 293.661Q963.008 294.234 962.703 294.792Q962.397 295.35 962.063 295.891Q961.729 296.433 961.368 296.956Q961.007 297.48 960.619 297.984Q960.231 298.488 959.818 298.972Q959.405 299.455 958.967 299.917Q958.53 300.379 958.069 300.817Q957.608 301.256 957.125 301.67Q956.643 302.084 956.139 302.473Q955.636 302.862 955.113 303.224C943.744 311.198 929.445 306.802 916.614 308.386C915.7 308.785 915.432 308.628 915.076 309.631C913.098 315.213 915.201 353.093 914.302 363.028C912.558 369 909.948 373.87 904.26 376.992C896.15 381.442 885.56 379.539 876.703 380.061Q856.05 379.921 835.397 380.093C835.104 370.276 836.653 358.4 834.846 349.025C833.434 341.696 829.615 336.427 823.484 332.327C817.202 328.422 810.224 327.084 802.973 328.808C796.334 330.388 790.402 334.472 786.947 340.418C785.394 343.091 783.782 346.827 783.649 349.914C782.422 359.737 783.065 370.153 783.067 380.054L726.962 380.369C720.535 380.366 713.665 380.448 708.909 375.468C706.567 373.015 704.967 370.073 704.423 366.717C702.885 357.222 704.058 340.546 704.036 330.243L703.926 247.249L702.064 247.335L702.136 246L702.829 245.446C713.655 244.38 724.669 246.286 735.349 243.822C742.067 241.672 745.839 237.204 749.634 231.604C751.566 227.587 752.705 223.416 752.645 218.929C752.541 211.017 748.857 205.089 743.286 199.833C733.788 193.299 722.422 194.431 711.47 194.309C709.009 194.282 706.216 194.508 703.795 194.104C702.652 193.913 702.598 193.813 701.995 192.904C702.767 189.126 704.501 185.54 707.329 182.868C714.614 175.986 726.026 177.459 735.203 177.647C750.77 177.323 766.379 177.556 781.954 177.417Z"/>
	<path fill="#4D67AF" d="M890.1 177.944C897.307 177.754 904.398 177.828 910.009 183.131Q910.78 183.868 911.47 184.682Q912.16 185.497 912.76 186.378Q913.361 187.26 913.867 188.2Q914.372 189.14 914.776 190.127L913.674 192.571C912.649 189.908 911.186 187.294 909.181 185.246C903.3 179.238 894.951 179.737 887.23 179.627C888.212 179.138 889.156 178.506 890.1 177.944Z"/>
	<path fill="#344476" d="M837.536 178.098C843.331 177.083 850.074 177.74 855.977 177.764L890.1 177.944C889.156 178.506 888.212 179.138 887.23 179.627L835.171 179.528L837.253 178.803L837.536 178.098Z"/>
	<path fill="#344476" d="M914.776 190.127C917.597 197.237 916.348 244.235 916.38 254.83C918.862 255.259 921.351 255.331 923.842 255.69C923.687 255.678 923.531 255.665 923.376 255.655C920.566 255.482 917.51 255.667 914.729 256.127C913.734 241.578 914.583 226.437 914.575 211.832C914.572 205.638 915.218 198.575 913.674 192.571L914.776 190.127Z"/>
	<path fill="#F37B3F" d="M703.765 192.414C716.559 192.169 733.822 190.156 744.441 198.361C750.092 202.489 753.612 207.678 754.581 214.726C755.347 220.298 754.494 226.634 751.944 231.67C748.548 238.709 744.225 242.438 737.237 245.574C734.298 246.383 731.272 247.191 728.19 246.972C725.145 247.079 722.075 247.02 719.027 247.037C714.007 247.05 708.935 246.914 703.926 247.249L702.064 247.335L702.136 246L702.829 245.446C713.655 244.38 724.669 246.286 735.349 243.822C742.067 241.672 745.839 237.204 749.634 231.604C751.566 227.587 752.705 223.416 752.645 218.929C752.541 211.017 748.857 205.089 743.286 199.833C733.788 193.299 722.422 194.431 711.47 194.309C709.009 194.282 706.216 194.508 703.795 194.104C702.652 193.913 702.598 193.813 701.995 192.904L703.765 192.414Z"/>
	<path fill="#4D67AF" d="M781.954 177.417C782.139 169.223 781.414 160.837 782.072 152.677C782.645 145.558 785.866 139.222 791.418 134.671Q791.967 134.229 792.537 133.814Q793.107 133.399 793.697 133.012Q794.286 132.626 794.894 132.268Q795.501 131.91 796.126 131.582Q796.75 131.255 797.389 130.957Q798.029 130.66 798.682 130.395Q799.335 130.129 800 129.895Q800.665 129.661 801.34 129.46Q802.016 129.258 802.701 129.09Q803.385 128.922 804.077 128.787Q804.769 128.652 805.467 128.551Q806.165 128.45 806.867 128.382Q807.569 128.315 808.273 128.282Q808.977 128.249 809.682 128.25Q810.387 128.251 811.091 128.286Q811.795 128.322 812.497 128.391C819.421 129.083 824.763 132.346 829.166 137.624C831.943 141.09 833.757 144.412 834.736 148.784C836.145 155.077 834.546 173.686 835.884 176.886C836.179 177.592 836.907 177.839 837.536 178.098L837.253 178.803L835.171 179.528L834.38 179.457C832.294 175.846 834.959 154.874 832.635 147.487C831.669 144.417 830.095 141.916 828.364 139.244C823.586 134.156 817.763 130.541 810.591 130.191C803.702 129.856 796.504 132.541 791.493 137.25C785.56 142.826 783.895 150.045 783.82 157.859C783.751 165.081 784.031 172.312 783.927 179.531C781.9 179.553 779.713 179.752 777.707 179.504C764.465 179.825 751.18 179.576 737.933 179.533C731.421 179.511 724.31 178.871 717.911 180.024C714.364 180.663 711.315 181.778 708.733 184.383C706.444 186.693 705.014 189.449 703.765 192.414L701.995 192.904C702.767 189.126 704.501 185.54 707.329 182.868C714.614 175.986 726.026 177.459 735.203 177.647C750.77 177.323 766.379 177.556 781.954 177.417Z"/>
	<path fill="#010101" d="M543.928 478.273L543.92 460.599C543.877 451.134 542.759 440.054 549.974 432.654C552.702 429.856 556.642 427.952 560.526 427.529C569.811 426.517 584.098 427.416 593.775 427.416L662.435 427.217L787.735 427.245C819.844 427.172 852.1 426.605 884.199 427.139C890.747 427.248 896.591 428.409 901.252 433.462C903.933 436.369 905.62 439.757 906.02 443.7C907.024 453.599 906.085 464.49 906.127 474.479L906.204 545.577L906.394 629.215C906.439 643.002 907.261 657.269 906.385 670.999C906.026 676.617 904.227 680.668 899.908 684.377C896.986 686.887 893.608 688.258 889.809 688.77C884.729 689.456 879.193 689.084 874.061 689.082L846.461 689.061L750.317 689.069L750.237 712.102C750.18 724.447 748.731 736.453 758.064 746.222C763.462 751.872 770.521 754.327 778.196 754.392C789.59 754.49 800.996 754.349 812.392 754.317C816.87 754.304 822.664 753.607 826.968 754.516C828.009 754.736 828.68 755.055 829.482 755.758C830.454 756.609 831.429 758.433 831.409 759.739C831.396 760.587 831.161 761.455 831.001 762.284C830.818 763.229 830.845 762.817 831.01 763.834C848.003 764.307 865.06 763.628 882.065 763.625L975.518 764.004L975.424 811.587L898.445 811.59C898.511 860.935 897.706 910.404 898.522 959.733L898.546 1000.82C898.551 1007.3 899.211 1014.41 898.308 1020.8C897.393 1021.17 896.663 1021.35 895.679 1021.45C889.021 1020.54 881.827 1021.01 875.101 1021.02L841.313 1021.04C802.409 1021 763.3 1020.33 724.42 1021.44C695.388 1020.55 666.117 1022.68 637.115 1021.18C623.016 1020.75 608.839 1021.01 594.731 1021L520.659 1020.95C473.875 1020.94 426.931 1020.15 380.167 1021.15C370.243 1021.89 360.021 1021.47 350.063 1021.47L296.942 1021.47L294.411 1021.53L129.14 1021.67L126.441 1021.5C126.277 998.66 126.794 975.768 126.428 952.943L126.656 810.94C100.357 810.916 73.9455 811.4 47.6604 810.731Q47.4406 787.546 47.5673 764.36L195.901 764.118C195.9 760.579 195.773 756.981 196.128 753.459Q215.188 753.322 234.247 753.432C240.502 753.463 248.111 754.396 254.182 753.143Q254.937 752.994 255.679 752.789Q256.42 752.583 257.144 752.32Q257.867 752.058 258.569 751.741Q259.27 751.425 259.945 751.055Q260.62 750.686 261.265 750.266Q261.91 749.846 262.521 749.377Q263.132 748.909 263.705 748.396Q264.278 747.882 264.81 747.326C274.182 737.621 273.107 723.816 273.651 711.377L274.782 688.382C241.083 687.706 207.247 688.395 173.535 688.382C163.392 688.378 144.156 689.545 134.773 688.061C130.045 687.313 125.113 685.096 121.846 681.517C119.376 678.81 117.948 675.457 117.561 671.838C116.182 658.956 117.265 645.201 117.271 632.209L117.124 560.195L117.19 484.941C117.18 472.314 116.322 459.062 117.256 446.5C117.711 440.384 119.72 436.05 124.548 432.087C127.793 429.424 131.904 428.018 136.066 427.689C142.825 427.153 149.88 427.523 156.666 427.521L195.96 427.513L319.42 427.482L417.956 427.388L444.975 427.379C451.688 427.371 458.62 427.065 465.276 428.002C469.608 428.613 473.977 432.335 476.426 435.848C482.495 444.553 480.499 459.151 480.508 469.401C498.726 463.68 517.075 463.311 534.249 472.319C537.611 474.083 540.794 476.134 543.928 478.273Z"/>
	<path fill="#9A0804" d="M274.013 521.279C275.127 521.443 276.18 521.742 277.265 522.035C278.115 523.171 277.956 523.262 277.835 524.701C276.746 524.895 275.803 524.964 274.698 524.927C273.722 523.727 274.02 522.796 274.013 521.279Z"/>
	<path fill="#F37B3F" d="M367.948 558.644C368.744 558.983 369.236 559.334 369.918 559.851C370.323 561.488 369.93 562.038 369.384 563.6C367.968 563.164 367.279 563.019 366.437 561.782C366.483 560.421 367.169 559.682 367.948 558.644Z"/>
	<path fill="#FEFEFE" d="M311.296 630.23C312.47 630.312 313.24 630.421 314.298 630.945C314.754 632.519 314.334 633.369 313.943 634.939C313.23 634.881 312.56 634.752 311.858 634.618C310.894 633.133 311.242 631.972 311.296 630.23Z"/>
	<path fill="#FEFEFE" d="M314.535 529.555C315.816 529.506 316.994 529.526 318.275 529.654C319.183 530.809 318.905 531.832 318.934 533.263C317.763 533.204 316.615 533.078 315.45 532.942C314.407 531.75 314.62 531.105 314.535 529.555Z"/>
	<path fill="#F37B3F" d="M232.037 620.603C233.396 620.583 234.633 620.609 235.987 620.794C237.068 621.956 236.928 622.398 237.093 623.937C235.693 623.989 234.345 623.997 232.947 623.894C231.837 622.734 232.095 622.168 232.037 620.603Z"/>
	<path fill="#F37B3F" d="M233.647 602.551C234.094 602.545 235.123 602.516 235.542 602.586C236.559 602.756 236.899 603.478 237.464 604.231C237.277 605.478 237.268 605.574 236.405 606.484C235.757 606.472 234.969 606.51 234.321 606.401C233.073 606.192 232.842 606.094 232.066 605.185C232.325 603.95 232.794 603.458 233.647 602.551Z"/>
	<path fill="#F37B3F" d="M151.735 588.395C153.208 588.362 154.581 588.373 156.041 588.579C157.033 589.786 156.717 590.272 156.614 591.79C155.136 591.946 153.754 592.184 152.292 591.8C151.419 590.499 151.663 589.929 151.735 588.395Z"/>
	<path fill="#FEFEFE" d="M278.322 611.645C279.639 611.555 280.995 611.419 282.315 611.434C283.533 611.447 283.988 611.672 284.85 612.493L284.88 614.14C283.507 614.22 282.073 614.369 280.7 614.323C279.386 614.279 278.883 614.233 277.98 613.273L278.322 611.645Z"/>
	<path fill="#FEFEFE" d="M279.244 530.013C281.692 529.866 284.336 529.314 286.427 530.76L286.69 532.751C284.931 532.701 282.158 533.085 280.584 532.32C279.73 531.905 279.579 530.856 279.244 530.013Z"/>
	<path fill="#FEFEFE" d="M278.595 579.997C280.482 579.907 282.215 579.712 284.033 580.307C284.93 581.372 284.858 581.488 284.926 582.898C283.697 583.046 282.416 583.246 281.177 583.278C279.956 583.309 279.493 583.068 278.634 582.253L278.595 579.997Z"/>
	<path fill="#9A0804" d="M241.505 602.53C243.47 602.473 245.385 602.276 247.267 602.95C248.122 604.082 248.041 604.078 247.937 605.508C246.36 605.65 244.808 605.786 243.224 605.782C241.85 604.778 241.942 604.136 241.505 602.53Z"/>
	<path fill="#FEFEFE" d="M658.98 592.697C661.642 592.349 665.518 591.84 668.078 592.638C669.043 592.939 668.969 593.374 669.397 594.231C666.793 594.636 663.074 595.054 660.558 594.332C659.464 594.019 659.532 593.627 658.98 592.697Z"/>
	<path fill="#9A0804" d="M256.669 521.173C258.491 521.201 260.085 521.282 261.856 521.726C262.992 522.557 263.235 523.034 263.661 524.367C261.63 524.561 259.293 525.064 257.346 524.348C256.441 523.07 256.627 522.696 256.669 521.173Z"/>
	<path fill="#FEFEFE" d="M232.259 560.493C234.725 560.333 237.956 559.615 239.965 561.249L239.875 563.154C237.785 563.361 235.792 563.653 233.706 563.278C232.424 562.313 232.582 562.095 232.259 560.493Z"/>
	<path fill="#F37B3F" d="M275.449 530.007L279.244 530.013C279.579 530.856 279.73 531.905 280.584 532.32C282.158 533.085 284.931 532.701 286.69 532.751C272.877 533.265 258.69 533.191 244.868 532.86C250.697 532.35 271.23 533.802 274.926 532.201L275.449 530.007Z"/>
	<path fill="#FEFEFE" d="M232.326 550.961C234.532 550.966 236.585 550.63 238.771 551.089C240.072 552.202 239.88 552.505 240.094 554.146C237.936 554.268 235.836 554.49 233.701 554.062C232.315 552.993 232.551 552.638 232.326 550.961Z"/>
	<path fill="#FEFEFE" d="M321.524 614.108C319.64 614.203 317.19 614.593 315.479 613.689C314.616 613.234 314.879 613.386 314.527 612.396C314.784 612.008 314.889 611.797 315.282 611.483C316.785 610.28 319.837 610.713 321.663 610.743L321.524 614.108Z"/>
	<path fill="#FEFEFE" d="M235.403 540.241C236.986 540.189 238.94 539.868 240.235 540.965C240.965 541.583 241.117 541.763 241.25 542.692C240.237 543.407 239.827 543.298 238.625 543.42C237.268 543.474 235.498 543.694 234.209 543.276C233.067 542.905 232.493 542.251 232.141 541.172C233.304 540.271 233.961 540.379 235.403 540.241Z"/>
	<path fill="#FEFEFE" d="M658.909 552.704C662.448 552.356 667.554 551.795 671.014 552.67C672.088 552.941 672.033 553.387 672.568 554.293C669.156 554.803 663.363 555.52 660.057 554.392C659.227 554.109 659.229 553.453 658.909 552.704Z"/>
	<path fill="#FEFEFE" d="M189 639.551C191.282 639.432 193.868 638.987 196.016 639.869C196.817 641.21 196.593 641.408 196.335 642.977C194.147 643.026 190.939 643.638 188.983 642.593C188.423 641.288 188.689 640.904 189 639.551Z"/>
	<path fill="#FEFEFE" d="M578.246 615.232C581.184 615.18 585.324 614.658 588.087 615.482C589.072 615.775 588.701 615.558 589.258 616.568L588.846 617.584C585.848 617.641 579.764 618.371 577.176 616.829L577.251 616.031L578.246 615.232Z"/>
	<path fill="#FEFEFE" d="M658.819 561.607C662.357 561.304 668.952 560.429 672.23 561.902L672.387 563.281C668.794 563.695 662.778 564.436 659.375 563.081L658.819 561.607Z"/>
	<path fill="#FEFEFE" d="M153.494 628.739C156.06 628.61 157.863 628.192 159.987 629.77C160.303 631.002 160.314 630.928 159.701 632.042L158.537 632.361C156.267 632.348 153.568 632.797 151.593 631.673C151.34 630.362 151.423 630.336 152.045 629.139L153.494 628.739Z"/>
	<path fill="#FEFEFE" d="M302.62 529.916C305.347 529.736 309.803 528.902 312.21 530.406C312.926 530.853 313.104 532.267 313.349 533.06C310.782 533.211 307.186 533.828 304.743 532.968C303.112 532.394 303.139 531.388 302.62 529.916Z"/>
	<path fill="#F37B3F" d="M576.741 502.578C579.53 502.483 582.976 501.864 585.552 503C586.353 504.4 586.165 504.716 585.994 506.272C585.852 506.287 585.71 506.323 585.567 506.317C584.59 506.274 583.701 506.103 582.705 506.121C582.116 506.132 581.526 506.16 580.937 506.154C579.285 506.14 577.837 505.965 576.682 504.779L576.741 502.578Z"/>
	<path fill="#FEFEFE" d="M185.858 627.612C188.641 627.59 194.135 626.468 196.408 628.147C197.048 628.62 196.908 629.785 196.993 630.523C193.705 630.683 190.245 631.108 187.029 630.332C185.819 629.318 186.013 629.212 185.858 627.612Z"/>
	<path fill="#FEFEFE" d="M376.857 559.47C379.91 559.279 385.395 558.332 388.011 559.891C388.729 560.319 388.842 561.655 389.06 562.436C386.113 562.496 381.485 563.34 378.758 562.221C377.274 561.612 377.335 560.858 376.857 559.47Z"/>
	<path fill="#F37B3F" d="M783.479 469.066C785.93 469.004 789.402 468.463 791.563 469.597C792.251 470.975 791.991 471.49 791.776 472.984C789.335 473.089 785.618 473.727 783.5 472.508C782.919 471.049 783.174 470.573 783.479 469.066Z"/>
	<path fill="#FEFEFE" d="M302.96 610.962C305.713 611.019 311.091 609.855 313.262 611.623C313.84 612.093 313.832 613.623 313.944 614.356C311.039 614.398 306.48 615.443 303.957 613.851C303.168 613.353 303.147 611.85 302.96 610.962Z"/>
	<path fill="#FEFEFE" d="M658.966 634.614C663.285 633.974 671.771 633.346 675.709 634.908L676.287 636.369C671.879 636.53 663.881 637.755 659.895 636.204C659.134 635.908 659.202 635.325 658.966 634.614Z"/>
	<path fill="#FEFEFE" d="M576.313 468.873C579.581 468.733 586.404 467.714 589.14 469.289C589.819 469.679 589.748 470.817 589.881 471.533C586.211 471.622 580.01 472.817 576.808 470.915L576.313 468.873Z"/>
	<path fill="#FEFEFE" d="M310.643 458.668C312.511 458.582 314.05 458.904 315.853 459.303C317.19 458.847 318.502 458.177 319.916 458.589C320.973 459.83 320.951 460.443 321.233 462.018C318.279 462.884 314.283 462.921 311.39 461.901C310.333 460.718 310.62 460.214 310.643 458.668Z"/>
	<path fill="#FEFEFE" d="M576.018 624.236C579.676 624.174 586.808 623.029 589.79 625.055L590.116 626.958C586.606 627.027 578.793 628.151 576.083 626.006L576.018 624.236Z"/>
	<path fill="#F37B3F" d="M303.004 518.182C306.275 518.174 309.89 517.5 313.013 518.504C314.03 519.729 313.785 520.303 313.799 521.86C310.566 521.842 307.102 522.51 304.009 521.507C302.937 520.295 303.117 519.76 303.004 518.182Z"/>
	<path fill="#F37B3F" d="M231.629 630.948C234.349 630.939 237.056 630.776 239.772 630.751C241.26 630.737 243.082 630.723 244.2 631.829L244.189 633.613C243.639 633.851 243.174 634.046 242.586 634.174C239.938 634.748 234.661 635.47 232.423 633.659C231.815 633.166 231.775 631.709 231.629 630.948Z"/>
	<path fill="#FEFEFE" d="M150.899 619.558C154.388 619.353 160.474 618.333 163.564 619.939C164.332 620.338 164.549 621.697 164.834 622.491C161.501 622.635 154.602 623.791 151.807 622.074C151.125 621.655 151.072 620.314 150.899 619.558Z"/>
	<path fill="#FEFEFE" d="M304.257 549.734C307.647 549.712 314.399 548.84 316.937 551.02C316.607 552.086 316.257 552.223 315.463 552.964C312.369 553.032 306.193 553.871 303.54 552.222L303.238 550.32L304.257 549.734Z"/>
	<path fill="#FEFEFE" d="M579.338 644.246C582.801 644.192 588.783 643.414 591.848 645.115L591.91 645.999C590.723 646.898 589.909 646.764 588.447 646.888C585.297 646.955 577.916 647.847 575.508 646.189L575.685 645.049C576.995 644.069 577.731 644.286 579.338 644.246Z"/>
	<path fill="#F37B3F" d="M304.138 639.588C307.757 639.588 311.5 638.766 314.974 639.982C315.885 641.185 315.708 641.748 315.753 643.227C312.216 643.383 308.493 643.974 305.116 642.734C304.026 641.511 304.209 641.176 304.138 639.588Z"/>
	<path fill="#F37B3F" d="M232.427 590.63C236.522 590.671 240.604 590.039 244.633 590.918C245.893 591.932 245.781 592.44 246.13 593.979C242.93 593.932 235.383 595.177 232.934 593.323C232.342 592.875 232.481 591.357 232.427 590.63Z"/>
	<path fill="#F37B3F" d="M254.831 501.922C258.147 501.788 265.625 500.614 268.494 502.436C269.21 502.891 269.229 504.36 269.39 505.168C265.753 505.311 259.366 506.401 256.139 504.617C255.293 504.15 255.13 502.809 254.831 501.922Z"/>
	<path fill="#FEFEFE" d="M575.311 653.13C580.092 652.607 585.485 652.459 590.289 652.908C592.704 653.134 593.326 653.458 594.875 655.332C590.592 655.678 580.467 656.616 576.717 655.189C575.746 654.82 575.72 654.035 575.311 653.13Z"/>
	<path fill="#FEFEFE" d="M576.335 511.992C580.114 511.923 591.78 510.732 594.278 512.813L594.379 514.649C589.919 514.584 581.088 516.138 577.257 514.25C576.446 513.851 576.523 512.805 576.335 511.992Z"/>
	<path fill="#F37B3F" d="M150.958 506.664C155.624 506.678 160.473 505.833 165.039 506.942C166.079 507.984 165.819 508.493 165.857 509.926C162.305 509.868 154.37 511.211 151.522 509.317C150.845 508.867 151.015 507.44 150.958 506.664Z"/>
	<path fill="#FEFEFE" d="M575.066 606.648C578.97 606.053 590.241 605.477 593.779 606.717C594.719 607.047 594.695 607.646 595.098 608.506C591.018 609.554 579.41 610.014 575.706 608.366L575.066 606.648Z"/>
	<path fill="#FEFEFE" d="M658.855 603.995C663.057 603.923 674.395 602.785 677.777 604.403C678.535 604.766 678.516 605.747 678.726 606.499C674.383 606.531 662.893 607.784 659.281 605.858L658.855 603.995Z"/>
	<path fill="#FEFEFE" d="M729.264 519.152C732.902 519.12 742.278 517.656 745.07 519.648C745.676 520.08 745.627 521.471 745.727 522.189C742.033 522.102 732.756 523.431 729.872 521.532C729.247 521.121 729.347 519.863 729.264 519.152Z"/>
	<path fill="#FEFEFE" d="M150.909 609.948C154.764 609.793 163.602 608.544 166.649 610.45C167.291 610.852 167.273 612.13 167.401 612.848C163.317 613.031 155.54 614.264 151.997 612.512C151.256 612.145 151.129 610.722 150.909 609.948Z"/>
	<path fill="#FEFEFE" d="M728.873 479.514C732.922 479.536 741.581 478.135 744.988 480.008C745.699 480.398 745.648 481.796 745.772 482.565C741.784 482.487 732.851 483.898 729.558 481.991C728.887 481.603 728.971 480.25 728.873 479.514Z"/>
	<path fill="#DB2416" d="M150.778 598.091C154.466 598.004 169.227 596.935 171.542 598.487C172.112 598.87 171.923 599.753 171.964 600.379C167.887 600.482 154.418 601.671 151.262 599.917L150.778 598.091Z"/>
	<path fill="#FEFEFE" d="M150.846 481.473C153.896 481.415 166.513 480.523 168.413 482.009L168.645 484.484C164.706 484.447 154.202 485.916 151.173 483.685L150.846 481.473Z"/>
	<path fill="#FEFEFE" d="M728.49 459.58C732.511 459.414 741.874 458.184 745.334 460.124C746.088 460.547 746.233 461.746 746.495 462.534C742.525 462.855 732.453 463.941 729.358 462.06C728.697 461.658 728.651 460.314 728.49 459.58Z"/>
	<path fill="#FEFEFE" d="M232.48 521.046C235.977 521.084 248.569 519.99 251.026 521.695C251.596 522.09 251.53 523.422 251.614 524.091C247.429 523.993 236.14 525.5 232.784 523.146L232.48 521.046Z"/>
	<path fill="#FEFEFE" d="M728.754 549.425C733.389 549.217 741.127 548.135 745.453 549.573C747.032 550.098 747.031 551.01 747.56 552.407C743.86 552.456 732.433 553.629 729.711 551.849C729.108 551.454 728.951 550.11 728.754 549.425Z"/>
	<path fill="#FEFEFE" d="M153.199 649.729C157.298 649.592 163.98 648.616 167.627 650.401C168.197 651.497 168.132 651.492 167.849 652.707L166.625 653.101C162.437 653.176 157.188 653.816 153.144 652.907C152.021 652.655 151.909 652.54 151.333 651.621L151.759 650.239L153.199 649.729Z"/>
	<path fill="#FEFEFE" d="M575.99 494.601C579.316 494.127 594.44 493.535 596.948 494.963L597.372 497.125C593.24 497.661 580.136 497.921 576.67 496.45L575.99 494.601Z"/>
	<path fill="#FEFEFE" d="M658.392 489.552C662.575 489.431 675.644 488.227 678.705 490.25L679.068 492.082C673.016 492.914 665.851 492.571 659.719 492.281C658.731 491.524 658.737 490.712 658.392 489.552Z"/>
	<path fill="#F37B3F" d="M659.098 540.605C662.7 540.587 673.164 539.152 675.754 541.517L675.279 543.338C670.899 544.737 664.383 545.009 659.974 543.647C658.984 542.539 659.175 542.054 659.098 540.605Z"/>
	<path fill="#FEFEFE" d="M232.347 501.496C236.407 501.538 247.188 500.278 250.499 502.051C251.219 502.437 251.253 503.784 251.425 504.551C248.04 504.579 235.089 505.486 232.681 504.057L232.347 501.496Z"/>
	<path fill="#FEFEFE" d="M151.073 516.251C155.077 516.141 166.158 514.891 169.156 517.171C169.776 517.643 169.669 518.518 169.776 519.236L169.325 519.257C165.391 519.434 153.985 520.911 151.086 518.266L151.073 516.251Z"/>
	<path fill="#FEFEFE" d="M152.307 639.732C157.074 639.79 164.069 638.409 168.427 640.34C169.069 641.618 168.702 641.743 168.302 643.053C162.892 643.113 157.193 643.555 151.834 642.833L151.274 641.996C151.474 640.698 151.198 640.557 152.307 639.732Z"/>
	<path fill="#FEFEFE" d="M658.789 572.934C662.819 572.941 677.342 571.808 679.808 573.823L679.971 575.738C675.746 575.648 662.612 577.059 659.544 575.294C658.871 574.906 658.914 573.663 658.789 572.934Z"/>
	<path fill="#F37B3F" d="M780.515 630.804C784.38 630.838 792.935 629.507 796.166 631.211C797.551 631.941 797.412 632.839 797.69 634.216C792.785 634.999 786.647 634.74 781.678 634.364C780.607 633.416 780.741 632.183 780.515 630.804Z"/>
	<path fill="#FEFEFE" d="M232.104 490.994C236.417 491.073 247.223 489.887 250.722 491.825C251.563 492.29 251.585 493.277 251.86 494.135C245.988 494.562 239.075 494.955 233.291 494.061C232.301 493.23 232.369 492.226 232.104 490.994Z"/>
	<path fill="#FEFEFE" d="M234.438 480.248C239.461 480.148 245.65 479.43 250.508 480.395C251.471 480.586 251.846 480.597 252.386 481.445C251.757 482.692 251.647 482.687 250.382 483.315C246.403 483.381 236.568 484.368 233.211 482.841C232.349 482.449 232.672 482.67 232.272 481.617L232.782 480.489L234.438 480.248Z"/>
	<path fill="#F37B3F" d="M347.744 610.562C351.658 610.66 362.161 609.255 365.055 611.393C365.688 611.861 365.636 613.395 365.738 614.159C362.576 614.182 349.734 615.227 347.784 613.422L347.744 610.562Z"/>
	<path fill="#FEFEFE" d="M336.976 590.336C340.494 590.309 355.89 589.417 357.854 590.98L358.08 593.377C353.867 593.352 340.397 594.573 337.373 592.724L336.976 590.336Z"/>
	<path fill="#F37B3F" d="M658.605 478.572C664.649 478.526 670.776 478.264 676.807 478.684C677.657 479.545 677.469 480.636 677.578 481.815C671.757 482.253 665.309 482.458 659.504 481.864C658.646 480.925 658.767 479.81 658.605 478.572Z"/>
	<path fill="#F37B3F" d="M729.258 559.054C734.477 559.063 739.991 558.134 745.095 559.384C746.396 560.53 746.116 561.062 746.239 562.742C742.318 562.783 738.369 563.215 734.459 563.105C732.384 563.047 730.572 563.077 729.099 561.548L729.258 559.054Z"/>
	<path fill="#F37B3F" d="M321.663 610.743C325.729 610.712 337.387 609.816 340.518 611.071L340.961 612.362C340.202 613.424 339.633 613.687 338.333 613.933C333.025 614.937 326.944 613.917 321.524 614.108L321.663 610.743Z"/>
	<path fill="#FEFEFE" d="M384.062 500.042C387.596 500.009 404.551 499.18 406.375 500.756L406.309 502.837C399.52 503.508 391.779 503.566 384.993 502.899C384.051 502.03 384.223 501.269 384.062 500.042Z"/>
	<path fill="#FEFEFE" d="M576.56 539.119C581.009 539.068 598.114 537.815 601.223 540.263L601.384 541.746C593.53 541.853 585.527 542.275 577.689 541.826C576.68 541.018 576.808 540.338 576.56 539.119Z"/>
	<path fill="#FEFEFE" d="M658.637 522.032C665.162 521.997 671.821 521.722 678.328 522.174C679.154 523.047 679.02 524.231 679.161 525.406C672.695 525.464 666.121 525.742 659.671 525.326C658.762 524.453 658.845 523.254 658.637 522.032Z"/>
	<path fill="#FEFEFE" d="M180.792 587.235C184.538 587.148 196.798 586.408 199.702 587.462C200.249 588.593 200.171 588.726 199.961 589.983L199.04 590.517C195.182 590.556 181.922 591.458 179.653 589.561C179.857 588.184 179.738 588.109 180.792 587.235Z"/>
	<path fill="#FEFEFE" d="M598.873 548.748C599.415 548.731 599.957 548.712 600.5 548.726C601.867 548.76 602.367 548.735 603.312 549.751L602.927 550.454C597.838 552.555 587.71 551.513 581.994 551.52C581.25 551.551 580.497 551.596 579.751 551.589C578.484 551.576 578.01 551.736 577.06 550.763L577.197 549.637C579.833 547.752 594.662 548.738 598.873 548.748Z"/>
	<path fill="#FEFEFE" d="M302.869 488.569C309.968 488.485 317.21 488.124 324.29 488.597C325.563 489.416 325.51 490.193 325.949 491.609C318.984 492.011 311.227 492.133 304.297 491.497C303.135 490.743 303.219 489.86 302.869 488.569Z"/>
	<path fill="#F37B3F" d="M151.426 579.569C157.472 579.615 164.015 578.986 169.985 579.8C170.701 581.034 170.539 581.899 170.562 583.309C164.463 583.325 157.938 583.769 151.908 582.934C151.314 581.885 151.458 580.754 151.426 579.569Z"/>
	<path fill="#FEFEFE" d="M577.098 477.253C581.468 477.183 600.185 476.084 602.855 477.891L602.887 479.597C600.59 479.927 598.333 479.989 596.017 480.016C592.712 480.054 578.748 480.982 577.004 479.277L577.098 477.253Z"/>
	<path fill="#FEFEFE" d="M576.314 521.518C581.138 521.447 600.601 520.383 603.859 521.799L604.456 524.016C600.171 524.072 579.405 525.104 576.803 523.656L576.314 521.518Z"/>
	<path fill="#FEFEFE" d="M768.232 498.726L782.204 498.705C784.452 498.716 789.373 498.219 791.036 499.9C791.068 501.051 791.079 501.041 790.369 501.946C783.75 502.012 775.575 502.979 769.088 501.793C767.876 501.571 767.774 501.404 767.078 500.469C767.446 499.595 767.601 499.37 768.232 498.726Z"/>
	<path fill="#FEFEFE" d="M797.219 559.433C804.493 559.357 812.453 558.651 819.646 559.614C820.711 560.512 820.69 561.282 821.059 562.581C816.587 562.849 802.791 563.636 799.045 562.539C797.818 562.18 797.612 560.501 797.219 559.433Z"/>
	<path fill="#FEFEFE" d="M150.12 492.01C153.682 491.706 172.013 491.117 174.011 492.467L174.458 494.878C167.216 495.467 158.958 495.476 151.725 494.925C150.415 494.128 150.529 493.45 150.12 492.01Z"/>
	<path fill="#F37B3F" d="M339.69 602.512C343.67 602.525 358.415 601.284 361.056 603.368C361.66 603.845 361.715 605.245 361.868 605.987C354.721 606.017 347.334 606.417 340.22 605.803C339.296 604.67 339.638 603.918 339.69 602.512Z"/>
	<path fill="#F37B3F" d="M576.918 460.614C584.411 460.537 592.975 459.669 600.362 460.784C601.201 462.012 600.952 462.42 600.828 463.866C597.234 463.827 578.814 464.535 577.001 462.998L576.918 460.614Z"/>
	<path fill="#F37B3F" d="M254.36 462.22C250.538 462.674 235.926 463.51 232.958 461.761C232.33 461.391 232.547 461.407 232.422 460.555L233.42 459.339C239.425 457.927 248.529 458.94 254.838 458.977L254.36 462.22Z"/>
	<path fill="#F37B3F" d="M317.504 639.477C324.578 639.443 331.757 639.178 338.815 639.621C339.799 640.568 339.652 641.722 339.837 643.045C333.263 643.158 326.016 643.868 319.524 642.986C318.268 641.996 318.088 640.945 317.504 639.477Z"/>
	<path fill="#FEFEFE" d="M729.369 639.557C737.467 639.502 745.707 639.138 753.787 639.638C754.844 640.519 754.715 641.363 754.968 642.67C750.953 642.599 731.76 643.67 729.622 642.01L729.369 639.557Z"/>
	<path fill="#FFBE79" d="M360.677 634.006C353.294 634.238 333.383 635.354 327.324 632.863L327.284 632.076C330.142 629.514 342.099 630.808 345.939 630.909C350.23 634.068 355.768 632.658 360.677 634.006Z"/>
	<path fill="#FEFEFE" d="M729.52 612.232C733.69 612.311 752.514 611.32 754.957 613.001L755.415 615.527C747.06 615.556 738.304 616.123 730.002 615.339C729.282 614.206 729.502 613.532 729.52 612.232Z"/>
	<path fill="#FEFEFE" d="M303.432 478.606C307.757 478.568 329.456 477.468 331.738 479.303L331.923 481.483C322.731 481.527 313.314 482.005 304.15 481.365C303.35 480.506 303.528 479.741 303.432 478.606Z"/>
	<path fill="#FEFEFE" d="M341.399 639.714C347.494 639.792 361.987 638.548 366.997 640.249C367.56 641.369 367.47 641.704 367.382 642.975C359.925 643.038 348.543 644.125 341.601 642.703C340.964 641.489 341.207 641.043 341.399 639.714Z"/>
	<path fill="#FEFEFE" d="M232.089 468.931C240.663 468.92 249.38 468.591 257.933 469.121C258.582 470.024 258.382 471.03 258.415 472.123C250.438 472.718 241.361 472.911 233.406 472.184C232.284 471.206 232.381 470.362 232.089 468.931Z"/>
	<path fill="#FEFEFE" d="M345.939 630.909C354.214 630.8 369.169 629.6 376.757 631.085C377.578 632.04 377.44 632.049 377.356 633.327C375.692 634.903 363.676 634.056 360.83 634.015C360.779 634.014 360.728 634.009 360.677 634.006C355.768 632.658 350.23 634.068 345.939 630.909Z"/>
	<path fill="#FEFEFE" d="M589.72 469.064C594.052 468.551 618.829 467.903 621.819 469.304L622.399 471.223C614.864 472.476 599.159 471.903 591.1 471.495C589.925 470.755 590.107 470.345 589.72 469.064Z"/>
	<path fill="#FEFEFE" d="M659.026 468.067C668.778 467.665 679.043 467.607 688.786 468.17C689.778 468.973 689.656 469.639 689.904 470.843C680.331 471.293 669.86 471.683 660.334 470.797C659.251 470.008 659.348 469.316 659.026 468.067Z"/>
	<path fill="#FEFEFE" d="M254.838 458.977C261.46 458.92 278.751 457.564 284.011 460.128C282.611 461.771 281.9 461.721 279.778 461.917C271.405 462.692 262.788 461.82 254.36 462.22L254.838 458.977Z"/>
	<path fill="#FEFEFE" d="M801.39 499.146C809.568 499.117 822.277 498.125 829.878 499.453C830.8 500.494 830.614 501.05 830.693 502.41C821.605 502.463 811.579 503.406 802.577 502.257C801.407 501.236 801.596 500.648 801.39 499.146Z"/>
	<path fill="#FEFEFE" d="M729.477 498.667C738.729 498.707 748.396 497.904 757.578 498.807C758.743 499.801 758.507 500.49 758.665 501.976C749.323 502.005 739.368 502.759 730.102 501.767C729.337 500.713 729.528 499.933 729.477 498.667Z"/>
	<path fill="#FEFEFE" d="M150.48 459.57C154.722 459.216 179.135 458.564 181.837 459.839C182.452 460.129 182.632 461.552 182.824 462.2C174.08 463.146 160.667 462.825 151.706 462.337C150.688 461.523 150.773 460.795 150.48 459.57Z"/>
	<path fill="#FEFEFE" d="M609.654 529.743C611.34 529.784 612.283 529.884 613.743 530.758C613.581 530.995 613.447 531.254 613.257 531.47C611.5 533.463 586.125 532.67 582.125 532.673C581.012 532.717 579.852 532.807 578.742 532.725C577.558 532.638 577.065 532.457 576.329 531.502L576.829 530.288C587.662 529.301 598.759 530.31 609.654 529.743Z"/>
	<path fill="#FEFEFE" d="M591.918 485.739C597.469 485.606 604.828 484.597 610.175 485.876C610.622 486.993 610.657 487.018 610.327 488.168C607.832 489.43 598.994 488.638 595.75 488.629C591.342 488.677 580.004 489.721 576.685 487.754L576.861 486.927C580.358 484.829 587.84 485.734 591.918 485.739Z"/>
	<path fill="#FEFEFE" d="M409.456 570.046C416.165 569.613 432.184 568.849 438.182 570.208C438.9 571.41 438.844 571.823 438.875 573.246C430.079 573.287 418.54 574.313 410.096 572.894C409.327 571.965 409.519 571.216 409.456 570.046Z"/>
	<path fill="#FEFEFE" d="M150.685 539.553C160.7 539.472 171.679 538.525 181.589 539.672C182.491 540.76 182.287 541.323 182.325 542.708C173.577 542.742 159.484 543.718 151.378 542.548C150.458 541.488 150.697 540.924 150.685 539.553Z"/>
	<path fill="#FEFEFE" d="M660.428 498.733C669.067 498.751 686.346 497.842 693.951 499.238C694.57 500.208 694.378 500.063 694.15 501.106L693.094 501.627C688.043 501.632 662.457 502.518 659.798 501.338C658.925 500.951 658.997 500.554 658.651 499.727C659.112 499.097 659.717 499.022 660.428 498.733Z"/>
	<path fill="#FEFEFE" d="M764.893 612.01C775.24 612.033 786.176 611.31 796.444 612.374C797.523 613.329 797.253 614.003 797.362 615.377C786.948 615.3 776.248 616.001 765.881 615.231C764.794 614.194 765.021 613.474 764.893 612.01Z"/>
	<path fill="#F37B3F" d="M303.047 602.475C312.93 602.448 323.307 601.673 333.123 602.674C334.233 603.582 334.361 604.592 334.846 605.909C324.661 605.839 314.247 606.463 304.099 605.751C303.177 604.695 303.264 603.825 303.047 602.475Z"/>
	<path fill="#FEFEFE" d="M244.868 532.86C241.405 533.03 237.154 533.528 233.78 533.035C232.588 532.861 232.373 532.415 231.629 531.552L232.504 531.339L232.412 530.828L231.633 531.473C232.526 530.761 233.252 530.486 234.364 530.332C238.927 529.7 243.883 530.055 248.49 530.045L275.449 530.007L274.926 532.201C271.23 533.802 250.697 532.35 244.868 532.86Z"/>
	<path fill="#FEFEFE" d="M150.906 528.89C155.6 528.783 188.618 528.265 190.355 529.499L190.428 531.891C177.665 531.903 164.548 532.693 151.837 531.829C150.825 530.928 151.046 530.186 150.906 528.89Z"/>
	<path fill="#FEFEFE" d="M231.85 611.569C246.388 611.128 261.572 610.939 276.087 611.682C276.937 612.468 276.786 613.048 276.976 614.157C271.056 614.189 235.486 615.155 232.65 613.798C232.04 613.506 231.993 612.21 231.85 611.569Z"/>
	<path fill="#FEFEFE" d="M747.018 559.553C760.371 559.502 774.039 558.855 787.355 559.632C788.114 560.507 787.874 561.373 787.902 562.5C774.862 562.515 761.274 563.504 748.313 562.446C747.224 561.533 747.315 560.914 747.018 559.553Z"/>
	<path fill="#FEFEFE" d="M365.784 569.578C377.843 569.477 390.696 568.739 402.688 569.719C403.582 570.831 403.426 571.674 403.559 573.056C391.333 572.984 378.728 573.621 366.56 572.691C365.568 571.678 365.844 570.94 365.784 569.578Z"/>
	<path fill="#FEFEFE" d="M339.405 478.484C352.603 478.496 366.572 477.456 379.683 478.601C380.722 479.54 380.507 480.217 380.663 481.552C375.435 481.565 341.711 482.329 339.756 480.877L339.405 478.484Z"/>
	<path fill="#FEFEFE" d="M578.18 634.715C584.588 634.705 619.85 633.59 622.842 635.736L622.92 636.23L621.448 637.438C614.514 637.468 580.022 638.663 576.855 636.51L576.886 635.751L578.18 634.715Z"/>
	<path fill="#FEFEFE" d="M150.665 470.599C163.505 470.556 176.895 469.67 189.658 470.708C190.652 471.789 190.417 472.379 190.469 473.814C184.87 473.839 152.865 474.709 150.785 472.997L150.665 470.599Z"/>
	<path fill="#FEFEFE" d="M604.275 583.749L615.945 583.682C617.906 583.675 619.169 583.403 620.632 584.854L620.551 585.94C616.905 587.847 597.642 586.71 592.875 586.683C588.244 586.677 579.677 587.734 575.675 585.44L576.958 586.079L576.601 584.8C582.353 582.605 597.341 583.76 604.275 583.749Z"/>
	<path fill="#FEFEFE" d="M150.63 549.084C163.653 549.062 177.142 548.337 190.106 549.33C191.207 550.289 190.961 550.923 191.078 552.341C177.957 552.341 164.566 553.007 151.485 552.261C150.464 551.198 150.704 550.523 150.63 549.084Z"/>
	<path fill="#F37B3F" d="M762.621 639.594L784.947 639.654C789.145 639.643 794.043 639.119 798.148 639.951C798.83 641.249 798.624 641.798 798.501 643.233C794.097 643.252 764.933 644.231 762.801 642.37L762.621 639.594Z"/>
	<path fill="#F37B3F" d="M328.21 529.9C333.722 529.665 357.154 528.583 360.858 530.542C361.459 531.861 361.372 532.301 361.266 533.77C352.199 533.786 337.556 534.75 329.163 533.567C328.245 532.392 328.375 531.349 328.21 529.9Z"/>
	<path fill="#FEFEFE" d="M729.138 469.495L755.455 469.451C761.082 469.425 766.816 469.115 772.418 469.684C773.285 470.547 773.263 471.5 773.519 472.672C767.954 472.635 731.4 473.501 729.264 471.928L729.138 469.495Z"/>
	<path fill="#FEFEFE" d="M232.011 511.649C237.339 511.263 280.433 511.027 282.085 512.255L282.377 514.308C276.148 514.521 235.566 515.084 232.655 513.707L232.011 511.649Z"/>
	<path fill="#FEFEFE" d="M658.803 460.079C663.933 459.83 699.457 459.193 701.948 460.079C703.176 460.516 703.092 461.674 703.373 462.781C698.528 463.67 692.77 463.124 687.82 463.149C678.658 463.195 669.408 463.506 660.257 463.061C659.054 462.236 659.161 461.437 658.803 460.079Z"/>
	<path fill="#FEFEFE" d="M658.954 582.041C664.849 582.032 703.808 581.248 706.045 582.551C706.627 582.89 706.778 584.447 706.943 585.106C700.374 585.093 661.374 585.911 659.282 584.371L658.954 582.041Z"/>
	<path fill="#FEFEFE" d="M658.48 612.597C666.003 612.338 673.614 612.556 681.146 612.532C689.326 612.506 697.59 612.225 705.759 612.664C706.687 613.452 706.601 614.15 706.853 615.301C699.99 615.947 692.763 615.56 685.857 615.58C677.209 615.605 668.417 615.946 659.788 615.415C658.703 614.766 658.784 613.782 658.48 612.597Z"/>
	<path fill="#FEFEFE" d="M347.231 559.256C350.423 559.167 354.823 558.382 357.455 560.289L357.205 561.582C353.601 563.577 326.883 562.482 320.749 562.485C318.252 562.597 315.158 563.094 312.755 562.406C312.019 561.489 312.063 561.505 312.109 560.323C314.167 558.32 342.468 559.245 347.231 559.256Z"/>
	<path fill="#FEFEFE" d="M754.579 549.237C769.759 549.324 785.26 548.404 800.392 549.328C801.408 550.296 801.231 551.015 801.413 552.355L774.914 552.35C768.446 552.377 761.831 552.697 755.383 552.232C754.393 551.184 754.647 550.614 754.579 549.237Z"/>
	<path fill="#FEFEFE" d="M332.851 488.539C348.848 488.544 365.277 487.613 381.205 488.697C382.238 489.491 382.07 490.275 382.282 491.512L352.473 491.554C346.294 491.578 339.994 491.866 333.833 491.369C332.801 490.458 333.011 489.847 332.851 488.539Z"/>
	<path fill="#FEFEFE" d="M232.45 580.129C245.834 580.061 262.7 579.075 275.675 580.169C276.737 581.276 276.465 581.664 276.45 583.153C268.618 583.579 260.675 583.366 252.829 583.416C246.357 583.456 239.683 583.909 233.251 583.238C232.253 582.171 232.515 581.528 232.45 580.129Z"/>
	<path fill="#F37B3F" d="M658.891 642.515C664.088 642.538 703.223 641.873 705.416 643.487L705.673 645.889L678.701 645.836C672.382 645.875 665.957 646.195 659.657 645.752C658.794 644.692 658.985 643.842 658.891 642.515Z"/>
	<path fill="#F37B3F" d="M728.928 630.878C736.541 630.889 769.402 629.916 774.074 631.25C774.636 632.502 774.407 632.884 774.152 634.256C759.701 634.285 744.768 635.196 730.384 634.178C729.229 633.207 729.279 632.319 728.928 630.878Z"/>
	<path fill="#FEFEFE" d="M658.977 532.198C674.449 531.95 690.231 531.606 705.688 532.162C706.758 533.088 706.476 534.009 706.578 535.369L676.778 535.472C671.121 535.489 665.308 535.774 659.675 535.274C658.792 534.182 659.022 533.549 658.977 532.198Z"/>
	<path fill="#FEFEFE" d="M658.918 512.204C666.34 512.134 702.801 510.981 706.486 512.57C707.202 513.713 707.024 513.945 706.877 515.31C698.904 515.78 690.738 515.475 682.739 515.499C675.086 515.522 667.211 515.911 659.591 515.316C658.76 514.211 658.967 513.539 658.918 512.204Z"/>
	<path fill="#FEFEFE" d="M302.897 468.608C308.384 468.328 353.548 467.992 355.416 468.92C356.031 469.226 356.234 470.495 356.451 471.133C353.321 472.437 310.577 471.809 304.01 471.522C303.097 470.722 303.149 469.767 302.897 468.608Z"/>
	<path fill="#FEFEFE" d="M384.283 519.137C399.521 518.533 415.039 518.665 430.295 518.793C431.628 518.804 433.885 518.582 434.8 519.52L434.521 522.169L403.454 522.258C397.36 522.272 391.097 522.573 385.027 522.07C384.265 521.201 384.402 520.263 384.283 519.137Z"/>
	<path fill="#FEFEFE" d="M576.533 568.654L606.308 568.492C612.164 568.466 618.173 568.163 623.999 568.706C624.736 569.821 624.516 570.634 624.524 571.936L595.36 572.087C589.428 572.124 583.219 572.517 577.329 571.884C576.29 570.909 576.594 570.025 576.533 568.654Z"/>
	<path fill="#FEFEFE" d="M338.073 519.247C345.498 519.231 372.664 517.824 377.448 520.386L377.558 521.074C374.593 523.162 370.191 522.515 366.75 522.444C359.411 522.463 332.073 523.704 326.678 521.396L326.545 520.699C329.738 518.571 334.427 519.198 338.073 519.247Z"/>
	<path fill="#FEFEFE" d="M728.844 570.039C737.535 569.571 746.429 569.923 755.139 569.901C764.527 569.876 774.082 569.48 783.45 570.066C784.694 570.855 784.579 571.614 784.962 572.975C779.392 573.162 732.953 573.721 730.554 572.919C729.322 572.507 729.23 571.141 728.844 570.039Z"/>
	<path fill="#F37B3F" d="M231.617 639.32C238.209 639.354 278.316 638.251 280.986 640.004L281.407 642.566Q266.013 642.85 250.616 642.933C244.776 642.97 238.775 643.292 232.954 642.794C231.924 641.843 231.932 640.659 231.617 639.32Z"/>
	<path fill="#FEFEFE" d="M309.078 498.657Q326.013 498.845 342.949 498.809C350.514 498.807 358.162 498.55 365.709 499.012C366.729 499.756 366.604 500.607 366.849 501.803C356.798 502.281 346.545 501.893 336.474 501.91C327.574 501.925 318.337 502.453 309.473 501.75L309.078 498.657Z"/>
	<path fill="#FEFEFE" d="M303.064 539.595L339.105 539.486C346.113 539.468 353.206 539.211 360.2 539.677C361.216 540.486 361.101 541.393 361.346 542.628C354.178 542.577 305.677 543.42 303.523 542.012L303.064 539.595Z"/>
	<path fill="#FEFEFE" d="M150.984 568.572L182.331 568.48C188.405 568.462 194.64 568.164 200.69 568.648C201.708 569.806 201.407 570.318 201.354 571.82C193.027 572.716 184.151 572.111 175.762 572.121C167.878 572.13 159.438 572.781 151.623 571.888C150.813 570.9 151.041 569.822 150.984 568.572Z"/>
	<path fill="#FEFEFE" d="M325.117 549.739L363.018 549.695C369.958 549.696 377.253 549.25 384.149 549.945C385.029 550.915 384.753 551.682 384.774 552.946C378.44 552.981 326.687 553.617 324.57 552.015C324.469 550.907 324.602 550.743 325.117 549.739Z"/>
	<path fill="#F37B3F" d="M752.069 479.455L785.262 479.284C791.147 479.279 797.436 478.862 803.261 479.712C804.221 480.785 803.959 481.242 803.936 482.645C792.908 483.076 781.888 483.063 770.854 483.113C765.01 483.14 758.89 483.629 753.093 482.912C752.268 481.858 752.274 480.748 752.069 479.455Z"/>
	<path fill="#FEFEFE" d="M302.999 569.488L341.089 569.349C347.778 569.333 354.814 568.885 361.461 569.592C362.254 570.574 361.954 571.399 361.925 572.623L323.988 572.671C317.295 572.699 310.576 572.985 303.888 572.707C302.819 571.657 303.092 570.923 302.999 569.488Z"/>
	<path fill="#F37B3F" d="M729.365 528.989C745.798 528.938 764.893 528.077 781.099 529.169C782.115 530.362 781.906 531.415 782.025 532.951L748.169 532.994C742.222 532.999 735.776 533.49 729.899 532.708C729.048 531.447 729.334 530.485 729.365 528.989Z"/>
	<path fill="#F37B3F" d="M729.412 602.531L768.404 602.475C775.231 602.469 782.375 602.028 789.164 602.704C790.082 603.811 789.915 604.665 790.031 606.076L752.643 606.017C745.252 606.044 737.681 606.436 730.314 605.896C729.193 604.907 729.502 603.967 729.412 602.531Z"/>
	<path fill="#FEFEFE" d="M806.739 570.235C812.947 570.248 866.011 569.401 867.938 570.963C868.07 572.115 867.92 572.576 867.393 573.603L825.05 573.622C819.312 573.627 811.811 574.601 806.315 573.362C805.499 572.331 805.675 572.151 805.737 570.813L806.739 570.235Z"/>
	<path fill="#F37B3F" d="M755.144 539.257C760.727 539.198 786.654 538.173 790.657 539.984C791.087 541.132 791.094 541.14 790.716 542.305C788.154 543.942 768.679 543.016 764.25 542.996C755.013 542.945 737.765 544.218 729.49 542.565L729.006 541.563L729.558 540.227C732.416 538.614 750.552 539.304 755.144 539.257Z"/>
	<path fill="#FEFEFE" d="M729.435 508.717L792.644 508.898C797.29 508.904 811.78 508.088 815.451 509.123C816.28 510.306 815.976 510.516 815.844 511.897L767.114 511.784C755.447 511.79 743.67 512.156 732.012 511.789C730.645 511.746 730.173 511.83 729.229 510.805L729.435 508.717Z"/>
	<path fill="#FEFEFE" d="M729.005 581.485L780.428 581.502C790.768 581.514 801.343 581.087 811.651 581.736C812.7 582.788 812.475 583.384 812.57 584.833L761.204 584.667C750.81 584.65 740.181 585.096 729.827 584.397C728.845 583.425 729.092 582.805 729.005 581.485Z"/>
	<path fill="#FEFEFE" d="M303.304 580.236C320.567 579.904 337.875 580.155 355.143 580.121C364.131 580.104 373.564 579.319 382.506 579.963C383.734 580.052 384.628 580.119 385.663 580.854C385.754 582.095 385.579 582.165 384.875 583.218C369.416 583.823 353.769 583.404 338.294 583.44C326.744 583.468 314.79 584.144 303.281 583.38L302.532 582.52C302.623 581.271 302.434 581.238 303.304 580.236Z"/>
	<path fill="#F37B3F" d="M730.111 488.189L777.457 488.033C785.97 488.012 794.867 487.431 803.313 488.189C804.165 489.363 803.849 490.138 803.793 491.539C787.698 492.265 771.429 491.898 755.315 491.918C747.463 491.929 738.306 492.871 730.619 491.708C729.846 490.436 730.073 489.655 730.111 488.189Z"/>
	<path fill="#FEFEFE" d="M302.8 508.607C320.896 508.105 339.138 508.508 357.245 508.572C368.052 508.61 379.573 507.882 390.3 508.926C391.266 509.966 391.005 510.271 390.978 511.708C374.454 511.982 357.905 511.701 341.377 511.813C328.778 511.899 315.917 512.561 303.345 511.931C302.403 510.857 302.761 509.986 302.8 508.607Z"/>
	<path fill="#FEFEFE" d="M325.959 459.123C346.58 458.397 367.39 458.906 388.028 458.872C403.55 458.846 419.489 458.059 434.968 458.849C436.352 458.919 437.167 458.676 438.14 459.763L437.878 461.176L436.888 461.855C410.821 462.58 384.614 462.119 358.531 462.222C353.523 462.242 328.567 463.089 325.653 462.105C325.082 460.775 325.476 460.446 325.959 459.123Z"/>
	<path fill="#FEFEFE" d="M759.952 459.574L827.183 459.413C838.611 459.382 850.547 458.636 861.924 459.564C862.801 460.631 862.523 461.703 862.554 463.05C838.099 463.896 813.336 463.091 788.861 463.03C783.849 463.017 764.733 463.774 760.992 462.877C759.787 461.715 760.045 461.202 759.952 459.574Z"/>
	<path fill="#FEFEFE" d="M728.963 621.531L809.575 621.387C815.716 621.386 832.656 620.477 837.731 621.604C838.806 622.72 838.668 623.262 838.861 624.766C819.087 625.522 799.035 624.766 779.227 624.721C762.96 624.683 746.549 625.426 730.306 624.87C729.153 623.927 729.263 622.944 728.963 621.531Z"/>
	<path fill="#FEFEFE" d="M364.667 620.75C371.758 620.694 406.656 619.329 410.087 621.663L410.064 622.521C408.836 623.525 407.66 623.874 406.101 624.029C400.551 624.583 394.419 623.992 388.813 624.033L347.875 624.359C338.228 624.398 310.928 625.626 303.283 623.732L302.842 622.25L302.781 622.26C304.484 621.442 306.035 621.11 307.923 620.959C313.944 620.476 320.358 620.921 326.426 620.903L364.667 620.75Z"/>
	<path fill="#FEFEFE" d="M231.856 649.503C262.904 648.75 294.15 649.493 325.217 649.582C331.198 649.599 357.554 648.84 361.22 650.011C362.208 651.171 362.026 651.253 361.954 652.802L276.837 652.572C263.212 652.553 249.512 652.901 235.908 652.761C234.772 652.749 233.686 652.678 232.705 652.037C231.985 651.566 232.009 650.313 231.856 649.503Z"/>
	<path fill="#FEFEFE" d="M835.444 518.75C840.982 518.746 864.975 517.688 868.204 519.657C868.572 520.794 868.362 520.686 867.866 521.697C865.405 523.551 794.299 522.335 784.875 522.283C779.454 522.253 756.729 523.411 753.005 520.994L752.907 520.197C754.234 519.207 756.16 519.022 757.77 518.924C766.118 518.419 774.765 518.9 783.141 518.885L835.444 518.75Z"/>
	<path fill="#FEFEFE" d="M659.204 650.636L746.557 650.717C760.828 650.683 775.609 649.81 789.828 650.742C790.904 651.779 790.695 652.694 790.863 654.13L686.051 654.114C681.574 654.104 662.88 654.835 660.075 653.949C658.961 652.751 659.23 652.23 659.204 650.636Z"/>
	<path fill="#FEFEFE" d="M566.607 556.351C567.531 556.38 568.961 556.446 569.776 556.916C570.616 557.399 571.089 557.959 571.34 558.887C572.794 564.274 564.246 597.602 560.894 602.194C559.419 604.213 557.574 604.513 555.272 605.072C553.528 604.973 552.011 604.792 550.802 603.507C550.766 602.835 550.733 602.204 550.814 601.533C551.326 597.298 552.469 592.964 553.336 588.78C555.567 578.008 557.509 563.652 566.607 556.351Z"/>
	<path fill="#FEFEFE" d="M338.805 688.467C354.65 688.144 370.572 688.412 386.422 688.578C378.392 692.704 370.569 696.801 363.074 701.865C353.618 708.28 346.233 716.737 338.993 725.445C338.528 713.155 338.735 700.766 338.805 688.467Z"/>
	<path fill="#8CB9E3" d="M691.715 756.465C720.443 755.649 749.315 756.64 778.043 756.934L809.144 757.008C814.374 757.016 819.837 756.715 825.033 757.218C826.646 757.374 827.13 757.418 828.17 758.681C828.525 760.406 828.266 761.673 827.909 763.382C822.053 764.364 815.245 763.782 809.285 763.788L772.319 763.814L722.491 763.969C712.983 764.009 703.115 764.502 693.644 763.715C692.87 761.352 692.336 758.875 691.715 756.465Z"/>
	<path fill="#8CB9E3" d="M198.586 756.474C213.644 756.134 228.785 756.416 243.851 756.404L324.239 756.422C323.626 758.827 322.858 761.185 322.118 763.553C317.557 765.219 282.426 764.297 275.498 764.297C249.974 764.298 224.402 764.64 198.884 764.167C198.599 761.619 198.631 759.036 198.586 756.474Z"/>
	<path fill="#FEFEFE" d="M628.03 689.147C636.457 688.748 645.057 689.016 653.495 689.027C663.812 689.04 674.17 688.871 684.477 689.297C684.524 703.285 685.952 720.305 683.073 733.901L682.697 734.601C680.797 734.217 675.519 724.936 674.028 722.843C663.123 707.533 644.859 696.912 628.03 689.147Z"/>
	<path fill="#8CB9E3" d="M277.94 688.506L335.849 688.484L336.001 730.147C333.535 734.044 331.184 737.886 329.368 742.143C327.874 745.646 326.869 750.125 324.814 753.275L323.125 753.361Q293.42 753.492 263.717 753.173C275.514 741.65 275.967 730.554 276.675 714.834Q277.172 701.663 277.94 688.506Z"/>
	<path fill="#8CB9E3" d="M687.38 689.215L747.103 689.05C747.622 698.091 747.342 707.223 747.32 716.276C747.309 721.026 747.011 726.049 747.763 730.743C749.156 739.442 753.495 747.15 760.708 752.31C761.488 752.868 761.192 752.486 761.562 753.367L760.125 753.547L690.925 753.488L684.888 738.535C688.748 724.095 687.241 704.469 687.38 689.215Z"/>
	<path fill="#FEFEFE" d="M461.591 620.51C489.531 620.22 517.494 620.463 545.437 620.494Q545.587 649.071 545.382 677.648C517.406 677.503 489.359 678.304 461.396 677.598C461.052 658.608 461.262 639.5 461.591 620.51Z"/>
	<path fill="#F37B3F" d="M310.631 883.491C332.238 883.469 353.862 883.115 375.465 883.257L375.506 986.195C375.514 991.629 374.775 1017.14 375.931 1020.96L380.167 1021.15C370.243 1021.89 360.021 1021.47 350.063 1021.47L296.942 1021.47C297.954 1013.58 298.377 1005.56 299.199 997.64Q302.953 964.297 305.811 930.866C307.261 915.105 309.755 899.272 310.631 883.491Z"/>
	<path fill="#F37B3F" d="M640.955 883.64L707.395 883.934C710.077 912.908 714.804 941.771 718.224 970.67L722.134 1004.48C722.739 1009.7 722.846 1016.21 724.449 1021.17L724.42 1021.44C695.388 1020.55 666.117 1022.68 637.115 1021.18C638.652 1021.07 639.519 1021.23 640.763 1020.28C641.244 1015.36 640.935 1010.18 640.936 1005.23L640.932 977.933L640.955 883.64Z"/>
	<path fill="#FEFEFE" d="M318.819 766.736L320.667 766.799C322.077 770.825 315.188 801.442 313.792 807.655Q183.335 808.486 52.875 807.874L50.947 807.709C49.4312 805.423 50.2887 772.801 50.3029 767.427C73.9796 766.599 97.8094 766.977 121.504 766.999L250.597 767.002C273.309 766.973 296.119 767.383 318.819 766.736Z"/>
	<path fill="#8CB9E3" d="M135.636 430.574C137.971 430.432 140.32 430.43 142.659 430.392C167.618 429.988 192.63 430.42 217.596 430.44L348.821 430.327L423.866 430.319C436.327 430.311 450.056 429.389 462.371 430.588C465.834 430.925 469.709 433.076 472.118 435.533C479.997 443.568 477.539 460.016 477.484 470.456C473.31 472.18 469.469 474.346 465.559 476.582C465.51 468.796 467.473 449.463 462.054 444.089C460.33 442.379 457.835 441.414 455.45 441.174C447.191 440.341 438.399 440.974 430.067 440.987L382.311 440.942L211.048 441.131L211.145 611.308L211.115 646.33C211.116 651.523 211.985 658.215 210.788 663.153L210.119 663.393C208.996 660.672 209.738 618.906 209.743 611.232Q209.943 559.053 209.57 506.874C209.573 484.976 210.142 462.922 209.39 441.048L147.877 441.001C144.782 440.934 141.019 440.535 138.143 441.833C136.61 442.525 135.215 443.697 134.65 445.319C132.341 451.947 133.899 518.156 133.881 529.859L133.672 620.599C133.661 635.234 133.35 649.947 133.732 664.574C133.798 667.101 133.791 670.034 134.871 672.356C136.211 673.558 137.398 673.922 139.17 674.039C147.273 674.577 155.903 673.895 164.067 673.874L219.185 673.769L404.344 673.593C411.607 673.634 452.583 673.059 456.722 674.35C458.052 674.765 458.444 675.074 459.034 676.308C458.898 676.498 458.814 676.739 458.627 676.879C457.668 677.595 419.991 679.474 415.033 680.12C408.969 680.909 403.334 682.514 397.473 684.165C386.977 687.123 361.075 685.517 348.456 685.515L263.883 685.471L179.146 685.469C165.77 685.458 152.111 686.156 138.78 685.404C134.843 685.182 131.109 684.463 127.664 682.434C123.724 680.114 121.891 677.515 120.823 673.101C118.75 664.537 120.039 653.7 120.071 644.853L120.179 597.496L120.137 498.937C120.138 482.071 119.641 465.017 120.324 448.171C120.468 444.601 120.69 441.33 122.657 438.226C125.619 433.551 130.492 431.717 135.636 430.574Z"/>
	<path fill="#FEFEFE" d="M694.749 766.714L829.346 766.618Q901.018 766.334 972.689 766.851C972.946 780.528 973.731 795.163 972.442 808.75L703.792 809.25C700.236 795.282 697.776 780.821 694.749 766.714Z"/>
	<path fill="#8CB9E3" d="M546.237 480.376C546.153 470.55 544.951 452.77 546.854 444.035C547.577 440.716 549.154 437.454 551.518 434.993C554.801 431.574 558.847 430.43 563.447 430.243C583.377 429.434 603.612 430.192 623.572 430.147L752.809 430.008L843.872 429.981C858.216 429.983 873.102 428.961 887.362 430.05C891.516 430.367 895.609 431.642 898.647 434.616C902.387 438.278 903.288 442.602 903.439 447.601C903.926 463.69 903.462 479.947 903.469 496.051L903.579 590.829L903.689 644.277C903.713 653.421 904.467 663.157 903.469 672.211C903.061 675.908 901.515 678.874 898.904 681.525C895.972 684.501 892.998 685.608 888.914 686.009C875.995 687.275 862.231 686.381 849.235 686.394L772.594 686.347L677.382 686.306C659.843 686.357 641.936 687.178 624.453 686.315C615.518 685.874 606.841 681.234 597.917 679.752C581.62 677.046 564.331 677.974 547.857 677.935C547.989 666.935 546.243 613.251 549.88 606.766C553.261 608.116 555.899 607.534 559.413 607.12C559.461 614.024 559.081 671.759 560.183 672.767C561.628 674.087 564.851 674.199 566.765 674.321C574.246 674.8 582.003 674.095 589.514 674.035L634.501 673.944L634.668 568.618L634.501 490.237C634.491 481.615 633.547 463.424 634.818 455.945L635.883 455.504L634.787 456.06L636.054 455.752C636.584 457.009 636.909 457.976 636.948 459.348C637.317 472.501 636.937 485.774 636.952 498.939L637.019 581.915L637.02 642.147C637.024 652.773 637.458 663.563 636.905 674.162C644.481 673.089 653.253 673.887 660.983 673.875L710.248 673.769L888.488 673.745L888.165 516.778L888.302 472.347C888.33 463.931 889.095 454.652 887.693 446.362C887.539 445.457 887.438 443.603 886.682 442.988C884.945 441.575 881.708 441.558 879.577 441.527C852.756 441.134 825.848 441.558 799.015 441.525L670.776 441.073L602.31 441.04C590.072 441.048 577.154 440.195 565.028 441.633C563.98 442.29 562.984 442.987 562.088 443.847C560.826 445.059 560.188 446.464 559.881 448.174C558.849 453.917 559.405 460.382 559.427 466.215L559.506 497.486C555.811 490.986 551.521 485.657 546.237 480.376Z"/>
	<path fill="#FEFEFE" d="M129.485 810.891L312.791 810.866C311.925 819.554 310.02 828.256 308.473 836.851L302.662 870.464C288.066 857.027 270.862 849.447 250.749 850.364C232.272 851.206 216.42 858.364 203.923 872.066C195.22 881.61 189.238 894.153 188.312 907.102C187.869 913.3 187.96 919.506 186.377 925.559C181.421 944.506 163.494 957.732 144.278 958.804C139.385 959.077 134.47 959.118 129.572 959.341L129.634 925.526C129.641 919.389 130.048 912.914 129.414 906.823L129.485 810.891Z"/>
	<path fill="#FEFEFE" d="M704.312 812.084L895.879 811.743L895.7 959.585C889.368 959.395 883.011 959.858 876.685 959.62C856.651 958.864 837.211 945.073 832.243 925.227C830.801 919.466 830.952 913.406 830.556 907.512C829.58 892.977 824.093 879.977 814.17 869.276Q813.099 868.122 811.972 867.023Q810.846 865.923 809.666 864.88Q808.487 863.837 807.258 862.854Q806.028 861.87 804.752 860.948Q803.476 860.026 802.156 859.168Q800.836 858.31 799.475 857.518Q798.115 856.727 796.717 856.003Q795.319 855.279 793.887 854.624Q792.455 853.97 790.993 853.387Q789.53 852.804 788.041 852.293Q786.552 851.783 785.039 851.346Q783.527 850.91 781.994 850.549Q780.462 850.187 778.914 849.901Q777.366 849.616 775.805 849.407Q774.245 849.198 772.676 849.066Q771.107 848.934 769.534 848.879C746.195 848.137 732.57 856.793 716.103 872.195Q710.044 842.171 704.312 812.084Z"/>
	<path fill="#8CB9E3" d="M499.831 468.193C501.613 468.025 503.39 467.97 505.18 467.964C520.578 467.912 536.359 473.972 547.293 484.977C565.833 503.635 564.233 530.771 564.274 555.072C561.258 557.838 559.032 560.635 557.261 564.334C551.552 576.254 547.365 603.438 545.073 617.468L503.75 617.495L460.993 617.502C447.842 601.097 440.749 570.352 438.605 549.235C436.541 528.898 437.927 508.669 451.451 492.348C463.412 477.914 481.389 469.976 499.831 468.193Z"/>
	<path fill="#8CB9E3" d="M129.572 959.341C134.47 959.118 139.385 959.077 144.278 958.804C163.494 957.732 181.421 944.506 186.377 925.559C187.96 919.506 187.869 913.3 188.312 907.102C189.238 894.153 195.22 881.61 203.923 872.066C216.42 858.364 232.272 851.206 250.749 850.364C270.862 849.447 288.066 857.027 302.662 870.464Q301.588 876.967 300.144 883.399C302.726 883.463 305.312 883.562 307.895 883.576L298.976 973C297.454 988.306 294.408 1006.34 294.411 1021.53L129.14 1021.67L129.151 955.899C129.075 939.673 128.471 923.009 129.414 906.823C130.048 912.914 129.641 919.389 129.634 925.526L129.572 959.341Z"/>
	<path fill="#8CB9E3" d="M716.103 872.195C732.57 856.793 746.195 848.137 769.534 848.879Q771.107 848.934 772.676 849.066Q774.245 849.198 775.805 849.407Q777.366 849.616 778.914 849.901Q780.462 850.187 781.994 850.549Q783.526 850.91 785.039 851.347Q786.552 851.783 788.041 852.293Q789.53 852.804 790.993 853.387Q792.455 853.97 793.887 854.624Q795.319 855.279 796.717 856.003Q798.115 856.727 799.475 857.518Q800.836 858.31 802.156 859.168Q803.476 860.026 804.752 860.948Q806.028 861.87 807.258 862.854Q808.487 863.837 809.666 864.88Q810.846 865.923 811.972 867.023Q813.099 868.122 814.17 869.276C824.093 879.977 829.58 892.977 830.556 907.512C830.952 913.406 830.801 919.466 832.243 925.227C837.211 945.073 856.651 958.864 876.685 959.62C883.011 959.858 889.368 959.395 895.7 959.585Q895.431 990.518 895.679 1021.45C889.021 1020.54 881.827 1021.01 875.101 1021.02L841.313 1021.04C802.409 1021 763.3 1020.33 724.42 1021.44L724.449 1021.17C725.212 1021.1 725.563 1021 726.251 1020.72C728.209 1015.09 711.592 901.696 710.62 884.065L717.979 883.966Q717.235 878.05 716.103 872.195Z"/>
	<path fill="#FEFEFE" d="M450.305 680.712C457.309 680.271 464.504 680.58 471.524 680.578L511.75 680.584L556.806 680.706C571.286 680.785 586.03 680.327 600.282 683.257C618.459 686.993 637.57 695.464 652.702 706.288C665.831 715.679 675.98 728.251 682.941 742.796C694.382 766.698 698.806 799.252 704.058 825.505C707.75 843.965 711.964 862.482 715.065 881.038C690.401 881.005 665.688 881.137 641.031 880.682C640.923 855.501 643.698 834.214 624.125 814.634C607.598 798.103 591.718 798.959 570.25 799.062L442.969 799.062C422.244 799.097 406.725 799.531 391.234 815.25C372.67 834.086 375.288 856.251 375.376 880.474L303.993 880.533C307.094 857.67 311.929 834.896 316.123 812.201C320.147 790.432 322.658 766.993 330.789 746.323C334.712 736.351 340.938 727.157 348.092 719.218C362.977 702.698 387.601 687.977 409.558 683.878C422.739 681.417 436.918 681.463 450.305 680.712Z"/>
</svg>
